<?xml version="1.0" encoding="UTF-8"?><svg id="Capa_2" xmlns="http://www.w3.org/2000/svg" viewBox="0 0 48.34 48.33"><defs><style>.cls-1{fill:#fff;}</style></defs><g id="Capa_1-2"><path class="cls-1" d="M44.9,48.33c-.93,0-1.8-.36-2.45-1L24.18,29.06,5.9,47.33c-.65,.65-1.51,1-2.45,1s-1.8-.36-2.45-1c-1.35-1.35-1.35-3.54,0-4.89L19.28,24.17,1.01,5.89C.36,5.24,0,4.37,0,3.45S.36,1.65,1.01,1C1.66,.36,2.53,0,3.46,0s1.8,.36,2.45,1L24.18,19.27,42.45,1c.65-.65,1.51-1,2.45-1s1.8,.36,2.45,1c.65,.65,1,1.51,1,2.45s-.36,1.8-1,2.45L29.07,24.17l18.27,18.27c.65,.65,1,1.51,1,2.45s-.36,1.8-1,2.45-1.51,1-2.45,1Z"/></g></svg>