<?xml version="1.0" encoding="UTF-8"?><svg id="Capa_2" xmlns="http://www.w3.org/2000/svg" xmlns:xlink="http://www.w3.org/1999/xlink" viewBox="0 0 114.21 114.21"><defs><style>.cls-1{clip-path:url(#clippath);}.cls-2{stroke:#cb0d1c;stroke-miterlimit:171.43;stroke-width:8.46px;}.cls-2,.cls-3{fill:none;}.cls-4{fill:#fff;}.cls-5{fill:#fecd0f;}.cls-6{fill:#202454;}.cls-3{stroke:#fff;stroke-miterlimit:10;stroke-width:2px;}</style><clipPath id="clippath"><circle class="cls-3" cx="57.11" cy="57.11" r="56.11" transform="translate(-11.59 99.56) rotate(-76.72)"/></clipPath></defs><g id="Capa_1-2"><g><g class="cls-1"><g><g><path class="cls-4" d="M-2.68-2.26H234.2V116.18H-2.68V-2.26Z"/><path class="cls-2" d="M5.78,1.97H234.2m0,16.92H5.78m0,16.92H234.2m0,16.92H5.78"/><path class="cls-6" d="M-2.68-2.26H115.76V69.65H-2.68V-2.26Z"/><path class="cls-2" d="M-2.68,69.65H234.2m0,16.92H-2.68m0,16.92H234.2"/></g><path class="cls-5" d="M71.35,10.43l1.89,12.9,7.3-10.8-3.91,12.44,11.26-6.57-8.92,9.52,13.01-1.04-12.16,4.71,12.16,4.71-13.01-1.04,8.92,9.52-11.26-6.57,3.91,12.44-7.3-10.8-1.89,12.9-1.89-12.9-7.3,10.8,3.91-12.44-11.26,6.57,8.92-9.52-13.01,1.04,12.16-4.71-12.16-4.71,13.01,1.04-8.92-9.52,11.26,6.57-3.91-12.44,7.3,10.8,1.89-12.9Zm-10.58,.53c-11.39-5.05-24.72,.08-29.77,11.47-5.05,11.39,.08,24.72,11.47,29.77,5.83,2.58,12.47,2.58,18.3,0-11.39,8.17-27.25,5.56-35.42-5.83-8.17-11.39-5.56-27.25,5.83-35.42,8.84-6.35,20.75-6.35,29.59,0Z"/></g></g><circle class="cls-3" cx="57.11" cy="57.11" r="56.11" transform="translate(-11.59 99.56) rotate(-76.72)"/></g></g></svg>