<?xml version="1.0" encoding="UTF-8"?><svg id="Capa_2" xmlns="http://www.w3.org/2000/svg" xmlns:xlink="http://www.w3.org/1999/xlink" viewBox="0 0 114.21 114.21"><defs><style>.cls-1{clip-path:url(#clippath);}.cls-2{fill:#fff;}.cls-3{fill:#fdd21a;}.cls-4{fill:#ce1427;}.cls-5{fill:#254292;}.cls-6{fill:none;stroke:#fff;stroke-miterlimit:10;stroke-width:2px;}</style><clipPath id="clippath"><circle class="cls-6" cx="57.11" cy="57.11" r="56.11" transform="translate(-12.5 98.06) rotate(-75.47)"/></clipPath></defs><g id="Capa_1-2"><g><g class="cls-1"><g><rect class="cls-5" x="-.7" y="-.71" width="231.31" height="115.66"/><rect class="cls-4" x="-.7" y="57.12" width="231.31" height="57.83"/><path class="cls-2" d="M99.46,57.12L-.7,114.95V-.71"/><path class="cls-3" d="M5.08,9.31l3.48,3.01,4.03-2.22-1.79,4.24,3.36,3.15-4.58-.39-1.96,4.16-1.05-4.48-4.57-.57,3.94-2.38-.86-4.52Z"/><path class="cls-3" d="M83.46,51.01l.09,4.6,4.35,1.51-4.35,1.51-.09,4.6-2.78-3.67-4.4,1.33,2.63-3.78-2.63-3.78,4.4,1.33,2.78-3.67Z"/><path class="cls-3" d="M7.62,92.98l1.96,4.16,4.58-.39-3.36,3.15,1.79,4.24-4.03-2.22-3.48,3.01,.86-4.52-3.94-2.38,4.57-.57,1.05-4.48Z"/><path class="cls-3" d="M35.28,32.7l-1.5,1.5,.74,11.37c-.25,.02-.5,.04-.75,.07l-1.37-10.38-1.23,1.23,1.84,9.28c-1.52,.3-2.93,.9-4.17,1.73l-5.25-7.86h-1.73l6.37,8.31c-.2,.15-.39,.31-.58,.48l-7.52-8.57h-2.12v2.12l8.57,7.52c-.17,.19-.33,.38-.48,.58l-8.31-6.37v1.73l7.87,5.26c-.83,1.24-1.43,2.65-1.73,4.17l-9.28-1.84-1.23,1.23,10.38,1.37c-.03,.25-.06,.5-.07,.75l-11.37-.74-1.5,1.5,1.5,1.5,11.37-.74c.02,.25,.04,.51,.07,.75l-10.38,1.37,1.23,1.23,9.28-1.84c.3,1.52,.9,2.93,1.73,4.17l-7.86,5.25v1.73l8.31-6.37c.15,.2,.31,.39,.48,.58l-8.57,7.52v2.12h2.12l7.52-8.57c.19,.17,.38,.33,.58,.48l-6.37,8.31h1.73l5.26-7.87c1.24,.83,2.65,1.43,4.17,1.73l-1.84,9.28,1.23,1.23,1.37-10.38c.25,.03,.5,.06,.75,.07l-.74,11.37,1.5,1.5,1.5-1.5-.74-11.37c.25-.02,.5-.04,.75-.07l1.37,10.38,1.23-1.23-1.84-9.28c1.52-.3,2.93-.9,4.17-1.73l5.25,7.86h1.73l-6.37-8.31c.2-.15,.39-.31,.58-.48l7.52,8.57h2.12v-2.12l-8.57-7.52c.17-.19,.33-.38,.48-.58l8.31,6.37v-1.73l-7.87-5.26c.83-1.24,1.43-2.65,1.73-4.17l9.28,1.84,1.23-1.23-10.38-1.37c.03-.25,.06-.5,.07-.75l11.37,.74,1.5-1.5-1.5-1.5-11.37,.74c-.02-.25-.04-.5-.07-.75l10.38-1.37-1.23-1.23-9.28,1.84c-.3-1.52-.9-2.93-1.73-4.17l7.86-5.25v-1.73l-8.31,6.37c-.15-.2-.31-.39-.48-.58l8.57-7.52v-2.12h-2.12l-7.52,8.57c-.19-.17-.38-.33-.58-.48l6.37-8.31h-1.73l-5.26,7.87c-1.24-.83-2.65-1.43-4.17-1.73l1.84-9.28-1.23-1.23-1.37,10.38c-.25-.03-.5-.06-.75-.07l.74-11.37-1.5-1.5Z"/></g></g><circle class="cls-6" cx="57.11" cy="57.11" r="56.11" transform="translate(-12.5 98.06) rotate(-75.47)"/></g></g></svg>