<?xml version="1.0" encoding="UTF-8"?><svg id="Capa_2" xmlns="http://www.w3.org/2000/svg" xmlns:xlink="http://www.w3.org/1999/xlink" viewBox="0 0 114.21 114.21"><defs><style>.cls-1,.cls-2,.cls-3,.cls-4{fill:#f8c83d;}.cls-1,.cls-3{stroke-width:.06px;}.cls-1,.cls-3,.cls-4{stroke:#987d2f;}.cls-1,.cls-5{stroke-linecap:round;stroke-linejoin:round;}.cls-6{clip-path:url(#clippath);}.cls-7{fill:#f7e20b;}.cls-8,.cls-9{fill:#f9c83a;}.cls-10{fill:#026847;}.cls-11{fill:#05534e;}.cls-12{fill:#fdcb3e;}.cls-13,.cls-14{fill:#fff;}.cls-15{fill:#f2a823;}.cls-16{fill:#fdf4da;}.cls-17{fill:#fdeaaf;}.cls-18{fill:#80401c;}.cls-19{fill:#816d2a;}.cls-20{fill:#6c4119;}.cls-21{fill:#6c3f18;}.cls-22{fill:#987d2f;}.cls-23{fill:#016848;}.cls-24{fill:#874f1f;}.cls-25,.cls-26{fill:#8b441e;}.cls-27{fill:#9da168;}.cls-28{fill:#91481f;}.cls-29,.cls-30{fill:#8dbfc0;}.cls-31{fill:#8f461f;}.cls-32{fill:#b3722a;}.cls-33{fill:#ab8d30;}.cls-34,.cls-35{fill:#ab6d29;}.cls-36{fill:#b1732a;}.cls-37{fill:#bf812d;}.cls-38{fill:#cc2329;}.cls-39{fill:#ce1427;}.cls-40{fill:#d2a566;}.cls-41{fill:#b0712a;}.cls-42{fill:#c6c7a7;}.cls-43{fill:#dbae6d;}.cls-44{fill:#e42c37;}.cls-45{fill:#a8ac71;}.cls-46{fill:#1e2121;}.cls-47{fill:#231f20;}.cls-48{fill:#202220;}.cls-49{fill:#202020;}.cls-50{fill:#414218;}.cls-51,.cls-52{fill:#0f8489;}.cls-53{fill:#1d2430;}.cls-54{fill:#6f5b25;}.cls-55{fill:#463a2e;}.cls-56{fill:#5d3b1e;}.cls-57{fill:#5d3919;}.cls-58{fill:#322317;}.cls-59{fill:#4c423a;}.cls-60{fill:#78732e;}.cls-61{fill:#4e2b16;}.cls-62{fill:#523726;}.cls-63{stroke:#78732e;}.cls-63,.cls-64{stroke-width:.06px;}.cls-63,.cls-64,.cls-65,.cls-4,.cls-14,.cls-66{stroke-miterlimit:4.67;}.cls-63,.cls-67{fill:none;}.cls-68{fill:url(#Degradado_sin_nombre_3-3);}.cls-69{fill:url(#Degradado_sin_nombre_3-2);}.cls-9{stroke:#8f461f;stroke-width:.08px;}.cls-64,.cls-65{fill:#fdcb40;stroke:#ab8d30;}.cls-52,.cls-30{stroke:#05534e;}.cls-52,.cls-30,.cls-5{stroke-width:.11px;}.cls-67{stroke:#fff;stroke-miterlimit:10;stroke-width:2px;}.cls-65,.cls-4{stroke-width:.07px;}.cls-26{stroke:#5d3b1e;stroke-width:.01px;}.cls-70{fill:url(#Degradado_sin_nombre_3);}.cls-14{stroke-width:.26px;}.cls-14,.cls-66{stroke:#0a72a8;}.cls-66{fill:#40bcd6;stroke-width:.13px;}.cls-5{fill:#f6aa53;stroke:#953220;}.cls-35{stroke:#4e2b16;stroke-width:.08px;}</style><clipPath id="clippath"><circle class="cls-67" cx="57.11" cy="57.11" r="56.11" transform="translate(-12.5 98.06) rotate(-75.47)"/></clipPath><radialGradient id="Degradado_sin_nombre_3" cx="8724.4" cy="-211.52" fx="8724.4" fy="-211.52" r="4.19" gradientTransform="translate(577.51 -1819.28) rotate(104.25) scale(.22 -.22) skewX(-.58)" gradientUnits="userSpaceOnUse"><stop offset="0" stop-color="#fff"/><stop offset="1" stop-color="#e85771"/></radialGradient><radialGradient id="Degradado_sin_nombre_3-2" cx="-7229.26" cy="-10253.55" fx="-7229.26" fy="-10253.55" r="4.19" gradientTransform="translate(-1322.69 -2210.84) rotate(-68.17) scale(.22 -.21) skewX(-.14)" xlink:href="#Degradado_sin_nombre_3"/><radialGradient id="Degradado_sin_nombre_3-3" cx="15647.27" cy="3590.31" fx="15647.27" fy="3590.31" r="4.19" gradientTransform="translate(-679.57 -1762.08) rotate(92.14) scale(.12 -.23) skewX(-1.6)" xlink:href="#Degradado_sin_nombre_3"/></defs><g id="Capa_1-2"><g><g class="cls-6"><g><path class="cls-39" d="M-15.62-6.33H130.1V118.03H-15.62V-6.33Z"/><path class="cls-13" d="M-15.62-6.33H81.53V118.03H-15.62V-6.33Z"/><path class="cls-10" d="M-15.62-6.33H32.96V118.03H-15.62V-6.33Z"/></g><g><path class="cls-65" d="M65.97,71.42l.06,1.11,.42-.28-.32-.92-.15,.08Z"/><circle class="cls-64" cx="65.92" cy="71.12" r=".36"/><path class="cls-65" d="M67.3,73.16l-.81-.78-.37,.29,1.11,.64,.07-.16Z"/><path class="cls-64" d="M67.23,73.59c-.12-.15-.08-.38,.08-.5,.16-.12,.39-.1,.5,.05,.11,.15,.08,.38-.08,.5-.16,.12-.39,.1-.5-.06Z"/><path class="cls-65" d="M73.56,61.52l.83,.83,.1-.42-.76-.51-.17,.1Z"/><circle class="cls-64" cx="73.45" cy="61.3" r=".35"/><path class="cls-65" d="M75.76,62.01l-1.27,.36,.1-.42,1.1-.11,.07,.16Z"/><circle class="cls-64" cx="75.96" cy="61.83" r=".34"/><path class="cls-65" d="M71.47,68.29l-.78-1.21,.13-.06,.88,1.04-.23,.23Z"/><circle class="cls-64" cx="70.62" cy="66.8" r=".36"/><path class="cls-65" d="M71.52,68.32l.99,.18,.04-.14-.83-.33-.2,.28Z"/><circle class="cls-64" cx="72.81" cy="68.51" r=".36"/><path class="cls-64" d="M48.29,71.08c0,.17-.14,.29-.26,.29s-.23-.14-.23-.31,.1-.31,.23-.31,.26,.16,.26,.33h0Z"/><path class="cls-65" d="M48.29,71.63l.23,1.24-.3-.12-.11-1.08,.18-.04Z"/><path class="cls-64" d="M48.56,71.21c.15,.19-.1,.48-.36,.55-.26,.07-.59-.05-.58-.29,0-.27,.38-.13,.48-.16,.16-.05,.31-.3,.46-.1h0Z"/><ellipse class="cls-64" cx="46.39" cy="73.12" rx=".39" ry=".28"/><path class="cls-65" d="M47.05,73.05l1.19-.06-.2-.24-.98,.11v.19Z"/><path class="cls-64" d="M47.15,72.91c.1,.3,.11,.71-.23,.67-.34-.04-.27-.35-.3-.46-.05-.21-.25-.4-.04-.61,.2-.21,.47,.1,.58,.4Z"/><ellipse class="cls-64" cx="43.26" cy="66.39" rx=".23" ry=".36"/><path class="cls-65" d="M43.26,67.18l.03,1.16-.3-.27,.02-.92,.25,.04Z"/><path class="cls-64" d="M43.71,66.83c.06,.27-.33,.42-.6,.37-.27-.05-.47-.19-.43-.43,.04-.25,.37-.19,.48-.12,.11,.07,.46-.19,.54,.19h0Z"/><ellipse class="cls-64" cx="41.22" cy="68.2" rx=".4" ry=".18"/><path class="cls-65" d="M41.94,68.2l.91-.06,.39,.3-1.31-.05v-.19Z"/><path class="cls-64" d="M41.61,67.71c.25,0,.41,.28,.38,.56-.03,.29-.26,.52-.48,.48-.23-.04-.21-.23-.2-.28,0-.06,.13-.16,.15-.25,.01-.09-.06-.3-.04-.39,.03-.1,.09-.12,.2-.12Zm-.73-7.04c-.1,.16-.29,.28-.39,.22-.1-.06-.06-.29,.04-.45,.1-.16,.26-.24,.36-.18,.1,.06,.09,.25,0,.41h0Z"/><path class="cls-65" d="M39.87,62.49l.51-1.19-.08-.07-.57,.84,.14,.42Z"/><path class="cls-64" d="M40.28,61.3c-.25-.18-.31-.37-.23-.56,.08-.19,.27-.07,.27-.07,0,0,.12,.14,.21,.19,.09,.05,.24-.02,.34,.14,.11,.15,.04,.31-.04,.34-.09,.04-.35,.11-.56-.04h0Zm-2.11-.16c.18,.1,.28,.28,.21,.39-.06,.11-.26,.12-.44,.02-.18-.1-.28-.28-.21-.39,.06-.11,.26-.12,.44-.02Z"/><path class="cls-65" d="M38.7,61.66l.94,.56-.03,.44-1.02-.87,.11-.13Z"/><path class="cls-64" d="M38.69,61.77c-.21,.23-.4,.27-.57,.16-.17-.1-.03-.28-.03-.28,0,0,.15-.11,.21-.2,.06-.09,.01-.24,.17-.33,.16-.09,.3,0,.33,.08,.03,.09,.07,.36-.11,.56h0Z"/></g><g><path class="cls-33" d="M66.17,71.5s-.07,.05-.11,.12c-.04,.07-.08,.22-.08,.22v-.36s.13-.07,.13-.07l.06,.09h0Z"/><path class="cls-33" d="M66.23,71.28s-.08,.14-.28,.13c-.2-.01-.3-.1-.32-.2-.02-.1-.02-.17,.04-.29,.06-.12-.09,.11-.09,.11v.22l.15,.17,.12,.04h.12s.16-.04,.16-.04l.1-.08v-.06Zm1.05,1.83s-.1,.05-.18,.02c-.47-.17-.86-.44-.86-.44l.94,.59,.1-.17Zm.59,.27s-.01,.16-.19,.25c-.18,.08-.31,.04-.38-.03-.07-.08-.1-.14-.1-.28,0-.13-.03,.14-.03,.14l.1,.2,.21,.09,.13-.02,.11-.05,.12-.12,.06-.12-.02-.05Zm6.03-11.82s-.02,.04-.02,.1,0,.17,0,.17l-.21-.23,.1-.14,.13,.09Zm-.11-.3c.01,.16-.23,.4-.4,.32-.18-.07-.31-.26-.21-.44,.1-.18-.05,.07-.05,.07l.02,.27,.17,.16h.21s.17-.08,.17-.08l.1-.18v-.11Zm2.49,.45s-.04-.11-.02,.01c.02,.13-.14,.4-.33,.37-.19-.02-.28-.19-.26-.34,.02-.15-.03,.05-.03,.05l.03,.21,.1,.1,.15,.09,.17-.03,.15-.1,.07-.14v-.1l-.02-.11Z"/><path class="cls-33" d="M73.14,68.45c.06,.22-.14,.43-.39,.35-.25-.07-.32-.32-.24-.46l-.06,.16,.05,.21,.15,.13,.16,.03,.16-.04,.16-.16,.04-.19-.03-.05Zm-24.6,2.77c.07,.08-.04,.36-.32,.47-.28,.11-.42,0-.5-.09-.08-.1-.07-.2-.07-.2l-.04,.05,.04,.15,.14,.12,.25,.05,.19-.04,.18-.1,.09-.1,.08-.12v-.15s-.04-.07-.04-.07h-.02s0,0,0,0Z"/><path class="cls-33" d="M48.29,71.84s-.05,.02-.09,.09c-.04,.07-.06,.2-.06,.2l-.02-.33,.15-.08,.03,.13Zm-.94,1s-.03,.07,.05,.11c.08,.04,.25,.08,.25,.08l-.46,.02-.05-.18,.21-.03Zm-.16,.29s0,.02,0,.05c0,.03,0,.08-.04,.13-.05,.11-.08,.25-.24,.21-.17-.03-.24-.16-.25-.27-.02-.11-.05-.15-.05-.15v.15l.1,.25,.17,.08h.15l.11-.04,.05-.15,.03-.12-.03-.13Z"/><path class="cls-33" d="M46.03,73.09s.05,.21,.29,.22c.24,0,.3-.07,.3-.07l.03,.08-.09,.04-.21,.02-.18-.04-.08-.06-.06-.11v-.09Zm-2.34-6.31s0,.02,0,.1c-.02,.08-.16,.26-.43,.27-.27,0-.38-.09-.46-.18-.07-.09-.08-.22-.08-.22v.13s.1,.17,.1,.17l.27,.13h.25s.26-.07,.26-.07l.11-.13,.03-.14-.03-.07h0Zm-.43,.57s-.1,0-.15,.05c-.05,.04-.09,.1-.09,.1v-.32s.24,.02,.24,.02v.16Zm-1.16,.85s-.02,.02,.12,.08c.14,.06,.78,.13,.78,.13l-1.02-.03,.04-.17h.09Zm-.12,0s0,.04-.05,.14c-.05,.1-.18,.38-.39,.34-.22-.04-.19-.19-.19-.21s0-.08,0-.08l-.04,.16,.05,.11,.09,.06,.18,.02,.12-.05,.13-.12,.07-.13,.05-.14v-.09Zm-.56,.03s0,.05-.18,.05c-.17,0-.41-.07-.41-.07l.08,.1,.14,.04h.17s.14-.01,.14-.01l.05-.11Zm-.52-7.18s.04,.11-.06,.18c-.1,.07-.31,.11-.44,.04-.13-.08-.38-.32-.38-.32l.11,.2,.18,.15,.25,.07,.24-.04,.11-.09,.03-.08-.04-.11Z"/><path class="cls-33" d="M40.18,61.4s0,.03,0,.14c0,.11-.05,.29-.05,.29l.22-.48-.09-.08-.08,.13Zm-1.33,.38s-.03-.03,.03,.11c.06,.14,.59,.65,.59,.65l-.84-.71,.1-.14,.12,.09h0Zm-.28,.08s-.11,.07-.2,.07c-.1,0-.26,0-.28-.12-.02-.11,.03-.16,.03-.16l-.07,.16,.03,.09,.12,.07,.17,.02,.16-.08,.04-.04h0Zm-.34-.36s.01,.03-.15,.01c-.16-.02-.34-.2-.34-.2l.12,.2,.26,.11,.1-.11Z"/></g><path class="cls-27" d="M53.78,75.25s.1-.28,.78-.61c.68-.33,1.7-.78,1.79-.72,.1,.06-.05,.43-.05,.43l-.66,.2-.52,.31-.61,.4h-.73Z"/><path class="cls-13" d="M55.7,76.74s-.16-.17-.37-.28c-.21-.11-.28-.08-.28-.08l-.1-.03,.18-.48,1.38-1.32,.21-1.33h.05s.8,0,.8,0v1.81s.25,.11,.25,.11l1.54,.92v.4s-.08,.03-.23,.09c-.15,.06-.19,.1-.19,.1l-.58,.05-1.02-.74-.42-.44-.77,.98-.47,.23h0Z"/><path class="cls-23" d="M56.78,73.22s-.02,.07-.03,.27c-.01,.2,.01,1.27-.04,1.42-.05,.15-.8,.45-1.22,.82-.42,.37-.44,.64-.44,.64,0,0-.14,.01-.4,.11-.26,.1-.38,.25-.38,.25,0,0,.16-.66,.84-1.27,.69-.61,1.02-.66,1.1-.77,.08-.1,0-1.27,.02-1.37,.02-.09,.1-.1,.16-.11,.06,0,.4,0,.4,0h0Zm1.76,3.91s.11-.21,.18-.28c.07-.07,.24-.19,.24-.19,0,0,.03-.03-.35-.19-.38-.16-.57-.11-.84-.3-.27-.19-.54-.52-.54-.52l-.36,.32s.22,.31,.42,.5c.2,.2,.67,.26,.87,.38,.2,.11,.38,.28,.38,.28h0Z"/><path class="cls-38" d="M57.46,73.21s.41-.02,.46,.04c.06,.06,.05,.13,.05,.15,0,.02,.02,.99-.05,1.31-.08,.33-.25,.66-.34,.76-.1,.1-.71,.63-1,.92-.29,.28-.59,.69-.59,.69,0,0-.11-.12-.2-.24-.09-.11-.18-.15-.16-.23,.02-.08,.33-.53,.82-.86,.49-.32,.9-.69,.99-1.21,.09-.52,.02-1.34,.02-1.34h0Z"/><path class="cls-38" d="M60.18,76.52s-.1-.1-.44-.1c-.35,0-.37,.05-.37,.05,0,0-.19-.24-.49-.44-.31-.2-.53-.17-.86-.39-.33-.22-.5-.53-.5-.53l.25-.51s.28,.4,.57,.61c.29,.22,.94,.43,1.15,.61,.21,.18,.7,.7,.7,.7h0Z"/><g><path class="cls-66" d="M63.28,70.65s-.89-.34-.82-.66c.06-.31,2.05-.83,2.05-.83l.03-.52s-.29-.02-.79,.15-1.29,.38-2.14,.38c-.52,0-.8-.05-.94-.1-.09-.03-7-.43-7.22-.43-.1,0-.22,0-.38-.01-.92-.07-1.51-1.47-1.51-1.47l-.44,.08s.13,.69-.1,.75c-.45,.12-3.45-1.48-3.45-1.48l-.17,.65s1.83,.98,1.78,1.35c-.06,.36-.6,.34-.6,.34l.23,.44c.08,0,3.02,.15,3.07,1.03,.02,.36-.72,.57-.72,.57l.25,.3v.15s1.63,0,2.08,.26c.45,.25,.68,.62,1.24,.93,.55,.32,4.31,.24,4.89,.08,.66-.19,1.07-.94,2.15-1.27,1.08-.33,1.43-.34,1.43-.34l.08-.33Z"/><circle class="cls-14" cx="48.26" cy="69.25" r=".52"/><circle class="cls-14" cx="51.23" cy="66.83" r=".52"/><circle class="cls-14" cx="63.67" cy="70.7" r=".53"/><path class="cls-2" d="M45.93,66.05c-.17,.39,.5,1.14,.97,1.22,.47,.08,.73-.03,.81-.26,.08-.23,.02-.48-.09-.62-.3-.4-1.52-.73-1.69-.34h0Z"/><path class="cls-13" d="M47.4,66.65c-.01-.24-.4-.47-.65-.47s-.5,0-.46,.12c.04,.13,.69,.3,.7,.38,.02,.07-.19,.16-.09,.26,.1,.1,.23,.02,.34-.05s.17-.1,.16-.25Z"/><path class="cls-2" d="M51.53,71.13c.11,.35-.16,.51-.51,.67-.35,.16-1.06,.06-1.22-.21-.16-.28,.26-.73,.69-.83,.43-.11,.94,.07,1.04,.38Z"/><path class="cls-13" d="M50.82,71.33c.14-.02,.14,.21,.26,.19,.12-.02,.23-.21,.19-.34-.03-.13-.26-.31-.45-.29-.19,.02-.77,.5-.7,.63,.06,.13,.19,.11,.3,.07,.1-.05,.26-.22,.4-.25Z"/><path class="cls-2" d="M64.34,69.34c.31,.42,.88,.03,1.03-.13,.15-.16,.61-.43,.42-.7-.19-.27-.51-.25-.73-.24-.22,.01-.66,.33-.73,.47-.08,.15-.14,.42,0,.6h0Z"/><path class="cls-13" d="M64.44,69.06s.03-.46,.45-.47c.24-.01,.25,.07,.44,.17,.18,.1,.25-.14,.25-.14,0,0,.01,.32-.28,.33-.3,.01-.19-.13-.48-.17-.26-.04-.38,.28-.38,.28h0Z"/></g><g><path class="cls-5" d="M57.54,68.18l-.21-.14s-.42-.02-.7-.02c-.29,0-.85,.03-.85,.03l.84,2.45,1.01,1.46,.39,.14,.79-.05,.13-.38-.3-2.36-1.1-1.13h0Z"/><path class="cls-5" d="M54.75,68.33l.04-.28s.19-.02,.46-.03c.27,0,.5,.02,.53,.04,.03,.02,.59,.71,.78,1.16,.19,.45,.42,1.2,.67,1.66,.25,.46,.79,1.23,.79,1.23,0,0-.27,.02-.51,.02s-.5,0-.5,0l-.45-.18-1.42-2.21-.38-1.41h0Z"/><path class="cls-5" d="M54.16,68.03s.58-.01,.63,.02c.05,.03,.7,.61,.96,1.31,.26,.71,.13,.81,.46,1.54,.33,.73,.8,1.22,.8,1.22,0,0-.97,.05-1.52-.04-.55-.1-.74-.09-.87-.24-.13-.15-.43-.34-.43-.34h-.55l.13-.76-.15-1.71,.03-.88,.51-.11h0Zm5.81,.45l-.92-.38-1.72-.09s.06,.46,.13,.88c.06,.42,.37,1.43,.65,1.92,.28,.49,.56,1.09,.71,1.23,.15,.14,1.14-.27,1.14-.27l.64-.1-.09-.7-.09-.22,.15-2-.14-.31-.46,.03Z"/><path class="cls-5" d="M53.88,68.49c0,.22,.23,.23,.29,.22,.06-.01,.26-.09,.26-.38s-.18-.52-.54-.55c-.36-.02-.63,.43-.63,.74s.31,.46,.31,.58c0,0-.31,.28-.29,.78,.02,.5,.42,.88,.42,.88,0,0-.43,.34-.43,.69s.33,.57,.63,.57,.7-.2,.7-.46-.23-.42-.42-.42-.27,.11-.27,.2m6.37-2.71c0,.21-.14,.22-.26,.22s-.28-.07-.28-.34,.36-.42,.58-.42,.61,.31,.61,.69-.27,.63-.27,.63c0,0,.17,.08,.17,.56s-.31,.82-.31,.82c0,0,.4,.16,.4,.65s-.34,.65-.57,.65-.64-.14-.64-.47,.21-.45,.37-.45,.32,.19,.32,.37"/></g><g><path class="cls-47" d="M63.65,68.1s-.23-.08-.33-.27c-.11-.19-.19-.43-.11-.47,.08-.05,.25,.11,.23,.26-.02,.15,.21,.48,.21,.48h0Zm2.58-.71s.16,.29,.22,.33c.06,.03,.31,.15,.31,.15,0,0-.36,0-.48-.1-.11-.1-.27-.37-.27-.37h.22Z"/><path class="cls-47" d="M67.01,67.63s-.22,.13-.4,.06c-.19-.07-.33-.18-.26-.26,.07-.08,.12-.05,.22,.06,.1,.11,.44,.15,.44,.15h0Zm1.31-1.11s-.18,.16-.31,.16-.39-.05-.39-.11,.34-.09,.39-.08c.06,0,.3,.03,.3,.03h0Zm-1.97-2.61s-.29,.09-.39,.24c-.1,.15-.07,.31,.05,.3,.12,0,.15-.17,.15-.22s.19-.32,.19-.32h0Zm-1.3,.71s-.22,.14-.27,.26c-.06,.12-.11,.38,.02,.39,.13,0,.17-.2,.18-.3,0-.11,.07-.35,.07-.35Z"/><path class="cls-30" d="M62.74,66.19l-.71,.75s1.64,.92,2.89,.88c1.26-.04,2.69-1.02,2.79-1.23,.1-.2,.02-1.08-.15-1.36-.16-.28-1.03-.96-1.36-.92s-.91,.47-1.45,1c-.54,.52-.48,.96-1.23,.93-.75-.04-.78-.04-.78-.04h0Z"/><path class="cls-51" d="M62.56,66.49s1.75,.26,2.26-.19c.51-.45,1.05-1.32,1.41-1.52s.52-.2,.52-.2c0,0,.26,.17,.38,.27,.12,.1,.45,.37,.45,.37l.14,.83v.46s-.54,.45-.54,.45l-1.01,.46-.96,.3-.82-.02-1.66-.48-.42-.3-.11-.1,.36-.35Z"/><path class="cls-29" d="M65.93,65.92c0-.12,.17-.21,.26-.21s.18,.1,.18,.22-.08,.22-.18,.22-.26-.11-.26-.23h0Zm-.24,1.01c0-.14,.13-.2,.27-.2s.26,.06,.26,.2-.12,.25-.27,.25-.27-.11-.27-.25Zm-.92-.31c0-.15,.25-.22,.36-.22s.09,.1,.09,.26-.09,.28-.19,.28-.25-.16-.25-.31h0Zm.44-1.16c0-.14,.11-.15,.2-.15s.16,.04,.16,.18-.07,.25-.16,.25-.19-.15-.19-.29h0Zm-1.91,1.26c0-.16,.14-.32,.35-.32s.42,.07,.42,.23-.25,.44-.46,.44-.31-.2-.31-.36Z"/><path class="cls-47" d="M63.97,66.43s-.24,.04-.37,.16c-.13,.12-.15,.26-.07,.3,.07,.04,.16-.09,.19-.15,.02-.06,.26-.32,.26-.32h0Zm1.16-.25s-.23,.16-.26,.33c-.02,.16,0,.25,.06,.25,.06,0,.1-.21,.08-.29-.02-.08,.11-.29,.11-.29h0Z"/><path class="cls-47" d="M65.32,66.42s-.15,0-.26,.11c-.1,.1-.2,.22-.13,.23,.07,0,.19-.05,.19-.11,0-.07,.19-.22,.19-.22Zm.25-1.35s-.12,.1-.19,.16c-.06,.06-.15,.22-.06,.26,.08,.04,.14-.03,.19-.15,.06-.12,.06-.27,.06-.27h0Zm.88,.56s-.23,.03-.3,.13c-.07,.1-.12,.21-.02,.21s.12-.05,.16-.14c.04-.09,.16-.2,.16-.2h0Zm-.14,1.04s-.05,.16-.19,.23c-.14,.07-.18,.14-.23,.04-.06-.1,.02-.15,.09-.17,.07-.02,.33-.1,.33-.1h0Z"/><path class="cls-11" d="M67.72,65.97s.1,.48-.32,.72c-.42,.24-1.6,1.07-2.71,.97-1.11-.1-2.38-.74-2.38-.74l-.18,.08,.28,.12,.86,.36,.98,.29,.61,.04,.53-.07,.98-.33,.83-.43,.43-.34,.12-.14v-.2s-.01-.28-.01-.28l-.04-.07Z"/><path class="cls-47" d="M45.87,59.68s.26,.22,.23,.41c-.02,.19-.09,.26-.16,.23-.07-.03-.07-.23-.06-.31,.02-.08-.02-.33-.02-.33h0Zm1.91,1.77s-.07,.33-.2,.36c-.13,.03-.23-.11-.2-.16,.02-.06,.13,0,.19-.06,.06-.05,.22-.14,.22-.14h0Zm-4.15,.25s.09,.19,.26,.22c.17,.03,.25-.08,.23-.14-.02-.06-.1-.04-.19-.04s-.3-.04-.3-.04h0Zm.74,1.46s.15,.18,.36,.2c.21,.02,.31-.14,.33-.19,.02-.05-.24-.04-.32,.02-.08,.07-.37-.04-.37-.04h0Zm1.31,1.12s.34-.07,.39-.16c.06-.09,.15-.25,.07-.34-.07-.09-.13,.14-.17,.23-.04,.09-.3,.26-.3,.26h0Z"/><path class="cls-30" d="M47.79,63.4s.23-1.52-1-2.59c-1.23-1.07-2.02-.81-2.44-.41-.42,.39-.78,1.68,.52,2.8,1.3,1.12,2.9,.77,2.9,.77l.02-.58Z"/><path class="cls-51" d="M44.05,61.79s-.02-.83,.37-1.08c.39-.25,1.69-.47,2.33,.77,.64,1.23,.65,1.85,.49,2.47h-.68s-1.06-.44-1.06-.44l-.88-.65-.57-1.07h0Z"/><path class="cls-11" d="M47.63,63.62s-.21,.24-.66,.22c-.44-.02-2.49-.56-3.01-2.4l.03,.4,.02,.13,.14,.37,.43,.63,.54,.46,.68,.35,.49,.14,.64,.11h.37l.32-.43h0Z"/><path class="cls-11" d="M46.56,63.08c0-.16,.08-.17,.22-.17s.23-.06,.23,.11-.09,.4-.22,.4-.23-.17-.23-.34Zm.09-.98c0-.11,.1-.2,.23-.2s.23,.09,.23,.2-.1,.2-.23,.2-.23-.09-.23-.2Zm-.93,1.08c0-.09,.12-.16,.26-.16s.26,.07,.26,.16-.26,.21-.4,.21-.12-.12-.12-.21h0Zm-.09-1.15c0-.14,.07-.1,.2-.1s.28,.04,.28,.19-.16,.34-.28,.34-.2-.28-.2-.43Zm-.87,.19c0-.12,.08-.29,.24-.29s.32,.17,.32,.29-.12,.22-.28,.22-.28-.1-.28-.22h0Zm.16-1.02c0-.13,.09-.12,.24-.12s.29,.06,.29,.19-.19,.28-.34,.28-.19-.23-.19-.36h0Zm.94-.1c0-.12,.1-.08,.25-.08s.27,.1,.27,.22-.19,.26-.34,.26-.18-.28-.18-.4h0Z"/><path class="cls-29" d="M44.92,61.19c.02-.09,.08-.15,.19-.15s.21,.02,.21,.15-.09,.23-.2,.23-.23-.11-.2-.23Zm-.17,1c0-.12,.06-.24,.19-.24s.23,.01,.23,.14-.11,.27-.24,.27-.18-.04-.18-.16h0Zm1.1-1.05c0-.1,.08-.11,.2-.11s.2,.03,.2,.12-.1,.18-.22,.18-.19-.09-.19-.19h0Zm-.21,.96c0,.13,.1,.24,.22,.24s.25-.11,.25-.24-.14-.26-.26-.26-.21,.13-.21,.26h0Zm1.05-.14c0,.12,.11,.22,.24,.22s.24-.1,.24-.22-.11-.22-.24-.22-.24,.1-.24,.22Zm-1.01,1.23c0-.11,.11-.21,.22-.21s.22,.07,.22,.17-.19,.25-.3,.25-.13-.11-.13-.22h0Zm.89-.16c0-.13,.1-.14,.24-.14s.2,.01,.2,.14-.11,.24-.25,.24-.19-.11-.19-.24h0Z"/><path class="cls-47" d="M46.81,61.48s.14,.17,.16,.3c.02,.13,.02,.28-.02,.29-.05,.02-.13-.08-.15-.2-.02-.12,.02-.39,.02-.39h0Zm-.78-.83s.09,.14,.09,.26-.02,.25-.08,.25-.06-.12-.06-.21,.06-.3,.06-.3h0Zm-.92,.12s.09,.14,.09,.26-.02,.25-.08,.25-.06-.12-.06-.21,.06-.3,.06-.3h0Z"/><path class="cls-47" d="M44.78,60.94s.12,.03,.23,.11c.11,.08,.15,.18,.11,.23-.04,.05-.14-.02-.16-.08-.02-.06-.17-.26-.17-.26h0Zm.7,.96s.18,0,.27,.1c.1,.09,.18,.16,.12,.23-.06,.07-.19-.05-.25-.11-.06-.07-.15-.21-.15-.21Zm-.85-.03s.16,.04,.24,.1c.08,.06,.11,.17,.06,.2-.04,.02-.1-.02-.17-.09-.07-.07-.14-.2-.14-.2h0Zm2.06,.65s.06,.2,.06,.33,.02,.26-.05,.26-.1-.17-.1-.28,.09-.32,.09-.32h0Zm-.23,.32s.15,.06,.21,.11c.06,.06,.08,.15,.03,.16-.05,.02-.08-.09-.12-.13-.04-.04-.12-.15-.12-.15h0Zm-.92,.06s.16,.02,.22,.06c.07,.05,.07,.26,.07,.29,0,.03-.11,0-.15-.09-.04-.1-.14-.26-.14-.26h0Z"/><path class="cls-11" d="M45.19,60.09s-.81,.18-.96,.7c-.15,.52-.16,1.11-.16,1.11l-.12-.67,.16-.43,.24-.4,.36-.23,.32-.11,.15,.03Zm2.54,3.11s.08-.2-.15-.84c-.24-.64-.73-1.48-.73-1.48l.38,.43,.3,.49,.15,.45,.11,.41v.41s-.06,.13-.06,.13Z"/><path class="cls-47" d="M48.54,62.16s.28,.18,.31,.29c.03,.1,.04,.14-.03,.16-.07,.03-.19-.09-.22-.16-.03-.08-.06-.29-.06-.29Zm-1.19,3.2s.13-.25,.31-.34c.18-.09,.31-.08,.36-.02,.05,.06-.12,.19-.24,.23-.12,.05-.43,.13-.43,.13h0Zm2,.77s.2-.09,.33-.23c.13-.14,.15-.24,.1-.29-.05-.05-.21,.03-.28,.14-.07,.11-.14,.38-.14,.38h0Zm-.22-.19s.07-.26,.14-.34c.07-.08,.17-.13,.24-.08,.07,.04,.03,.16-.02,.22-.05,.06-.35,.2-.35,.2Z"/><path class="cls-30" d="M52.48,64.41s-1.25-1.8-3.18-1.9c-1.55-.08-2.04,1.31-1.98,1.72,.06,.41,.64,1.31,2.7,1.46,2.06,.15,2.4-.97,2.48-1.03,.09-.05-.02-.26-.02-.26h0Z"/><path class="cls-51" d="M51.01,63.18s.52,.39,.73,.7c.22,.31,.27,.54,.14,.58-.13,.04-1.25-1-2.17-1.22-.92-.22-1.72-.02-1.9,.43-.18,.44-.11,1.1,.31,1.37,.42,.27,2.39,.59,2.39,.59,0,0,.9-.12,.93-.14,.03-.02,.57-.32,.57-.32l.12-.31,.15-.41,.06-.16-.48-.52-.85-.59h0Z"/><path class="cls-11" d="M49.43,63.43c0,.12-.12,.17-.24,.17s-.22-.06-.22-.18,.1-.21,.22-.21,.25,.1,.25,.21Zm-1.14,.41c0-.12,.13-.11,.26-.11s.24,.09,.24,.21-.21,.28-.32,.22c-.14-.07-.17-.2-.17-.32h0Zm1.22,.67c0-.15,.12-.27,.28-.27s.28,.12,.28,.27-.21,.31-.36,.31-.19-.16-.19-.31h0Z"/><path class="cls-29" d="M48.59,64.78c0-.13,.13-.16,.25-.16s.26,.12,.26,.25-.14,.22-.26,.22-.25-.18-.25-.31h0Z"/><path class="cls-29" d="M49.36,63.32c0,.1-.04,.16-.15,.16s-.23-.06-.23-.16,.05-.14,.15-.14,.22,.03,.22,.14h0Zm-.59,.48c0,.11-.17,.18-.28,.18s-.18-.07-.18-.18,.08-.15,.19-.15,.27,.03,.27,.15h0Zm.26,.95c0,.1-.04,.18-.15,.18s-.27-.08-.27-.18,.04-.17,.16-.17,.26,.07,.26,.17Zm.99-.32c0,.1-.2,.22-.31,.22s-.15-.19-.15-.29,.09-.19,.19-.19,.27,.16,.27,.26Zm1.43,.31c0,.11-.17,.1-.27,.1s-.19-.12-.19-.23,.03-.21,.27-.18c.1,.01,.18,.2,.18,.31h0Zm-.85,.44c0,.11-.08,.2-.19,.2s-.19-.09-.19-.2,.08-.15,.19-.15,.19,.04,.19,.15h0Z"/><path class="cls-47" d="M50.73,64.58s.2-.07,.35-.05c.15,.02,.16,.07,.16,.1s-.12,.07-.18,.06c-.06-.02-.34-.11-.34-.11h0Zm-.84,.71s.16-.1,.28-.12c.12-.02,.22,.02,.21,.09,0,.07-.05,.09-.17,.09s-.32-.06-.32-.06Zm-.54-1.24s.35,.15,.42,.29c.07,.14,.1,.17,.03,.21-.07,.04-.15-.05-.2-.11-.05-.07-.25-.38-.25-.38h0Z"/><path class="cls-47" d="M49.26,64.49s.27-.07,.39-.07,.15,0,.17,.07c.02,.06-.03,.08-.13,.08-.1,0-.43-.07-.43-.07Zm-.85,.02s.29,.04,.36,.11c.07,.08,.07,.15,.04,.19-.03,.04-.17,.02-.21-.03-.04-.04-.2-.28-.2-.28h0Z"/><path class="cls-47" d="M48.37,64.93s.11-.16,.22-.2c.1-.04,.23-.03,.25,.02,.02,.05-.09,.14-.17,.15-.08,.02-.3,.02-.3,.02h0Zm-.22-1.27l.29,.08c.11,.08,.13,.14,.11,.17-.02,.03-.13,.05-.21-.01-.13-.09-.18-.24-.18-.24h0Zm.63-.73s.29,.08,.39,.22c.1,.13,.08,.21,.03,.24-.05,.03-.16-.04-.23-.1-.06-.06-.2-.35-.2-.35Z"/><path class="cls-11" d="M52.13,65.03s-.6,.51-1.94,.46c-1.35-.05-2.57-.62-2.87-1.25l.12,.31,.3,.4,.94,.48,1.06,.24,.84,.05,.79-.14s.58-.28,.61-.29c.03-.02,.1-.16,.1-.16l.06-.1Zm.18-.64s-.23-.28-.54-.57c-.31-.29-1.54-1.09-1.54-1.09l.99,.45,.65,.55,.47,.51-.03,.15h0Z"/><path class="cls-47" d="M52.36,63.2s.34,.13,.4,.21c.06,.08,.13,.16,.13,.16,0,0-.09,.22-.17,.13-.08-.09-.1-.09-.19-.21-.09-.12-.17-.29-.17-.29Zm1.01-.54s.31,.13,.43,.29c.11,.16,.09,.29,.04,.3-.05,.02-.26-.16-.29-.24-.03-.07-.18-.35-.18-.35h0Z"/><path class="cls-47" d="M56.27,67.37s.18-.22,.22-.34c.04-.12,.06-.26-.02-.25-.08,0-.18,.12-.19,.21,0,.09-.02,.38-.02,.38h0Z"/><path class="cls-30" d="M52.07,65.13c.01-.61,.87-2,1.86-1.99,.41,0,1.22,.22,1.88,.52,.55,.25,.73,.52,1.09,.61,.36,.09,.91,.02,.91,.02l1.23-.14-.97,1.42-.35,.31s-.31,.6-1.19,.94c-.88,.34-2.36,.09-3.03-.07-.67-.16-1.46-.8-1.44-1.61h0Z"/><path class="cls-51" d="M58.07,65.32c-.1,.08-.22,.08-.35,.08s-2.88-1.68-3.73-1.6c-.85,.07-1.67,.44-1.69,1.32-.02,.87,.19,.88,.37,1.13,.18,.25,1.86,.61,1.86,.61l1.02-.02,.82-.09,.73-.39,.4-.32,.27-.33,.31-.39h0Z"/><path class="cls-29" d="M53.71,64.84c0,.13-.12,.25-.26,.25s-.26-.11-.26-.25,.11-.19,.26-.19c.14,0,.26,.05,.26,.19h0Zm.8-.78c0,.13-.04,.22-.18,.22s-.32-.08-.32-.22,.11-.24,.25-.24,.25,.11,.25,.24h0Zm1.6,.43c0,.11-.1,.2-.23,.2s-.23-.09-.23-.2,.1-.21,.23-.21,.23,.09,.23,.21h0Z"/><path class="cls-11" d="M55.26,65.16c0,.17-.07,.29-.23,.29s-.29-.08-.29-.25,.09-.23,.26-.23,.26,.02,.26,.19h0Z"/><path class="cls-29" d="M54.11,65.89c0,.14-.12,.25-.26,.25s-.26-.11-.26-.25,.16-.2,.31-.2,.21,.07,.21,.2h0Zm1.1-.76c0,.14-.11,.25-.25,.25s-.25-.11-.25-.25,.11-.25,.25-.25,.25,.11,.25,.25Zm1.3,.34c0,.15-.09,.27-.25,.27s-.28-.12-.28-.27,.05-.2,.2-.2,.33,.05,.33,.2h0Zm-.83,.69c0,.14-.09,.22-.24,.22s-.28-.08-.28-.22,.12-.2,.26-.2,.25,.06,.25,.2Z"/><path class="cls-47" d="M52.81,64.86s.25-.05,.37-.05,.29-.04,.29,.05c0,.1-.15,.11-.23,.09-.09-.03-.42-.09-.42-.09h0Zm2.14,1.38s.27-.17,.4-.14c.13,.03,.18,.02,.18,.1s-.16,.07-.21,.07-.37-.02-.37-.02h0Zm-1.5-.22s.1-.16,.22-.17c.11-.02,.16,0,.18,.04,.02,.05-.1,.14-.15,.14s-.25,0-.25,0h0Z"/><path class="cls-11" d="M57.73,65.75s-.41,.5-.98,.74c-.57,.25-1.01,.33-1.81,.28-.8-.05-1.19-.17-1.73-.45-.54-.28-.97-.68-1.05-.85-.08-.17,.09,.29,.09,.29l.49,.65,.59,.26,.86,.21,.81,.1,.62-.02,.74-.12,.48-.17,.32-.2,.25-.21,.31-.52Zm-.77-1.46s-.22,.07-.72-.23c-.49-.3-1.08-.7-2.19-.7-1.11,0-1.47,.75-1.54,.81-.07,.06,.5-.66,.5-.66l.51-.27,.4-.07,.38,.02,.49,.13,.44,.14,.52,.17,.45,.25,.55,.28,.22,.13h0Zm1.49,.33s-.65,0-.84,0c-.19,.02-.19,.05-.22,.1-.02,.05-.07,.11-.07,.11l-.2-.43,.89-.12,.48,.18-.04,.16Z"/><path class="cls-52" d="M57.25,69.18c.04,.12,.15,.23,.28,.23,.13,0,.4,0,.4,0l.88-.05,.31-.36,.19-.8s.24-.29,.24-.3,.82-.45,.82-.45l.71-.2,.46-.05,.63-.21,.46-.24,.2-.3,.2-.45-.2-.61-.49-.66-.83-.34h-.69l-.77,.28-1.36,.32s-.75,.33-1.06,.91c-.31,.58-.31,.74-.36,1.51-.05,.77-.01,1.78-.01,1.78h0Z"/><path class="cls-29" d="M57.62,68.88c.26,0,.06-.43,.36-.94,.3-.51,.66-1.13,.75-1.13s.11,.09,.21,.06c.11-.03,.29-.2,.3-.24,.01-.04,.01-.33,.24-.52,.23-.19,.54-.45,.69-.48,.15-.03,.22-.06,.25,.01,.03,.07-.09,.17,.02,.2,.1,.03,.34,.02,.4-.13,.06-.15,.04-.23,.04-.23,0,0,.16-.15,.45-.09,.3,.07,.33,.05,.36,.16,.03,.11-.13,.13-.1,.21,.03,.08-.02,.07,0,.13,.03,.06,.08,.24,.28,.23,.2,0,.29-.12,.29-.12l.06-.1s.05-.12-.02-.17c-.08-.05-.05-.11,.03-.08,.07,.03,.38,.45,.48,.28,.1-.17,.11-.42,.06-.48-.05-.06-.48-.7-.48-.7l-.76-.26-1,.08-.97,.56-.89,.47s-.05,.73-.21,.6c-.16-.13-.39-.49-.46-.37-.07,.12-.23,.65-.32,.92-.09,.27-.35,1.09-.33,1.4,.03,.31,.19,.73,.29,.73h0Z"/><path class="cls-29" d="M58.52,67.69c-.07,0-.17,.08-.2,.12-.03,.04-.08,.13-.05,.22,.03,.1,.17,.19,.18,.2h.11s.24-.07,.24-.07c0,0,.08-.09,.08-.2,0-.12-.07-.15-.1-.16-.04-.01-.26-.11-.26-.11Zm1.54-1.27c-.14-.05-.2,.04-.22,.09-.02,.04-.01,.14-.01,.14,0,0,.03,.19,.1,.23,.07,.03,.26,.1,.32,.03,.06-.06,.12-.11,.12-.23,0-.12-.17-.18-.17-.18l-.13-.07Zm1.24,.3s-.13-.08-.21-.07c-.08,.01-.19,.12-.15,.27,.04,.15,.19,.17,.3,.14,.12-.03,.09-.19,.09-.22s-.04-.13-.04-.13h0Zm-3.58,.25c0,.07,.13,.22,.3,.21,.17-.01,.28-.14,.3-.25,.02-.1-.09,.09-.22,.12-.13,.03-.2,.07-.26,0-.06-.07-.11-.08-.11-.08h0Z"/><path class="cls-11" d="M58.88,67.96s.02,.16-.1,.24c-.11,.08-.19,.07-.25,.07s-.14-.01-.18-.08-.08-.16-.08-.16c0,0,.13,.21,.32,.15,.2-.05,.29-.23,.29-.23h0Zm3.33-2.06s0,.16-.13,.22c-.12,.07-.18,.08-.24,.08-.06,0-.16-.04-.2-.1-.15-.23-.06-.38-.06-.38,0,0,.11,.4,.31,.37,.2-.03,.32-.19,.32-.19h0Zm-2.97,.71s-.1,.31-.31,.31-.19-.06-.17-.1c.02-.04,.09,.04,.18,.01,.09-.03,.3-.22,.3-.22h0Zm.58-.06s-.02,.23,.05,.3c.08,.08,.16,.12,.25,.12s.15-.02,.21-.11c.06-.09,.03-.18,.03-.18,0,0,0,.05-.06,.11-.06,.07-.12,.08-.18,.08s-.17,0-.21-.08c-.03-.08-.09-.23-.09-.23h0Zm1.05-1.08s.06,.17-.06,.31c-.13,.14-.38,.06-.38,.06,0,0,.2,.05,.3-.06,.1-.11,.14-.31,.14-.31h0Z"/><path class="cls-11" d="M57.51,69.35s1.31-.02,1.41-.2c.1-.18-.11-.88,.68-1.44,.79-.56,1.4-.55,1.82-.58,.42-.03,1.32-.31,1.48-1.12,.1-.49-.56-.52-.81-.99-.25-.47-.89-.28-.93-.28s-.75-.02-1.09,.31c-.2,.2-.18,.44-.27,.56-.1,.11-.96,0-1.06,.14-.1,.14,.02,.43-.04,.5-.06,.07-.27-.19-.27-.19l.07-.7,1.11-.65,1.26-.7s.82,.04,.86,.02c.03-.02,.85,.43,.87,.43,.02,0,.43,.49,.43,.49,0,0,.08,.2,.11,.58,.02,.18,0,.34-.04,.48-.2,.72-.91,1.21-1.66,1.25-.75,.04-1.42,.37-1.76,.62-.34,.25-.51,1.34-.52,1.47,0,.13-1.63,.04-1.63,.04l-.02-.06h0Z"/><path class="cls-47" d="M58.06,66.8c-.07,.05-.16,.05-.19-.03-.06-.21,.07-.53,.07-.53,0,0,0,.33,.02,.39,.02,.05,.09,.04,.12,.09,.01,.02,.03,.04-.02,.08Zm.82-.17c-.06-.02-.05-.22,0-.31,.05-.09,.42-.36,.42-.36,0,0-.12,.27-.16,.37-.04,.1-.17,.32-.25,.29Zm-.32,1.33c-.05,.01-.07-.1-.07-.25s.25-.4,.25-.4c0,0-.08,.23-.09,.3,0,.07,.04,.14,.03,.23,0,.09-.07,.11-.13,.12h0Z"/><path class="cls-47" d="M59.17,67.59s-.12,.14-.25,.21c-.13,.07-.28,.18-.36,.16-.08-.03,.05-.2,.1-.22,.23-.09,.51-.15,.51-.15Zm1.12-1.6s-.15,.12-.22,.3c-.07,.18-.11,.32-.03,.35,.07,.03,.18-.2,.19-.28,0-.08,.06-.37,.06-.37Z"/><path class="cls-47" d="M60.7,66.56s-.1-.1-.29-.14c-.19-.05-.27,0-.29,.05-.02,.05-.16,.14-.09,.18,.07,.04,.15-.07,.21-.08,.06-.01,.12-.05,.22-.04,.1,.02,.24,.04,.24,.04h0Zm-.24-1.1c.07,.06,.17-.05,.26-.15,.09-.1,.16-.29,.16-.29,0,0-.19,.1-.27,.16-.08,.07-.19,.25-.15,.28h0Zm1.71-.04s-.22,.1-.3,.2c-.08,.1-.17,.21-.1,.26,.08,.05,.14-.05,.2-.13,.06-.08,.19-.33,.19-.33h0Zm-.49,1.15s-.07,.15-.21,.25c-.14,.09-.31,.14-.33,.09-.03-.05,.02-.15,.07-.18,.05-.03,.09-.02,.21-.05,.12-.03,.26-.1,.26-.1h0Z"/></g><g><ellipse class="cls-70" cx="50.56" cy="62.77" rx="1.07" ry=".71" transform="translate(-19.11 103.29) rotate(-81.33)"/><g><path class="cls-65" d="M50.96,60.86l-.42,1.06,.35-.05,.2-.93-.12-.08Z"/><path class="cls-64" d="M51.15,60.41c-.15-.02-.29,.1-.31,.26-.02,.16,.09,.31,.24,.33,.15,.02,.29-.1,.31-.26,.02-.16-.09-.31-.24-.33Z"/><path class="cls-65" d="M69.43,63.06l-1.05,.98,.43,.11,.72-.94-.1-.15Z"/><path class="cls-64" d="M69.89,62.65c-.17-.09-.39-.03-.5,.14-.11,.17-.06,.38,.11,.47,.17,.09,.39,.03,.5-.14,.11-.17,.06-.38-.11-.47Z"/><path class="cls-65" d="M42.86,57.4l.55,1.22,.24-.34-.62-.92-.16,.04Z"/><path class="cls-64" d="M42.64,56.87c-.14,.12-.15,.33-.03,.47,.12,.15,.33,.17,.46,.06,.14-.12,.15-.33,.03-.47-.12-.15-.33-.17-.46-.06Z"/></g><g><path class="cls-33" d="M51.26,60.45s.09,.05-.01,.02c-.1-.03-.33,.08-.33,.25,0,.17,.12,.26,.25,.26,.12,0-.05,.02-.05,.02l-.16-.05-.07-.1-.05-.13,.04-.14,.09-.12,.12-.04h.08s.09,.04,.09,.04Z"/><path class="cls-33" d="M51.02,61.16s-.07-.01-.13,.08c-.06,.09-.18,.26-.18,.26l.24-.58,.13,.07-.05,.18Zm18.98,1.58s.08,.09-.02,.01c-.1-.08-.43-.06-.52,.12-.09,.18,.01,.34,.15,.4,.15,.06-.06,0-.06,0l-.16-.13-.03-.14v-.17s.13-.14,.13-.14l.17-.09h.17s.09,.06,.09,.06l.09,.07h0Z"/><path class="cls-33" d="M69.34,63.43s-.07-.05-.19,.02c-.12,.07-.35,.21-.35,.21l.58-.54,.12,.14-.15,.17Zm-26.59-6.62s.11-.04,0,.02c-.1,.06-.2,.35-.06,.49,.14,.13,.31,.1,.41,0,.1-.11-.02,.06-.02,.06l-.17,.1-.13-.02-.16-.06-.09-.15-.03-.18,.06-.14,.07-.06,.09-.05Z"/><path class="cls-33" d="M43.16,57.58s-.07,.05-.04,.17c.03,.13,.07,.37,.07,.37l-.3-.67,.16-.06,.11,.19Z"/></g><ellipse class="cls-69" cx="44.1" cy="59.7" rx=".77" ry="1.15" transform="translate(-22.35 26.64) rotate(-27.09)"/><g><path class="cls-44" d="M42.81,59.44s.24,.05,.37-.01c.13-.07,.15-.16,.18-.2,.03-.03,.06-.15,.05-.23-.01-.08-.18-.34-.24-.36-.05-.02-.24,0-.27-.03-.03-.03,.03-.1-.04-.12-.07-.02-.43,.39-.37,.46,.06,.06,.1-.03,.12,.02,.02,.05,0,.21,0,.27s.18,.2,.18,.2h0Z"/><path class="cls-44" d="M43.16,58.67c.03,.06,.16,.23,.22,.26,.05,.02,.22,.03,.27,0,.05-.02,.23-.19,.23-.26,0-.07,0-.13-.03-.2-.03-.07-.01-.26-.08-.27-.06-.01-.09-.02-.12-.06-.03-.04,.02-.11-.03-.18-.05-.07-.62,.27-.58,.33,.04,.07,.1,0,.12,.04,.02,.04-.03,.26,0,.33h0Z"/><path class="cls-44" d="M44.46,58.53c.03-.09,.02-.37-.04-.43-.06-.06-.16-.06-.16-.1,0-.04,.07-.05,.07-.12s-.64,.02-.6,.09c.04,.07,.15,.03,.15,.08,0,.04-.11,.1-.12,.15-.01,.05,.03,.23,.06,.28,.03,.04-.01,.1,.06,.13,.08,.03,.06,.03,.13,.05,.07,.02,.32,.01,.36-.02,.03-.03,.05-.02,.09-.1h0Zm5.44,3.2s.1,.18,.22,.23c.12,.04,.19,0,.23,0,.04,0,.13-.05,.17-.1,.04-.05,.1-.31,.08-.36-.02-.05-.14-.15-.14-.19,0-.04,.08-.04,.05-.1-.03-.05-.49-.04-.5,.04,0,.08,.08,.05,.06,.09-.02,.05-.12,.12-.16,.16-.04,.04-.01,.23-.01,.23h0Z"/><path class="cls-44" d="M50.58,61.5c-.02,.05-.05,.24-.03,.29,.02,.05,.11,.15,.15,.17,.05,.02,.25,.03,.29,0,.05-.04,.08-.07,.1-.14,.02-.06,.15-.16,.12-.21-.03-.05-.04-.07-.04-.11,0-.04,.08-.05,.09-.12,.02-.07-.53-.24-.54-.17-.01,.07,.06,.06,.05,.1-.01,.04-.18,.14-.2,.2h0Z"/><path class="cls-44" d="M51.43,62.23c.07-.03,.24-.2,.24-.28,0-.07-.05-.14-.03-.16,.02-.03,.07,.01,.11-.03,.04-.04-.39-.39-.41-.32-.02,.07,.07,.11,.04,.14-.03,.02-.12-.01-.16,.01-.04,.02-.13,.16-.14,.2-.01,.04-.07,.05-.04,.11,.03,.06,.02,.06,.05,.11,.03,.06,.18,.21,.22,.21,.04,0,.04,.02,.11,0h0Zm16.42,1.37s0,.2,.09,.29c.08,.09,.16,.09,.19,.11,.03,.02,.13,.02,.19,0,.06-.02,.22-.22,.23-.27,0-.05-.05-.19-.03-.22,.02-.03,.08,0,.08-.06,0-.06-.4-.27-.43-.2-.04,.07,.05,.08,0,.1s-.16,.05-.21,.06c-.05,.01-.11,.19-.11,.19Z"/><path class="cls-44" d="M68.49,63.74s-.16,.16-.17,.2c0,.04,0,.16,.03,.2,.02,.04,.18,.14,.23,.13,.06,0,.1-.02,.15-.05,.05-.04,.2-.05,.2-.1,0-.05,0-.07,.03-.1,.03-.03,.09,0,.13-.05,.05-.05-.3-.42-.34-.38-.05,.04,.02,.07-.01,.1-.03,.02-.21,.02-.25,.06h0Z"/><path class="cls-44" d="M68.62,64.66c.07,.03,.29,.03,.34-.02,.05-.04,.06-.12,.09-.12,.03,0,.04,.05,.09,.06,.05,0,0-.48-.06-.45-.06,.03-.03,.11-.07,.11-.03,0-.08-.08-.12-.09-.04,0-.19,.02-.22,.04-.03,.02-.08-.01-.1,.05-.02,.06-.02,.05-.04,.1-.02,.05-.02,.24,0,.27,.02,.02,.01,.04,.08,.07h0Z"/></g><path class="cls-7" d="M43.2,58.91c.05,.08-.02,.27-.06,.32-.04,.05-.33-.02-.33-.08,0-.05-.03-.14,.01-.19,.04-.05,.13-.17,.21-.15,.07,.01,.16,.07,.17,.1h0Zm.08-.36c-.03,.07,.01,.15,.05,.19,.04,.04,.24,.09,.3,.06,.06-.03,.14-.35,.1-.4-.04-.05-.15-.06-.19-.05-.04,0-.24,.16-.27,.21h0Zm.69-.33c-.03,.07-.02,.16,0,.18,.02,.03,.16,.12,.24,.12,.08,0,.12-.23,.12-.27s-.02-.06-.08-.08c-.06-.02-.28,.05-.28,.05Zm6.49,3.43c-.02,.08-.18,.15-.23,.15-.06,0-.18-.22-.15-.26s.07-.1,.13-.11c.05,0,.18-.01,.21,.04,.03,.05,.05,.14,.04,.17h0Zm.27-.16c-.06,.02-.09,.1-.09,.15,0,.05,.09,.21,.14,.22,.05,.02,.3-.12,.31-.17,0-.05-.05-.13-.08-.15-.02-.02-.24-.06-.28-.05h0Zm.6,.24c-.06,.02-.11,.08-.11,.11,0,.03,.02,.17,.07,.22,.05,.05,.21-.06,.23-.08,.03-.02,.02-.05,0-.1-.02-.05-.19-.15-.19-.15Zm17.04,2.04c-.05,.06-.21,.04-.26,.02-.05-.02-.05-.27-.01-.29,.04-.01,.1-.05,.15-.03,.05,.02,.16,.08,.16,.14,0,.06-.02,.14-.04,.16h0Zm.24,.02c-.06-.01-.12,.04-.14,.07-.03,.03-.04,.19,0,.23,.03,.04,.3,.05,.33,.01,.03-.04,.02-.12,.01-.15-.01-.03-.16-.15-.2-.16h0Zm.27,.49c-.05-.02-.12-.02-.15,0-.02,.02-.1,.12-.1,.18,0,.06,.18,.09,.21,.09,.03,0,.05-.02,.07-.06,.02-.04-.03-.21-.03-.21h0Z"/><ellipse class="cls-68" cx="67.81" cy="64.8" rx="1.11" ry=".56" transform="translate(-25.95 62.26) rotate(-42.15)"/></g><g><path class="cls-45" d="M48.58,49.02s-.95,.08-1.61-.03c-.66-.11-.52-1.8-.53-1.85-.02-.05-.4-.46-.34-.83,.06-.38,1.29-1.37,1.45-1.42,.11-.04,.35,.07,.35,.07,0,0,.31-.3,.4-.3s.22,.17,.19,.25c-.04,.07-.46,.32-.49,.51-.03,.19,0,.38-.12,.56-.12,.18-.35,.43-.38,.59-.03,.16-.1,.29,.02,.35,.12,.06,.52,0,.86-.15,.34-.16,.48-.36,.53-.34,.05,.02-.2,.43-.58,.59-.38,.16-.63,.34-.82,.31,0,0-.21,.5,.44,.53,.65,.03,1.01-.14,1.01-.14l-.39,1.32Zm-3.72,3.97s.5,.2,.5,.75-.55,1.02-.53,2c.02,.98,.17,.99,1.47,2.05,.04,.03,.31,.31,.39,.63,.07,.32,.31,2.2,1.56,2.19,1.25,0,1.42-.8,1.42-.8l-.53-.79s-.44,.13-.67,.07c-.23-.06-.44-.21-.58-.52-.14-.3-.17-1.02-.39-1.34-.52-.79-1.46-.92-1.47-1.74,0-.83,.57-.92,.41-1.9-.16-.98-1.33-1.46-1.33-1.46l-.48-.19-.17,.99,.4,.05Z"/><path class="cls-15" d="M48.31,46.12c.42-.1,.18-1.19,.18-1.19l-.29,.24s.18,.23,.18,.48-.07,.46-.07,.46h0Z"/><path class="cls-45" d="M49.07,57.02s-.19-.16-.21-.17c-.15-.1-.81-.63-.7-2.21,.12-1.78,2.71-2.72,2.88-3.43,.19-.79,.77-1.13-1.29-2.74l-.48,.57,.85,.64s.19-.11,.2,.14c.01,.24-.23,.45-.28,.63-.05,.17-1.34,1.07-1.44,1.15-.1,.09-.74,.59-.74,.59,0,0-.34,.33-.65,1.02-.31,.69-.15,1.58-.15,1.58,0,0,.01,1.89,2.02,2.24h0Z"/><path class="cls-60" d="M47.81,58.02l.15,.67-.41,.15h-.18s-.13,.05-.13,.05l-.32,.31-.08-.03s-.05,.02-.06-.18c-.02-.2-.04-.37-.04-.37l.39,.16h.14s.1-.02,.1-.02l.17-.37,.29-.37Zm-1.2,.12s-.13-.16-.19-.25c-.05-.08-.08-.1-.23-.21l.28-.16h.3s-.04,.37-.04,.37l-.12,.25Zm.69-1.08s.19,.09,.25,.24c.06,.14,.15,.32,.15,.32l-.48-.04-.37-.12,.24-.33,.21-.07Zm-.19,2.97s-.1-.06-.15-.22c-.06-.16-.1-.41-.1-.41l.32-.06,.37,.15h.11s-.09,.2-.1,.21c-.01,0-.36,.31-.36,.31h-.08Zm1.27-1.02s-.28-.09-.33-.22c-.05-.14-.08-.11-.08-.11l-.09,.38-.11,.36s.02,.06,.04,.06c.01,0,.27-.07,.29-.07,.02,0,.21-.21,.22-.23,0-.01,.07-.16,.07-.16Zm-1.19,1.19s.14,.08,.34,.19c.2,.11,.31,.11,.31,.11l.15-.16,.15-.3,.02-.04-.76,.07-.21,.12Zm1.1-.29l.65-.39,.04-.35-.13-.1s.02,.01-.15,.01h-.22l-.12,.43-.07,.4Zm-.46,.61s.46,.2,1.24-.09c.36-.13,.42-.3,.42-.3l-.31-.12-.3,.27-1.05,.25h0Zm-.62-5.04s-.05-.15-.09-.34c-.04-.19-.04-.27-.04-.27l.23,.12,.33,.25-.24,.19-.2,.05Zm.55,.93s-.11-.11-.21-.26c-.1-.15-.16-.28-.16-.28l.25,.05,.29,.14-.13,.37h-.03Z"/><path class="cls-42" d="M46.29,45.98c-.04,.16-.1,.45,.12,.5,.12,.03,.59,0,1.13-.62,.26-.29,.26-.58,.26-.58l.1-.33s-.21-.15-.55,.06c-.3,.19-1.06,.98-1.06,.98h0Z"/><ellipse class="cls-53" cx="47.76" cy="45.12" rx=".1" ry=".1"/><path class="cls-45" d="M47.07,45.22c-.23,.18-.44,.41-.44,.41,0,0,.36-.1,.65-.36,.16-.15,.48-.21,.65-.17,.09,.02,.06-.09,.02-.12-.09-.07-.36-.11-.41-.07,0,0-.23,.14-.46,.32Z"/><path class="cls-60" d="M48.17,55.28s-.02-.08-.03-.26c-.01-.19,.01-.28,.01-.28l-.21,.19-.21,.29,.32,.11,.12-.04Zm-1.11-.64s-.03-.29-.01-.57c.02-.28,.13-.78,.13-.78l.14,.35,.39,.61,.12,.09-.33,.24-.34,.11-.1-.04Zm1.12-.16s.02-.14,.05-.27c.03-.13,.13-.33,.13-.33,0,0,0,.02-.01,.02-.02,0-.34,.27-.35,.29,0,.01-.15,.14-.15,.14l.21,.16h.13m-.91-1.46s.05-.18,.22-.4c.17-.22,.34-.45,.34-.45l.15,.59,.09,.51,.02,.11s-.12,.05-.17,.05c-.05,0-.41-.02-.46-.09-.04-.06-.19-.32-.19-.32h0Zm1.18,.69s.11-.12,.21-.21c.1-.09,.25-.26,.25-.26l-.8,.15,.11,.27,.23,.06Zm-.48-1.65s.07-.03,.29-.24c.21-.22,.32-.19,.32-.19l.09,.86-.42-.12-.28-.3Z"/><path class="cls-60" d="M48.96,53.21l.48-.49-.8-.23,.15,.56,.17,.15Zm.34-1.29l.05-.83s-.16,.08-.37,.25c-.21,.17-.3,.23-.3,.23l.1,.15,.28,.18,.24,.02Zm.71-.8v-.65s-.03,.01-.03,.01c0,0-.11,.18-.25,.29-.13,.11-.19,.19-.19,.19l.21,.14,.25,.02h0Zm.3,.87s.22-.19,.39-.32c.25-.19,.37-.41,.37-.41l-1.03-.08,.04,.41,.23,.39Zm-2.4-3.42l-.03,.45h.86s-.21-.29-.21-.29l-.26-.16-.25-.25-.11,.26Zm1.66,4.03s.27-.2,.37-.31c.12-.12,.3-.24,.3-.24l-.82-.09,.02,.54,.13,.1Zm1.56-1.47s.09-.33,.08-.64c0-.31-.06-.46-.06-.46l-.61,.42,.09,.31,.23,.25,.27,.12Z"/><path class="cls-60" d="M50.07,50.38s.18-.22,.19-.35c.01-.13,.01-.09,.01-.09h.48s.29,.03,.29,.03l.04,.03-.22,.26-.3,.17-.38,.05-.12-.1Zm.98-.48s-.19-.32-.3-.51c-.11-.18-.21-.27-.21-.27l-.24,.7-.02,.07h.77Z"/><path class="cls-45" d="M51.2,57.04s.43,.1,.42,.45c-.02,.35-.21,.84-.21,.84l-.6-.54,.34-.3,.12-.18-.07-.28Z"/><path class="cls-4" d="M43.75,52.81s-.43,.15-.52-.04c-.09-.19-.05-.34-.06-.38,0-.04-.26-.06-.23-.3,.02-.25,.34-.23,.4-.23s.08-.38,.3-.36c.22,.02,.32,.27,.32,.27l-.22,1.04Z"/><path class="cls-4" d="M44.23,52.92s-.36,.19-.48,0c-.11-.18,0-.41-.04-.45-.04-.04-.26-.11-.22-.33,.04-.21,.27-.15,.35-.19,.08-.04,.14-.36,.36-.3,.23,.06,.27,.24,.27,.24,0,0-.18,.85-.24,1.02h0Z"/><path class="cls-4" d="M44.84,53.01s-.11,.23-.36,.18c-.26-.05-.18-.42-.22-.49-.04-.06-.23-.11-.19-.35,.03-.24,.27-.2,.35-.24,.09-.03,.19-.4,.35-.34,.17,.06,.33,.27,.3,.37,0,0-.36,.11-.41,.36-.05,.25,.18,.52,.18,.52h0Z"/><path class="cls-41" d="M50.55,56.96s-.32-.35-.55-.66c-.23-.31-.58-.67-.58-.67l-.55-.28-.35-.58-.04-.69,.15-.4,.21-.31s-1.15,.41-.56,2.61c.25,.93,.88,1.07,.88,1.07l1.05-.06,.34-.03Z"/><path class="cls-13" d="M51.57,57.32s-.27,.5-.34,.5c-.07,0,.24,.08,.3,.2l-.06,.12s-.3-.21-.49-.22l-.02-.18s.15-.05,.28-.17c.1-.1,.21-.36,.22-.43l.11,.18Z"/><path class="cls-12" d="M52.63,57.65l-.68,.19-.35-.22s.03-.28-.12-.4c-.16-.12-.25-.16-.39-.22-.14-.06-.62-.07-.62-.07l-1.22-1.33,.46,.05,.72-.09,.67-.06,.36,.05,.38,.12,.2,.17,.21,.18,.21,.34,.13,.38,.05,.41v.48Z"/><path class="cls-12" d="M52.47,57.26l.03,.31,.13,.04v-.28s-.16-.07-.16-.07Zm-.61-7.44l-.08-.54-.21-.36-.27-.37-.29-.32-.16-.14-.07-.11-.71,.03-.37,.44s.97,.68,1.33,1.43c.31,.09,.56,.29,.69,.43l.03-.06,.09-.43Z"/><path class="cls-41" d="M51.18,50.42c-.01,.55-.1,.82-.18,.94l.43-.49,.31-.55c-.14-.14-.38-.33-.69-.43,.09,.18,.14,.36,.14,.53h0Z"/><path class="cls-19" d="M52.18,58.61s-.2-.25-.35-.39c-.15-.15-.33-.23-.33-.23l-.03,.07s0,0,.03,.01c.05,.03,.17,.1,.28,.2,.07,.07,.16,.17,.22,.25,.07,.08,.12,.14,.12,.14l.06-.05Z"/><path class="cls-54" d="M52.59,58.02s-.06,.24-.31,.46c-.24,.22-.55,.37-.55,.37l.69,.26,.46-.43-.3-.65Z"/><path class="cls-50" d="M52.7,58.59l-.04,.08-.13,.13-.1,.11,.17-.72,.12,.21,.02,.11-.04,.08Z"/><path class="cls-63" d="M48.58,49.02s-.95,.08-1.61-.03c-.66-.11-.52-1.8-.53-1.85-.02-.05-.4-.46-.34-.83,.06-.38,1.29-1.37,1.45-1.42,.11-.04,.35,.07,.35,.07,0,0,.31-.3,.4-.3s.22,.17,.19,.25c-.04,.07-.46,.32-.49,.51-.03,.19,0,.38-.12,.56-.12,.18-.35,.43-.38,.59-.03,.16-.1,.29,.02,.35,.12,.06,.52,0,.86-.15,.34-.16,.48-.36,.53-.34,.05,.02-.2,.43-.58,.59-.38,.16-.63,.34-.82,.31,0,0-.21,.5,.44,.53,.65,.03,1.01-.14,1.01-.14l-.39,1.32Z"/></g><g><path class="cls-35" d="M56.75,41.89s-1.74-.33-1.71,1.12c0,.46,.11,.62,.48,.72,.37,.1,1.11,.14,1.73,.7,.63,.56,.67,.97,.67,1.31s-.16,.65-.16,.65l.4,1.92,.4,1.42,1.18-.68,.69-2.1-.88-3.79-2.79-1.26Z"/><path class="cls-61" d="M58.48,49.19s.61-.23,.76-.72c.04-.13-.61-.73-.63-.73s.33,.17,.49,.32c.16,.15,.28,.21,.33,.19,.05-.02,.33-.67,.22-.81-.11-.14-.27-.47-.53-.64-.25-.17-.59-.15-.59-.15,0,0,.46-.15,.69-.02,.23,.13,.25,.28,.28,.23,.03-.05-.05-.7-.15-.92-.1-.22-.21-.32-.49-.38-.28-.05-.58-.03-.58-.03,0,0,.4-.22,.71-.15,.31,.08,.3,.23,.33,.2,.03-.03-.15-.59-.22-.74-.07-.14-.44-.43-.54-.46-.1-.03-.44-.04-.44-.04h-.16s.23-.16,.53-.13c.29,.03,.31,.13,.35,.11,.04-.02-.03-.05-.21-.18-.18-.13-1.05-.5-1.05-.5h-.8s0-.21,.22-.25c.23-.04,.3,.03,.28-.03-.02-.06-.67-.2-.67-.2,0,0-.38,.01-.54,.02-.16,0-.75,.07-.75,.07,0,0,.05-.13,.17-.23,.09-.08,.22-.12,.33-.16,.26-.07-.15-.27-.15-.27l.22-.33,.97,.08,2.04,1.19,.96,.82,.61,1.55-.18,2.66-1.37,1.13s-.6,.09-.6,.07,.14-.57,.14-.57h0Z"/><path class="cls-40" d="M56.69,42.57s-.06-.19-.06-.43,.04-.23,.04-.23c0,0-.65-.09-1.13,.29-.48,.38-.2,1.03-.2,1.03,0,0,.21-.2,.47-.3,.27-.1,.74-.08,.74-.08,.04-.04-.1-.23-.28-.27-.18-.04-.52-.04-.52-.04,0,0,.2-.14,.55-.11,.35,.03,.39,.14,.39,.14h0Z"/><path class="cls-31" d="M58.74,49.41l-.44,.15,.27,1.85,1.76,3.02,.92-.16,.31-.56,.25,.11c.11,.11,.45,.7,.74,.82,.29,.12,.44,.08,.7,.28,.26,.21,1.2,1.61,1.25,1.67,.05,.05-.05-.6-.05-.6l-.29-.84-.36-.59-.05-.16h.49s.3,.19,.3,.19l.47,.39,.24,.29,.13,.29,.05,.26,.12,.4,.26,.56,.31,.53,.1-.22-.15-.62-.47-1.51-.29-.51s.38,.28,.48,.31c.1,.04,.45,.55,.45,.55l.22,.53,.16,.5,.11,.43,.16,.46,.27-.16-.05-.33-.24-1.03-.1-1.12s.13,0,.29,.17c.16,.18,.31,.58,.31,.58l.12,1.01,.16,.93,.3,.95,.31,.6,.2,.33s.01-.47,0-.5c0-.02-.38-3.97-.38-3.97l.05-.17s.05-.02,.18,.16c.13,.19,.26,.48,.26,.48l.12,.62,.06,.43,.08,.81,.11,.88,.4,.94,.22,.51,.12-.6-.19-4.25,.09-.12s.23,.19,.3,.32c.08,.13,.22,.26,.22,.26l.13,.94,.12,2.68,.09,.69,.79-7.01,.49-.11,.06-.13-.36-.27-.8-1.24-.54-1.2-.94-1.74-1.64-2s-1.02-.87-1.27-1.06c-.26-.2-.47-.32-.47-.32l.08-.25,.27-.44-.04-.02h-.21s-.55,.09-.55,.09l-.55-.16-1.08-.76-1.16-.55-.68-.24-1.65-.42-1.64-.22h-.73s-.67,.11-.67,.11c0,0-.34,.14-.45,.35-.11,.21-.11,.36-.08,.66,.03,.31,.22,.47,.68,.66,.46,.19,1.54,.91,1.54,.91l.52,.52,.19,.25,.03,.19,.35,2.76-.69,1.5-.5,.26h0Z"/><path class="cls-34" d="M60.51,53.72s.3,.5,.71,.11c.42-.39-.18-1.49-.18-1.56,0-.07,.19-.09,.19-.09l.31,.57s.18,.31,.11,.79c-.07,.49-.54,.91-.54,.91l-.53-.12-.08-.62Z"/><path class="cls-31" d="M70.81,56.95s.21-.25,.3-.6c.09-.35,.13-3.07-.19-3.4-.32-.34-.98-.6-1.01-.58-.03,.02,.26,.89,.26,.89,0,0,.1,.13,.2,.35,.06,.13,.13,.35,.15,.43,.04,.23,.23,.79,.26,1.5,.03,.71,.04,1.41,.04,1.41Z"/><path class="cls-61" d="M59.44,51.73s.68,.61,1.05,.02c.37-.59,.08-1.27,.08-1.27,0,0,.96,1.41,1.23,.09,.05-.24-.58-1.15-.58-1.15l.23-.21,.48,.82s.45-.2,.45-.77-.47-1.29-.47-1.29l.45,.5s.88,.02,.9-.52c.02-.54-.74-1.1-.74-1.1,0,0,.6,.04,.6-.31,0-.35-.82-.6-.84-.82-.02-.22,.24-.6,.61-.39,.37,.2,.89,.37,1.1-.03,.21-.4-.02-.48-.02-.48,0,0-.48-.1-.52-.11-.05-.02-.85-.45-.85-.45l-.67-.25-.69-.09,.26,.52,.18,1.42v.65s.14,1.42,.14,1.42l-.34,1.19-.18,.21-.12,.16-.3,.63-.41,.45-.53,.68-.48,.52h0Z"/><path class="cls-34" d="M64.24,54.39s-.17-.42-.54-.71c-.37-.28-.95-.31-.95-.31l.99,1.05,.49-.04Zm1.39,.24s-.32-.64-.7-1.04c-.38-.39-.62-.9-.73-.9s-.18,.02-.18,.02l.1,.81,.69,.67s.65,.48,.82,.44h0Zm1.15-.05s-.16-.75-.54-1.47c-.38-.72-.78-1.01-.78-1.01l.09,.77,.31,.74,.5,.73,.42,.24Zm.94-.42s.27-1.54,.03-1.96c-.24-.43-.7-.51-.7-.51l-.15,.22,.15,1.1,.36,.84,.31,.31Zm.92-2.56s.23,.11,.5,.63c.27,.52,.66,2.05,.66,2.13,0,.08-.14,.06-.18,.04-.04-.02-.97-1.47-.97-1.47l-.15-1.36,.14,.02Z"/><path class="cls-40" d="M62.14,53.38s.49-.11,.49-.28-.59-.52-.54-.79c.02-.14,.5,.02,.53-.07,.03-.1-.49-.92-.33-1.1,.16-.19,.61,.88,.61,.88,0,0,.27,.5,.17,.79-.3,.89-.93,.57-.93,.57h0Zm1.15-1.11c.02-.07,.77,.1,.78,.05,.03-.18-.68-.72-.68-.72,0,0-.16-.31-.11-.36,.05-.05,.5,.05,.52-.02,.02-.07-.52-.78-.52-.91s.15-.02,.15-.02c0,0,.43,.44,.65,.8,.22,.36,.44,.65,.36,1.23-.08,.61-1.23,.14-1.16-.06h0Zm3.39-1.13s-.12-.51-.05-.57c.07-.07,.27-.12,.27-.12,0,0-.4-.25-.59-.25-.19,0-.22-.06-.27,.02-.05,.08,.34,.57,.34,.57l.29,.36Z"/><path class="cls-40" d="M62.9,47.06s.97,.27,.94-.34c-.02-.34-.95-1.13-1.01-1.27-.06-.13-.04-.31-.04-.31l.48,.44s.61,.15,.79-.21c.17-.35,.03-.58,0-.59-.03,0,.14-.03,.14-.03l.28,.06-.03,.55-.31,1.37s.08,.54-.34,.58c-.42,.04-.89-.26-.89-.26h0Zm.91,7.32s.02-.28-.2-.47c-.22-.19-.63-.38-.7-.42-.07-.04,.69,.86,.69,.86l.2,.03Zm1.4,.05s-.48-.6-.59-.8c-.11-.2-.36-.65-.56-.68-.2-.02,.19,.74,.19,.74l.79,.72,.17,.02Zm1.33-.01s-.42-.79-.52-1.01c-.1-.23-.32-.86-.56-1.03-.25-.17,.03,.29,.03,.29l.26,.81,.46,.71,.33,.23Zm.98-.57s-.03-.67-.11-1.14c-.08-.47-.44-.86-.47-.84-.02,.02,.03,.83,.03,.83l.55,1.15Zm2.02,.51s-.34-.81-.48-1.19c-.14-.38-.48-1.02-.51-1.03s.1,.73,.1,.73l.41,1.18,.48,.3Zm1.75-2.11s-.31-.32-.98-.58c-.67-.26-1.34-.29-1.34-.29l.08,.09,.3,.26,.7,.36,.91,.22,.32-.05Z"/><path class="cls-49" d="M64.09,52.64s0,.58,.31,.94c.3,.35,1.01,1,1.15,1.13,.14,.13,.26,.85,.47,1.45,.21,.6,.26,1.09,.35,1.26,.09,.17,.28,.44,.14,.41-.14-.03-.27-.19-.36-.41-.09-.22-.06-.22-.05-.52,.01-.3-.46-1.84-.67-2.01-.22-.17-1.2-.99-1.59-1.56-.38-.57-.3-.7-.3-.7h.55s0,0,0,0Z"/><path class="cls-49" d="M65.69,56.48c-.21-.43-.25-.81-.31-1.07-.06-.26-.9-.95-1.1-1.05-.15-.07-.46,.02-.59-.08-.13-.1-.91-.99-.91-.99,0,0-.12,.11-.08,.14,.04,.03,.85,.92,1.15,1.2,.3,.28,.46,.92,.67,1.41,.22,.49,.13,.39,.15,.63,.02,.24,.17,.38,.32,.38s.19-.07,.13-.11c-.06-.04-.36-.4-.54-.87-.16-.43-.37-1.21-.63-1.51-.02-.02-.04-.04-.06-.07,.06,0,.16-.03,.32-.04,.2-.01,1.02,.75,1.09,.97,.07,.22,0,.31,.34,1.06,.34,.75,.5,.92,.5,.92h.06s-.31-.51-.52-.94h0Zm-1.29-4.95s.6,.38,.77,.43c.18,.05,.31,.07,.31,.07,0,0,.09,1.09,.52,1.7,.43,.61,.79,.84,.79,.84,0,0,.02,1.19,.34,2,.32,.82,.39,1.81,.31,1.96-.07,.16-.35-.48-.52-1.05-.18-.56-.35-1.18-.47-1.55-.12-.38-.45-.94-.64-1.1-.19-.16-.04-.14,.07-.04,.11,.1,.42,.49,.63,1.11,.2,.63,.28,1.26,.39,1.26,.11,0,.19-.1,.19-.23,0-.13-.14-.45-.24-1.04-.1-.59-.2-.99-.3-1.15-.1-.16-.24-.19-.61-.85-.38-.65-.54-1.02-.61-1.32-.06-.3,.01-.27-.05-.32-.06-.04-.11,0-.4-.16-.29-.16-.49-.57-.49-.57h0Z"/><path class="cls-49" d="M65.94,51.31s.37,.28,.57,.37c.2,.09,.5,.1,.5,.1,0,0-.07,1.03,.33,1.7,.4,.67,.82,1.06,.82,1.06,0,0,.06,.25,.19,1.69,.13,1.44,.13,1.47,.17,2.05,.04,.58,.06,2.63-.03,2.56-.31-.24-.05-1.35-.21-1.81-.16-.46-.4-.54-.7-1.83-.3-1.3-.11-1.59-.32-2.08-.22-.49-.5-.53-.5-.53,0,0,.4,.08,.56,.49,.17,.41,.19,1.5,.33,2.03,.31,1.22,.73,1.83,.73,1.83,0,0-.09-1.53-.21-2.39-.12-.87-.11-1.59-.27-1.93-.16-.33-.51-.6-.72-1.04-.21-.44-.29-1.31-.39-1.53-.1-.22-.16-.15-.31-.21-.47-.19-.54-.53-.54-.53h0Z"/><path class="cls-49" d="M67.05,50.75s.32,.36,.77,.63c.45,.27,.68,.19,.75,.24,.07,.05-.09,.97,.38,1.82,.47,.85,.65,.86,.66,.98,.01,.11,.1,2.61,.16,3.45,.06,.85,.12,3.68-.23,3.68s-.03-2.1-.2-2.59c-.17-.49-.17-.35-.33-.74-.17-.39-.16-1.95-.43-2.86-.2-.69-.4-.8-.4-.8,0,0,.33,.18,.49,.75,.16,.57,.2,2.47,.39,2.78,.18,.31,.45,.68,.51,.97,.06,.28-.04-3.62-.12-3.85-.08-.24-.87-1.65-.93-2.43-.06-.78-.09-.86-.16-.92-.07-.06-.3-.01-.67-.36-.37-.35-.64-.74-.64-.74h0Z"/><path class="cls-49" d="M65.77,44.23s.04-.16,.12-.24c.08-.08,.39-.43,.27-.49-.12-.07-.51,.06-.76,.04-.25-.02-.42,.04-1.14-.56,0,0-2.3-1.61-5.87-1.82-1.13-.07-1.64,.34-1.69,.55,0,.05,.3-.46,1.43-.44,.5,0,4.09,.3,5.95,1.76,.1,.08,.71,.67,1.29,.6,.58-.07,.7-.13,.69-.05-.01,.08-.19,.29-.23,.39-.04,.1-.08,.28-.08,.28h.03Zm-6.22,.46s0-.01,0-.03c-.03-.1-.26-.42-.65-.78-.47-.43-1.92-1.04-1.99-1.06-.07-.02,1.49,.72,1.93,1.14,.7,.67,.73,.74,.73,.74h0Z"/></g><g><path class="cls-3" d="M53.22,58.74s.22,.39,.66,.4c.44,.02,.77,.64,.77,.64l-.48,.47-1.15,.05-.37-.59,.57-.97h0Zm.03-.4c.04-.08-.34-.82-.61-.94-.27-.12,.09,.24,.03,.39-.06,.15-.1,.34-.08,.37,.02,.03,.22,.34,.12,.48-.11,.14,.54-.3,.54-.3h0Z"/><path class="cls-3" d="M53.04,59.48s.2,.1,.37,.06c.16-.05,.3-.21,.3-.21m-.88-.13s.65-.47,.59-.72c-.05-.25-.18-.24-.27-.22-.09,.02-.48,.35-.5,.43-.02,.08,.18,.51,.18,.51h0Z"/><path class="cls-3" d="M52.38,59.51s.12,.31,.33,.31,.51-.17,.52-.29c0-.13-.21-.36-.35-.42-.14-.07-.46,.1-.46,.1l-.03,.3Z"/><path class="cls-3" d="M52.96,59.09c-.03,.1-.44,.29-.58,.3-.13,.01-.41-.33-.3-.38,.11-.05,.25-.04,.36-.1,.1-.06,.13-.19,.19-.2,.06,0,.23,.04,.27,.14,.04,.1,.09,.14,.06,.24h0Z"/><path class="cls-3" d="M52.54,59.36s-.63,.86-.9,.81c-.26-.04,.11-1.22,.11-1.22,0,0,.1,.07,.31,.13,.21,.07,.42,.14,.48,.27h0Z"/><path class="cls-3" d="M51.42,58.75s.82,.14,.86,.27c.04,.13-.39,.31-.62,.31s-.23-.58-.23-.58h0Z"/><path class="cls-48" d="M49.38,59.98s.11,.39,.46,.41c.35,.02,.69-.37,.69-.37l-.84-.33-.31,.28Z"/><path class="cls-48" d="M49.62,59.88s.14,.3,.6,.31c.46,.01,.83-.37,.83-.37l-.73-.58-.7,.64Z"/><path class="cls-59" d="M49.68,59.94s.2,.17,.45,.18c.24,.01,.54-.06,.54-.06l-.28,.1-.2,.02-.19-.03-.17-.06-.13-.1-.02-.05Z"/><path class="cls-48" d="M50.22,59.54s.2,.5,.63,.45c.43-.06,.44-.31,.44-.31l-.48-.7-.59,.56h0Z"/><path class="cls-59" d="M50.28,59.63s.26,.31,.48,.31c.23,0,.37-.09,.37-.09v.04s-.11,.06-.11,.06l-.2,.04-.21-.03-.17-.1-.16-.22h0Zm-.82,.5s.2,.2,.38,.21c.18,0,.46-.15,.46-.15h.03s-.05,.03-.05,.03l-.19,.1-.23,.07-.18-.03-.14-.08-.08-.11v-.04Z"/><path class="cls-3" d="M51.37,58.7c.19-.03,.6,.52,.6,.8s-.12,.68-.32,.67c-.2-.01-.65-.41-.75-.62-.1-.21-.2-.35-.13-.46,.07-.11,.6-.39,.6-.39Zm-2.01,.05s-.32-.25-.45-.12c-.13,.13-.09,.57,0,.65,.09,.09,.47-.21,.47-.21l-.02-.33Z"/><path class="cls-3" d="M49.32,59.06s-.43,.04-.43,.24,.2,.4,.25,.45c.04,.04,.43-.17,.43-.17l-.25-.51Z"/><path class="cls-3" d="M49.49,59.42s-.44,.13-.44,.28,.19,.44,.33,.44,.25-.27,.3-.33c.05-.05-.19-.39-.19-.39h0Zm.22-1.28s-.09-.12-.27-.04c-.18,.08-.39,.26-.35,.56,.03,.29,.14,.49,.14,.49l.67-.23-.18-.77Z"/><path class="cls-3" d="M49.76,58.65s-.57,.19-.59,.4c-.02,.22,.13,.44,.28,.48,.15,.04,.63-.43,.63-.43l-.32-.46Z"/><path class="cls-3" d="M50.25,59.56s-.56,.37-.63,.37-.28-.29-.24-.49c.04-.2,.42-.34,.57-.39s.3,.51,.3,.51h0Zm.49-2.03s-.18-.15-.52-.12c-.34,.02-.59,.47-.63,.69-.04,.22,0,.64,.12,.7,.13,.06,.83-.5,.83-.5l.19-.77Z"/><path class="cls-3" d="M50.06,59.21c-.23-.02-.44-.36-.4-.56,.04-.21,.5-.56,.74-.52,.24,.04,.19,.65,.19,.65,0,0-.3,.46-.53,.43h0Z"/><path class="cls-3" d="M50.8,59.16s-.12,.27-.35,.39c-.24,.12-.38,.02-.52-.17-.14-.2,.06-.28,.17-.38,.11-.1,.42-.17,.42-.17l.28,.34Z"/><path class="cls-3" d="M50.43,58.44s-.26,.21-.11,.46c.15,.25,.27,.33,.46,.36,.19,.03,.31-.04,.46-.22,.15-.18,.37-.26,.35-.49-.02-.22-.11-.4-.24-.46-.13-.07-.54,0-.91,.35h0Z"/><path class="cls-48" d="M51.18,57.38s-.27-.1-.48,.02c-.21,.12-.35,.37-.36,.6,0,.23,.04,.55,.04,.55,0,0,.29-.08,.47-.24,.19-.16,.25-.2,.22-.28-.02-.05-.09-.1-.09-.29,0-.34,.2-.36,.2-.36Z"/><path class="cls-59" d="M51.18,57.38s-.31-.05-.47,.05c-.16,.1-.29,.25-.35,.46-.06,.21-.02,.26-.02,.26,0,0-.03-.18,.03-.35,.06-.2,.22-.39,.38-.44,.19-.06,.43,.02,.43,.02h0Z"/><path class="cls-3" d="M59.27,63.35s.23-.1,.38-.18c.16-.09,.5-.31,.5-.31l.11,.57-.44,.34h-.38s-.23-.16-.23-.16l.05-.25Z"/><path class="cls-3" d="M58.66,63.4s0,0,.27,.01c.26,0,.29-.09,.34-.07,.05,.02,.12,.31,.12,.31l-.1,.18-.38,.22-.32-.18-.03-.45,.1-.02Zm3.02-.18s-.08-.13-.23-.26l-.54-.47v1.22s.56-.01,.56-.01l.27-.38-.07-.11Z"/><path class="cls-3" d="M58.66,63.4s-.08-.12-.32-.1c-.24,.03-.49,.22-.52,.39-.03,.16,0,.64,.13,.73,.13,.09,.29,.14,.55,.07,.26-.07,1.57-.88,1.57-.88,0,0-.15,.03-.34,.07-.18,.04-.35-.04-.35-.04,0,0-.18,.2-.39,.24-.21,.03-.26-.1-.3-.2-.04-.1-.04-.29-.04-.29h0Z"/><path class="cls-3" d="M59.54,63.83s-.19,.07-.27,.13c-.07,.05-.33,.14-.33,.14l.1,.4,.56,.14,.35-.29v-.4s-.41-.12-.41-.12Zm2.61-.28s-.09-.08-.19-.2c-.1-.12-.23-.14-.27-.12-.04,.02-.3,.36-.3,.36l-.02,.26,.31,.17,.22,.04,.29-.19-.03-.32Z"/><path class="cls-3" d="M60.22,63.35s-.25,.11-.37,.22c-.12,.1-.31,.22-.31,.26s.28,.34,.28,.34l.29,.02,.62-.43-.04-.4h-.47s0,0,0,0Zm2.36,.52s-.05-.1-.14-.19c-.1-.09-.22-.14-.29-.13-.07,0-.31,.37-.31,.37l-.03,.1,.22,.26,.4,.1,.27-.28-.11-.23Z"/><path class="cls-1" d="M61.56,64.3l.28,.05s0,.07,.07,.14c.08,.07,.09,.02,.09,.02,0,0,.04,.27,.34,.5,0,0,.35,.11,.52,.02,.18-.1,.15,.03,.15,.03l.5-.62s0-.12-.12-.13c0,0,.09-.38-.23-.47-.32-.08-.58,.03-.58,.03,0,0-.25,.45-.39,.39-.03-.01-.12-.06-.18-.12-.14-.15-.18-.22-.18-.22,0,0-.1,.03-.23-.05-.12-.08-.23-.28-.23-.28,0,0-.19-.03-.25-.1-.06-.07-.13-.19-.13-.19l-.46,.33s-.01,.15-.28,.34c-.27,.2-.43,.2-.43,.2,0,0-.08,.4-.38,.34-.3-.06-.51-.4-.51-.4,0,0-.22-.03-.36,.15-.14,.19-.21,.25-.21,.44s.12,.45,.22,.53c.1,.09,.4,.33,.75,.14,.36-.19,.24-.49,.24-.49,0,0-.01,.02,.2-.12,.21-.14,.45-.36,.61-.43"/><path class="cls-3" d="M61.01,61.83v.79s.1,.7-.05,.92c-.15,.22-.71,.17-.79-.02-.08-.19-.04-.8-.04-.8l.88-.9Z"/><path class="cls-1" d="M60.38,64.23s-.12,.21,.25,.24c.1,0,.17-.03,.22-.08,.09-.11,.07-.2,.07-.2,0,0-.03,.29,.3,.3,.37,.01,.33-.34,.33-.34"/><path class="cls-48" d="M57.37,64.88s-.2-.34,.04-.47c.24-.13,.37,0,.52,.01,.15,0,.1-.37,.07-.45-.03-.08-.11-.24-.17-.28-.06-.04-.86,.04-.85,.57,0,.52,.4,.62,.4,.62h0Zm1.25,1.28s-.26-.37-.12-.58c.14-.22,.25-.09,.32-.09,.07,0,.1-.16-.02-.4-.12-.24-.26-.36-.35-.37-.09-.01-.57,.34-.47,.8,.11,.55,.64,.65,.64,.65h0Zm4.51-.44s.87,.37,.93-.51c.03-.47-.39-.79-.52-.79-.09,0-.16,.05-.32,.24-.16,.19-.27,.32-.21,.39,.06,.07,.32-.08,.44,.2,.19,.47-.32,.47-.32,.47Z"/></g><g><path class="cls-28" d="M52.76,47.3l-.16-.03,.12-.27,.46-.17,.46-.02,.48-.02,.22,.15,.25,.57-.91,.54-.15,.05-.06-.22-.14-.37-.56-.21Z"/><path class="cls-49" d="M61.28,60.5l-.06-1.37-3.69,1.14,1.46,1.37,2.28-1.14Z"/><path class="cls-40" d="M54.46,58.12l-.31-.24s-.22-.16-.35-.2c-.12-.04-.28,0-.28,0l-.05,.07,.05,.13,.34,.39s.55,.28,.56,.29c.01,0,.2,.19,.2,.19l.13,.05-.28-.68Zm-.09,.58l.21,.03,.21,.24,.13,.26,.17,.34,.05,.2-.41-.09-1.19-.37,.1-.28,.21-.19,.17-.08,.24-.04,.1-.02Z"/><path class="cls-40" d="M55.15,59.68l.2-.02,.13-.11-.06-.45,.07-1.43-.97-1.15-.2,.66,.28,1.16,.21,.69,.33,.64Z"/><path class="cls-34" d="M54.45,57.06s-.06,.12,.02,.5c.08,.38,.22,1.22,.55,1.79,.33,.57-.32-.45-.32-.45,0,0-.52-1.16-.44-2.04,.08-.88,.19,.21,.19,.21h0Z"/><path class="cls-40" d="M53.15,59.69c.04-.07,.07,.15,.45,.2,.38,.05,.55-.07,.55-.07l.17,.11,.2,.04-.18,.27-.69-.2-.37-.21-.12-.15Z"/><path class="cls-34" d="M55.61,59.2l.19,.28,.12-.6v-.63s-.4-.26-.4-.26l.09,1.22Z"/><path class="cls-61" d="M54.52,58.18l-.32-.54-.42-.77,.26-.44,.31,.46s-.09,.31-.03,.61c.06,.29,.2,.69,.2,.69h0Z"/><path class="cls-40" d="M52.31,60.14s.14-.23,.47-.26c.33-.03,.59,.04,.59,.04l.67,.35,.13,.22-1.26-.17-.6-.18h0Z"/><path class="cls-31" d="M55.58,57.92s.02,.75,.05,.99c.02,.24,.17,.47,.15,.56s-.07,.15-.23,.2c-.16,.06-.48,0-.48,0,0,0,.31-.04,.33-.11,.02-.07-.1-.35-.11-.61-.02-.26,.02-.55-.07-.55s-.19,.11-.2,.15c-.02,.03,.09-.93,.19-1.04,.11-.11,.39,.4,.39,.4Z"/><path class="cls-34" d="M53.28,59.89s-.13-.12-.13-.2c0-.08,.15,.4,.84,.37,.69-.03,.65-.04,.65-.04h.32s-.07,.3-.13,.33c-.06,.03-.54,.35-.55,.36l-.17,.09v-.05s-.02,0-.02,0l-.06-.53-.6-.23-.17-.1Z"/><path class="cls-31" d="M54.52,58.18s-.8-.83-1.06-1.37c-.27-.55-.1-1.3-.1-1.3l.75,.98s-.1,.19-.06,.5c.03,.31,.48,1.19,.48,1.19h0Z"/><path class="cls-34" d="M54.01,61.19c-.03-.06-.06-.24,.1-.43,.47-.59,1.67-1.02,1.67-1.02v.72s-1.54,.74-1.54,.74l-.23-.02Z"/><path class="cls-34" d="M56.16,60.81s-.27-.09-.45-1.2c-.19-1.11-.13-1.41-.13-1.41l.45,.31,.4,.73-.26,1.56Z"/><path class="cls-31" d="M56.3,58.96s-.21,.62-.21,.98-.04,.6,.07,.86c.1,.25,.46,.57,.46,.57l.16-.17,.07-.5,.04-.83-.59-.91h0Z"/><path class="cls-49" d="M56.93,59.81s.1,1.57-.29,1.61c-.19,.02-.48-.59-.48-.61,0-.02,.35,.57,.48,.51,.25-.1,.17-1.63,.17-1.63l.13,.11h0Zm-.77,1s-.07-.03-.18-.21c-.11-.18-.01,.16-.85,.45-.84,.29-1.13,.13-1.13,.13,0,0,.28,.22,1.12-.03,.84-.25,.77-.3,.88-.32,.11-.02,.16-.02,.16-.02h0Z"/><path class="cls-34" d="M54.61,58.81s.13,.11,.28,.42c.15,.31,.26,.52,.26,.52l.04-.04s-.1-.29-.24-.52c-.14-.23-.54-.79-.54-.79l.21,.41Z"/><path class="cls-49" d="M54.1,60.76s.01-.07-.05-.14c-.06-.07-.18,.03-.87-.16-.69-.19-.87-.32-.87-.32,0,0,.25,.22,.85,.37,.61,.16,.94,.25,.94,.25h0Z"/><path class="cls-34" d="M54.41,58.7s-.52,.03-.69,.16c-.17,.14-.4,.49-.4,.49l.34,.04s-.04-.32,.12-.47c.16-.16,.41-.17,.63-.22h0Z"/><path class="cls-31" d="M53.42,57.7s.21,.28,.43,.38c.22,.1,.44,.18,.54,.29,.1,.11,.22,.45,.22,.45,0,0-.75-.33-.9-.5-.15-.16-.29-.61-.29-.61h0Z"/><path class="cls-31" d="M54.15,57.88s-.07-.11-.27-.21-.36-.08-.42-.04c-.06,.04-.04,.07-.04,.07l.27,.41,.15-.04s-.41-.26-.31-.34c.2-.17,.61,.13,.61,.13h0Z"/><path class="cls-49" d="M56.17,56.93l4.2-2.17,1.99,2.77-3.63,.97-1.92,.16-.94-.68,.3-1.06Z"/><path class="cls-61" d="M61.8,58.12l5.23,4.53-.58,.4-1.23-.35-2.55-2.52-.94-.95,.06-1.11Z"/><path class="cls-61" d="M68.5,61.75s-1.3-1.03-2.99-2.28c-1.69-1.25-3.78-2.84-3.78-2.84l.1,1.35,4.32,3.97,1.42,.69,.72-.22,.37-.38-.16-.29h0Z"/><path class="cls-18" d="M61.78,58.55s1.51,1.7,2.65,2.57c1.14,.87,2.24,1.82,2.47,1.68,.23-.13,.15-.28,.15-.28l-5.3-4.32,.03,.34h0Z"/><path class="cls-61" d="M65.49,62.9l-.53,.41-.61-.25-3.22-3.29,.16-.61,.45,.07,3.75,3.67Z"/><path class="cls-49" d="M68.5,61.75s-.39,.93-1.23,.71c-.84-.22-5.46-4.61-5.46-4.61v.46s4.67,4.29,5.57,4.46c.9,.17,1.64-.61,1.55-.7-.06-.06-.43-.33-.43-.33h0Z"/><path class="cls-18" d="M61.27,59.23s1.49,1.91,2.28,2.62c.79,.7,1.47,1.26,1.79,1.2,.32-.07-.19-.43-.19-.43l-2.26-2.23-1.15-1.16s-.45-.18-.47,0h0Z"/><path class="cls-49" d="M61.64,59.23s3.79,3.86,4.09,3.95c.63,.19,1.54-.47,1.54-.47l-.33-.2-.04,.12s-.16,.39-.98,.22c-.82-.17-4.14-3.75-4.14-3.75l-.13,.13h0Z"/><path class="cls-61" d="M63.07,62.93l-1.38-1.59-.31-.52-.08-.67,2.75,2.77-.39,.26-.34-.11-.26-.13Z"/><path class="cls-49" d="M65.56,62.98s-.33,.49-.79,.39c-.45-.1-.71-.43-.71-.43l-2.64-2.58-.06-.39s2.89,3.06,3.41,3.2c.38,.1,.66-.36,.66-.36l.13,.18h0Z"/><path class="cls-49" d="M64.09,62.9s-.13,.38-.52,.33c-.39-.05-.51-.21-.51-.21l-1.62-1.92-.03-.51s1.68,2.32,2.07,2.45c.39,.13,.48-.26,.48-.26l.12,.12h0Z"/><path class="cls-36" d="M62.37,57.86s1.56,1.34,1.69,1.41c.13,.07,.68,.08,.71,.16,.03,.08-.35,0-.39,.08-.03,.08,.79,.75,.92,.77,.13,.02,.79,.02,.77,.1-.02,.08-.45,0-.47,.1-.02,.1,.71,.67,.84,.69,.13,.02,.97,.02,.97,.1s-.68-.02-.66,.13c.02,.15,1.15,.85,1.1,.95-.05,.1-1.36-.88-1.39-.83-.03,.05-.08,.36-.16,.41-.08,.05,0-.41-.06-.61-.06-.2-.82-.77-.9-.7-.08,.07-.02,.41-.1,.41s.02-.43-.06-.57c-.08-.15-.79-.74-.89-.74s-.03,.31-.1,.36c-.06,.05-.05-.36-.15-.49-.1-.13-1.74-1.62-1.68-1.72h0Z"/><path class="cls-61" d="M61.24,62.94c.09-.03-.09-.84-.09-.84l-.48-1.2-.13-.43-.39-.15-.26,.3,.06,.47s.38,.79,.56,1.07c.18,.28,.57,.82,.73,.77h0Z"/><path class="cls-49" d="M60.81,60.39c.14,.1,.3,.42,.34,.64,0,0,.32,.88,.28,.97-.04,.09-.24,.1-.24,.1,0,0,.43,.45,.56,.39,.13-.05,.07-.49,.03-.59-.04-.1-.18-.03-.24-.13-.05-.1-.22-.69-.23-1.04-.01-.35-.02-.59,.02-.68,.04-.09,.37,.73,.37,1.17l.14,.16s-.09-.6-.14-.79c-.05-.19-.17-.5-.17-.57s.06-.22,.06-.37-.01-.25-.01-.25c0,0,.17,.12,.24,.11,.06-.01,.16-.1,.2-.48,.04-.38-.04-1.49-.04-1.49l-1.68,2.21,.5,.63h0Z"/><path class="cls-49" d="M60.81,60.2s-.06,.59,.16,1.21c.22,.61,.28,.63,.32,.72,.04,.09,.04,.73-.04,.81,0,0-.43-1.1-.57-1.64-.15-.54-.18-.75-.26-.79-.08-.04-.2-.05-.2-.05l.6-.26Z"/><path class="cls-61" d="M60.65,63.37s.02-.25,.02-.25l-.07-.57-.59-1.21-.65-.58-.34-.52-.05,1s.47,1,.77,1.28c.31,.29,.81,.88,.9,.86h0Z"/><path class="cls-49" d="M58.24,60.64s.1,.27,.1,.44v.34s.24,.48,.45,.86c.22,.38,.42,.77,.6,.69,.18-.09,.25-.37,.26-.4,.01-.03-.2,.33-.31,.27-.11-.05-.59-1.61-.58-1.65,.01-.03-.13-.1-.24-.21s-.28-.34-.28-.34Zm1.76,1.36s-.33-.54-.44-.79c-.11-.24-.29-.43-.34-.43s-.12-.49-.12-.49c0,0,.18,.32,.4,.43,.23,.11,.37,.2,.47,.15,0,0,.06,.25,.06,.5s-.03,.61-.03,.61h0Z"/><path class="cls-56" d="M58.92,61.2s.11,.34,.33,.67c.22,.33,.58,.72,.58,.72,0,0-.4-.39-.61-.7-.21-.31-.35-.7-.35-.7h.04Z"/><path class="cls-49" d="M60.07,60.79s.11-.3,.2-.31c.09-.01,.29-.07,.29-.07,0,0-.17-.04-.3-.2-.14-.17-.17-.15-.32-.33,0,0,.09,.33,.11,.49,.03,.16,.03,.42,.03,.42Zm-.11,.1s.48,1.03,.6,1.37c.12,.34,.1,.86,.1,.86,0,0-.06-.37-.17-.67-.11-.3-.54-1.13-.58-1.23-.04-.1,.04-.33,.04-.33h0Z"/><path class="cls-61" d="M60.62,60.22l.11-1.51-.11-.53-.68-1.51s-.03,.22-.2,.21c-.17,0-.62-.25-.77-.45,0,0,.09,.35,.06,.69-.03,.34-.09,.52-.09,.52l1.31,2.45,.38,.12Z"/><path class="cls-25" d="M58.02,61.21s.2,.25,.32,.21c.12-.03,.07-.5-.08-.76-.15-.26-1.74-2.39-1.98-2.52-.24-.13,1.73,3.07,1.73,3.07h0Z"/><path class="cls-26" d="M59.11,60.33c.03,.1,.15,.78-.13,.84-.38,.09-2.13-2.33-2.4-2.66,0,0-1.1-.69-1.12-.86-.02-.17,1.18,.24,1.18,.24l2.34,2.24s.09,.1,.12,.2h0Z"/><path class="cls-61" d="M59.96,60.89c.17-.1,.1-.69,.03-.87-.07-.19-1.11-2.36-1.11-2.36l-.31,.12-.59-.46-.33-.36s.12,.52,.11,.77c-.01,.25-.02,.4-.02,.4l.83,1.45,1.4,1.31h0Zm1.17-1.31l.25-.33-.13-1.08-.69-2.36s-.17,.04-.34-.07c-.17-.11-.35-.32-.35-.32l.17,1.41,.71,1.97,.04,.59,.34,.17h0Z"/><path class="cls-25" d="M60.66,60.39c.29-.12,.28-1.34,0-2.17-.28-.83-.73-1.54-.73-1.54,0,0,.56,1.33,.69,1.87,.12,.54,0,.92-.1,.89-.1-.03-.1-.32-.32-.84-.23-.52-.38-.65-.38-.65,0,0,.8,2.18,.57,2.14-.23-.04-1.34-2.46-1.39-2.53-.05-.07-.08,.09-.08,.09,0,0,.99,3.04,1.73,2.74h0Z"/><path class="cls-61" d="M61.3,54.49l.49,1.04,.15,1.1,.04,.93s.03,1.83-.19,1.87c-.23,.04-.33-.17-.34-.22-.01-.04-.42-2.06-.42-2.06l-.43-2.11,.15-.15,.05-.31,.33-.02,.17-.08Z"/><path class="cls-25" d="M59.96,60.89c.19-.03,0-.52,0-.52,0,0-.16,.24-.29,.08-.13-.16-.33-.77-.33-.77l-.13-.37s-.14,.4-.32,.4-1.13-1.6-1.13-1.6l-.11,.16s1.33,2.76,2.32,2.62Z"/><path class="cls-28" d="M61.35,59.85c.26,0,.03-1.48-.08-1.86-.11-.38-.72-2.17-.72-2.17,0,0,.74,2.55,.68,2.68-.09,.19-.38-.77-.43-.76-.05,.01,.55,1.72,.33,1.75-.21,.02-.32-.36-.32-.36l.02,.37s.14,.36,.52,.37h0Z"/><path class="cls-28" d="M61.67,59.1c.18,0-.05-1.41-.18-2.03-.13-.62-.49-1.87-.49-1.87,0,0,.36,.86,.57,1.85,.2,.99,.34,2.27,.15,2.29-.19,.02-.29-.19-.29-.19l-.03-.23s.09,.16,.27,.16h0Z"/><path class="cls-58" d="M59.25,60.75c.03,.1,.02,.58-.23,.55-.26-.03-.72-.47-.82-.75,0,0,.56,.62,.75,.61,.19,0,.19-.64,.16-.8-.03-.16,.15,.39,.15,.39h0Z"/><path class="cls-40" d="M60.59,54.05s.33,.21,.6,.06c.27-.16,.44-.53,.44-.74,0-.2-.02-.38-.18-.6-.16-.21,.26,.18,.25,.57,0,.39,.02,1.07-.61,1.22-.63,.15-.35-.03-.35-.03l-.15-.48Z"/><path class="cls-31" d="M60.09,52.85s.4,.65,.55,1.24c.15,.59,.12,.81,.03,.82-.1,.01-.13-.07-.16-.22-.02-.15-.42-1.84-.42-1.84h0Z"/><path class="cls-46" d="M53.13,53.65l2.63,3.81,3.29-3.71-2.08-2.14-3.84,2.05Z"/><path class="cls-61" d="M56.45,51.31l-.15,.6,.32,1.01,.55,.56,.64,.42,.15-.47,.15-.56,.16-.06,.4,.16,.27-.38,.43-.77-.09-.3-.1-.21-.67-1.16-.22,.44-.21,.13-.39-.22-.47,.61-.57-.27-.19,.46Z"/><path class="cls-57" d="M57.81,53.91s.11-.08,.16-.38c.05-.3,.06-1.23-.02-1.6-.08-.37-.32-1.1-.37-1.04-.05,.06,.38,.8,.31,1.71-.06,.91-.03,1.16-.23,1.25-.19,.09,.14,.06,.14,.06h0Z"/><path class="cls-57" d="M57.96,52.38s.44,.62,.65,.4c.21-.22,.1-1.01-.03-1.33-.14-.31-.28-.76-.28-.76l.13-.13s.14,.52,.23,.85c.08,.33,.32,1.29,.03,1.46-.29,.17-.71-.35-.71-.35v-.15s0,0,0,0Z"/><path class="cls-31" d="M56.55,52.81s.15-.21,.34-.23c.2-.02,.24,.07,.24,.07l.18,.51,.3,.53,.26,.26-.16,.15-.21,.04s-.62-.33-.63-.35c-.01-.02-.17-.23-.17-.23l-.15-.74h0Z"/><path class="cls-40" d="M57.59,58.23c-.21,.11-.68-.13-.94-.36-.27-.23-1.67-1.67-1.67-1.67l-.2-.79,.54,.15,.95-.41,.18-.34,1.14-.6,.64-.34,1.39-.02,.33-.68s.47,.8,.54,1.13c.08,.33,.06,1.34-.06,1.41-.12,.07-.57-.3-.64-.33-.06-.02,.34,1.42,0,1.48-.34,.06-.9-.54-.9-.54,0,0,.23,1.29-.04,1.3-.27,0-.95-.32-1.25-.64,0,0,.33,1.07-.02,1.25h0Z"/><path class="cls-31" d="M57.32,56.55s.22,.33,.29,.43c.07,.1-.01,.72-.05,.83-.09,.23-.4-.28-.58-.73,0,0-.5-.84-.54-.95-.03-.11,.87,.42,.87,.42Zm2.7-3.2s.49,2.02,.25,2.09c-.24,.07-.91-.64-.98-.74-.08-.1-1.01-1.59-1.01-1.59l-.2-.2,.06-.1,.4,.15,1.48,.4h0Z"/><path class="cls-31" d="M56.65,57.86c.03,.13-.12,.16-.27,.12-.15-.04-.75-.25-1.7-1.31-.95-1.06-1.32-1.82-1.32-1.83,0-.02-.05-.45-.05-.45l.28-.12,1.63,2.49,1.42,1.1h0Z"/><path class="cls-61" d="M58.24,56.79s-.49-.35-.81-.73c-.31-.38-.95-1.25-.94-1.42,.02-.17,.28-.17,.28-.17l-.02-.44,.08-.15,.46,.19,.58,.71,.21,.29s.38,.91,.3,.99c-.07,.08-.6-.51-.67-.43-.06,.07,.61,1.1,.51,1.17h0Zm-.92-.24s.16,.25,.09,.42c-.07,.17-.14,.26-.38-.1-.24-.36-.53-.76-.56-.73-.03,.03,.03,.55-.09,.55s-.5-.45-.74-.81c-.24-.36-.61-.96-.61-.96,0,0,.03-.12,.02-.53-.02-.41-.05-.62-.05-.62,0,0,.04,.13,.08,.22,.04,.1,.11,.16,.11,.16l.89,1.05,.25-.17,.53,1.02,.48,.5h0Zm-3.36-1.52s.69,1.2,1.32,1.87c.64,.67,1.37,.96,1.37,.96l-2.07-2.45-.62-.39h0Zm5.26,.71s-.46-.43-.73-.84c-.27-.41-.48-.98-.46-1.24,.02-.25,.09-.87,.09-.87,0,0,.71,.74,.85,1.08,.14,.34,.43,.81,.37,.87-.06,.06-.54-.32-.6-.23-.06,.09,.56,1.18,.48,1.23Zm.81-.77c-.09,.04-.44-.38-.54-.64-.1-.26-.13-.78-.13-.78l-.31-.74,.03-.83,.31-.05,.48,.66s.19,.38,.18,.94c0,.56,.08,1.39-.02,1.44Zm-5.59,2.02c-.64-.79-1.02-1.52-1.02-1.52l-.21-.7,.11,.09s.19,.81,1.17,1.77c.98,.97,1.2,1.05,1.2,1.05,0,0,.19,.53,.1,.72,0,0-.71-.62-1.35-1.41h0Z"/><path class="cls-49" d="M55.49,58.12s-.84-.74-1.51-1.58c-.67-.84-1.09-1.65-1.09-1.65l.29-.27s.55,1.29,.95,1.81c.4,.51,1.35,1.7,1.35,1.7h0Zm1.16-.26s-.97-.97-1.47-1.51c-.49-.55-.77-1.1-.77-1.1l.41,.16s.16,.43,.52,.87c.36,.44,1.31,1.58,1.31,1.58h0Zm-.18-1.73s-.53-.65-.78-1.06c-.25-.41-.51-.93-.51-.93,0,0,.72,.82,.93,.87,.21,.06,.2,0,.2,0,0,0-.09,.29-.02,.54,.07,.25,.18,.58,.18,.58h0Zm.22-2.63s.09,.46,.03,.73c-.06,.27-.2,.27-.2,.27,0,0,.28,.39,.44,.55,.16,.16,.56,.45,.56,.45,0,0-.32-.45-.45-.68-.13-.23-.32-.49-.24-.71,.08-.22,.52,.15,.64,.26,.12,.1,.64,.71,.64,.71,0,0-.19-.63-.44-.86-.25-.23-.97-.71-.97-.71h0Z"/><path class="cls-49" d="M58.82,54.87s-.27-.66-.43-1.06c-.16-.4-.4-1.28-.4-1.28,0,0,.02,.4,0,.7-.02,.29-.13,.74-.25,.81-.13,.07-.16,.08-.4,.01-.24-.07,.17,.11,.17,.11,0,0,.24,0,.35-.13,.1-.12,.13-.37,.24-.34,.11,.04,.23,.42,.33,.59,.09,.17,.4,.59,.4,.59h0Z"/><path class="cls-49" d="M57.99,52.52s.51,.57,.73,.32c.22-.26,.09-.99,.09-.99,0,0,.31,.12,.41,.04,.1-.08,.05-.36,.05-.36,0,0,.55,.81,.82,1.32,.27,.52,.4,1.45,.4,1.45,0,0-.46-.74-.69-1.45-.21-.64-.52-.93-.58-.87-.06,.06-.14,.51-.07,.74,.07,.23,.26,.54,.39,.87,.13,.33,.27,.85,.27,.85,0,0-.26-.4-.41-.61-.15-.22-.31-.3-.42-.4-.1-.1-.26-.29-.41-.35-.15-.06-.46-.21-.46-.09s-.06-.23-.06-.23l-.06-.22Z"/><path class="cls-31" d="M59.61,55.12c-.07,.03-.31-.06-.33,.03-.02,.09,.13,.42,.31,.6,.17,.18,.25,.18,.29,.16,.04-.02-.02-.18-.05-.36-.03-.18,0-.37-.03-.43-.02-.06-.19,0-.19,0h0Z"/><path class="cls-40" d="M53.58,51.52l-.29,.19-.35,.72,.1,1.32s.33,.46,.53,.76c.2,.29,.87,1.04,1.04,1,.17-.04,.36-.57,.38-.85,.02-.28,.04-.81,.04-.81,0,0,.16,.28,.44,.59,.28,.31,.52,.59,.65,.57,.13-.02,.52-.8,.53-.89,.01-.1-.97-2.5-.97-2.5l-.44-.23-1.65,.13h0Z"/><path class="cls-34" d="M55.78,53.52s.17,.61,.27,.92c.11,.3,0,.56,.05,.57,.06,0,.57-.68,.57-.99,0-.31,0-.63-.13-1.58-.14-.95,.04-1.22,.04-1.22l-.29-.24-.51,1.02-.02,1.52h0Zm-1.72-.54s.11,.92,.18,1.23c.06,.3,.24,.82,.34,.81,.1,0,.4-.82,.41-1.1,0,0-.21-.39-.2-1.38,0-.99-.1-1.09-.1-1.09l-.63,1.53h0Z"/><path class="cls-55" d="M52.73,51.07s-.77,1.12-.76,1.74c.02,.62,.12,.48,.3,1.04,.18,.56,.27,1.38,.28,1.45,.01,.07,.12-.04,.14-.12,.02-.08,.04-4.11,.04-4.11h0Z"/><path class="cls-34" d="M52.73,51.2s-.68,1.05-.63,1.63c.05,.58,.14,.56,.33,1.08s.21,1.36,.21,1.36c0,0,.22-.06,.46-.24,.24-.17,.46-.52,.46-.52,0,0-.08-.19-.24-.53-.16-.34-.17-.47-.17-.47l-.2-.28,.06-1,.18-.73v-.27l-.46-.03Z"/><path class="cls-43" d="M56.39,53.01s-.34-.07-.48-.16c-.14-.08-.19-.28-.19-.28l.08-.2,.59,.63Z"/><path class="cls-40" d="M52.87,51.32s-.49,1.05-.43,1.78c.06,.73,.46,1.65,.49,1.66,.04,.01,.02-.07,.03-.23,.01-.16-.02-2.17-.02-2.17l.24-.7v-.37s-.31,.03-.31,.03h0Z"/><path class="cls-31" d="M54.05,51.55s.06,.32,.02,.45c-.04,.13-.3,.29-.41,.5-.11,.21-.26,.69-.26,.69,0,0,.12-.27,.28-.45,.16-.17,.23-.29,.26-.2,.03,.1,.09,.51,.05,.59-.03,.08-.16,.2-.25,.49-.09,.31,.01,.59,.01,.59,0,0,.06-.35,.11-.53,.04-.16,.18-.24,.18-.24l.27,.58s0-.27,.04-.48c.04-.21,.27-.5,.34-.5s.19-.04-.09-.18c-.09-.06-.03-1.06,.04-1.1,.07-.04,.45-.06,.41-.19-.04-.14-.37-.51-.4-.55-.03-.03-.62,.54-.62,.54h0Z"/><path class="cls-43" d="M56.33,53.69s-.23-.04-.36-.07c-.13-.02-.15-.15-.15-.15l.04-.16,.3,.16,.17,.2Z"/><path class="cls-43" d="M52.64,50.93s.2,.02,.32,.02c.12,0,.2-.06,.2-.06l.2-.3s-.1,.36-.03,.62c.07,.26,.22,.29,.28,.29s.34-.06,.56-.29c.22-.23,.52-.47,.52-.47,0,0-.07,.33,.05,.66,.12,.33,.3,.32,.55,.12,.25-.2,.51-.55,.65-.7,.08-.08,.17-.26,.17-.26l.28-.22,.24-1.35-.13-.18-.35,.17-.42-.17-.12-.17-.24,.41-.25,.16-.13,.02-.29,.06-.13-.26-.08-.2-.14-.07-.6,.61-.34-.02-.34,.54-.25,.34-.25,.6,.07,.11Z"/><path class="cls-31" d="M55.56,49.56s.05,.34-.12,.9c-.17,.56-.4,.97-.4,.97,0,0,.6-.37,.9-1.03,.29-.66,.22-1.42,.22-1.42l-.59,.59h0Zm.73-.62s.07,.1,0,.61c-.06,.51-.19,1-.19,1,0,0,.07,.12,.15,.29,.08,.16,.28,.45,.43,.4,.15-.05,.37-.22,.52-.56,.15-.34,.29-.66,.35-.71,.06-.05,.08,.03,.11,.06,.02,.02,.07,.31,.22,.43,.15,.12,.33,.31,.42,.26,.09-.06,.18-.22,.16-.31-.02-.08-.32-1-.32-1l-.39-.99-.25-.38-.7,.07-.52,.84h0Z"/><path class="cls-34" d="M57.51,48.04s.2,.43,.21,.88c.01,.46-.09,.94-.09,.94,0,0,.04-.57-.02-.92s-.17-.57-.16-.67c.01-.1,.06-.24,.06-.24h0Z"/><path class="cls-46" d="M58.26,47.61s.16,.41,.23,.98c.06,.57-.01,1.23-.01,1.23,0,0-.34-.53-.43-.75-.09-.22-.09-.55-.16-.71-.05-.1-.17-.2-.26-.26-.06-.04-.25-.03-.25-.03,0,0,.2-.1,.22-.27,.02-.17,0-.27,0-.27,0,0,.13,.07,.34,.09,.21,.03,.33-.02,.33-.02Zm-1.51,2.42s.37-.51,.46-1.15c.1-.63-.02-.85-.02-.85,0,0-.15-.02-.27-.14-.12-.12-.32-.43-.32-.43,0,0,.05,.33-.02,.73-.07,.4-.44,.78-.44,.78,0,0,.19,.07,.37-.03,.36-.21,.34-.62,.34-.62,0,0,.08,.05,.07,.55-.01,.5-.18,1.16-.18,1.16h0Z"/><path class="cls-31" d="M52.4,50.91c-.08-.01,.24-.51,.46-.85l.52-.83s.06,.06,.19,.05c.13,0,.46-.16,.6-.41,.14-.25,.24-.53,.25-.61,0-.08-.02,.44,.23,.73,.25,.29,.24,.26,.35,.24,0,0,0,.36-.11,.7-.1,.34-.19,.82-.19,.82,0,0,.04-.63-.06-.81-.1-.18-.16,.02-.25,.25-.09,.23-.28,.39-.28,.39,0,0,.14-.28,.24-.57,.1-.29,.05-.3,.02-.31-.02,0-.07-.02-.18,.11-.11,.12-.21,.16-.21,.16,0,0,.13-.11,.17-.25,.04-.15,.16-.36,.23-.44,.07-.08,.12-.18,.12-.24s-.02-.18-.06-.18-.11,.07-.35,.29c-.23,.22-.27,.24-.32,.32-.04,.08-.07,.19-.22,.65-.14,.46-.24,.65-.27,.69-.02,.04-.13,.11-.13,.11,0,0,.08-.26,.2-.59,.12-.34,.28-.78,.24-.85-.04-.07-.15-.07-.18,0-.03,.07-.27,.35-.5,.7-.23,.34-.23,.77-.29,.79,0,0-.16,0-.23-.02Z"/><path class="cls-24" d="M58.49,47.24s.02,.29-.23,.37c-.25,.09-.56-.02-.59-.04-.03-.03-.03-.35-.03-.35l.85,.03Z"/><path class="cls-32" d="M53.59,48.04s-.05,.23-.18,.52c-.14,.29-.37,.53-.34,.57,.03,.04,.16,.17,.36,.17,.2,0,.27-1.21,.27-1.21l-.04-.04h-.07Z"/><path class="cls-43" d="M56.69,47.38s-.09,1.59-.54,1.59c-.45,0-.65-.81-.65-.81,0,0-.04,1.08-.61,1.08-.26,0-.53-.83-.47-.98,0,0-.11,.57-.38,.78-.53,.42-.88,.22-.89,.15-.02-.07,.45-.51,.52-1.14,0,0,.08,.03,.21-.16,.13-.19,.2-.39,.33-.36,.13,.04,.77-.26,.77-.26l.34-.43s.04,.14,.29-.03c.25-.17,.33-.42,.33-.42l.66,.56,.08,.42h0Z"/><path class="cls-32" d="M54.95,45.87s.4,.61,.67,.95c.02,.02,.15-.13,.15-.13,.09,.12,.14,.23,.11,.29-.1,.25-.32,.58-.15,.93,0,0-.06-.2,.04-.45,.1-.25,.17-.34,.23-.34,.06,0,.15,1.46,.25,1.45,.1,0,.23-.65,.23-1.11s.09-.08,.13,0c.04,.09,.44,.74,.78,.64,.34-.1,.29-.7,.28-.83,0-.13-.24-.92-.24-.92l-1.52-.95s-.04,.12-.13,.39c-.08,.27-.83,.08-.83,.08h0Z"/><path class="cls-31" d="M57.1,45.72s.09,.08,.23,.46c.14,.38,.16,1.6-.03,1.59-.19,0-.58-.23-.65-.39-.06-.16,.02-.77-.1-.93-.13-.16-.28-.57-.29-.69,0-.11,.02-.48,.02-.48l.34-.12,.48,.57Z"/><path class="cls-61" d="M56.99,45.35l.65,.96,.57,.82s.29,.1,.28,.11c0,.02-.33,.37-.78,.12-.22-.12-.11-.51-.39-1.13-.28-.62-.79-.89-.79-.89l.18-.17,.29,.18Z"/><path class="cls-46" d="M56.63,44.82s.58,.38,.78,.8c.2,.41,.32,.67,.57,1.07,.25,.4,.51,.53,.5,.56-.01,.03-.18,.07-.3-.03-.12-.09-.25-.2-.35-.39s-.46-.86-.6-1.04c-.13-.17-.56-.5-.57-.47-.01,.03,.13,.13,.38,.53,.25,.4,.31,.76,.29,.76-.02,0-.07-.15-.29-.51-.21-.36-.68-.82-.71-.76-.03,.07,.23,.49,.36,.74,.13,.25,.34,.82,.32,.82s-.17-.32-.43-.72c-.26-.4-.31-.35-.41-.48-.11-.13-.34-.43-.34-.43,0,0,.23,.07,.46-.07,.23-.15,.34-.38,.34-.38h0Z"/><path class="cls-31" d="M55.17,45.88s.37,.09,.57,.06c.2-.02,.27-.02,.27-.02,0,0,.12,.16,.12,.35s-.13,.54-.19,.55c-.06,0-.05-.32-.14-.43-.09-.11-.64-.51-.64-.51Z"/><path class="cls-31" d="M54.66,47.27c-.11,.14-.29,.1-.45,.15-.15,.05-.2,.28-.2,.28,0,0,.12-.09,.18-.07,.06,.02,.12,.02,.01,.3-.11,.28-.55,.75-.53,.76,.02,0,.49-.4,.65-.63,.15-.23,.14-.37,.17-.45,.03-.08,.22-.18,.26-.19,.04,0,.13,0,.17,.17,.04,.16,.11,.63,.14,.65,.03,.02,.15-.43,.19-.65,.05-.22,.05-.71,.05-.71,0,0-.03-.01-.14-.04-.11-.02-.38-.22-.38-.22,0,0,.05,.45-.1,.64h0Z"/><path class="cls-43" d="M56.65,44.42s.15,.38-.16,.65c-.09,.08-.18,.13-.35,.14-.17,0-.43-.14-.43-.14l-.96-.4-.51-.16-.25-.07,.04-.28,.75,.03,.75,.29,.33,.11,.28,.05h.21l.17-.05s.08-.03,.1-.08c.02-.05,.04-.09,.04-.09h0Z"/><path class="cls-34" d="M56.65,44.42c.03,.07-.06,.28-.13,.31-.07,.03-.2,.09-.49,.02-.29-.07-.59-.25-.91-.34-.32-.09-.56-.17-.81-.16-.25,0-.13-.11-.13-.11,0,0,.57-.06,1.07,.12,.5,.19,.72,.32,.97,.31,.38,0,.44-.16,.44-.16h0Z"/><path class="cls-61" d="M54.01,44.12s.11,.02,.21,0c.1-.02,.17-.07,.17-.07,0,0,.02,.13-.05,.17-.06,.04-.26,.02-.29,.02s-.04-.13-.04-.13h0Z"/><path class="cls-43" d="M55.91,45.31s.34,.33,.25,.62l-.65-.3-1.06-.44-.57-.17-.07-.09s.11-.1,.16-.2c.05-.1,.04-.19,.04-.19l.7,.09,.73,.23,.48,.46Z"/><path class="cls-43" d="M55.18,45.78s.6,.78,.46,1.04l-1.41-.89-.5,.82-1.16-.57s.94-.72,1.05-.86c.11-.14,.12-.18,.12-.18l.52,.1,.83,.26,.09,.28Z"/><path class="cls-34" d="M54.86,44.63s.49,.12,.81,.28c.32,.16,.76,.2,.76,.2,0,0-.18,.19-.52,.2-.1,0-.35-.2-.51-.31-.16-.12-.63-.25-.63-.25l.09-.12Z"/><path class="cls-61" d="M53.99,44.36s.35,.07,.57,.17c.22,.1,.23,.07,.29,.05,.06-.02,.06-.05,.06-.05,0,0,.04,.21-.12,.21s-.24-.06-.46-.16c-.22-.1-.36,0-.36,0l.02-.23Z"/><path class="cls-34" d="M55.95,45.74s.25,.16,.2,.19c-.05,.03-.17,.09-.39,.11-.22,.01-.33-.01-.48-.08-.16-.07-.25-.34-.63-.49-.38-.15-.44-.17-.7-.23-.26-.07-.32-.06-.32-.06l.24-.1,.81,.16,.69,.2,.42,.2,.16,.1h0Zm-1.36,.48l.16,.64-.09,.38-.22,.14-.2-.08-.06-.11s.09-.15,0-.28c-.09-.13-.5-.29-.5-.29,0,0,.16-.31,.35-.38,.19-.07,.1-.31,.1-.31l.46,.3Z"/><path class="cls-61" d="M53.79,44.91s.13,.11,.39,.14c.11,.01,.32,.05,.54,.12,.07,.02,.25-.08,.26-.07l-.15,.09c.23,.07,.53,.17,.63,.22,.28,.13,.5,.33,.48,.33,0,0-.16-.09-.48-.22-.24-.1-.53-.19-.75-.23-.48-.09-.97-.06-1.07-.1-.1-.03,.04-.04,.1-.09,.05-.05,.05-.17,.05-.17h0Z"/><path class="cls-34" d="M55.6,46.67s.15,.16,0,.22c-.16,.06-.6,.05-.81-.17,0,0-.05-.21-.13-.31-.08-.1-.4-.3-.59-.42-.19-.11,.06-.13,.06-.13,0,0,.66,.25,.9,.38,.24,.13,.57,.43,.57,.43h0Z"/><path class="cls-61" d="M55.61,46.68s-.33-.45-1.23-.81c-.02,0,.31-.06,.28-.07-.04-.01-.44,0-.48,0-.07-.02-.14-.05-.21-.07-.48-.14-.51-.13-.54-.2-.03-.07-.09,.01-.14,.09-.05,.08-.18,.26-.17,.24,.01-.02,.35-.1,.62-.03,.27,.06,.26,.16,.24,.27-.02,.1-.35,.5-.31,.51,.04,.01,.23-.38,.47-.32,.25,.05,.33,.19,.33,.19,0,0,0-.14-.05-.2-.05-.06-.32-.32-.25-.32s.38,.07,.82,.29c.43,.22,.5,.28,.63,.41h0Z"/><path class="cls-21" d="M51.13,44.2s.07,.06-.12,.58c-.2,.52-.3,.7-.6,1.04-.56,.62-.81,.62-.75,.88,.06,.26,.28,.19,.33,.2,.05,0,1.06-1.48,1.06-1.48l.22-.89-.05-.25-.08-.08Z"/><path class="cls-43" d="M53.63,43.14s.29,.44,.2,1.26c-.09,.82-1.18,1.54-1.18,1.54l-1.59,1.1-.66-.04s-.1,.01-.2-.01c-.1-.03-.2-.14-.22-.14-.04,0-.12-.28-.12-.28l.21-.26,.58-.57,.36-.52s.16-.3,.18-.59c.02-.29-.05-.44-.05-.44l.13,.21,.08,.44-.06,.49,.41-.28,.55-.25s.15-.02,.26-.33c.11-.31,.2-.75,.2-.95,0-.2-.02-.44-.02-.44,0,0,.03,0,.07,.02,.03,.02,.18,.27,.18,.42s.09,.68,.09,.68l.25-.26s.19-.24,.24-.36c.05-.12,.12-.32,.12-.45h0Z"/><path class="cls-28" d="M53.81,47.26s.11,.09,.07,.39c-.04,.3-.29,.46-.41,.47v-.42s-.34-.28-.34-.28l-.38-.11s.02-.02,.07-.07c.04-.04,.43-.2,.43-.2l.55,.22Z"/><path class="cls-34" d="M53.53,47.26s.11,.11,.28,.06c.17-.04,.25-.32,.15-.43-.09-.11-.05,.27-.17,.31-.11,.04-.23-.28-.39-.32-.15-.03-.4,.07-.46,.18-.06,.1,.25,.02,.25,.02l.16,.04,.12,.03,.04,.11Z"/><path class="cls-28" d="M51.24,46.12s.21,.06,.43,.03c.22-.03,.77-.26,.77-.26,0,0,.25-.14,.44-.32,.19-.18,.77-.55,.84-1.28,.06-.73-.09-1.16-.09-1.16,0,0,.87,.95,.11,2.03-.49,.71-.92,.92-.92,.92,0,0,.84-.25,.91-.04,.07,.2-.04,.52-.06,.56,0,0,.48,.11,.54,.35,.04,.15-.54-.17-.98-.06-.44,.11-.63,.37-.63,.37,0,0-.08-.13-.47-.13-.39,0-.57,.18-.79,.17-.22,0-.92-.16-1.05-.35,0,0,.17-.21,.46-.54,.2-.39,.5-.3,.5-.3h0Z"/><path class="cls-28" d="M52.95,43.41s.28,1.07-.02,1.52c-.3,.44-1.58,1.01-1.58,1.01,0,0,.98-.53,1.28-1.14,.31-.61,.28-1.12,.28-1.12l.04-.28h0Z"/><path class="cls-46" d="M51.67,46.15s.41,0,.65-.15c.23-.14,.56-.43,.56-.43,0,0-.31,.27-.4,.27s-.16-.14-.12-.25c0,0-.07,.2-.26,.34-.19,.14-.44,.21-.44,.21h0Zm.96-1.34s.35-.36,.34-1.11c0-.75-.29-.61-.29-.61,0,0,.23,.17,.19,.74-.05,.57-.23,.98-.23,.98h0Zm.42,.07s.39-.09,.53-.32c.14-.23,.13-.67,.13-.67,0,0-.04,.4-.15,.55-.11,.15-.51,.44-.51,.44Zm-.23,2.36s.19-.38,.45-.28c.26,.1,.26,.3,.26,.3,0,0-.1-.16-.3-.17-.19,0-.41,.15-.41,.15h0Zm-.73-.68s.57-.14,.91-.25c.34-.11,.73-.27,.73-.27,0,0-.28,.35-.7,.59-.42,.24-.77,.25-.77,.25,0,0,.79-.34,.85-.48,0,0-.76,.2-1.02,.16h0Z"/><path class="cls-34" d="M51.32,45.27s.38-.38,.47-.87c.09-.5,.03-.78,.03-.78l.21,.22,.08,.38-.13,.63,.42-.19c.14-.19,.36-1.04,.28-1.57,0,0,.11,.23-.04,.94-.15,.71-.27,.8-.81,1.09-.28,.15-.63,.44-.94,1.05-.14,.27-.52,.7-.58,.76,0,.01,.27-.38,.41-.67,.2-.44,.43-.68,.43-.68l.18-.3h0Z"/><path class="cls-28" d="M51.14,45.57s.17-.5,.17-.77-.18-.59-.18-.59c0,0,.24-.03,.26,.56,.02,.6-.11,.63-.25,.81Z"/><path class="cls-61" d="M51.91,44.93s.18-.44,.17-.74c-.01-.29-.25-.58-.25-.58,0,0,.3,.06,.32,.59,.02,.54-.07,.54-.23,.72h0Z"/><path class="cls-34" d="M50.15,46.94s-.14-.18-.12-.32c.02-.14,0-.17,.35-.53,.34-.36,.53-.58,.62-.77,.08-.19,.36-.72,.14-1.12,0,0,.15,.59-.19,1.06-.34,.47-.54,.72-.82,.92-.28,.21-.31,.31-.3,.43,0,.12,.04,.24,.08,.27,.09,.05,.25,.07,.25,.07h0Z"/><path class="cls-20" d="M53.47,48.11s.08,0,.12-.08c.05-.09,.05-.24-.07-.39-.12-.15-.26-.24-.43-.29-.17-.05-.5-.08-.5-.08,0,0,.11,.19,.33,.31,.11,.06,.29-.02,.41,.1,.12,.11,.13,.43,.13,.43h0Z"/><path class="cls-20" d="M53.47,48.11s.38-.12,.41-.49c.02-.23-.03-.31-.03-.31,0,0,.06,.12,.21,.16l.14-.05s-.23,.71-.72,.69h0Z"/></g><g><path class="cls-37" d="M50.81,48.04s.07,.03,.22,.19c.14,.16,.21,.22,.21,.22l.92-.24,.3-.29-.25-.4h-.66l-.73,.52Z"/><path class="cls-9" d="M53.05,47.73l-.18-.24s-.04-.09-.17-.16c-.13-.07-.69-.07-.69-.07l-.4,.08s-.11,.1-.32,.06c-.2-.04-.66-.23-.66-.23l-.45-.2s-.34-.14-.41-.11c-.08,.03-.35,.33-.35,.33,0,0-.05,.16,.06,.17,.11,0-.16,.05-.16,.05,0,0-.7,.38-.81,1.07-.11,.69,1.15,1.7,1.62,1.19,0,0-.69-.51-.55-.93,.14-.43,.45-.69,.99-.72,.54-.03,.57-.1,.81-.26,.23-.16,.67-.26,.99,.07,.32,.34-1.23,.66-1.23,.66l.17,.25s1.91-.65,1.75-1.01h0Z"/><path class="cls-16" d="M49.48,49.36s-.77-.19-.71-.9c.06-.71,.71-.97,.82-1.01,.11-.03,.09-.39,.22-.43,.13-.04,.38,0,.49,.11,.11,.11,.35,.21,.35,.21,0,0-1.37,.61-1.38,1.4,0,.52,.21,.63,.21,.63h0Z"/><path class="cls-17" d="M53.05,47.65s-.09,.06-.12,.01c-.14-.27-.48-.34-.76-.34-.35,0-.59,.14-.82,.14s-.17-.04-.45-.05c-.28-.01-.88-.45-1.01-.41-.13,.04-.19,.21-.17,.29,.02,.08-.24,.09-.28,.03-.04-.06,.21-.45,.45-.45,.65,0,1.13,.44,1.45,.44s.42-.18,.84-.18,.87,.19,.88,.52h0Z"/><path class="cls-62" d="M50.92,48.16s.31-.06,.54-.16c.23-.1,.55-.18,.55-.18,0,0-.29,.19-.48,.28-.2,.09-.52,.15-.52,.15l-.09-.08Z"/><path class="cls-8" d="M49.82,49.77c-.06,.02-.33,.01-.76-.28-.43-.29-.55-.78-.55-.78,0,0-.1-.47,.35-.95,.45-.48,.52-.34,.55-.32,.02,.02-.02,.04-.02,.04l-.4,.32-.2,.33-.17,.3v.35s.21,.35,.21,.35l.62,.39,.37,.24h0Z"/><path class="cls-31" d="M49.55,49.08c.07,.19,.22,.47,.4,.56,0,0,.03,0,.02,.02-.01,.02-.14,.1-.44,.02-.3-.08-.75-.2-1.02-1.03v.18s.17,.32,.17,.32l.29,.3,.45,.29,.31,.08,.26-.07,.12-.09-.27-.25-.33-.57s-.01,.08,.04,.22h0Z"/></g><g><path class="cls-12" d="M52.63,57.31v.3s-.18-.02-.18-.02l.03-.38,.15,.09Zm-1.16-8.56l-.31-.34-.2,.03,.3,.43,.2-.12Z"/><path class="cls-45" d="M50.15,48.81l-.09-.08-.08,.03,.15,.12,.02-.07Zm.25,.24l-.07-.07-.04,.02,.06,.08,.05-.02Z"/><path class="cls-60" d="M50.74,49.43l-.06-.08-.04,.05,.06,.07,.04-.04Zm.26,.39l-.04-.08h-.07s.09,.11,.09,.11l.02-.03Zm.15,.37l-.03-.11v.02s-.02,.08-.02,.08h.05Zm.02,.38v-.1s-.04-.03-.04-.03v.14s.04,0,.04,0Zm-.02,.24v-.11s-.02-.02-.02-.02v.15s.02-.01,.02-.01Zm-3.02,3.67s0-.09,.03-.18c.03-.08-.07,.04-.07,.04v.11s.04,.02,.04,.02h0Z"/><path class="cls-13" d="M48.11,54.7l-.04,.02,.02,.11,.02-.03s0-.06,0-.1h0Z"/><path class="cls-60" d="M48.12,55.13v-.11s-.04-.01-.04-.01v.18l.04-.06Z"/><path class="cls-13" d="M48.15,55.38v-.1s-.04,0-.04,0v.09s.04,0,.04,0Zm.07,.35l-.02-.09-.02,.02,.02,.09,.02-.02Zm.09,.36l-.04-.13h-.03s.04,.13,.04,.13h.03Z"/><path class="cls-45" d="M48.54,56.58l-.05-.08h-.05s.06,.09,.06,.09h.04Zm.36,.34s-.05-.03-.12-.09c-.07-.06-.03,.05-.03,.05l.1,.05,.05-.02Zm2.43,.18s-.06-.04-.1-.06c-.04-.02,.02,0,.06,.08,.03,.08,.04-.03,.04-.03h0Z"/><path class="cls-13" d="M51.54,57.28s-.05-.06-.08-.08c-.03-.02-.02,.06-.02,.06l.06,.03h.03Z"/><path class="cls-45" d="M51.58,57.38s-.05,.05-.05,.05l.07,.07s0-.09-.02-.12Zm.01,.34s.02-.07,.01-.12c0-.04-.04,.02-.04,.02v.1h.03Z"/><path class="cls-13" d="M51.47,58.07l.03-.09h-.04s-.02,.09-.02,.09h.03Zm-3.7-12.95s.14-.03,.03,.13c-.1,.16,.07-.14,.07-.14l-.06-.02-.05,.03Z"/></g><path class="cls-8" d="M50.77,47.95l.08,.09s-.08-.02-.11-.02c-.03,0,.03-.06,.03-.06h0Z"/><path class="cls-31" d="M50.86,48.04s-.12,.02-.16,.02c-.04,0,.05-.05,.05-.05l.11,.02Z"/><path class="cls-22" d="M52.34,58.91s.1-.01,.15-.07c.04-.06-.03,.1-.03,.1l-.06,.02-.05-.05h0Z"/></g><circle class="cls-67" cx="57.11" cy="57.11" r="56.11" transform="translate(-12.5 98.06) rotate(-75.47)"/></g></g></svg>