<?xml version="1.0" encoding="UTF-8"?><svg id="Capa_2" xmlns="http://www.w3.org/2000/svg" xmlns:xlink="http://www.w3.org/1999/xlink" viewBox="0 0 114.21 114.21"><defs><style>.cls-1{clip-path:url(#clippath);}.cls-2{fill:#fff;}.cls-3{fill:#e42521;}.cls-4{fill:#22297a;}.cls-5{fill:none;stroke:#fff;stroke-miterlimit:10;stroke-width:2px;}</style><clipPath id="clippath"><circle class="cls-5" cx="57.11" cy="57.11" r="56.11" transform="translate(-11.59 99.56) rotate(-76.72)"/></clipPath></defs><g id="Capa_1-2"><g><g class="cls-1"><g><rect class="cls-3" x="-.95" y="-1.18" width="173.9" height="115.93"/><rect class="cls-4" x="-.95" y="-1.18" width="86.95" height="57.97"/><path id="four_rays" class="cls-2" d="M48.32,27.81l-5.8,21.74-5.8-21.74,5.8-21.74m0,27.53l21.74-5.8-21.74-5.8-21.74,5.8"/><path id="four_rays-2" class="cls-2" d="M47.54,30.7l-15.89,15.93,5.85-21.72,15.89-15.93m-13.77,23.84l21.72,5.85-15.93-15.89-21.72-5.85"/><path id="four_rays-3" class="cls-2" d="M45.42,32.83l-21.72,5.85,15.93-15.89,21.72-5.85m-23.84,13.77l15.89,15.93-5.85-21.72-15.89-15.93"/><circle class="cls-4" cx="42.52" cy="27.81" r="12.32"/><circle class="cls-2" cx="42.52" cy="27.81" r="10.87"/></g></g><circle class="cls-5" cx="57.11" cy="57.11" r="56.11" transform="translate(-11.59 99.56) rotate(-76.72)"/></g></g></svg>