<?xml version="1.0" encoding="UTF-8"?><svg id="Capa_2" xmlns="http://www.w3.org/2000/svg" xmlns:xlink="http://www.w3.org/1999/xlink" viewBox="0 0 114.21 114.21"><defs><style>.cls-1{clip-path:url(#clippath);}.cls-2{fill:#fff;}.cls-3{fill:#f3983b;}.cls-4{fill:#17892e;}.cls-5{fill:#21296f;}.cls-6{fill:none;stroke:#fff;stroke-miterlimit:10;stroke-width:2px;}</style><clipPath id="clippath"><circle class="cls-6" cx="57.11" cy="57.11" r="56.11"/></clipPath></defs><g id="Capa_1-2"><g><g class="cls-1"><g><path class="cls-3" d="M-35.11-4.37H149.32V118.58H-35.11V-4.37Z"/><path class="cls-2" d="M-35.11,36.61H149.32V118.58H-35.11V36.61Z"/><path class="cls-4" d="M-35.11,77.6H149.32v40.98H-35.11v-40.98Z"/><g><circle class="cls-5" cx="57.11" cy="57.11" r="16.39"/><circle class="cls-2" cx="57.11" cy="57.11" r="14.34"/><circle class="cls-5" cx="57.11" cy="57.11" r="2.87"/><g id="d"><g id="c"><g id="b"><g id="a"><circle class="cls-5" cx="71.33" cy="58.98" r=".72"/><path class="cls-5" d="M57.11,71.45l.49-8.61-.49-4.1-.49,4.1,.49,8.61Z"/></g><g id="a-2"><circle class="cls-5" cx="70.36" cy="62.59" r=".72"/><path class="cls-5" d="M53.39,70.96l2.7-8.19,.59-4.09-1.54,3.83-1.75,8.44Z"/></g></g><g id="b-2"><g id="a-3"><circle class="cls-5" cx="68.49" cy="65.84" r=".72"/><path class="cls-5" d="M49.93,69.53l4.73-7.21,1.62-3.8-2.48,3.3-3.88,7.7Z"/></g><g id="a-4"><circle class="cls-5" cx="65.84" cy="68.49" r=".72"/><path class="cls-5" d="M46.96,67.25l6.43-5.74,2.55-3.25-3.25,2.55-5.74,6.43Z"/></g></g></g><g id="c-2"><g id="b-3"><g id="a-5"><circle class="cls-5" cx="62.6" cy="70.36" r=".72"/><path class="cls-5" d="M44.68,64.28l7.7-3.88,3.3-2.48-3.8,1.62-7.21,4.73Z"/></g><g id="a-6"><circle class="cls-5" cx="58.98" cy="71.33" r=".72"/><path class="cls-5" d="M43.25,60.82l8.44-1.75,3.83-1.54-4.09,.59-8.19,2.7Z"/></g></g><g id="b-4"><g id="a-7"><circle class="cls-5" cx="55.23" cy="71.33" r=".72"/><path class="cls-5" d="M42.76,57.11l8.61,.49,4.1-.49-4.1-.49-8.61,.49Z"/></g><g id="a-8"><circle class="cls-5" cx="51.62" cy="70.36" r=".72"/><path class="cls-5" d="M43.25,53.39l8.19,2.7,4.09,.59-3.83-1.54-8.44-1.75Z"/></g></g></g></g><g id="d-2"><g id="c-3"><g id="b-5"><g id="a-9"><circle class="cls-5" cx="48.37" cy="68.49" r=".72"/><path class="cls-5" d="M44.68,49.93l7.21,4.73,3.8,1.62-3.3-2.48-7.7-3.88Z"/></g><g id="a-10"><circle class="cls-5" cx="45.73" cy="65.84" r=".72"/><path class="cls-5" d="M46.96,46.96l5.74,6.43,3.25,2.55-2.55-3.25-6.43-5.74Z"/></g></g><g id="b-6"><g id="a-11"><circle class="cls-5" cx="43.85" cy="62.59" r=".72"/><path class="cls-5" d="M49.93,44.68l3.88,7.7,2.48,3.3-1.62-3.8-4.73-7.21Z"/></g><g id="a-12"><circle class="cls-5" cx="42.88" cy="58.98" r=".72"/><path class="cls-5" d="M53.39,43.25l1.75,8.44,1.54,3.83-.59-4.09-2.7-8.19Z"/></g></g></g><g id="c-4"><g id="b-7"><g id="a-13"><circle class="cls-5" cx="42.88" cy="55.23" r=".72"/><path class="cls-5" d="M57.11,42.76l-.49,8.61,.49,4.1,.49-4.1-.49-8.61Z"/></g><g id="a-14"><circle class="cls-5" cx="43.85" cy="51.62" r=".72"/><path class="cls-5" d="M60.82,43.25l-2.7,8.19-.59,4.09,1.54-3.83,1.75-8.44Z"/></g></g><g id="b-8"><g id="a-15"><circle class="cls-5" cx="45.73" cy="48.37" r=".72"/><path class="cls-5" d="M64.28,44.68l-4.73,7.21-1.62,3.8,2.48-3.3,3.88-7.7Z"/></g><g id="a-16"><circle class="cls-5" cx="48.37" cy="45.73" r=".72"/><path class="cls-5" d="M67.25,46.96l-6.43,5.74-2.55,3.25,3.25-2.55,5.74-6.43Z"/></g></g></g></g><g id="d-3"><g id="c-5"><g id="b-9"><g id="a-17"><circle class="cls-5" cx="51.62" cy="43.85" r=".72"/><path class="cls-5" d="M69.53,49.93l-7.7,3.88-3.3,2.48,3.8-1.62,7.21-4.73Z"/></g><g id="a-18"><circle class="cls-5" cx="55.23" cy="42.88" r=".72"/><path class="cls-5" d="M70.96,53.39l-8.44,1.75-3.83,1.54,4.09-.59,8.19-2.7Z"/></g></g><g id="b-10"><g id="a-19"><circle class="cls-5" cx="58.98" cy="42.88" r=".72"/><path class="cls-5" d="M71.45,57.11l-8.61-.49-4.1,.49,4.1,.49,8.61-.49Z"/></g><g id="a-20"><circle class="cls-5" cx="62.6" cy="43.85" r=".72"/><path class="cls-5" d="M70.96,60.82l-8.19-2.7-4.09-.59,3.83,1.54,8.44,1.75Z"/></g></g></g><g id="c-6"><g id="b-11"><g id="a-21"><circle class="cls-5" cx="65.84" cy="45.73" r=".72"/><path class="cls-5" d="M69.53,64.28l-7.21-4.73-3.8-1.62,3.3,2.48,7.7,3.88Z"/></g><g id="a-22"><circle class="cls-5" cx="68.49" cy="48.37" r=".72"/><path class="cls-5" d="M67.25,67.25l-5.74-6.43-3.25-2.55,2.55,3.25,6.43,5.74Z"/></g></g><g id="b-12"><g id="a-23"><circle class="cls-5" cx="70.36" cy="51.62" r=".72"/><path class="cls-5" d="M64.28,69.53l-3.88-7.7-2.48-3.3,1.62,3.8,4.73,7.21Z"/></g><g id="a-24"><circle class="cls-5" cx="71.33" cy="55.23" r=".72"/><path class="cls-5" d="M60.82,70.96l-1.75-8.44-1.54-3.83,.59,4.09,2.7,8.19Z"/></g></g></g></g></g></g></g><circle class="cls-6" cx="57.11" cy="57.11" r="56.11"/></g></g></svg>