<?xml version="1.0" encoding="UTF-8"?><svg id="Capa_2" xmlns="http://www.w3.org/2000/svg" xmlns:xlink="http://www.w3.org/1999/xlink" viewBox="0 0 114.21 114.21"><defs><style>.cls-1,.cls-2{fill:none;}.cls-3{clip-path:url(#clippath);}.cls-4{fill:#f7de2a;}.cls-5{fill:#cb2023;}.cls-6{clip-path:url(#clippath-1);}.cls-2{stroke:#fff;stroke-miterlimit:10;stroke-width:2px;}</style><clipPath id="clippath"><circle class="cls-2" cx="57.11" cy="57.11" r="56.11" transform="translate(-12.5 98.06) rotate(-75.47)"/></clipPath><clipPath id="clippath-1"><rect class="cls-1" x="1.65" y=".81" width="192.18" height="112.08"/></clipPath></defs><g id="Capa_1-2"><g><g class="cls-3"><g id="CHINA"><g class="cls-6"><rect class="cls-5" x="1.65" y=".81" width="192.18" height="112.08"/><polygon class="cls-4" points="23.5 46.6 27.11 35.41 17.63 28.46 29.38 28.44 33.04 17.27 36.69 28.44 48.45 28.48 38.95 35.41 42.54 46.6 33.03 39.69 23.5 46.6"/><polygon class="cls-4" points="56.27 52.64 60.24 54.25 63 50.96 62.7 55.23 66.67 56.84 62.52 57.89 62.21 62.12 59.93 58.52 55.79 59.53 58.52 56.26 56.27 52.64"/><polygon class="cls-4" points="77.75 31.14 73.53 30.4 71.51 34.18 70.92 29.96 66.7 29.17 70.54 27.32 69.96 23.07 72.94 26.13 76.78 24.28 74.77 28.06 77.75 31.14"/><polygon class="cls-4" points="68.81 50.29 70.11 46.22 66.66 43.69 70.94 43.69 72.26 39.62 73.59 43.69 77.88 43.69 74.43 46.22 75.73 50.29 72.26 47.78 68.81 50.29"/><polygon class="cls-4" points="56.48 13.14 60.36 14.95 63.28 11.82 62.77 16.07 66.64 17.9 62.45 18.71 61.92 22.96 59.83 19.22 55.64 20 58.55 16.87 56.48 13.14"/></g></g></g><circle class="cls-2" cx="57.11" cy="57.11" r="56.11" transform="translate(-12.5 98.06) rotate(-75.47)"/></g></g></svg>