<?xml version="1.0" encoding="UTF-8"?><svg id="Capa_2" xmlns="http://www.w3.org/2000/svg" xmlns:xlink="http://www.w3.org/1999/xlink" viewBox="0 0 114.21 114.21"><defs><style>.cls-1,.cls-2,.cls-3,.cls-4,.cls-5{fill:none;}.cls-6{stroke-width:.47px;}.cls-6,.cls-7,.cls-8,.cls-9,.cls-10,.cls-11,.cls-12,.cls-13,.cls-14{fill:#fff;}.cls-6,.cls-8,.cls-2,.cls-9,.cls-15,.cls-16,.cls-10,.cls-12,.cls-4,.cls-13,.cls-5,.cls-14{stroke:#c0940b;}.cls-6,.cls-8,.cls-9,.cls-10,.cls-4,.cls-13{stroke-linejoin:round;}.cls-6,.cls-9,.cls-13{stroke-linecap:round;}.cls-17{clip-path:url(#clippath);}.cls-18,.cls-15,.cls-16,.cls-19{fill:#c0940b;}.cls-20{fill:#ce1427;}.cls-8{stroke-width:.23px;}.cls-2{stroke-width:.25px;}.cls-21{clip-path:url(#clippath-1);}.cls-9,.cls-4{stroke-width:.25px;}.cls-15{stroke-width:.07px;}.cls-3{stroke:#fff;stroke-width:2px;}.cls-3,.cls-16{stroke-miterlimit:10;}.cls-16{stroke-width:.21px;}.cls-10{stroke-width:.25px;}.cls-19,.cls-11{fill-rule:evenodd;}.cls-12{stroke-width:.23px;}.cls-13{stroke-width:.17px;}.cls-5{stroke-width:.18px;}.cls-14{stroke-width:.24px;}</style><clipPath id="clippath"><circle class="cls-3" cx="57.11" cy="57.11" r="56.11"/></clipPath><clipPath id="clippath-1"><path class="cls-1" d="M62.95,51.55c-.05,0-.11,0-.16,0-1.2,0-3.99-.62-5.07-1.54-1.13,.85-3.96,1.54-5.15,1.54-.06,0-.11,0-.16-.02,0,.27,.01,.55,.03,.8,.06,.95,.23,1.9,.48,2.82,.8,2.88,2.42,5.34,4.76,7.19,2.34-1.86,3.97-4.31,4.76-7.2,.25-.92,.42-1.87,.48-2.82,.01-.27,.03-.59,.03-.79h0Z"/></clipPath></defs><g id="Capa_1-2"><g><g class="cls-17"><g><path d="M-30.4-.95H145.75V116.49H-30.4V-.95Z"/><path class="cls-7" d="M-30.4-.95H145.75V77.34H-30.4V-.95Z"/><path class="cls-20" d="M-30.4-.95H145.75V38.2H-30.4V-.95Z"/><g><path class="cls-10" d="M57.84,58.24l13.4,12.44-.95-22.6c-.14-3.43-3.12-2.64-5.28-1.4-2.19,1.4-4.69,1.4-7.33,.48-2.64,.93-5.14,.93-7.33-.48-2.16-1.24-5.14-2.02-5.28,1.4l-.95,22.6,13.72-12.44Z"/><path id="a" class="cls-18" d="M46.61,47.3l-.93,21.98-1.57,1.4,.95-22.6c.45-.31,1.24-.79,1.54-.79h0Zm1.88,1.57l-.79,18.39-1.57,1.61,.95-21.23c.31,.31,1.24,1.07,1.4,1.24h0Zm1.71,1.4l-.62,15.34-1.26,1.24,.79-17.5c.31,.31,.93,.76,1.09,.93h0Zm1.85,.79l-.62,13.07-1.24,1,.62-14.55c.31,.14,.93,.48,1.24,.48Zm1.71,0l-.45,10.89-1.26,1.24,.48-11.99c.31,0,1.09,0,1.24-.14h0Z"/><path id="a-2" class="cls-18" d="M68.74,47.3l.93,21.98,1.57,1.4-.95-22.6c-.45-.31-1.24-.79-1.54-.79h0Zm-1.88,1.57l.79,18.39,1.57,1.61-.95-21.23c-.31,.31-1.24,1.07-1.4,1.24h0Zm-1.71,1.4l.62,15.34,1.26,1.24-.79-17.5c-.31,.31-.93,.76-1.09,.93h0Zm-1.85,.79l.62,13.07,1.24,1-.62-14.55c-.31,.14-.93,.48-1.24,.48Zm-1.71,0l.45,10.89,1.26,1.24-.48-11.99c-.31,0-1.09,0-1.24-.14h0Z"/><path class="cls-16" d="M58.3,60.72l1.88,8.56-.62,.62-.65-.48-1.07-7.64,.45,7.64-.62,.79-.62-.79,.45-7.64-1.07,7.64-.65,.48-.62-.62,1.88-8.56h1.24Z"/><g id="b"><path class="cls-8" d="M53.47,56.95l-3.73,13.25,5.14,.79,2.19-9.97-3.59-4.07h0Z"/><path class="cls-4" d="M52.23,61.48l.45,1.09,2.43-2.32"/><path class="cls-4" d="M53.91,58.73l.51,4.77,1.54-2.02m-.62,.79l.84,2.91m.33-1.07l-1.71,2.59m.53,2.59l-.55-2.58-.48-2.63-1.14,1.55-.5-1.78-1.6,1.64,.81,2.98,1.12-1.85,.62,1.88,1.15-1.79"/><path class="cls-4" d="M50.83,69.9l1.04-1.46,.68,2.24,.93-1.57,.62,1.88"/></g><g id="b-2"><path class="cls-8" d="M61.89,56.95l3.73,13.25-5.14,.79-2.19-9.97,3.59-4.07h0Z"/><path class="cls-4" d="M63.13,61.48l-.45,1.09-2.43-2.32"/><path class="cls-4" d="M61.44,58.73l-.51,4.77-1.54-2.02m.62,.79l-.84,2.91m-.33-1.07l1.71,2.59m-.53,2.59l.55-2.58,.48-2.63,1.14,1.55,.5-1.78,1.6,1.64-.81,2.98-1.12-1.85-.62,1.88-1.15-1.79"/><path class="cls-4" d="M64.53,69.9l-1.04-1.46-.68,2.24-.93-1.57-.62,1.88"/></g><g><path class="cls-6" d="M57.68,76.13c3.9,0,7.64-.31,9.83-.93,.93-.17,.93-.65,.93-1.26,.93-.31,.45-1.4,1.09-1.4-.65,.17-.79-1.09-1.57-.93,0-1.1-1.1-1.24-2.02-.93-1.85,.62-5.14,.76-8.26,.76-3.12-.14-6.37-.14-8.26-.76-.93-.31-2.02-.17-2.02,.93-.79-.17-.93,1.09-1.57,.93,.65,0,.17,1.09,1.09,1.4,0,.62,0,1.1,.95,1.26,2.16,.62,5.9,.93,9.8,.93h0Z"/><path class="cls-9" d="M52.37,70.21c1.26,.17,2.67,.31,3.76,.17,.62,0,1.07,1.07-.17,1.24-1.09,.14-2.81,0-3.73-.17-.79-.14-2.5-.45-3.59-.76-1.1-.48-.31-1.4,.31-1.26,.95,.31,2.19,.62,3.43,.79h0Zm10.61,0c-1.26,.17-2.67,.31-3.73,.17-.65,0-1.1,1.07,.14,1.24,1.1,.14,2.81,0,3.73-.17,.79-.14,2.5-.45,3.59-.76,1.1-.48,.31-1.4-.31-1.26-.95,.31-2.19,.62-3.43,.79h0Z"/><path class="cls-9" d="M48.5,69.59c-.95-.17-1.4,.93-1.09,1.54,.14-.31,.79-.31,.93-.62,.17-.48-.14-.48,.17-.93h0Zm3.73,2.87c0-.62,.62-.54,.62-1.16,0-.31-.17-.79-.48-.79s-.62,.31-.62,.62c-.14,.62,.48,.71,.48,1.33Zm4.44-1.78c.93,0,.83,1.24,.38,1.85,0-.45-.79-.62-.79-.93,0-.48,.71-.48,.4-.93Zm10.18-1.09c.95-.17,1.4,.93,1.1,1.54-.14-.31-.79-.31-.93-.62-.17-.48,.14-.48-.17-.93h0Zm-3.73,2.87c0-.62-.62-.54-.62-1.16,0-.31,.17-.79,.48-.79s.62,.31,.62,.62c.14,.62-.48,.71-.48,1.33h0Zm-4.44-1.78c-.93,0-.83,1.24-.39,1.85,0-.45,.79-.62,.79-.93,0-.48-.71-.48-.4-.93h0Z"/><path class="cls-13" d="M48.81,69.9c.31,0,.79,.14,.93,.31l-.93-.31h0Zm1.54,.48c.17,0,.79,.14,1.1,.31l-1.1-.31h0Zm5.62,.62c-.31,0-.93,0-1.09,.14l1.09-.14h0Zm-1.71,0c-.17-.17-.79-.17-1.09,0h1.09Zm12.3-1.09c-.31,0-.76,.14-.93,.31l.93-.31Zm-1.54,.48c-.17,0-.79,.14-1.1,.31l1.1-.31h0Zm-5.62,.62c.31,0,.93,0,1.1,.14l-1.1-.14h0Zm1.71,0c.17-.17,.79-.17,1.1,0h-1.1Z"/><g><path class="cls-18" d="M48.55,72.37c-.1-.02-.16-.1-.13-.2,.03-.12,.13-.19,.22-.16,.06,.02,.16,.13,.16,.16,0,.04-.05,.15-.08,.15-.01,0-.03,0-.04,.02-.02,.02-.08,.03-.13,.02h0Zm10.75,.77s-.1-.1-.1-.14c0-.08,.11-.2,.18-.2,.03,0,.13,.05,.16,.09,.06,.07,.05,.17-.03,.24-.04,.03-.16,.04-.21,.02h0Zm.07,.49c-.08-.03-.11-.07-.12-.16,0-.1,0-.11,.1-.16l.07-.04,.07,.03c.09,.04,.14,.09,.14,.15,0,.07-.05,.14-.13,.17-.07,.03-.07,.03-.14,0h0Z"/><path class="cls-18" d="M49.41,71.49c-.07,0-.16,.06-.21,.09-.13,.03-.27,.11-.4,.02-.12-.04-.28,0-.3,.14,.03,.13,.21,.2,.32,.12,.08-.11,.3-.17,.32,.01-.09,.14-.08,.31-.15,.46-.01,.09-.05,.17-.1,.25-.09,0-.19,0-.26,.06-.12,0-.25,.07-.32,.17-.08,.11-.15,.23-.18,.37,.02,.14,.18,.18,.31,.19,.13,.04,.26,.08,.39,.12,.21,.05,.41,.12,.62,.17,.31,.09,.64,.14,.95,.22,.03,.01,.06,.02,.1,.02,.13,.03,.2-.11,.21-.22,.06-.23,.11-.46,.18-.69,.04-.09,.1-.3-.08-.25-.1,.06-.19,.15-.31,.16-.17,.01-.07,.18,0,.26,.01,.11-.02,.25-.1,.34-.1,.06-.23-.01-.34-.04-.11,0-.34-.06-.23-.21,.04-.11,.04-.24,.09-.35,.06-.12,.07-.25,.09-.38-.07-.15-.19,.05-.29,.07-.07,.05-.31,.07-.18,.18,.11,.09,.03,.23,0,.34,0,.15-.16,.19-.29,.15-.12,0-.29-.1-.19-.23,.02-.11,.06-.22,.09-.34,.05-.14,.09-.27,.13-.4,.02-.12,.06-.24,.12-.34,0-.13,.09-.25,.09-.39,0-.07-.04-.09-.08-.09h0Zm-.7,1.42s.03,0,.04,0c.05,.02,.05,.06,0,.1-.02,.02-.05,.04-.06,.04-.09,0-.12-.02-.12-.06,0-.03,0-.04,.07-.07,.03-.01,.05-.02,.07-.02Zm-.2,.98c-.1-.09-.08-.16,.06-.26,.06-.05,.1-.04,.17,.02,.11,.1,.11,.16,.02,.25-.05,.04-.07,.05-.12,.05-.06,0-.07,0-.13-.06Zm.6,.18c-.09-.02-.15-.11-.12-.2,0,0,0,0,0-.01,.03-.09,.04-.09,.16-.09,.14,0,.17,.02,.17,.15,0,.07,0,.09-.04,.12-.04,.04-.12,.06-.17,.04h0Zm17.44,.02s-.05-.05-.05-.1c0-.08,.05-.14,.15-.18,.13-.06,.19-.05,.24,.04,.07,.12,.06,.17-.02,.25-.04,.04-.05,.05-.15,.05-.1,0-.11,0-.16-.04Zm-16.65,.23c-.07-.02-.11-.07-.11-.16,0-.07,0-.08,.05-.11,.03-.02,.08-.04,.11-.05,.05,0,.07,0,.11,.03,.11,.08,.13,.15,.07,.22-.07,.08-.13,.1-.24,.07h0Zm4.29,.19s-.05-.03-.05-.06c0-.11,.01-.22,.05-.32,.02-.1,0-.21,.04-.31,.04-.18,.04-.37,.08-.55,0-.09,.01-.19,.04-.28,.03-.14,0-.29,.04-.43,0-.05,.06-.19,.11-.11,.08,.11,.18,.2,.28,.3,.09,.05,0,.12-.05,.15-.08,.03-.1,.12-.1,.2-.01,.08-.04,.16-.05,.24-.02,.12-.01,.25-.03,.37-.04,.12-.02,.25-.03,.37,0,.08-.04,.15-.03,.23,0,.08-.01,.17-.08,.23-.06,.03-.16,.03-.21-.03h0Zm5.81-1.92c-.09,.07-.18,.16-.26,.24-.12,.09,.1,.14,.12,.21,.03,.11,.03,.24,.04,.35,.04,.11,.05,.22,.04,.34-.01,.12-.17,.1-.24,.17-.1,.04-.13,.14-.21,.2-.05,.09-.06,.21-.07,.32,0,.09-.06,.19,0,.26,0,.01,.02,.03,.02,.04,.02,.03,.07,0,.1,.01,.1,0,.2,0,.29-.03,.24-.04,.48-.04,.72-.06,.15,0,.29-.05,.43-.04,.11,.03,.17-.1,.17-.19-.07-.13,0-.28-.06-.41-.05-.13-.03-.28-.05-.42,0-.11-.14-.15-.21-.07-.07,.07-.17,.08-.23,.17-.06,.12,.12,.12,.15,.21,.03,.09,.02,.19,.03,.29,.02,.12-.1,.12-.18,.13-.11,.04-.25,.07-.31-.06-.04-.09-.03-.19-.04-.29,0-.17-.04-.35-.06-.52-.01-.21-.05-.43-.06-.64,0-.09-.01-.23-.14-.21h0Zm-.12,1.61h.06s0,.08,0,.08v.07s-.07,.02-.07,.02c-.04,.01-.08,.02-.08,.02-.01,0-.02-.02-.04-.02-.04-.03-.03-.08,.02-.13,.03-.03,.05-.04,.1-.04h0Zm-5.86-1.82c-.07,.03-.17,.14-.24,.13-.17,.01-.15,.18-.02,.24,.02,.05,0,.12,0,.17,.02,.15-.07,.28-.06,.43,0,.17-.06,.34-.07,.51-.05,.18-.05,.36-.08,.54-.02,.16-.14,.1-.24,.06,0-.07,0-.14,0-.21,.04-.16-.09-.21-.21-.23-.13,.01-.2-.1-.17-.22,.06-.07,.2-.05,.29-.06,.19,.04,.18-.22,.09-.31-.07-.12-.23-.18-.28-.31,.02-.17-.09-.34-.23-.42-.21-.01-.37,.17-.45,.35-.09,.03-.18,.05-.26,.09-.14,.03-.34,.28-.15,.37,.11,.03,.43,.1,.29,.25-.08,.14-.24,.14-.37,.1-.14,0-.3-.07-.29-.23-.03-.15-.02-.3-.09-.44-.03-.16-.22-.13-.23,.02-.14,.1-.12,.27-.02,.4,.06,.14,0,.31-.06,.44-.04,.17-.23,.18-.36,.23-.07,.03-.32-.02-.23,.13,.15,.05,.32,.1,.48,.06,.16-.02,.3-.13,.38-.27,.11-.11,.29-.05,.43-.06,.15,0,.31,.11,.45,.04,.04-.11,.24-.29,.3-.1-.01,.17,.14,.26,.29,.24,.17,0,.11,.12,.1,.22,.01,.18,.13,.28,.28,.35,.05,.01,.11,0,.16,0,.15-.05,.3-.11,.35-.28,.06-.13,.06-.28,.1-.42,.03-.22,.08-.44,.09-.67,.05-.2,.04-.42,.08-.62,.03-.15,.05-.31,.06-.46-.02-.08-.05-.1-.1-.08h0Zm-1.33,.81s.05,.04,.05,.1c0,.07,.04,.13,.09,.14,.04,0,.03,.05,0,.07-.02,.02-.06,.02-.13,.02-.11,0-.18-.03-.24-.09l-.04-.04,.06-.04s.08-.06,.11-.1c.06-.06,.09-.08,.12-.08h0Zm12.92-1.54c-.11,0-.22,.02-.32,.05-.2-.01-.31,.2-.11,.31,.12,.3,.3-.06,.49-.04,.28,.05,.31,.36,.35,.59,.02,.23,.08,.45,.15,.66,.19,.21-.14,.34-.28,.18-.12-.13-.38-.29-.52-.11-.18,.07-.18,.31-.33,.38-.24,.07-.27-.22-.39-.34-.11-.16-.33-.18-.51-.23-.08-.17-.04-.46-.21-.57-.15,.06-.41,.33-.19,.46,.22,.19-.1,.27-.2,.4-.14,.16-.17,.38-.19,.58-.25,.14-.29-.15-.32-.34-.02-.22-.2-.15-.33-.07-.19,.08-.28,.25-.41,.39-.02,.13,0,.27,0,.4,.04,.16,.24,.08,.35,.07,.19-.08,.27,.12,.12,.24-.1,.13-.43,.06-.4,.28,.11,.01,.22,0,.32,0,.21-.06,.44-.21,.46-.45,.03-.21,.33-.17,.49-.21,.2-.06,.45-.07,.5,.18,.14,.15,.44,.31,.59,.11,.16-.09,.23-.26,.22-.44-.03-.15,.25-.16,.32-.07,.1,.17,.42,.12,.57,.02,.16-.12,.2-.33,.43-.34,.35-.1,.71-.16,1.05-.29,.28-.06-.04-.23-.11-.34-.21-.1-.39,.32-.63,.11-.18-.14-.17-.41-.24-.61-.05-.27-.03-.57-.23-.78-.13-.14-.31-.17-.5-.17h0Zm-1.33,1.85s.05,.01,.1,.04c.09,.05,.15,.13,.15,.19,0,.04-.01,.04-.07,.07-.04,.02-.08,.04-.1,.04-.04,0-.12-.07-.12-.1,0-.01-.01-.06-.02-.09-.02-.06-.02-.06,.01-.1,.02-.03,.04-.04,.06-.04h0Zm1.28,.07c.07,0,.12,.02,.15,.07,.04,.06,.01,.11-.08,.15-.04,.02-.08,.03-.09,.03,0,0-.04-.02-.07-.04-.05-.03-.06-.05-.06-.09,0-.06,.07-.12,.15-.12h0Zm-1.75,.02s.04,0,.07,.03c.04,.03,.05,.05,.06,.12,0,.04,0,.1,0,.12,0,.04-.01,.04-.11,.04-.13,0-.14-.01-.13-.13,0-.07,0-.09,.04-.13,.03-.03,.06-.05,.08-.05h0Zm-1.08,.28s.08,.04,.09,.09c.01,.06,0,.09-.05,.12-.04,.02-.14,.03-.17,.01,0,0-.03-.02-.04-.04-.01-.02-.01-.04,0-.05,.01,0,.02-.02,.02-.03,0,0,.01-.03,.03-.06,.03-.04,.07-.05,.11-.04h0Zm1.81,.23s.06,.01,.09,.03c.04,.03,.04,.08,0,.11-.03,.02-.17,.02-.22,0-.02,0-.03-.02-.03-.04,0-.03,0-.04,.06-.07,.04-.02,.08-.03,.12-.03h0Zm-3.36,.94s-.05-.02-.02-.04c.03-.06,.1-.08,.16-.1,.11-.05,.2-.13,.27-.22,0-.07,.08-.1,.08-.17,0-.09,0-.19-.02-.28-.03-.08-.09-.15-.16-.19-.05-.04-.13-.05-.15-.12-.01-.07,.05-.12,.07-.18,.04-.08,.08-.17,.13-.25,.05-.06,.13,0,.16,.05,.04,.05,.07,.11,.09,.18,.06,.06,.11,.14,.13,.23,.03,.06,.08,.12,.07,.19,0,.08,.05,.15,.04,.24,0,.11,0,.22-.04,.33-.03,.06-.08,.09-.12,.14-.06,.06-.13,.11-.21,.14-.06,.02-.09,.08-.16,.07-.1,0-.2,.02-.3,0,0,.01-.03-.02-.02-.01h0Zm-1.34,.09s-.06-.07-.06-.12c0-.05,0-.07,.06-.11,.09-.09,.13-.09,.28-.01,.14,.07,.19,.08,.2,.03,.01-.05,.09-.09,.17-.09,.05,0,.08,0,.12,.04,.05,.04,.05,.04,.05,.13,0,.09,0,.09-.06,.14-.05,.05-.06,.05-.13,.04-.09,0-.14-.05-.15-.12-.01-.05-.03-.06-.04-.03,0,.01-.03,.02-.05,.03-.04,.01-.11,.05-.16,.1-.02,.02-.05,.03-.1,.03-.07,0-.08,0-.13-.06h0Zm-3.88-1.74c-.13,0-.27,.11-.29,.24,.03,.15,.15,.29,.07,.45,.05,.2-.15,.27-.29,.16-.08-.19-.13-.4-.25-.57-.16-.04-.23,.21-.34,.29,.05,.15,.21,.28,.23,.46,.04,.18-.07,.38-.23,.47-.13,.13-.32,.08-.48,.11-.2,.12,.15,.16,.24,.17,.21,.02,.42,0,.57-.16,.15-.07,.14-.33,.32-.36,.31-.01,.62,.05,.93,.06,.17,.04,.42-.02,.54,.1,0,.22,.18,.35,.36,.43,.1,.03,.2-.09,.3-.12,.19-.06,.13-.29,.24-.39,.32-.02,.65-.01,.97-.02,.06,0,.08-.09,.12-.12,0-.12-.01-.25-.03-.37-.06-.16,.01-.36-.1-.5-.16-.04-.3,.1-.46,.12-.18,.08-.33,.25-.34,.45-.11,.18-.28-.03-.22-.18,0-.06,.01-.14,0-.2-.1-.12-.27-.08-.41-.1-.2,0-.39-.04-.59-.03-.17-.01-.36,.02-.53-.03-.2,0-.17-.2-.21-.34-.04-.03-.08-.04-.12-.04h0Zm.39,.72c.07,0,.13,.01,.2,.02,.08,.01,.17-.03,.26,0,.19,.03,.38,.02,.57,.04,.05,0,.09,.04,.12,.07,0,.13,0,.27,0,.4,0,.05,.01,.12-.03,.15-.01,.01-.03,.02-.05,.02-.05-.01-.11-.05-.13-.1,0-.07,0-.14,0-.21,0-.02,0-.05,0-.06-.04-.03-.09-.05-.14-.05-.17,0-.33-.02-.5-.02-.14,0-.28,.01-.42-.02-.05-.02-.12-.01-.15-.07-.05-.05,.02-.12,.07-.14,.06-.03,.13-.04,.2-.04h0Zm2.21,.05s.04,0,.06,.07c0,.04,.02,.08,.02,.1,0,.02,0,.03-.04,.04-.1,.04-.19,.03-.23-.01-.02-.02,0-.09,.03-.11,.06-.05,.12-.09,.15-.09h0Z"/></g></g><g><path class="cls-14" d="M60.09,48.59c.13,0-.18-.7-.18-.7,.35,.35,1.65,.44,1.65,.44-.78-.35-1.57-2.95-1.47-5.03,.08-2.09-.3-2.91-.61-3.22-.39-.39-1.65-.74-2.48-.78-.47-.02-.39,.35-.39,.35-.87-.22-1.73-.31-2.13-.05-.37,.25-.45,1.47-.18,1.26,.65-.52,1.22-.05,1.61,.52,.35,.5,.32,1.91-.18,3.56-.52,1.73-1.95,3.47-1.95,3.47,.78,0,1.86-.69,1.86-.69l-.26,1.08c.82-.39,1.47-1,1.47-1l.78,.82c.26-.35,.78-.82,.78-.82,0,0,.65,.69,1.65,.78h0Z"/><path class="cls-2" d="M56.92,43.59s-.44,3.22-1.26,4.13m1.95-4.21s-.17,3.25-.74,4.3m1.35-4.17s0,3.56,.21,4.17m.56-3.99s.18,2.99,.91,4.07"/><path class="cls-15" d="M56.13,42.04c-.04-.28-.11-.51-.21-.65-.39-.57-.96-1.04-1.61-.52,0,0,.22-.69,.7-.71,.37-.02,1.2,.28,1.94,1.53,0,0-.54-.12-.68,0-.25,.21-.15,.36-.15,.36h0Z"/><path class="cls-15" d="M54.24,40.01c.05-.18,.14-.34,.25-.41,.39-.26,1.26-.18,2.13,.05,0,0-.08-.38,.39-.35,.83,.05,2.09,.39,2.48,.78,.09,.1,.2,.25,.29,.47h-.02c-.19-.27-.74-.25-.87-.24-.21,.02-.34,.02-.61,.08-.13,.03-.33,.07-.44,.15-.08,.07-.15,.32-.28,.32-.21,0-.19-.05-.25-.12-.07-.08-.11-.21-.18-.2-.21,.04-.56-.13-1-.48-.44-.35-.61-.43-1.17-.39-.56,.05-.74,.36-.74,.36l.02-.04Z"/><circle class="cls-7" cx="57.45" cy="40.29" r=".23"/></g><path class="cls-12" d="M57.67,63.1c6.39-4.91,5.84-12.11,5.84-12.11-.17,.03-.33,.05-.5,.05-1.34,0-4.54-.77-5.28-1.74-.8,.88-4.07,1.74-5.4,1.74-.17,0-.34-.02-.5-.05,0,0-.56,7.2,5.83,12.11h0Z"/><path class="cls-5" d="M63.01,51.51c-.05,0-.11,0-.17,0-1.21,0-4.04-.62-5.12-1.56-1.14,.86-4.01,1.56-5.2,1.56-.06,0-.11,0-.17-.02,0,.27,.01,.55,.03,.81,.06,.96,.23,1.92,.49,2.85,.8,2.92,2.45,5.39,4.81,7.27,2.36-1.88,4.01-4.36,4.81-7.28,.26-.93,.42-1.89,.49-2.85,.01-.27,.03-.6,.03-.79h0Z"/><g class="cls-21"><g><path class="cls-19" d="M52.32,49.89h3.57v12.59h-3.57v-12.59Z"/><path class="cls-11" d="M55.89,49.89h3.57v12.59h-3.57v-12.59Z"/><path class="cls-19" d="M59.47,49.89h3.57v12.59h-3.57v-12.59Z"/></g></g></g></g></g><circle class="cls-3" cx="57.11" cy="57.11" r="56.11"/></g></g></svg>