<?xml version="1.0" encoding="UTF-8"?><svg id="Capa_2" xmlns="http://www.w3.org/2000/svg" xmlns:xlink="http://www.w3.org/1999/xlink" viewBox="0 0 114.21 114.21"><defs><style>.cls-1,.cls-2,.cls-3,.cls-4,.cls-5,.cls-6,.cls-7,.cls-8,.cls-9,.cls-10,.cls-11,.cls-12,.cls-13,.cls-14,.cls-15,.cls-16,.cls-17,.cls-18,.cls-19,.cls-20,.cls-21,.cls-22,.cls-23,.cls-24,.cls-25,.cls-26,.cls-27,.cls-28,.cls-29,.cls-30,.cls-31,.cls-32,.cls-33,.cls-34,.cls-35,.cls-36,.cls-37,.cls-38,.cls-39,.cls-40,.cls-41,.cls-42,.cls-43,.cls-44,.cls-45,.cls-46,.cls-47,.cls-48,.cls-49,.cls-50,.cls-51,.cls-52,.cls-53,.cls-54,.cls-55,.cls-56,.cls-57,.cls-58,.cls-59,.cls-60,.cls-61,.cls-62,.cls-63,.cls-64,.cls-65,.cls-66{stroke:#000;}.cls-1,.cls-11{stroke-width:.05px;}.cls-1,.cls-42,.cls-59{fill:#fff;}.cls-2,.cls-3,.cls-6,.cls-27,.cls-28,.cls-42,.cls-67,.cls-43,.cls-44,.cls-45,.cls-46{stroke-width:.06px;}.cls-2,.cls-3,.cls-26,.cls-31,.cls-32{stroke-linejoin:round;}.cls-2,.cls-20,.cls-25,.cls-32,.cls-40,.cls-44,.cls-64{fill:#ad171d;}.cls-3,.cls-7,.cls-68,.cls-22,.cls-26,.cls-31,.cls-33,.cls-38,.cls-67,.cls-43,.cls-61{fill:#c8b106;}.cls-4{stroke-width:.02px;}.cls-4,.cls-5,.cls-8,.cls-10,.cls-11,.cls-12,.cls-13,.cls-14,.cls-15,.cls-16,.cls-17,.cls-18,.cls-19,.cls-23,.cls-24,.cls-27,.cls-28,.cls-29,.cls-30,.cls-69,.cls-34,.cls-35,.cls-36,.cls-47,.cls-48,.cls-49,.cls-50,.cls-51,.cls-52,.cls-53,.cls-54,.cls-55,.cls-56,.cls-65,.cls-66{fill:none;}.cls-5{stroke-width:.17px;}.cls-7,.cls-54{stroke-width:.11px;}.cls-8,.cls-31,.cls-32,.cls-57,.cls-58,.cls-59,.cls-60,.cls-61,.cls-62,.cls-63,.cls-64{stroke-width:.09px;}.cls-9,.cls-30{stroke-width:.01px;}.cls-70{clip-path:url(#clippath);}.cls-71{fill:#fcc30e;}.cls-72{fill:#c5101f;}.cls-73,.cls-41,.cls-46,.cls-58{fill:#078f6f;}.cls-74{fill:#36509a;}.cls-10{stroke-width:.21px;}.cls-12{stroke-width:.1px;}.cls-13{stroke-width:.01px;}.cls-14{stroke-width:0px;}.cls-15{stroke-width:.03px;}.cls-16{stroke-width:.13px;}.cls-17{stroke-width:0px;}.cls-18{stroke-width:.02px;}.cls-19{stroke-width:.08px;}.cls-20,.cls-21{stroke-width:.14px;}.cls-21,.cls-45,.cls-57{fill:#295ba3;}.cls-22,.cls-26{stroke-width:.08px;}.cls-23{stroke-width:.02px;}.cls-24{stroke-width:.04px;}.cls-25{stroke-width:.06px;}.cls-27{stroke-linecap:round;}.cls-29{stroke-width:.02px;}.cls-33{stroke-width:.07px;}.cls-69{stroke:#fff;stroke-miterlimit:10;stroke-width:2px;}.cls-34{stroke-width:.03px;}.cls-35{stroke-width:0px;}.cls-36{stroke-width:.16px;}.cls-37{fill:#fdd692;}.cls-37,.cls-38,.cls-39,.cls-40,.cls-41{stroke-width:.12px;}.cls-39,.cls-62{fill:#cccccb;}.cls-67{stroke:#c8b106;}.cls-47{stroke-width:0px;}.cls-48{stroke-width:.03px;}.cls-49{stroke-width:.14px;}.cls-50{stroke-width:.06px;}.cls-51{stroke-width:.03px;}.cls-52{stroke-width:.14px;}.cls-53{stroke-width:.08px;}.cls-55{stroke-width:.03px;}.cls-56{stroke-width:.05px;}.cls-60{fill:#ea74a6;}.cls-63{fill:#dc4546;}.cls-65{stroke-width:.12px;}.cls-66{stroke-width:.18px;}</style><clipPath id="clippath"><circle class="cls-69" cx="57.11" cy="57.11" r="56.11" transform="translate(-12.5 98.06) rotate(-75.47)"/></clipPath></defs><g id="Capa_1-2"><g><g class="cls-70"><g><rect class="cls-72" x="-21.37" y="-.1" width="171.5" height="114.33"/><rect class="cls-71" x="-21.37" y="28.49" width="171.5" height="57.17"/><g id="coa"><g id="supporters"><g id="crown_left"><path class="cls-2" d="M17.04,50.72s-.12,0-.18-.04-.26-.22-.26-.22l-.16-.11-.14-.19s-.17-.27-.09-.48c.08-.21,.21-.28,.32-.34,.12-.06,.36-.13,.36-.13,0,0,.19-.08,.26-.1,.06-.01,.3-.07,.3-.07,0,0,.06-.04,.13-.06,.07-.03,.16-.03,.21-.04,.05-.01,.18-.05,.26-.06,.12,0,.31,.02,.38,.02s.28,.01,.38,.01,.41-.03,.5-.03,.16-.01,.26,0c.1,.01,.28,.07,.34,.1s.36,.13,.48,.17,.4,.08,.53,.15c.13,.06,.21,.16,.27,.25,.06,.08,.08,.18,.1,.24,.03,.06,.03,.19,0,.25-.03,.06-.12,.19-.12,.19l-.14,.23-.18,.15s-.13,.12-.23,.11c-.1,0-1.15-.2-1.82-.2s-1.75,.2-1.75,.2h0Z"/><g><ellipse class="cls-43" cx="18.8" cy="49.22" rx=".32" ry=".57"/><ellipse class="cls-43" cx="18.8" cy="49.22" rx=".15" ry=".53"/><ellipse class="cls-68" cx="18.8" cy="48.62" rx=".21" ry=".2"/><path class="cls-33" d="M19.09,48.55v.13h-.58v-.13h.21v-.3h-.14v-.13h.14v-.13h.14v.13h.14v.13h-.14v.3h.23"/><path class="cls-28" d="M18.86,48.43c.11,.03,.18,.14,.15,.25-.03,.11-.15,.17-.26,.14-.11-.03-.18-.14-.15-.25,.02-.07,.08-.12,.15-.14"/><path class="cls-43" d="M18.8,50.69h-1.1l-.03-.27-.05-.28-.05-.35c-.3-.4-.58-.66-.68-.61,.02-.07,.05-.13,.11-.16,.27-.16,.83,.22,1.24,.86,.04,.06,.07,.11,.11,.17h.91c.03-.06,.07-.11,.11-.17,.42-.63,.97-1.02,1.24-.86,.06,.03,.08,.09,.11,.16-.09-.05-.37,.21-.68,.61l-.05,.35-.05,.28-.02,.27h-1.11Z"/><path class="cls-28" d="M16.94,49.17c.21-.12,.69,.26,1.08,.86m2.64-.86c-.21-.12-.69,.26-1.08,.86"/></g><g id="crown_pt1"><path class="cls-43" d="M17.18,51.18c-.05-.13-.13-.25-.13-.25,.45-.13,1.07-.21,1.75-.21,.69,0,1.31,.08,1.76,.21,0,0-.05,.09-.12,.21-.04,.07-.09,.19-.09,.19-.4-.12-.92-.19-1.55-.19-.64,0-1.25,.08-1.57,.2,0,0-.02-.07-.05-.16h0"/><path class="cls-43" d="M18.8,51.75c.56,0,1.17-.09,1.39-.14,.15-.05,.24-.11,.22-.19,0-.04-.04-.07-.08-.09-.33-.11-.93-.18-1.53-.18s-1.21,.08-1.54,.18c-.04,.02-.08,.05-.08,.09-.02,.08,.07,.15,.22,.19,.23,.06,.84,.14,1.4,.14Z"/><path class="cls-43" d="M20.58,50.69l-.13-.12s-.13,.08-.29,.05c-.16-.03-.21-.22-.21-.22,0,0-.18,.15-.33,.14-.15-.01-.24-.14-.24-.14,0,0-.16,.12-.3,.11-.14-.01-.28-.19-.28-.19,0,0-.14,.18-.29,.2-.14,.01-.26-.12-.26-.12,0,0-.06,.13-.24,.16s-.34-.14-.34-.14c0,0-.1,.17-.23,.21-.12,.04-.28-.06-.28-.06,0,0-.03,.06-.05,.1s-.07,.04-.07,.04l.04,.11c.44-.13,1.04-.21,1.72-.21s1.3,.08,1.74,.21l.05-.12h0Z"/><path class="cls-43" d="M18.8,50.09h.06s-.01,.07-.01,.1c0,.13,.11,.24,.26,.24,.11,0,.21-.07,.24-.17,0,0,.03-.09,.03-.09,0,0,0,.09,.01,.09,.02,.12,.13,.2,.25,.2,.14,0,.25-.11,.25-.24,0,0,0-.02,0-.03l.08-.08,.04,.1s-.02,.07-.02,.11c0,.13,.11,.23,.24,.23,.08,0,.16-.04,.2-.1l.05-.07v.08c0,.08,.03,.15,.11,.16,0,0,.09,0,.21-.09,.12-.09,.18-.17,.18-.17v.1s-.11,.19-.21,.25c-.06,.03-.15,.07-.22,.06-.07-.01-.13-.07-.15-.14-.05,.03-.12,.05-.18,.05-.14,0-.27-.08-.32-.2-.07,.07-.16,.11-.27,.11-.12,0-.22-.05-.29-.13-.06,.06-.15,.1-.25,.1-.13,0-.24-.06-.3-.16-.07,.09-.18,.16-.31,.16-.1,0-.19-.04-.25-.1-.07,.08-.17,.13-.29,.13s-.2-.04-.27-.11c-.05,.12-.18,.2-.32,.2-.07,0-.13-.02-.18-.05-.03,.07-.08,.13-.16,.14-.07,.01-.16-.02-.21-.06-.11-.06-.23-.25-.23-.25l.02-.1s.07,.08,.19,.17c.12,.09,.21,.09,.21,.09,.08-.01,.11-.08,.11-.16v-.08l.05,.07c.04,.06,.12,.1,.2,.1,.13,0,.24-.1,.24-.23,0-.04,0-.07-.02-.11l.04-.1,.08,.08s0,.02,0,.03c0,.13,.11,.24,.25,.24,.13,0,.24-.08,.25-.2,0,0,0-.09,0-.09,.01,0,.03,.09,.04,.09,.03,.1,.13,.17,.24,.17,.14,0,.25-.11,.25-.24,0-.03,0-.06-.01-.09h.07s0-.01,0-.01h0Z"/><path class="cls-3" d="M18.8,50.72c-.69,0-1.31,.08-1.75,.21-.03,0-.07-.01-.08-.04,0-.03,.01-.06,.04-.07,.45-.14,1.08-.22,1.79-.22s1.34,.09,1.79,.22c.03,0,.05,.04,.04,.07,0,.03-.05,.05-.08,.04-.45-.13-1.07-.21-1.76-.21Z"/><path class="cls-43" d="M16.46,50.44s-.09-.11-.15-.17c-.05-.04-.16-.08-.16-.08,0-.02,.06-.06,.13-.06,.04,0,.08,.02,.1,.05v-.05s.06,.01,.09,.07c.03,.07,.01,.16,.01,.16,0,0-.01,.05-.03,.07h0Z"/><path class="cls-43" d="M16.89,50.26l-.03,.15-.32,.03-.05-.03v-.05s.25-.2,.25-.2l.14,.09"/><path class="cls-43" d="M16.46,50.38s.08-.02,.12,.01c.04,.03,.05,.09,.03,.11-.03,.03-.08,.02-.12-.01-.04-.03-.05-.09-.03-.11Z"/><path class="cls-43" d="M17.05,50.41s0-.08,.03-.1c.03,0,.07,.02,.08,.06,.01,.04,0,.09-.03,.1-.03,0-.07-.02-.08-.06Z"/><path class="cls-43" d="M17.2,50.22l.12,.11,.28-.15,.02-.05-.04-.04-.32-.03-.06,.16"/><path class="cls-43" d="M17.52,49.7l-.15,.15,.2,.26,.05,.02,.04-.04,.07-.31-.2-.07"/><path class="cls-43" d="M18.04,50.05l-.06,.14-.32-.03-.04-.04,.02-.05,.28-.15,.12,.12"/><ellipse class="cls-43" cx="17.62" cy="50.13" rx=".11" ry=".11"/><path class="cls-43" d="M18.16,50.2s.02-.08,.05-.09,.06,.03,.07,.08c0,.04-.02,.08-.05,.09-.03,0-.06-.03-.07-.07Z"/><path class="cls-43" d="M18.37,50.04l.09,.13,.31-.1,.03-.04-.03-.05-.3-.09-.09,.14"/><path class="cls-43" d="M18.8,49.56l-.2,.12,.15,.32,.05,.03,.05-.03,.15-.32-.2-.12"/><path class="cls-43" d="M19.23,50.04l-.09,.13-.31-.1-.03-.04,.03-.05,.31-.09,.09,.14"/><ellipse class="cls-43" cx="18.8" cy="50.03" rx=".11" ry=".11"/><path class="cls-43" d="M19.44,50.2s-.02-.08-.05-.09-.06,.03-.07,.08c0,.04,.02,.08,.05,.09,.03,0,.06-.03,.07-.07Z"/><path class="cls-43" d="M19.56,50.05l.06,.14,.32-.03,.04-.04-.02-.05-.28-.15-.12,.12"/><path class="cls-43" d="M20.08,49.7l.15,.15-.2,.26-.05,.02-.04-.04-.07-.31,.2-.07"/><path class="cls-43" d="M20.4,50.22l-.12,.11-.28-.15-.02-.05,.04-.04,.32-.03,.05,.16"/><ellipse class="cls-43" cx="19.98" cy="50.13" rx=".11" ry=".11"/><path class="cls-43" d="M20.55,50.41s0-.08-.03-.1c-.03,0-.07,.02-.08,.06-.01,.04,0,.09,.03,.1,.03,0,.07-.02,.08-.06Z"/><path class="cls-43" d="M21.1,50.44s.09-.11,.15-.17c.04-.04,.15-.08,.15-.08,0-.02-.06-.06-.13-.06-.04,0-.08,.02-.1,.05v-.05s-.06,.01-.09,.07c-.03,.07,0,.16,0,.16,0,0,0,.05,.03,.07h0Z"/><path class="cls-43" d="M20.67,50.26l.03,.15,.32,.03,.05-.03v-.05s-.25-.2-.25-.2l-.14,.09"/><path class="cls-43" d="M21.1,50.38s-.08-.02-.12,.01-.05,.09-.03,.11c.03,.03,.08,.02,.12-.01,.04-.03,.05-.09,.03-.11Z"/></g><g id="crown_pt2"><path class="cls-44" d="M17.06,51.19l.07-.11,.15,.03-.09,.13-.13-.04"/><path class="cls-46" d="M17.7,51.08l-.16,.03s-.08-.02-.09-.06c0-.04,.02-.07,.06-.08l.16-.02,.16-.03s.08,.02,.08,.06c0,.04-.02,.08-.06,.08l-.16,.03"/><ellipse class="cls-42" cx="18.23" cy="50.97" rx=".1" ry=".09"/><path class="cls-44" d="M18.8,51.01h-.22s-.08-.03-.08-.07,.03-.07,.07-.07h.45s.08,.03,.08,.07-.03,.07-.08,.07h-.23"/><ellipse class="cls-42" cx="19.37" cy="50.97" rx=".1" ry=".09"/><path class="cls-46" d="M19.9,51.08l.16,.03s.08-.02,.09-.06c0-.04-.02-.07-.06-.08l-.16-.02-.16-.03s-.08,.02-.08,.06c0,.04,.02,.08,.06,.08l.16,.03"/><path class="cls-44" d="M20.53,51.2l-.06-.12h-.15s.07,.15,.07,.15l.14-.03"/><path class="cls-2" d="M18.8,51.62c-.56,0-1.06-.05-1.44-.15,.38-.1,.88-.16,1.44-.16,.56,0,1.06,.06,1.45,.16-.38,.1-.89,.15-1.45,.15Z"/><path class="cls-35" d="M19.06,51.6v-.27m-.13,.27v-.28m-.1,.29v-.29"/><path class="cls-47" d="M18.74,51.62v-.29"/><path class="cls-14" d="M18.66,51.62v-.29"/><path class="cls-17" d="M18.59,51.62v-.29"/><path class="cls-17" d="M18.52,51.62v-.29"/><path class="cls-30" d="M18.45,51.62v-.29"/><path class="cls-13" d="M18.33,51.6v-.26m.06,.27v-.28"/><path class="cls-4" d="M18.21,51.59v-.24m.06,.25v-.26"/><path class="cls-18" d="M18.05,51.58v-.21m.05,.21v-.22m.05,.23v-.23"/><path class="cls-23" d="M18,51.57v-.21"/><path class="cls-29" d="M17.95,51.56v-.19"/><path class="cls-55" d="M17.9,51.56v-.18"/><path class="cls-15" d="M17.78,51.54v-.14m.06,.15v-.16"/><path class="cls-15" d="M17.73,51.53v-.13"/><path class="cls-34" d="M17.67,51.52v-.11"/><path class="cls-51" d="M17.62,51.51v-.08"/><path class="cls-48" d="M17.56,51.5v-.06"/><path class="cls-24" d="M17.5,51.49v-.03"/></g></g><g id="pillar_left"><g><path class="cls-57" d="M22.37,75.52c-.35,0-.67-.08-.9-.2-.23-.12-.54-.19-.88-.19s-.66,.07-.89,.19c-.23,.12-.55,.2-.9,.2s-.67-.08-.9-.21c-.23-.11-.53-.18-.87-.18s-.65,.07-.88,.19c-.23,.12-.55,.2-.9,.2v.55c.35,0,.67-.08,.9-.2,.23-.12,.54-.19,.88-.19s.64,.07,.87,.18c.23,.12,.55,.21,.9,.21s.67-.08,.9-.2c.23-.12,.55-.19,.89-.19s.65,.07,.88,.19c.23,.12,.54,.2,.89,.2v-.55s0,0,0,0Z"/><path class="cls-62" d="M22.37,76.07c-.35,0-.67-.08-.9-.2-.23-.12-.54-.19-.88-.19s-.66,.07-.89,.19c-.23,.12-.55,.2-.9,.2s-.67-.08-.9-.21c-.23-.11-.53-.18-.87-.18s-.65,.07-.88,.19c-.23,.12-.55,.2-.9,.2v.55c.35,0,.67-.08,.9-.2,.23-.12,.54-.19,.88-.19s.64,.07,.87,.18c.23,.12,.55,.21,.9,.21s.67-.08,.9-.2,.55-.19,.89-.19,.65,.07,.88,.19c.23,.12,.54,.2,.89,.2v-.55"/><path class="cls-57" d="M22.37,76.62c-.35,0-.67-.08-.9-.2-.23-.12-.54-.19-.88-.19s-.66,.07-.89,.19-.55,.2-.9,.2-.67-.08-.9-.21c-.23-.11-.53-.18-.87-.18s-.65,.07-.88,.19c-.23,.12-.55,.2-.9,.2v.55c.35,0,.67-.08,.9-.2,.23-.12,.54-.18,.88-.18s.64,.07,.87,.18c.23,.12,.55,.2,.9,.2s.67-.07,.9-.19c.23-.12,.55-.19,.89-.19s.65,.07,.88,.19c.23,.13,.54,.2,.89,.2v-.55"/><path class="cls-62" d="M22.36,77.72c-.35,0-.66-.08-.89-.2-.23-.12-.54-.19-.88-.19s-.66,.07-.89,.19-.55,.2-.9,.2-.67-.08-.9-.21c-.23-.11-.53-.18-.87-.18s-.65,.07-.88,.19c-.23,.12-.55,.2-.9,.2v-.55c.35,0,.67-.08,.9-.21,.23-.12,.54-.18,.88-.18s.64,.07,.87,.18c.23,.12,.55,.2,.9,.2s.67-.07,.9-.19c.23-.12,.55-.19,.89-.19s.65,.07,.88,.19c.23,.13,.55,.2,.9,.2v.55"/><path class="cls-57" d="M22.36,78.28c-.35,0-.66-.08-.89-.2-.23-.12-.54-.19-.88-.19s-.66,.07-.89,.19-.55,.2-.9,.2-.67-.08-.9-.21c-.23-.11-.53-.18-.87-.18s-.65,.07-.88,.19c-.23,.12-.55,.2-.9,.2v-.55c.35,0,.67-.08,.9-.21,.23-.12,.54-.19,.88-.19s.64,.07,.87,.18c.23,.12,.55,.21,.9,.21s.67-.08,.9-.2c.23-.12,.55-.19,.89-.19s.65,.07,.88,.19c.23,.12,.54,.2,.9,.2v.55s0,0,0,0Z"/></g><g><path class="cls-31" d="M16.8,73.26s.03,.09,.03,.14c0,.33-.29,.6-.64,.6h5.25c-.35,0-.64-.27-.64-.6,0-.05,0-.09,.02-.14-.03,.01-.07,.01-.1,.01h-3.82s-.07,0-.09-.01Z"/><path class="cls-61" d="M16.89,72.91h3.82c.13,0,.23,.08,.23,.18s-.1,.18-.23,.18h-3.82c-.13,0-.23-.08-.23-.18s.11-.18,.23-.18Z"/><path class="cls-61" d="M16.19,75.33h5.23v-1.33h-5.23v1.33Z"/></g><path class="cls-62" d="M16.94,72.69h3.72v-18.21h-3.72v18.21Z"/><path class="cls-8" d="M19.59,54.51v18.17m.42-18.17v18.17"/><g><path class="cls-61" d="M16.26,53.04h5.1v-1.34h-5.1v1.34h0Z"/><path class="cls-31" d="M16.8,53.93s.05-.02,.09-.02h3.82s.07,0,.11,.02c-.13-.04-.23-.16-.23-.3s.1-.26,.24-.3c-.03,0-.08,.02-.11,.02h-3.82s-.08,0-.11-.01h.02c.14,.05,.21,.17,.21,.3s-.09,.26-.22,.3h0Z"/><path class="cls-61" d="M16.89,53.91h3.82c.13,0,.23,.08,.23,.18s-.1,.18-.23,.18h-3.82c-.13,0-.23-.08-.23-.18s.11-.18,.23-.18Z"/><path class="cls-61" d="M16.89,53.04h3.82c.13,0,.24,.07,.24,.15s-.11,.15-.24,.15h-3.82c-.13,0-.23-.07-.23-.15s.11-.15,.23-.15Z"/></g></g><g id="ribbon_left"><path class="cls-64" d="M15.78,68.19c-.52,.3-.87,.6-.81,.76,.03,.14,.19,.24,.43,.4,.37,.26,.59,.72,.42,.93,.31-.25,.5-.62,.5-1.03s-.21-.81-.54-1.06Z"/><path class="cls-32" d="M24.45,61.29c-.81-.33-2.19-.58-3.77-.64-.55,0-1.15,.06-1.78,.16-2.22,.37-3.92,1.26-3.78,1.98,0,.01,0,.05,.01,.06,0,0-.83-1.88-.85-1.95-.15-.8,1.73-1.79,4.2-2.2,.78-.13,1.53-.18,2.19-.17,1.58,0,2.95,.2,3.78,.51v2.25"/><path class="cls-64" d="M16.93,63.58c-1.03-.07-1.73-.35-1.82-.78-.06-.34,.29-.72,.91-1.07,.28,.03,.59,.07,.91,.07v1.78"/><path class="cls-64" d="M20.66,62.19c.64,.1,1.13,.26,1.37,.46l.02,.04c.11,.24-.45,.74-1.4,1.3v-1.79"/><path class="cls-32" d="M14.62,67.09c-.1-.29,.91-.88,2.33-1.4,.65-.23,1.18-.47,1.85-.77,1.97-.87,3.43-1.88,3.25-2.24l-.02-.04c.11,.09,.27,1.88,.27,1.88,.18,.33-1.15,1.32-2.97,2.19-.58,.28-1.81,.73-2.39,.94-1.04,.36-2.07,1.04-1.97,1.29l-.35-1.85h0s0,0,0,0Z"/></g><g id="crown_right"><path class="cls-25" d="M52.91,50.31s-.17,.18-.29,.2c-.12,.02-.28-.11-.28-.11,0,0-.11,.12-.25,.15-.13,.03-.32-.15-.32-.15,0,0-.13,.18-.24,.23-.12,.04-.26-.05-.26-.05,0,0-.05,.09-.15,.14-.04,.02-.11-.01-.11-.01l-.14-.09-.16-.16-.14-.05s-.06-.21-.07-.24c0-.04-.02-.13-.02-.13-.03-.15,.2-.32,.53-.39,.19-.04,.35-.04,.47,0,.13-.11,.41-.19,.73-.19,.29,0,.55,.06,.7,.16,.14-.1,.4-.16,.69-.16,.32,0,.6,.08,.73,.19,.12-.04,.28-.04,.47,0,.32,.07,.56,.24,.53,.39,0,0-.01,.09-.02,.13,0,.04-.07,.24-.07,.24l-.14,.05-.16,.16-.13,.09s-.07,.03-.11,.01c-.1-.05-.15-.14-.15-.14,0,0-.14,.1-.26,.05-.12-.04-.24-.23-.24-.23,0,0-.19,.18-.32,.15-.13-.03-.24-.15-.24-.15,0,0-.16,.13-.28,.11-.12-.03-.29-.2-.29-.2h0Z"/><g><ellipse class="cls-43" cx="52.9" cy="49.34" rx=".32" ry=".45"/><ellipse class="cls-43" cx="52.91" cy="49.34" rx=".14" ry=".41"/><ellipse class="cls-68" cx="52.91" cy="48.83" rx=".21" ry=".2"/><path class="cls-33" d="M53.2,48.76v.13h-.58v-.13h.21v-.3h-.14v-.13h.14v-.13h.14v.13h.14v.13h-.14v.3h.22"/><path class="cls-28" d="M52.97,48.64c.11,.03,.18,.15,.14,.25-.03,.11-.15,.17-.27,.13-.11-.03-.18-.15-.14-.25,.02-.07,.08-.12,.15-.14"/></g><g><path class="cls-27" d="M50.52,50.21c-.03-.08-.05-.16-.05-.25,0-.36,.29-.66,.65-.66,.11,0,.22,.03,.31,.08"/><path class="cls-28" d="M51.68,49.74c-.03-.06-.07-.12-.07-.19,0-.26,.27-.48,.6-.48,.14,0,.27,.04,.38,.1"/><path class="cls-28" d="M54.13,49.74c.03-.06,.06-.13,.06-.2,0-.26-.27-.48-.6-.48-.14,0-.27,.04-.38,.1"/><path class="cls-27" d="M55.28,50.21c.03-.08,.05-.16,.05-.25,0-.36-.29-.66-.64-.66-.11,0-.22,.03-.32,.08"/><ellipse class="cls-11" cx="50.33" cy="49.91" rx=".1" ry=".1"/><ellipse class="cls-11" cx="50.37" cy="49.55" rx=".1" ry=".1"/><ellipse class="cls-11" cx="50.6" cy="49.27" rx=".1" ry=".1"/><ellipse class="cls-11" cx="50.91" cy="49.13" rx=".1" ry=".1"/><ellipse class="cls-11" cx="51.24" cy="49.14" rx=".1" ry=".1"/><ellipse class="cls-1" cx="51.44" cy="49.54" rx=".1" ry=".1"/><ellipse class="cls-11" cx="51.5" cy="49.2" rx=".1" ry=".1"/><ellipse class="cls-11" cx="51.76" cy="48.99" rx=".1" ry=".1"/><ellipse class="cls-11" cx="52.08" cy="48.88" rx=".1" ry=".1"/><ellipse class="cls-11" cx="52.41" cy="48.89" rx=".1" ry=".1"/><ellipse class="cls-11" cx="53.39" cy="48.89" rx=".1" ry=".1"/><ellipse class="cls-11" cx="53.72" cy="48.88" rx=".1" ry=".1"/><ellipse class="cls-11" cx="54.04" cy="48.99" rx=".1" ry=".1"/><ellipse class="cls-11" cx="54.3" cy="49.2" rx=".1" ry=".1"/><ellipse class="cls-1" cx="54.36" cy="49.54" rx=".1" ry=".1"/><ellipse class="cls-11" cx="54.56" cy="49.14" rx=".1" ry=".1"/><ellipse class="cls-11" cx="54.89" cy="49.13" rx=".1" ry=".1"/><ellipse class="cls-11" cx="55.2" cy="49.27" rx=".1" ry=".1"/><ellipse class="cls-11" cx="55.43" cy="49.55" rx=".1" ry=".1"/><ellipse class="cls-11" cx="55.47" cy="49.91" rx=".1" ry=".1"/></g><g id="crown_pt1-2"><path class="cls-43" d="M51.29,51.18c-.05-.13-.13-.25-.13-.25,.45-.13,1.07-.21,1.75-.21,.69,0,1.31,.08,1.76,.21,0,0-.05,.09-.12,.21-.04,.07-.09,.19-.09,.19-.4-.12-.92-.19-1.55-.19-.64,0-1.25,.08-1.57,.2,0,0-.02-.07-.05-.16h0"/><path class="cls-43" d="M52.91,51.75c.56,0,1.17-.09,1.39-.14,.15-.05,.24-.11,.22-.19,0-.04-.04-.07-.08-.09-.33-.11-.93-.18-1.53-.18s-1.21,.08-1.54,.18c-.04,.02-.08,.05-.08,.09-.02,.08,.07,.15,.22,.19,.23,.06,.84,.14,1.4,.14Z"/><path class="cls-43" d="M54.69,50.69l-.13-.12s-.13,.08-.29,.05c-.16-.03-.21-.22-.21-.22,0,0-.18,.15-.33,.14-.15-.01-.24-.14-.24-.14,0,0-.16,.12-.3,.11-.14-.01-.28-.19-.28-.19,0,0-.14,.18-.29,.2-.14,.01-.26-.12-.26-.12,0,0-.06,.13-.24,.16s-.34-.14-.34-.14c0,0-.1,.17-.23,.21-.12,.04-.28-.06-.28-.06,0,0-.03,.06-.05,.1s-.07,.04-.07,.04l.04,.11c.44-.13,1.04-.21,1.72-.21s1.3,.08,1.74,.21l.05-.12h0Z"/><path class="cls-43" d="M52.91,50.09h.06s-.01,.07-.01,.1c0,.13,.11,.24,.26,.24,.11,0,.21-.07,.24-.17,0,0,.03-.09,.03-.09,0,0,0,.09,.01,.09,.02,.12,.13,.2,.25,.2,.14,0,.25-.11,.25-.24,0,0,0-.02,0-.03l.08-.08,.04,.1s-.02,.07-.02,.11c0,.13,.11,.23,.24,.23,.08,0,.16-.04,.2-.1l.05-.07v.08c0,.08,.03,.15,.11,.16,0,0,.09,0,.21-.09,.12-.09,.18-.17,.18-.17v.1s-.11,.19-.21,.25c-.06,.03-.15,.07-.22,.06-.07-.01-.13-.07-.15-.14-.05,.03-.12,.05-.18,.05-.14,0-.27-.08-.32-.2-.07,.07-.16,.11-.27,.11-.12,0-.22-.05-.29-.13-.06,.06-.15,.1-.25,.1-.13,0-.24-.06-.3-.16-.07,.09-.18,.16-.31,.16-.1,0-.19-.04-.25-.1-.07,.08-.17,.13-.29,.13s-.2-.04-.27-.11c-.05,.12-.18,.2-.32,.2-.07,0-.13-.02-.18-.05-.03,.07-.08,.13-.16,.14-.07,.01-.16-.02-.21-.06-.11-.06-.23-.25-.23-.25l.02-.1s.07,.08,.19,.17,.21,.09,.21,.09c.08-.01,.11-.08,.11-.16v-.08l.05,.07c.04,.06,.12,.1,.2,.1,.13,0,.24-.1,.24-.23,0-.04,0-.07-.02-.11l.04-.1,.08,.08s0,.02,0,.03c0,.13,.11,.24,.25,.24,.13,0,.24-.08,.25-.2,0,0,0-.09,0-.09,.01,0,.03,.09,.04,.09,.03,.1,.13,.17,.24,.17,.14,0,.25-.11,.25-.24,0-.03,0-.06-.01-.09h.07s0-.01,0-.01h0Z"/><path class="cls-3" d="M52.91,50.72c-.69,0-1.31,.08-1.75,.21-.03,0-.07-.01-.08-.04,0-.03,.01-.06,.04-.07,.45-.14,1.08-.22,1.79-.22s1.34,.09,1.79,.22c.03,0,.05,.04,.04,.07,0,.03-.05,.05-.08,.04-.45-.13-1.07-.21-1.76-.21Z"/><path class="cls-43" d="M50.57,50.44s-.09-.11-.15-.17c-.05-.04-.16-.08-.16-.08,0-.02,.06-.06,.13-.06,.04,0,.08,.02,.1,.05v-.05s.06,.01,.09,.07c.03,.07,.01,.16,.01,.16,0,0-.01,.05-.03,.07h0Z"/><path class="cls-43" d="M51,50.26l-.03,.15-.32,.03-.05-.03v-.05s.25-.2,.25-.2l.14,.09"/><path class="cls-43" d="M50.57,50.38s.08-.02,.12,.01c.04,.03,.05,.09,.03,.11-.03,.03-.08,.02-.12-.01-.04-.03-.05-.09-.03-.11Z"/><path class="cls-43" d="M51.16,50.41s0-.08,.03-.1c.03,0,.07,.02,.08,.06,.01,.04,0,.09-.03,.1-.03,0-.07-.02-.08-.06Z"/><path class="cls-43" d="M51.31,50.22l.12,.11,.28-.15,.02-.05-.04-.04-.32-.03-.06,.16"/><path class="cls-43" d="M51.63,49.7l-.15,.15,.2,.26,.05,.02,.04-.04,.07-.31-.2-.07"/><path class="cls-43" d="M52.15,50.05l-.06,.14-.32-.03-.04-.04,.02-.05,.28-.15,.12,.12"/><ellipse class="cls-43" cx="51.73" cy="50.13" rx=".11" ry=".11"/><path class="cls-43" d="M52.27,50.2s.02-.08,.05-.09,.06,.03,.07,.08c0,.04-.02,.08-.05,.09-.03,0-.06-.03-.07-.07Z"/><path class="cls-43" d="M52.48,50.04l.09,.13,.31-.1,.03-.04-.03-.05-.3-.09-.09,.14"/><path class="cls-43" d="M52.91,49.56l-.2,.12,.15,.32,.05,.03,.05-.03,.15-.32-.2-.12"/><path class="cls-43" d="M53.34,50.04l-.09,.13-.31-.1-.03-.04,.03-.05,.31-.09,.09,.14"/><ellipse class="cls-43" cx="52.91" cy="50.03" rx=".11" ry=".11"/><path class="cls-43" d="M53.56,50.2s-.02-.08-.05-.09-.06,.03-.07,.08c0,.04,.02,.08,.05,.09,.03,0,.06-.03,.07-.07Z"/><path class="cls-43" d="M53.67,50.05l.06,.14,.32-.03,.04-.04-.02-.05-.28-.15-.12,.12"/><path class="cls-43" d="M54.19,49.7l.15,.15-.2,.26-.05,.02-.04-.04-.07-.31,.2-.07"/><path class="cls-43" d="M54.51,50.22l-.12,.11-.28-.15-.02-.05,.04-.04,.32-.03,.05,.16"/><ellipse class="cls-43" cx="54.09" cy="50.13" rx=".11" ry=".11"/><path class="cls-43" d="M54.66,50.41s0-.08-.03-.1c-.03,0-.07,.02-.08,.06-.01,.04,0,.09,.03,.1,.03,0,.07-.02,.08-.06Z"/><path class="cls-43" d="M55.21,50.44s.09-.11,.15-.17c.04-.04,.15-.08,.15-.08,0-.02-.06-.06-.13-.06-.04,0-.08,.02-.1,.05v-.05s-.06,.01-.09,.07c-.03,.07,0,.16,0,.16,0,0,0,.05,.03,.07h0Z"/><path class="cls-43" d="M54.78,50.26l.03,.15,.32,.03,.05-.03v-.05s-.25-.2-.25-.2l-.14,.09"/><path class="cls-43" d="M55.21,50.38s-.08-.02-.12,.01-.05,.09-.03,.11c.03,.03,.08,.02,.12-.01,.04-.03,.05-.09,.03-.11Z"/></g><g id="crown_pt2-2"><path class="cls-44" d="M51.17,51.19l.07-.11,.15,.03-.09,.13-.13-.04"/><path class="cls-46" d="M51.81,51.08l-.16,.03s-.08-.02-.09-.06c0-.04,.02-.07,.06-.08l.16-.02,.16-.03s.08,.02,.08,.06c0,.04-.02,.08-.06,.08l-.16,.03"/><ellipse class="cls-42" cx="52.34" cy="50.97" rx=".1" ry=".09"/><path class="cls-44" d="M52.91,51.01h-.22s-.08-.03-.08-.07,.03-.07,.07-.07h.45s.08,.03,.08,.07-.03,.07-.08,.07h-.23"/><ellipse class="cls-42" cx="53.48" cy="50.97" rx=".1" ry=".09"/><path class="cls-46" d="M54.01,51.08l.16,.03s.08-.02,.09-.06c0-.04-.02-.07-.06-.08l-.16-.02-.16-.03s-.08,.02-.08,.06c0,.04,.02,.08,.06,.08l.16,.03"/><path class="cls-44" d="M54.64,51.2l-.06-.12h-.15s.07,.15,.07,.15l.14-.03"/><path class="cls-2" d="M52.91,51.62c-.56,0-1.06-.05-1.44-.15,.38-.1,.88-.16,1.44-.16,.56,0,1.06,.06,1.45,.16-.38,.1-.89,.15-1.45,.15Z"/><path class="cls-35" d="M53.17,51.6v-.27m-.13,.27v-.28m-.1,.29v-.29"/><path class="cls-47" d="M52.86,51.62v-.29"/><path class="cls-14" d="M52.78,51.62v-.29"/><path class="cls-17" d="M52.7,51.62v-.29"/><path class="cls-17" d="M52.63,51.62v-.29"/><path class="cls-30" d="M52.56,51.62v-.29"/><path class="cls-13" d="M52.44,51.6v-.26m.06,.27v-.28"/><path class="cls-4" d="M52.32,51.59v-.24m.06,.25v-.26"/><path class="cls-18" d="M52.16,51.58v-.21m.05,.21v-.22m.05,.23v-.23"/><path class="cls-23" d="M52.11,51.57v-.21"/><path class="cls-29" d="M52.06,51.56v-.19"/><path class="cls-55" d="M52.01,51.56v-.18"/><path class="cls-15" d="M51.9,51.54v-.14m.06,.15v-.16"/><path class="cls-15" d="M51.84,51.53v-.13"/><path class="cls-34" d="M51.79,51.52v-.11"/><path class="cls-51" d="M51.73,51.51v-.08"/><path class="cls-48" d="M51.67,51.5v-.06"/><path class="cls-24" d="M51.61,51.49v-.03"/></g></g><g id="pillar_right"><g id="pillar_left-2"><g><path class="cls-57" d="M56.48,75.52c-.35,0-.67-.08-.9-.2-.23-.12-.54-.19-.88-.19s-.66,.07-.89,.19c-.23,.12-.55,.2-.9,.2s-.67-.08-.9-.21c-.23-.11-.53-.18-.87-.18s-.65,.07-.88,.19c-.23,.12-.55,.2-.9,.2v.55c.35,0,.67-.08,.9-.2,.23-.12,.54-.19,.88-.19s.64,.07,.87,.18c.23,.12,.55,.21,.9,.21s.67-.08,.9-.2c.23-.12,.55-.19,.89-.19s.65,.07,.88,.19c.23,.12,.54,.2,.89,.2v-.55s0,0,0,0Z"/><path class="cls-62" d="M56.48,76.07c-.35,0-.67-.08-.9-.2-.23-.12-.54-.19-.88-.19s-.66,.07-.89,.19c-.23,.12-.55,.2-.9,.2s-.67-.08-.9-.21c-.23-.11-.53-.18-.87-.18s-.65,.07-.88,.19c-.23,.12-.55,.2-.9,.2v.55c.35,0,.67-.08,.9-.2,.23-.12,.54-.19,.88-.19s.64,.07,.87,.18c.23,.12,.55,.21,.9,.21s.67-.08,.9-.2,.55-.19,.89-.19,.65,.07,.88,.19c.23,.12,.54,.2,.89,.2v-.55"/><path class="cls-57" d="M56.48,76.62c-.35,0-.67-.08-.9-.2-.23-.12-.54-.19-.88-.19s-.66,.07-.89,.19-.55,.2-.9,.2-.67-.08-.9-.21c-.23-.11-.53-.18-.87-.18s-.65,.07-.88,.19c-.23,.12-.55,.2-.9,.2v.55c.35,0,.67-.08,.9-.2,.23-.12,.54-.18,.88-.18s.64,.07,.87,.18c.23,.12,.55,.2,.9,.2s.67-.07,.9-.19c.23-.12,.55-.19,.89-.19s.65,.07,.88,.19c.23,.13,.54,.2,.89,.2v-.55"/><path class="cls-62" d="M56.47,77.72c-.35,0-.66-.08-.89-.2-.23-.12-.54-.19-.88-.19s-.66,.07-.89,.19-.55,.2-.9,.2-.67-.08-.9-.21c-.23-.11-.53-.18-.87-.18s-.65,.07-.88,.19c-.23,.12-.55,.2-.9,.2v-.55c.35,0,.67-.08,.9-.21,.23-.12,.54-.18,.88-.18s.64,.07,.87,.18c.23,.12,.55,.2,.9,.2s.67-.07,.9-.19c.23-.12,.55-.19,.89-.19s.65,.07,.88,.19c.23,.13,.55,.2,.9,.2v.55"/><path class="cls-57" d="M56.47,78.28c-.35,0-.66-.08-.89-.2-.23-.12-.54-.19-.88-.19s-.66,.07-.89,.19-.55,.2-.9,.2-.67-.08-.9-.21c-.23-.11-.53-.18-.87-.18s-.65,.07-.88,.19c-.23,.12-.55,.2-.9,.2v-.55c.35,0,.67-.08,.9-.21,.23-.12,.54-.19,.88-.19s.64,.07,.87,.18c.23,.12,.55,.21,.9,.21s.67-.08,.9-.2c.23-.12,.55-.19,.89-.19s.65,.07,.88,.19c.23,.12,.54,.2,.9,.2v.55s0,0,0,0Z"/></g><g><path class="cls-31" d="M50.91,73.26s.03,.09,.03,.14c0,.33-.29,.6-.64,.6h5.25c-.35,0-.64-.27-.64-.6,0-.05,0-.09,.02-.14-.03,.01-.07,.01-.1,.01h-3.82s-.07,0-.09-.01Z"/><path class="cls-61" d="M51,72.91h3.82c.13,0,.23,.08,.23,.18s-.1,.18-.23,.18h-3.82c-.13,0-.23-.08-.23-.18s.11-.18,.23-.18Z"/><path class="cls-61" d="M50.3,75.33h5.23v-1.33h-5.23v1.33Z"/></g><path class="cls-62" d="M51.05,72.69h3.72v-18.21h-3.72v18.21Z"/><path class="cls-8" d="M53.7,54.51v18.17m.42-18.17v18.17"/><g><path class="cls-61" d="M50.37,53.04h5.1v-1.34h-5.1v1.34h0Z"/><path class="cls-31" d="M50.91,53.93s.05-.02,.09-.02h3.82s.07,0,.11,.02c-.13-.04-.23-.16-.23-.3s.1-.26,.24-.3c-.03,0-.08,.02-.11,.02h-3.82s-.08,0-.11-.01h.02c.14,.05,.21,.17,.21,.3s-.09,.26-.22,.3h0Z"/><path class="cls-61" d="M51,53.91h3.82c.13,0,.23,.08,.23,.18s-.1,.18-.23,.18h-3.82c-.13,0-.23-.08-.23-.18s.11-.18,.23-.18Z"/><path class="cls-61" d="M51,53.04h3.82c.13,0,.24,.07,.24,.15s-.11,.15-.24,.15h-3.82c-.13,0-.23-.07-.23-.15s.11-.15,.23-.15Z"/></g></g></g><g id="ribbon_right"><g id="ribbon_left-2"><path class="cls-64" d="M55.94,68.19c.52,.3,.87,.6,.81,.76-.03,.14-.19,.24-.43,.4-.37,.26-.59,.72-.42,.93-.31-.25-.5-.62-.5-1.03s.21-.81,.54-1.06Z"/><path class="cls-32" d="M47.27,61.29c.81-.33,2.19-.58,3.77-.64,.55,0,1.15,.06,1.78,.16,2.22,.37,3.92,1.26,3.78,1.98,0,.01,0,.05-.01,.06,0,0,.83-1.88,.85-1.95,.15-.8-1.73-1.79-4.2-2.2-.78-.13-1.53-.18-2.19-.17-1.58,0-2.95,.2-3.78,.51v2.25"/><path class="cls-64" d="M54.79,63.58c1.03-.07,1.73-.35,1.82-.78,.06-.34-.29-.72-.91-1.07-.28,.03-.59,.07-.91,.07v1.78"/><path class="cls-64" d="M51.06,62.19c-.64,.1-1.13,.26-1.37,.46l-.02,.04c-.11,.24,.45,.74,1.4,1.3v-1.79"/><path class="cls-32" d="M57.09,67.09c.1-.29-.91-.88-2.33-1.4-.65-.23-1.18-.47-1.85-.77-1.97-.87-3.43-1.88-3.25-2.24l.02-.04c-.11,.09-.27,1.88-.27,1.88-.18,.33,1.15,1.32,2.97,2.19,.58,.28,1.81,.73,2.39,.94,1.04,.36,2.07,1.04,1.97,1.29l.35-1.85h0s0,0,0,0Z"/></g></g><g id="plus_ultra"><path class="cls-68" d="M16.68,60.42c.46-.16,.75-.36,.61-.72-.09-.23-.33-.27-.68-.14l-.62,.23,.56,1.38c.06-.03,.12-.05,.19-.08,.06-.02,.13-.04,.19-.06l-.25-.6h0s0,0,0,0Zm-.27-.67l.16-.06c.13-.05,.28,.02,.34,.18,.05,.12,.04,.26-.11,.35-.05,.03-.11,.05-.16,.08l-.23-.56"/><path class="cls-68" d="M18.14,59.18c-.07,.02-.13,.04-.2,.05-.07,.01-.13,.02-.2,.03l.32,1.44,1-.2s-.03-.06-.03-.09c0-.03,0-.06,0-.09-.18,.05-.37,.11-.6,.15l-.29-1.28"/><path class="cls-68" d="M20.14,60.42c.19-.52,.42-1.02,.64-1.53-.04,0-.08,.01-.12,.02s-.08,0-.12,0c-.12,.37-.27,.73-.43,1.1-.19-.35-.4-.68-.56-1.03-.08,0-.16,.02-.24,.03-.08,0-.16,0-.24,0,.29,.47,.57,.94,.83,1.42,.04,0,.07-.01,.11-.02,.04,0,.08,0,.11,0"/><path class="cls-68" d="M22.24,59.31c.03-.07,.07-.14,.11-.2-.05-.05-.22-.13-.41-.14-.41-.04-.64,.14-.67,.39-.06,.52,.76,.47,.72,.82-.02,.15-.17,.21-.34,.19-.19-.02-.32-.12-.35-.27h-.05c-.03,.08-.07,.17-.11,.26,.12,.08,.28,.12,.42,.13,.42,.04,.74-.12,.77-.4,.05-.49-.77-.52-.74-.81,.01-.12,.11-.2,.32-.18,.15,.02,.25,.1,.29,.22h.04"/><path class="cls-68" d="M49.58,60.5c.14-.53,.32-1.05,.5-1.57-.04,.01-.08,.02-.12,.03-.04,0-.08,0-.12,.01-.08,.38-.2,.75-.32,1.13-.22-.33-.46-.65-.65-.98-.08,.02-.16,.03-.23,.05s-.16,.02-.24,.03c.33,.44,.65,.89,.96,1.35,.04,0,.07-.02,.11-.03,.04,0,.08,0,.11,0"/><path class="cls-68" d="M51,58.94c-.07,0-.13,0-.2,0-.07,0-.14,0-.2-.01l-.03,1.47,1.03,.02s-.01-.06-.01-.09,0-.06,.02-.09c-.19,.01-.38,.02-.62,.02l.02-1.31"/><path class="cls-68" d="M52.61,59.18c.16,.01,.32,.04,.48,.07,0-.03,0-.06,0-.09,0-.03,.01-.06,.02-.09l-1.39-.11s0,.06,0,.09c0,.03-.01,.06-.02,.09,.14,0,.31,0,.51,.01l-.12,1.32c.07,0,.13,0,.2,0,.07,0,.13,.02,.2,.03l.12-1.32"/><path class="cls-68" d="M53.18,60.62c.07,.01,.13,.02,.2,.03,.06,.01,.13,.03,.19,.05l.16-.67h.02c.04,.1,.09,.21,.11,.27l.21,.51c.08,.01,.16,.03,.24,.04,.08,.02,.16,.04,.24,.06l-.07-.15c-.11-.23-.23-.46-.32-.69,.26,0,.45-.08,.5-.29,.03-.14-.02-.25-.16-.35-.1-.07-.29-.11-.42-.14l-.56-.12-.35,1.44m.72-1.24c.16,.04,.36,.06,.36,.24,0,.05,0,.08-.01,.11-.05,.21-.21,.29-.49,.21l.14-.56"/><path class="cls-68" d="M55.82,61.06c-.01,.16-.04,.31-.07,.48,.07,.03,.14,.06,.21,.1,.07,.04,.13,.08,.2,.12l.14-1.65s-.06-.03-.09-.04c-.03-.02-.06-.03-.08-.05l-1.46,.93s.08,.04,.12,.06c.04,.02,.07,.04,.11,.06,.12-.1,.25-.19,.4-.3l.55,.3h0Zm-.41-.38l.49-.31-.06,.55-.43-.24"/></g></g><g id="crown_crest"><path class="cls-44" d="M35.71,41.69c1.52,0,2.87,.23,3.75,.57,.5,.23,1.18,.4,1.92,.5,.56,.08,1.1,.09,1.57,.05,.62-.01,1.53,.17,2.43,.57,.75,.33,1.37,.73,1.78,1.12l-.36,.32-.1,.91-.98,1.13-.49,.42-1.16,.93-.59,.05-.18,.51-7.53-.88-7.55,.88-.18-.51-.6-.05-1.16-.93-.49-.42-.98-1.13-.1-.91-.36-.32c.42-.39,1.04-.79,1.78-1.12,.9-.4,1.8-.58,2.43-.57,.47,.03,1,.02,1.57-.05,.74-.1,1.42-.27,1.92-.5,.88-.35,2.16-.57,3.68-.57h0Z"/><g><path class="cls-61" d="M30.16,43.68l.32,.25,.48-.78c-.51-.32-.87-.86-.87-1.49,0-.07,0-.14,.01-.21,.05-.99,1.26-1.81,2.79-1.81,.8,0,1.52,.22,2.02,.57,.01-.15,.03-.29,.05-.43-.56-.32-1.28-.52-2.07-.52-1.76,0-3.14,1-3.21,2.19,0,.07-.01,.14-.01,.21,0,.63,.29,1.2,.75,1.6l-.25,.41"/><path class="cls-61" d="M30.18,43.69c-.6-.45-.98-1.06-.98-1.73,0-.77,.51-1.46,1.28-1.92-.47,.38-.76,.88-.8,1.42,0,.07-.01,.14-.01,.21,0,.63,.29,1.2,.75,1.6l-.23,.42"/><path class="cls-61" d="M24.87,44.47c-.34-.38-.54-.87-.54-1.4,0-.32,.08-.63,.21-.9,.49-1,2.02-1.73,3.83-1.73,.49,0,.97,.05,1.4,.15-.1,.11-.17,.22-.25,.34-.36-.07-.75-.11-1.16-.11-1.66,0-3.06,.65-3.46,1.52-.11,.22-.17,.47-.17,.73,0,.53,.25,1.01,.64,1.33l-.6,.98-.32-.26,.41-.66h0Z"/><path class="cls-61" d="M25.48,41.17c-.44,.28-.77,.62-.95,.99-.13,.27-.21,.58-.21,.9,0,.53,.21,1.02,.54,1.4l-.37,.59c-.35-.45-.55-.97-.55-1.53,0-.96,.61-1.8,1.53-2.36h0Z"/><path class="cls-61" d="M35.8,39.07c.4,0,.75,.27,.83,.62,.05,.32,.09,.67,.09,1.06,0,.04,0,.08,0,.12,0,.05,0,.09,.01,.14,.01,.8,.13,1.51,.29,1.95l-1.23,1.18-1.24-1.18c.16-.43,.28-1.14,.29-1.95,0-.05,0-.09,0-.14,0-.04,0-.08,0-.12,0-.38,.04-.74,.09-1.06,.08-.36,.44-.62,.85-.62h0Z"/><path class="cls-61" d="M35.8,39.45c.21,0,.38,.13,.43,.32,.05,.3,.08,.64,.09,1,0,.04,0,.07,0,.11,0,.05,0,.09,0,.13,.01,.76,.12,1.43,.28,1.84l-.81,.77-.81-.77c.15-.41,.26-1.08,.28-1.84,0-.05,0-.09,0-.13,0-.04,0-.07,0-.11,0-.36,.04-.7,.09-1,.04-.19,.23-.32,.44-.32Z"/><path class="cls-61" d="M41.44,43.68l-.32,.25-.48-.78c.52-.32,.87-.86,.87-1.49,0-.07,0-.14-.01-.21-.05-.99-1.26-1.81-2.79-1.81-.8,0-1.52,.22-2.02,.57-.01-.15-.03-.29-.05-.43,.56-.32,1.28-.52,2.07-.52,1.76,0,3.14,1,3.21,2.19,0,.07,.01,.14,.01,.21,0,.63-.29,1.2-.75,1.6l.25,.41"/><path class="cls-61" d="M41.42,43.69c.6-.45,.98-1.06,.98-1.73,0-.77-.51-1.46-1.28-1.92,.47,.38,.76,.88,.8,1.42,0,.07,.01,.14,.01,.21,0,.63-.29,1.2-.75,1.6l.23,.42"/><path class="cls-61" d="M46.73,44.47c.34-.38,.54-.87,.54-1.4,0-.32-.08-.63-.21-.9-.49-1-2.02-1.73-3.83-1.73-.49,0-.97,.05-1.41,.15,.1,.11,.17,.22,.25,.34,.36-.07,.75-.11,1.16-.11,1.66,0,3.05,.65,3.46,1.52,.11,.22,.17,.47,.17,.73,0,.53-.25,1.01-.64,1.33l.6,.98,.32-.26-.41-.66Z"/><path class="cls-61" d="M46.12,41.17c.44,.28,.77,.62,.95,.99,.13,.27,.21,.58,.21,.9,0,.53-.21,1.02-.54,1.4l.37,.59c.35-.45,.55-.97,.55-1.53,0-.96-.61-1.8-1.53-2.36h0Z"/><ellipse class="cls-45" cx="35.81" cy="38.16" rx="1.01" ry=".96"/><path class="cls-43" d="M35.54,35.47v.52h-.55v.53h.55v1.51h-.7s-.05,.08-.05,.13c0,.13,.03,.26,.08,.38,0,0,0,0,0,0h1.86s0,0,0,0c.05-.11,.08-.24,.08-.38,0-.05-.04-.09-.05-.13h-.68v-1.51h.55v-.53h-.55v-.52h-.56Z"/></g><g><ellipse class="cls-59" cx="35.8" cy="43.11" rx=".44" ry=".41"/><ellipse class="cls-59" cx="35.8" cy="42.3" rx=".44" ry=".41"/><ellipse class="cls-59" cx="35.8" cy="41.43" rx=".35" ry=".33"/><ellipse class="cls-59" cx="35.8" cy="40.65" rx=".25" ry=".24"/><ellipse class="cls-59" cx="35.8" cy="39.96" rx=".2" ry=".19"/><ellipse class="cls-59" cx="24.12" cy="45.33" rx=".25" ry=".24"/><ellipse class="cls-59" cx="23.78" cy="44.73" rx=".25" ry=".24"/><ellipse class="cls-59" cx="23.55" cy="44.02" rx=".25" ry=".24"/><ellipse class="cls-59" cx="23.52" cy="43.27" rx=".25" ry=".24"/><ellipse class="cls-59" cx="23.7" cy="42.53" rx=".25" ry=".24"/><ellipse class="cls-59" cx="24.09" cy="41.85" rx=".25" ry=".24"/><ellipse class="cls-59" cx="24.6" cy="41.3" rx=".25" ry=".24"/><ellipse class="cls-59" cx="25.2" cy="40.84" rx=".25" ry=".24"/><ellipse class="cls-59" cx="25.92" cy="40.46" rx=".25" ry=".24"/><ellipse class="cls-59" cx="26.66" cy="40.19" rx=".25" ry=".24"/><ellipse class="cls-59" cx="27.48" cy="40.04" rx=".25" ry=".24"/><ellipse class="cls-59" cx="28.27" cy="40" rx=".25" ry=".24"/><ellipse class="cls-59" cx="29.04" cy="40.03" rx=".25" ry=".24"/><ellipse class="cls-59" cx="29.9" cy="43.42" rx=".25" ry=".24"/><ellipse class="cls-59" cx="29.47" cy="42.81" rx=".25" ry=".24"/><ellipse class="cls-59" cx="29.24" cy="42.15" rx=".25" ry=".24"/><ellipse class="cls-59" cx="29.27" cy="41.42" rx=".25" ry=".24"/><ellipse class="cls-59" cx="29.43" cy="40.69" rx=".25" ry=".24"/><ellipse class="cls-59" cx="29.81" cy="40.03" rx=".25" ry=".24"/><ellipse class="cls-59" cx="30.4" cy="39.57" rx=".25" ry=".24"/><ellipse class="cls-59" cx="31.08" cy="39.19" rx=".25" ry=".24"/><ellipse class="cls-59" cx="31.84" cy="38.97" rx=".25" ry=".24"/><ellipse class="cls-59" cx="32.62" cy="38.83" rx=".25" ry=".24"/><ellipse class="cls-59" cx="33.39" cy="38.84" rx=".25" ry=".24"/><ellipse class="cls-59" cx="34.19" cy="38.98" rx=".25" ry=".24"/><ellipse class="cls-59" cx="34.93" cy="39.23" rx=".25" ry=".24"/><ellipse class="cls-59" cx="36.66" cy="39.23" rx=".25" ry=".24"/><ellipse class="cls-59" cx="37.4" cy="38.98" rx=".25" ry=".24"/><ellipse class="cls-59" cx="38.2" cy="38.84" rx=".25" ry=".24"/><ellipse class="cls-59" cx="38.97" cy="38.83" rx=".25" ry=".24"/><ellipse class="cls-59" cx="39.76" cy="38.97" rx=".25" ry=".24"/><ellipse class="cls-59" cx="40.51" cy="39.19" rx=".25" ry=".24"/><ellipse class="cls-59" cx="41.2" cy="39.57" rx=".25" ry=".24"/><ellipse class="cls-59" cx="41.78" cy="40.03" rx=".25" ry=".24"/><ellipse class="cls-59" cx="42.17" cy="40.69" rx=".25" ry=".24"/><ellipse class="cls-59" cx="42.33" cy="41.42" rx=".25" ry=".24"/><ellipse class="cls-59" cx="42.35" cy="42.15" rx=".25" ry=".24"/><ellipse class="cls-59" cx="42.13" cy="42.81" rx=".25" ry=".24"/><ellipse class="cls-59" cx="41.7" cy="43.42" rx=".25" ry=".24"/><ellipse class="cls-59" cx="42.56" cy="40.03" rx=".25" ry=".24"/><ellipse class="cls-59" cx="43.33" cy="40" rx=".25" ry=".24"/><ellipse class="cls-59" cx="44.11" cy="40.04" rx=".25" ry=".24"/><ellipse class="cls-59" cx="44.94" cy="40.19" rx=".25" ry=".24"/><ellipse class="cls-59" cx="45.68" cy="40.46" rx=".25" ry=".24"/><ellipse class="cls-59" cx="46.4" cy="40.84" rx=".25" ry=".24"/><ellipse class="cls-59" cx="46.99" cy="41.3" rx=".25" ry=".24"/><ellipse class="cls-59" cx="47.51" cy="41.85" rx=".25" ry=".24"/><ellipse class="cls-59" cx="47.89" cy="42.53" rx=".25" ry=".24"/><ellipse class="cls-59" cx="48.08" cy="43.27" rx=".25" ry=".24"/><ellipse class="cls-59" cx="48.05" cy="44.02" rx=".25" ry=".24"/><ellipse class="cls-59" cx="47.82" cy="44.73" rx=".25" ry=".24"/><ellipse class="cls-59" cx="47.48" cy="45.33" rx=".25" ry=".24"/></g><g><path class="cls-61" d="M35.83,51.62c-2.8,0-5.32-.34-7.11-.88-.13-.04-.2-.16-.19-.29,0-.12,.07-.23,.19-.27,1.79-.54,4.31-.87,7.11-.88,2.81,0,5.32,.34,7.11,.88,.13,.04,.19,.15,.19,.27,0,.13-.06,.24-.19,.29-1.79,.54-4.3,.87-7.11,.88"/><path class="cls-61" d="M35.81,49.32c-2.84,0-5.39,.36-7.18,.91,.15-.07,.13-.26-.05-.73-.22-.58-.57-.55-.57-.55,1.98-.59,4.74-.95,7.81-.96,3.07,0,5.85,.37,7.84,.96,0,0-.35-.03-.57,.55-.19,.48-.2,.66-.05,.73-1.79-.55-4.39-.91-7.23-.91"/><path class="cls-61" d="M35.82,47.99c-3.07,0-5.83,.37-7.81,.96-.13,.04-.27-.01-.32-.14s.03-.27,.16-.31c1.99-.61,4.82-.99,7.97-1,3.15,0,5.99,.39,7.98,1,.13,.04,.2,.18,.16,.31s-.18,.18-.32,.14c-1.98-.59-4.75-.95-7.83-.96"/><path class="cls-61" d="M35.84,45.59l.28,.05c-.04,.11-.05,.24-.05,.37,0,.59,.51,1.06,1.13,1.06,.5,0,.92-.31,1.07-.73,.02,.01,.11-.38,.16-.38,.04,0,.03,.41,.05,.4,.07,.54,.56,.9,1.11,.9,.62,0,1.12-.48,1.12-1.06,0-.04,0-.09,0-.13l.35-.35,.19,.44c-.08,.14-.11,.3-.11,.46,0,.56,.48,1.02,1.07,1.02,.37,0,.7-.18,.89-.45l.23-.29v.35c0,.35,.15,.67,.49,.73,0,0,.4,.02,.92-.39,.52-.41,.81-.75,.81-.75l.05,.41s-.43,.67-.91,.95c-.26,.15-.65,.31-.97,.26-.33-.05-.57-.32-.69-.63-.24,.14-.51,.22-.81,.22-.64,0-1.22-.35-1.45-.88-.29,.32-.71,.51-1.19,.51-.51,0-.98-.23-1.27-.59-.29,.27-.68,.43-1.12,.43-.57,0-1.07-.28-1.36-.7-.29,.42-.79,.7-1.36,.7-.43,0-.83-.16-1.11-.43-.29,.35-.76,.59-1.28,.59-.48,0-.89-.19-1.19-.51-.23,.53-.8,.88-1.45,.88-.3,0-.58-.08-.81-.22-.12,.31-.36,.57-.69,.63-.31,.05-.7-.11-.96-.26-.48-.27-.91-.95-.91-.95l.05-.41s.29,.34,.81,.75c.52,.41,.92,.39,.92,.39,.35-.06,.49-.37,.49-.73v-.35s.22,.29,.22,.29c.19,.27,.52,.45,.89,.45,.59,0,1.07-.45,1.07-1.02,0-.17-.03-.32-.11-.46l.19-.44,.35,.35s0,.09,0,.13c0,.59,.5,1.06,1.12,1.06,.55,0,1.04-.36,1.12-.9,.01,0,.01-.4,.05-.4,.05,0,.14,.39,.15,.38,.15,.43,.57,.73,1.07,.73,.62,0,1.12-.48,1.12-1.06,0-.13,0-.26-.05-.37l.29-.05"/><path class="cls-61" d="M26.27,47.08c-.03-.08-.08-.17-.16-.24-.18-.16-.42-.18-.54-.06-.02,.02-.03,.04-.04,.06,0,0-.25-.48-.55-.64-.29-.16-.8-.12-.8-.12,0-.37,.3-.66,.68-.66,.23,0,.44,.09,.57,.25l.05-.24s.31,.06,.45,.42-.01,.87-.01,.87c0,0,.08-.22,.19-.37,.12-.15,.41-.31,.57-.38,.15-.07,.31-.18,.31-.18,0,0,0,.04,.01,.14,0,.12,0,.19,0,.19,.28-.04,.62,0,.88,.11-.11,.22-.32,.42-.6,.53,0,0,.1,.08,.19,.17,.08,.08,.1,.11,.1,.11,0,0-.19,.03-.29,.04-.1,.01-.42,.06-.62,.05-.14,0-.3-.03-.4-.05"/><path class="cls-64" d="M25.57,46.78c.12-.12,.36-.1,.54,.06,.18,.15,.23,.38,.12,.5-.12,.12-.36,.1-.54-.06-.18-.16-.23-.38-.12-.5"/><path class="cls-59" d="M28.11,46.99c-.06-.19,0-.38,.13-.42,.14-.04,.3,.08,.37,.27s0,.38-.13,.42c-.14,.04-.3-.08-.37-.27"/><path class="cls-61" d="M30.33,46.06c-.08-.06-.13-.15-.15-.25s0-.2,.05-.28c0,0-.2-.1-.42-.16-.16-.04-.46-.05-.54-.05-.09,0-.26,0-.26,0,0,0,.02,.04,.06,.13,.06,.11,.11,.17,.11,.17-.29,.07-.54,.26-.69,.48,.23,.16,.53,.25,.82,.22,0,0-.03,.08-.05,.2-.01,.1-.01,.14-.01,.14,0,0,.16-.06,.24-.09,.08-.03,.35-.13,.49-.22,.18-.12,.34-.29,.34-.29"/><path class="cls-61" d="M30.23,43.73c.24,.15,.45,.41,.53,.69,0,0,.03-.06,.16-.13,.13-.08,.25-.07,.25-.07,0,0-.04,.22-.06,.3-.02,.08-.02,.32-.07,.53-.05,.21-.14,.38-.14,.38-.1-.08-.23-.12-.36-.09-.13,.02-.24,.1-.3,.21,0,0-.15-.13-.28-.32-.13-.19-.21-.41-.26-.48-.05-.07-.16-.26-.16-.26,0,0,.11-.04,.26-.01,.15,.03,.2,.07,.2,.07-.03-.29,.06-.6,.24-.82"/><path class="cls-61" d="M30.99,45.95c.05-.08,.07-.18,.05-.28s-.07-.19-.15-.24c0,0,.15-.16,.34-.29,.14-.09,.41-.19,.49-.22,.08-.03,.24-.09,.24-.09,0,0,0,.04-.01,.14-.02,.12-.05,.2-.05,.2,.3-.03,.6,.07,.83,.22-.16,.22-.4,.41-.7,.48,0,0,.05,.06,.11,.17,.05,.09,.06,.13,.06,.13,0,0-.18,0-.26,0-.09,0-.38,0-.54-.05-.22-.06-.42-.16-.42-.16"/><ellipse class="cls-64" cx="30.62" cy="45.74" rx=".5" ry=".47"/><path class="cls-59" d="M33,46.04c-.03-.2,.07-.37,.21-.39,.14-.02,.28,.13,.31,.33,.03,.2-.07,.37-.21,.39-.14,.02-.28-.13-.31-.33"/><path class="cls-61" d="M35.45,45.6c-.07-.08-.12-.19-.12-.3s.04-.22,.12-.3c0,0-.2-.15-.43-.26-.18-.08-.5-.13-.59-.15-.1-.02-.29-.05-.29-.05,0,0,0,.05,.05,.15,.05,.13,.09,.21,.09,.21-.34,.02-.65,.19-.87,.4,.22,.21,.54,.38,.87,.4,0,0-.05,.08-.09,.21-.04,.11-.05,.15-.05,.15,0,0,.19-.04,.29-.05,.1-.02,.42-.07,.59-.15,.23-.11,.44-.25,.44-.25"/><path class="cls-61" d="M35.82,42.98c.24,.22,.42,.54,.45,.87,0,0,.04-.06,.21-.12,.17-.06,.29-.04,.29-.04,0,0-.09,.24-.13,.32-.04,.08-.09,.35-.19,.58-.1,.23-.24,.4-.24,.4-.09-.1-.23-.17-.38-.17s-.29,.07-.38,.17c0,0-.14-.17-.24-.4-.1-.23-.15-.49-.19-.58s-.13-.32-.13-.32c0,0,.13-.02,.29,.04s.21,.12,.21,.12c.02-.33,.2-.66,.43-.87"/><path class="cls-61" d="M36.2,45.6c.08-.08,.12-.19,.12-.3s-.04-.22-.12-.3c0,0,.2-.15,.43-.26,.17-.08,.5-.13,.59-.15l.29-.05s0,.05-.04,.15c-.05,.13-.09,.21-.09,.21,.34,.02,.65,.19,.87,.4-.22,.21-.53,.38-.87,.4,0,0,.05,.08,.09,.21,.04,.11,.04,.15,.04,.15l-.29-.05c-.1-.02-.42-.07-.59-.15-.23-.11-.44-.25-.44-.25"/><ellipse class="cls-64" cx="35.83" cy="45.29" rx=".5" ry=".47"/><path class="cls-59" d="M38.67,46.04c.03-.2-.07-.37-.21-.39s-.28,.13-.31,.33c-.03,.2,.07,.37,.21,.39,.14,.02,.28-.13,.31-.33"/><path class="cls-61" d="M40.68,45.95c-.05-.08-.07-.18-.06-.28,.02-.1,.08-.19,.15-.24,0,0-.15-.16-.34-.29-.14-.09-.41-.19-.49-.22-.08-.03-.24-.09-.24-.09,0,0,0,.04,.01,.14,.02,.12,.04,.2,.04,.2-.29-.03-.6,.07-.82,.22,.16,.22,.4,.41,.69,.48,0,0-.05,.06-.11,.17-.05,.09-.06,.13-.06,.13h.26c.09,0,.38,0,.54-.05,.22-.06,.42-.16,.42-.16"/><path class="cls-61" d="M41.44,43.73c-.24,.15-.45,.41-.53,.69,0,0-.03-.06-.16-.13-.13-.08-.25-.07-.25-.07,0,0,.04,.22,.06,.3,.02,.08,.02,.32,.07,.53,.05,.21,.15,.38,.15,.38,.1-.08,.23-.12,.36-.09,.13,.02,.24,.1,.3,.21,0,0,.15-.13,.28-.32,.12-.19,.21-.41,.26-.48,.05-.07,.16-.26,.16-.26,0,0-.11-.04-.26-.01-.15,.03-.2,.07-.2,.07,.03-.29-.06-.6-.24-.82"/><path class="cls-61" d="M41.33,46.06c.08-.06,.14-.15,.15-.25,.02-.1,0-.2-.05-.28,0,0,.2-.1,.42-.16,.16-.04,.46-.05,.54-.05,.09,0,.26,0,.26,0,0,0-.01,.04-.06,.13-.06,.11-.11,.17-.11,.17,.29,.07,.54,.26,.69,.48-.23,.16-.53,.25-.82,.22,0,0,.03,.08,.04,.2,.01,.1,.01,.14,.01,.14,0,0-.16-.06-.24-.09-.08-.03-.35-.13-.49-.22-.18-.12-.34-.29-.34-.29"/><ellipse class="cls-64" cx="41.05" cy="45.74" rx=".5" ry=".47"/><path class="cls-59" d="M43.56,46.99c.06-.19,0-.38-.13-.42-.14-.04-.3,.08-.37,.27-.06,.19,0,.38,.13,.42,.14,.04,.3-.08,.37-.27"/><path class="cls-61" d="M45.39,47.08c.03-.08,.08-.17,.16-.24,.18-.16,.42-.18,.54-.06,.02,.02,.03,.04,.04,.06,0,0,.25-.48,.55-.64s.8-.12,.8-.12c0-.37-.3-.66-.69-.66-.23,0-.44,.09-.56,.25l-.05-.24s-.31,.06-.45,.42c-.14,.35,.01,.87,.01,.87,0,0-.08-.22-.19-.37-.12-.15-.41-.31-.57-.38-.16-.07-.31-.18-.31-.18,0,0,0,.04-.01,.14,0,.12,0,.19,0,.19-.29-.04-.62,0-.88,.11,.11,.22,.32,.42,.6,.53,0,0-.1,.08-.19,.17-.08,.08-.1,.11-.1,.11,0,0,.19,.03,.29,.04,.1,.01,.42,.06,.61,.05,.14,0,.3-.03,.4-.05"/><path class="cls-64" d="M46.1,46.78c-.12-.12-.36-.1-.54,.06-.18,.15-.23,.38-.12,.5,.12,.12,.36,.1,.54-.06,.18-.16,.23-.38,.12-.5"/></g><g><path class="cls-32" d="M35.82,51.26c-2.53,0-4.82-.29-6.56-.75,1.74-.45,4.03-.72,6.56-.73,2.53,0,4.83,.28,6.57,.73-1.74,.45-4.04,.74-6.57,.75h0Z"/><path class="cls-30" d="M37.63,51.19v-1.37m-.69,1.42v-1.46m-.5,1.47v-1.48"/><path class="cls-23" d="M36.01,51.27v-1.5"/><path class="cls-51" d="M35.6,51.27v-1.5"/><path class="cls-24" d="M35.22,51.27v-1.5"/><path class="cls-56" d="M34.84,51.27v-1.5"/><path class="cls-50" d="M34.5,51.27v-1.5"/><path class="cls-53" d="M33.85,51.19v-1.37m.31,1.38v-1.43"/><path class="cls-19" d="M33.25,51.13v-1.26m.3,1.29v-1.34"/><path class="cls-12" d="M32.44,51.06v-1.11m.26,1.13v-1.16m.27,1.2v-1.21"/><path class="cls-54" d="M32.16,51.05v-1.07"/><path class="cls-65" d="M31.9,50.99v-1"/><path class="cls-16" d="M31.62,50.97v-.93"/><path class="cls-52" d="M31.04,50.89v-.74m.29,.77v-.83"/><path class="cls-49" d="M30.75,50.82v-.65"/><path class="cls-36" d="M30.48,50.77v-.54"/><path class="cls-5" d="M30.18,50.7v-.42"/><path class="cls-66" d="M29.88,50.66v-.32"/><path class="cls-10" d="M29.56,50.59v-.15"/><path class="cls-8" d="M28.96,50.59c1.77-.5,4.18-.8,6.86-.81,2.68,0,5.1,.31,6.87,.81"/><path class="cls-64" d="M28.18,49.56l.28-.36,.77,.1-.62,.45-.43-.18"/><path class="cls-59" d="M29.86,49.13c0-.13,.11-.24,.25-.24s.25,.11,.25,.24-.11,.24-.25,.24-.25-.11-.25-.24"/><path class="cls-58" d="M32.05,49.08l-.54,.06c-.14,.02-.27-.08-.28-.21-.02-.13,.08-.25,.22-.26l.54-.06,.55-.06c.14-.02,.26,.08,.28,.21s-.08,.25-.22,.27l-.55,.06"/><path class="cls-59" d="M33.63,48.69c0-.13,.11-.24,.25-.24s.25,.11,.25,.24-.11,.24-.25,.24-.25-.11-.25-.24"/><path class="cls-64" d="M35.83,48.88h-.75c-.14,0-.25-.11-.25-.24s.11-.24,.25-.24h1.52c.14,0,.25,.11,.25,.24s-.12,.24-.25,.24h-.76"/><path class="cls-59" d="M37.52,48.69c0-.13,.11-.24,.25-.24s.25,.11,.25,.24-.11,.24-.25,.24-.25-.11-.25-.24"/><path class="cls-58" d="M39.6,49.08l.54,.06c.14,.02,.27-.08,.28-.21s-.08-.25-.22-.26l-.54-.06-.55-.06c-.14-.02-.26,.08-.28,.21-.02,.13,.08,.25,.22,.27l.55,.06"/><path class="cls-59" d="M41.3,49.13c0-.13,.11-.24,.25-.24s.25,.11,.25,.24-.11,.24-.25,.24-.25-.11-.25-.24"/><path class="cls-64" d="M43.47,49.56l-.28-.36-.77,.1,.62,.45,.43-.18"/></g></g><g id="shield"><g id="Granada"><path class="cls-39" d="M35.91,78.64c-2.99,0-5.96-.73-8.45-1.95-1.84-.91-3.06-2.74-3.06-4.85v-7.61h22.96v7.61c0,2.1-1.22,3.94-3.06,4.85-2.49,1.22-5.41,1.95-8.4,1.95h0Z"/><path class="cls-37" d="M36.46,75.26c.48,.14,.72,.5,.72,.92,0,.54-.53,.96-1.21,.96s-1.24-.41-1.24-.96c0-.41,.23-.87,.7-.9,0,0-.01-.04-.05-.11-.05-.05-.15-.15-.15-.15,0,0,.18-.03,.29,0,.11,.04,.18,.11,.18,.11,0,0,.05-.1,.12-.17,.07-.08,.16-.12,.16-.12,0,0,.11,.09,.14,.15,.03,.06,.06,.13,.06,.13,0,0,.1-.08,.18-.11,.08-.03,.19-.06,.19-.06,0,0-.03,.11-.05,.16s-.03,.16-.03,.16"/><path class="cls-41" d="M35.87,77.72s-.91-.61-1.3-.7c-.51-.11-1.07-.02-1.32-.03,0,0,.29,.21,.42,.34s.55,.38,.78,.44c.74,.19,1.42-.05,1.42-.05"/><path class="cls-41" d="M36.13,77.78s.58-.61,1.19-.69c.72-.1,1.19,.06,1.47,.13,0,0-.23,.11-.36,.2-.13,.08-.45,.36-.95,.36-.5,0-1.05-.05-1.14-.04-.09,.01-.22,.03-.22,.03"/><path class="cls-40" d="M35.95,77.03c-.23-.21-.37-.51-.37-.85s.14-.64,.37-.85c.23,.21,.37,.51,.37,.85s-.14,.64-.37,.85"/><path class="cls-41" d="M35.72,78.27s.14-.35,.15-.65c.01-.25-.03-.5-.03-.5h.18s.09,.27,.09,.5-.04,.54-.04,.54c0,0-.13,.02-.17,.04-.04,.02-.18,.07-.18,.07"/></g><g id="Aragon"><path class="cls-40" d="M35.87,71.84c0,3.01-2.55,5.45-5.73,5.45s-5.75-2.44-5.75-5.45v-7.63h11.48v7.63"/><path class="cls-38" d="M24.37,71.73c.03,1.61,.67,2.8,1.31,3.58v-11.31h-1.29l-.02,7.73h0Z"/><path class="cls-38" d="M26.89,76.33c.36,.19,.85,.51,1.38,.63l-.03-13.02h-1.34v12.39Z"/><path class="cls-38" d="M29.46,77.25c.53,.05,.92,.04,1.34,0v-13.31h-1.34v13.31Z"/><path class="cls-38" d="M31.98,76.97c.53-.11,1.12-.43,1.38-.6v-12.42h-1.34l-.03,13.02h0Z"/><path class="cls-38" d="M34.61,75.19c.56-.5,1.09-1.63,1.28-2.92l.03-8.33h-1.34l.03,11.25Z"/></g><g id="Navarre"><path class="cls-40" d="M47.38,64.21v7.63c0,3.01-2.58,5.45-5.76,5.45s-5.75-2.44-5.75-5.45v-7.63h11.51"/><path id="chains_half" class="cls-67" d="M40.99,69.91s.03-.06,.04-.09l-.97-1.08-.38,.16-.7-.78,.23-.33-1.22-1.37s-.05,0-.06,0v.92s.41,.11,.41,.11v1.02l-.4,.11v.93c.19,.06,.33,.2,.39,.38h.73s.12-.38,.12-.38h1.08l.11,.38h.62Zm-1.6-4.23v.37h.63v-.37h-.63Zm-1.67,4.66c.15,0,.27-.11,.27-.25s-.12-.25-.27-.25-.27,.11-.27,.25,.12,.25,.27,.25Zm3.66-2.22l-.4-.11v-1.02l.4-.11v-.44c-.2-.06-.35-.2-.41-.38h-.61l-.12,.38h-1.08l-.12-.38h-.71c-.02,.05-.04,.1-.07,.14l1.23,1.36,.38-.16,.7,.78-.23,.33,.96,1.06s.04-.02,.06-.03v-1.42Zm-1.65-.32l-.29,.24,.4,.45,.29-.24-.4-.45Zm1.83,8.27c-.28-.01-.52-.21-.57-.46-.38-.05-.74-.15-1.08-.3l.19-.33c.29,.13,.61,.21,.93,.25,.07-.15,.2-.27,.36-.32v-1.29s-.4-.11-.4-.11v-1.02l.4-.11v-1.75s-.03-.01-.05-.02l-.91,1.01,.23,.33-.7,.78-.38-.16-.75,.84c.13,.2,.13,.46-.03,.65,.21,.24,.46,.45,.74,.63l-.19,.33c-.32-.2-.62-.46-.87-.74-.2,.06-.43,.03-.59-.11-.26-.21-.29-.59-.07-.83l.03-.04c-.16-.36-.27-.74-.3-1.14h.39c.03,.35,.12,.67,.25,.98,.11-.01,.23,0,.33,.04l.76-.84-.23-.33,.7-.78,.38,.16,.91-1.01s-.03-.07-.05-.11h-.63s-.11,.38-.11,.38h-1.08l-.12-.38h-.74c-.06,.17-.21,.31-.39,.37v.92s-.39,0-.39,0v-.92c-.25-.08-.44-.3-.44-.56s.19-.49,.44-.57v-.93s-.4-.11-.4-.11v-1.02l.4-.11v-.93c-.25-.08-.42-.3-.42-.56,0-.33,.28-.59,.62-.59,.28,0,.51,.17,.6,.41h.71l.12-.38h1.08l.12,.38h.61c.08-.24,.31-.4,.59-.41l.02,1.91h-.19v.6h.19v4.94h-.18v.6h.18v2.75Zm-1.36-4.19l-.29-.24-.41,.45,.29,.24,.41-.45Zm-2.28-4.22h-.39v.6s.39,0,.39,0v-.6Zm2.09,2.61v-.37h-.65v.37h.65Zm-2.42,2.22l-.4-.09-.06-1.02,.4-.13v.59c0,.23,.02,.44,.06,.65h0Zm.33-1.26l.4,.09s.02,.66,.01,.51c0-.17,.04,.51,.04,.51l-.4,.13c-.04-.21-.05-.42-.05-.64v-.61Zm2.47,3.87l.09-.39c-.35-.11-.67-.27-.95-.48l-.29,.25c.34,.26,.73,.48,1.15,.61h0Zm-.19,.33l-.3,.28c-.34-.12-.65-.29-.94-.48l.09-.4c.34,.26,.73,.46,1.15,.61h0Z"/><path id="chains_half-2" class="cls-67" d="M42.13,69.91s-.03-.06-.04-.09l.97-1.08,.38,.16,.7-.78-.23-.33,1.22-1.37s.05,0,.06,0v.92s-.41,.11-.41,.11v1.02l.4,.11v.93c-.19,.06-.33,.2-.39,.38h-.73s-.12-.38-.12-.38h-1.08l-.11,.38h-.62Zm1.6-4.23v.37h-.63v-.37h.63Zm1.67,4.66c-.15,0-.27-.11-.27-.25s.12-.25,.27-.25,.27,.11,.27,.25-.12,.25-.27,.25Zm-3.66-2.22l.4-.11v-1.02l-.4-.11v-.44c.2-.06,.35-.2,.41-.38h.61l.12,.38h1.08l.12-.38h.71c.02,.05,.04,.1,.07,.14l-1.23,1.36-.38-.16-.7,.78,.23,.33-.96,1.06s-.04-.02-.06-.03v-1.42Zm1.65-.32l.29,.24-.4,.45-.29-.24,.4-.45Zm-1.83,8.27c.28-.01,.52-.21,.57-.46,.38-.05,.74-.15,1.08-.3l-.19-.33c-.29,.13-.61,.21-.93,.25-.07-.15-.2-.27-.36-.32v-1.29s.4-.11,.4-.11v-1.02l-.4-.11v-1.75s.03-.01,.05-.02l.91,1.01-.23,.33,.7,.78,.38-.16,.75,.84c-.13,.2-.13,.46,.03,.65-.21,.24-.46,.45-.74,.63l.19,.33c.32-.2,.62-.46,.87-.74,.2,.06,.43,.03,.59-.11,.26-.21,.3-.59,.07-.83l-.03-.04c.16-.36,.27-.74,.3-1.14h-.39c-.03,.35-.12,.67-.25,.98-.11-.01-.23,0-.33,.04l-.76-.84,.23-.33-.7-.78-.38,.16-.91-1.01s.03-.07,.05-.11h.63s.11,.38,.11,.38h1.08l.12-.38h.74c.06,.17,.21,.31,.39,.37v.92s.39,0,.39,0v-.92c.25-.08,.44-.3,.44-.56s-.19-.49-.44-.57v-.93s.4-.11,.4-.11v-1.02l-.4-.11v-.93c.25-.08,.42-.3,.42-.56,0-.33-.28-.59-.62-.59-.28,0-.51,.17-.6,.41h-.71l-.12-.38h-1.08l-.12,.38h-.61c-.08-.24-.31-.4-.59-.41l-.02,1.91h.19v.6h-.19v4.94h.18v.6h-.18v2.75Zm1.36-4.19l.29-.24,.41,.45-.29,.24-.41-.45Zm2.28-4.22h.39v.6s-.39,0-.39,0v-.6Zm-2.09,2.61v-.37h.65v.37h-.65Zm2.42,2.22l.4-.09,.06-1.02-.4-.13v.59c0,.23-.02,.44-.06,.65h0Zm-.33-1.26l-.4,.09s-.02,.66-.01,.51c0-.17-.04,.51-.04,.51l.4,.13c.04-.21,.05-.42,.05-.64v-.61Zm-2.47,3.87l-.09-.39c.35-.11,.67-.27,.95-.48l.29,.25c-.34,.26-.73,.48-1.15,.61h0Zm.19,.33l.3,.28c.34-.12,.65-.29,.94-.48l-.09-.4c-.34,.26-.73,.46-1.15,.61h0Z"/><path class="cls-73" d="M40.96,70.09c0-.33,.28-.59,.63-.59s.62,.27,.62,.59-.28,.59-.62,.59-.63-.26-.63-.59"/></g><g id="Castile"><path class="cls-40" d="M24.39,64.22h11.47v-12.74h-11.47v12.74Z"/><path class="cls-7" d="M28.33,54.42h-.21v-.21h-.37v.84h.37v.58h-.79v1.69h.42v3.38h-.85v1.74h6.5v-1.74h-.84v-3.38h.42v-1.69h-.79v-.58h.37v-.84h-.37v.21h-.21v-.21h-.37v.21h-.27v-.21h-.37v.84h.37v.58h-.79v-1.85h.42v-.85h-.42v.21h-.21v-.21h-.37v.21h-.21v-.21h-.42v.85h.42v1.85h-.79v-.58h.37v-.84h-.37v.21h-.21v-.21h-.42v.21h0Zm-1.43,8.03h6.5m-6.5-.42h6.5m-6.5-.42h6.5m-6.5-.42h6.5m-6.5-.48h6.5m-5.65-.37h4.81m-4.81-.42h4.81m-4.81-.48h4.81m-4.81-.42h4.81m-4.81-.42h4.81m-4.81-.42h4.81m-4.81-.42h4.81m-5.23-.42h5.65m-5.65-.42h5.65m-5.65-.42h5.65m-5.65-.42h5.65m-4.86-.42h4.07m-2.43-.42h.79m-.79-.42h.79m-.79-.42h.79m-.79-.42h.79m-1.22-.53h1.64m-2.85,1.8h.84m-1.21-.53h1.58m-1.58,7.77v-.42m0-.42v-.42m-.42,.42v.42m.79,0v-.42m.42,.85v-.42m0-.42v-.42m0-.48v-.37m0-.42v-.48m-.42,1.74v-.48m-.79,.48v-.48m1.64,0v.48m.37-.48v-.37m-1.21-.42v.42m.84-.42v.42m.79-.42v.42m-.42-.42v-.48m.42-.42v.42m0-1.27v.42m-.42-.85v.42m.42-.85v.42m-.79-.42v.42m-.84-.42v.42m-.37-.85v.42m.79-.42v.42m.79-.42v.42m.42-.85v.42m-.79-.42v.42m-.84-.42v.42m-.37-.84v.42m1.58-.42v.42m-.79-1.27v.42m3.65-.42h-.85m1.22-.53h-1.59m1.59,7.77v-.42m0-.42v-.42m.42,.42v.42m-.79,0v-.42m-.42,.85v-.42m0-.42v-.42m0-.48v-.37m0-.42v-.48m.42,1.74v-.48m.79,.48v-.48m-1.64,0v.48m-.37-.48v-.37m1.22-.42v.42m-.85-.42v.42m-.79-.42v.42m.42-.42v-.48m-.42-.42v.42m0-1.27v.42m.42-.85v.42m-.42-.85v.42m.79-.42v.42m.85-.42v.42m.37-.85v.42m-.79-.42v.42m-.79-.42v.42m-.42-.85v.42m.79-.42v.42m.85-.42v.42m.37-.84v.42m-1.59-.42v.42m.79-1.27v.42m-1.64,4.28v-.48m0-1.27v-.42m0,1.27v-.42m0-1.27v-.42m0-.42v-.42m0-.85v-.42m0-.42v-.42m-2.01,1.11h.84m.79-1.27h.79m.79,1.27h.85"/><path class="cls-7" d="M31.23,62.45v-1.11c0-.21-.11-.85-1.11-.85-.95,0-1.06,.64-1.06,.85v1.11h2.17Z"/><path class="cls-7" d="M29.44,61.4l-.53-.05c0-.21,.05-.53,.21-.63l.48,.37c-.05,.05-.16,.21-.16,.32Z"/><path class="cls-7" d="M30.33,60.87l.27-.48c-.11-.05-.32-.11-.48-.11-.11,0-.32,.05-.42,.11l.26,.48h.37Z"/><path class="cls-7" d="M30.86,61.4l.53-.05c0-.21-.05-.53-.21-.63l-.48,.37c.05,.05,.16,.21,.16,.32Z"/><path class="cls-7" d="M29.33,59.55v-1.16c0-.32-.21-.58-.58-.58s-.58,.27-.58,.58v1.16h1.16Z"/><path class="cls-7" d="M30.97,59.55v-1.16c0-.32,.21-.58,.58-.58s.58,.27,.58,.58v1.16h-1.16Z"/><path class="cls-7" d="M28.96,56.69l.05-1.06h-1l.11,1.06h.84Z"/><path class="cls-7" d="M30.55,56.69l.11-1.06h-1l.05,1.06h.85Z"/><path class="cls-7" d="M31.34,56.69l-.11-1.06h1.06l-.11,1.06h-.85Z"/><g><path class="cls-74" d="M30.86,62.45v-.95c0-.16-.11-.64-.74-.64-.58,0-.69,.48-.69,.64v.95h1.43Z"/><path class="cls-74" d="M29.22,59.44v-1c0-.26-.16-.53-.48-.53s-.48,.27-.48,.53v1h.95Z"/><path class="cls-74" d="M31.07,59.44v-1c0-.26,.16-.53,.48-.53s.48,.27,.48,.53v1h-.95Z"/></g></g><g id="Leon"><path class="cls-39" d="M35.86,64.22h11.51v-12.74h-11.51v12.74Z"/><path class="cls-63" d="M41.72,54.62v-.14s.03-.08,.03-.08c0,0-.37,.03-.56-.03s-.37-.13-.55-.29c-.18-.16-.25-.25-.38-.27-.31-.05-.55,.09-.55,.09,0,0,.23,.08,.41,.3s.36,.32,.45,.35c.13,.04,.61,.01,.74,.02,.13,0,.42,.04,.42,.04h0Z"/><g><path class="cls-60" d="M43.45,54.1s0,.16,.02,.32c.01,.15-.05,.28-.03,.37s.04,.15,.07,.21c.03,.06,.05,.21,.05,.21,0,0-.09-.06-.17-.12-.08-.06-.14-.1-.14-.1,0,0,.02,.16,.02,.24,0,.07,.05,.2,.12,.28,.07,.08,.2,.2,.24,.3,.04,.1,.03,.33,.03,.33,0,0-.11-.17-.2-.2-.09-.03-.29-.14-.29-.14,0,0,.18,.18,.18,.35s-.07,.37-.07,.37c0,0-.08-.16-.19-.26-.11-.1-.26-.21-.26-.21,0,0,.12,.27,.12,.45s-.03,.56-.03,.56c0,0-.09-.15-.18-.22-.09-.07-.2-.13-.23-.18-.03-.05,.11,.15,.12,.27,.02,.12,.07,.54,.44,1.07,.21,.31,.55,.86,1.26,.68,.71-.18,.45-1.14,.3-1.58-.15-.45-.22-.94-.21-1.11,0-.17,.13-.68,.12-.78-.02-.09-.05-.46,.03-.75,.09-.3,.17-.42,.22-.55,.05-.13,.09-.2,.11-.31,.02-.11,.02-.31,.02-.31,0,0,.13,.24,.17,.33,.03,.09,.03,.34,.03,.34,0,0,.03-.26,.22-.38s.43-.26,.49-.33,.08-.12,.08-.12c0,0-.02,.44-.14,.61-.08,.11-.4,.48-.4,.48,0,0,.17-.06,.28-.07,.12,0,.2,0,.2,0,0,0-.14,.11-.32,.38-.18,.27-.11,.29-.24,.51s-.24,.23-.41,.36c-.25,.2-.11,.99-.08,1.11,.03,.12,.46,1.09,.47,1.32,0,.24,.05,.76-.37,1.1-.27,.22-.7,.22-.8,.28-.1,.06-.29,.26-.29,.67s.15,.47,.26,.57c.12,.1,.27,.05,.3,.13,.03,.08,.05,.12,.1,.17,.05,.05,.08,.1,.07,.19-.02,.09-.21,.28-.27,.42-.07,.14-.2,.51-.2,.56s-.02,.23,.04,.31c0,0,.21,.24,.07,.29-.09,.03-.18-.06-.22-.05-.12,.03-.19,.11-.22,.1-.08-.02-.08-.06-.09-.17,0-.12,0-.16-.04-.16-.05,0-.08,.04-.08,.1s0,.2-.07,.2-.14-.1-.19-.13-.19-.05-.2-.11c0-.06,.08-.19,.17-.22,.09-.02,.17-.07,.12-.12-.06-.05-.12-.05-.17,0-.06,.05-.18,0-.17-.06,0-.07,.03-.16,.02-.2,0-.04-.11-.12,.02-.19,.13-.07,.19,.06,.32,.04s.2-.07,.25-.15,.04-.24-.05-.34c-.09-.1-.18-.12-.21-.18-.03-.06-.08-.21-.08-.21,0,0,.03,.27,0,.31s0,.2,0,.2c0,0-.09-.1-.16-.18-.07-.08-.15-.31-.15-.31,0,0,0,.22,0,.31s.1,.16,.07,.2c-.03,.03-.19-.16-.23-.2-.04-.03-.17-.13-.23-.24s-.1-.27-.12-.32c-.02-.05-.04-.3-.02-.36,.04-.09,.11-.26,.11-.26h-.32c-.17,0-.3-.05-.36,.06s-.03,.35,.05,.66c.08,.3,.13,.45,.11,.51-.03,.05-.13,.18-.17,.2-.04,.03-.16,.02-.21,0-.05-.02-.13-.06-.29-.06s-.26,0-.31,0c-.06-.02-.2-.09-.27-.07s-.18,.07-.15,.16c.05,.14-.05,.17-.12,.16-.07,0-.12-.03-.21-.05-.08-.03-.21,0-.19-.1,.02-.09,.05-.1,.09-.17,.04-.07,.06-.12,0-.12-.06,0-.12-.01-.16,.03-.05,.04-.12,.12-.17,.09-.06-.03-.11-.1-.11-.25s-.16-.27-.01-.27c.14,0,.32,.11,.35,.03s.01-.12-.06-.18-.17-.1-.07-.18c.1-.08,.13-.08,.17-.12,.04-.04,.09-.18,.17-.15,.14,.07,0,.17,.15,.32,.14,.16,.23,.21,.47,.19,.24-.03,.3-.05,.3-.12s-.02-.19-.03-.24c0-.05,.03-.23,.03-.23,0,0-.11,.07-.14,.13-.03,.07-.1,.18-.1,.18,0,0-.03-.14-.02-.25,0-.07,.03-.18,.03-.2,0-.06-.05-.21-.05-.21,0,0-.04,.17-.06,.21-.03,.05-.04,.24-.04,.24,0,0-.15-.13-.11-.35,.03-.17-.03-.4,.03-.47,.05-.08,.17-.38,.47-.39,.3-.01,.53,.01,.63,0,.1,0,.47-.08,.47-.08,0,0-.68-.35-.83-.45-.16-.1-.4-.37-.47-.49-.08-.12-.15-.36-.15-.36,0,0-.12,0-.23,.07-.11,.06-.22,.15-.28,.23-.06,.07-.17,.24-.17,.24,0,0,.02-.21,.02-.28s-.01-.2-.01-.2c0,0-.08,.29-.23,.4-.16,.11-.34,.26-.34,.26,0,0,.02-.16,.02-.2,0-.04,.04-.23,.04-.23,0,0-.11,.16-.28,.2-.17,.03-.41,.03-.43,.13-.02,.1,.05,.24,0,.32s-.12,.12-.12,.12c0,0-.1-.08-.18-.09-.08,0-.16,.04-.16,.04,0,0-.07-.09-.04-.15,.03-.06,.15-.15,.12-.19-.03-.04-.14,.01-.2,.04-.06,.03-.2,.06-.19-.04,.01-.1,.05-.16,.01-.24-.03-.07-.01-.12,.04-.14,.05-.02,.26,0,.28-.04,.02-.05-.05-.11-.19-.14-.13-.03-.2-.11-.13-.18,.07-.07,.09-.09,.12-.15,.03-.06,.05-.17,.17-.12,.12,.05,.1,.19,.23,.23,.13,.04,.43-.02,.5-.05s.27-.19,.34-.23c.07-.03,.37-.26,.37-.26,0,0-.17-.12-.24-.18-.06-.06-.18-.21-.24-.24-.06-.03-.34-.14-.44-.15-.1,0-.39-.11-.39-.11,0,0,.13-.04,.18-.08,.04-.04,.15-.13,.2-.12,.05,0,.06,0,.06,0,0,0-.28-.01-.34-.03-.06-.02-.23-.12-.29-.12s-.19,.03-.19,.03c0,0,.17-.11,.32-.13,.14-.02,.25-.02,.25-.02,0,0-.22-.06-.27-.13-.05-.08-.1-.18-.14-.23-.04-.05-.06-.13-.13-.13s-.19,.09-.27,.08-.12-.05-.13-.15c0-.11,0-.07-.02-.12-.03-.05-.13-.18-.03-.21,.1-.03,.3,.02,.32-.02,.02-.04-.11-.15-.19-.19-.08-.04-.22-.12-.15-.18,.07-.06,.14-.08,.18-.14,.04-.05,.08-.21,.17-.16,.08,.05,.2,.29,.27,.27,.06-.02,.07-.19,.06-.26-.01-.07,0-.2,.06-.19s.12,.1,.22,.11c.1,0,.26-.03,.24,.05-.01,.07-.07,.16-.14,.24-.07,.08-.1,.24-.06,.34,.05,.11,.16,.27,.27,.34,.1,.07,.3,.12,.42,.19,.12,.08,.41,.31,.5,.33,.1,.03,.19,.07,.19,.07,0,0,.11-.05,.26-.05s.49,.02,.62-.03c.13-.05,.3-.15,.25-.26-.05-.12-.34-.22-.31-.31,.03-.09,.13-.1,.3-.11,.17,0,.41,.03,.46-.21,.05-.24,.06-.38-.19-.44-.25-.05-.43-.06-.47-.24-.05-.18-.09-.22-.04-.27,.05-.05,.14-.07,.32-.08,.18-.01,.39-.01,.45-.06,.06-.04,.07-.16,.14-.21,.07-.05,.35-.09,.35-.09,0,0,.33,.16,.64,.39,.28,.21,.53,.51,.53,.51"/><path class="cls-8" d="M40.14,55.56s-.18,.05-.25,.15c-.08,.12-.08,.24-.08,.24,0,0,.16-.13,.36-.08,.2,.05,.22,.08,.3,.07s.29-.08,.29-.08c0,0-.17,.2-.15,.33,.02,.13,.04,.19,.04,.26-.01,.16-.14,.37-.14,.37,0,0,.07-.04,.24-.08,.17-.04,.31-.12,.4-.19,.09-.07,.21-.23,.21-.23,0,0-.04,.23,0,.32,.04,.1,.05,.38,.05,.38,0,0,.11-.1,.19-.14,.04-.03,.16-.09,.21-.16,.03-.05,.07-.24,.07-.24,0,0,.03,.21,.09,.31,.06,.1,.16,.4,.16,.4,0,0,.07-.2,.14-.28s.16-.18,.16-.24c0-.06-.02-.19-.02-.19l.09,.19m-2.61,.14s.11-.19,.21-.25c.11-.06,.25-.17,.29-.18,.04-.01,.21-.11,.21-.11m.23,1.18s.25-.13,.32-.17c.16-.09,.27-.26,.27-.26"/><path class="cls-28" d="M43.24,54.99s-.08-.11-.1-.15c-.02-.03-.05-.11-.05-.11"/><path class="cls-8" d="M42.27,58.77s.47,.29,.45,.53c-.01,.24-.26,.55-.26,.55"/></g><path class="cls-6" d="M41.07,53.92s-.04-.11-.05-.14c0-.03-.03-.07-.03-.07,0,0,.2,0,.19,.06,0,.06-.06,.06-.08,.08-.01,.03-.04,.06-.04,.06h0Z"/><path class="cls-9" d="M41.98,53.61v-.1s.16,0,.24,.06c.13,.09,.21,.23,.21,.24-.02,.02-.12-.06-.19-.08,0,0-.05,.01-.1,.01s-.08-.03-.08-.05c0-.03,0-.07,0-.07h-.08Z"/><g><path class="cls-6" d="M41.07,54.82l.08-.12,.08,.11h-.15"/><path class="cls-6" d="M41.26,54.81l.09-.12,.1,.11h-.19"/><path class="cls-6" d="M41.18,54.06l.19,.07-.17,.09-.02-.15"/><path class="cls-6" d="M41.4,54.12l.17,.04-.13,.11-.03-.15"/></g><g><path class="cls-63" d="M38.51,53.89s.11,.08,.19,.09c.08,.01,.17,.01,.19,.01,.01,0,.04-.12,.03-.21-.05-.27-.3-.34-.3-.34,0,0,.08,.17,.04,.24-.05,.11-.15,.2-.15,.2h0Z"/><path class="cls-63" d="M37.99,54.13s-.1-.18-.3-.15c-.21,.03-.34,.19-.34,.19,0,0,.23,0,.29,.03,.08,.05,.11,.2,.11,.2,0,0,.12-.07,.16-.12,.04-.05,.09-.13,.09-.13h0Z"/><path class="cls-63" d="M37.74,54.84s-.18,.03-.27,.13c-.1,.11-.08,.32-.08,.32,0,0,.11-.12,.22-.12s.27,.04,.27,.04c0,0-.05-.13-.05-.18s-.08-.19-.08-.19h0Z"/><path class="cls-63" d="M38.32,57.16s-.1-.1-.27-.07c-.17,.03-.28,.22-.28,.22,0,0,.14-.04,.23-.02,.08,.02,.14,.1,.14,.1,0,0,.08-.07,.1-.1s.07-.13,.07-.13h0Z"/><path class="cls-63" d="M38.13,57.84s-.14-.02-.27,.08c-.12,.1-.13,.29-.13,.29,0,0,.12-.1,.21-.08,.09,.01,.2,.06,.2,.06,0,0,.02-.12,.03-.15,.02-.09-.04-.19-.04-.19h0Z"/><path class="cls-63" d="M38.46,58.46s-.01,.18,.08,.29c.09,.12,.26,.13,.26,.13,0,0-.05-.12-.06-.18-.01-.09,.08-.17,.08-.17,0,0-.08-.09-.17-.09s-.18,.01-.18,.01h0Z"/><path class="cls-63" d="M40.14,60.07s-.12-.15-.28-.14c-.16,0-.33,.16-.33,.16,0,0,.2-.02,.25,.05,.05,.07,.1,.15,.1,.15,0,0,.09-.05,.13-.08,.04-.03,.12-.14,.12-.14h0Z"/><path class="cls-63" d="M39.64,60.71s-.21-.03-.32,.08c-.1,.11-.1,.31-.1,.31,0,0,.13-.14,.24-.13s.25,.07,.25,.07c0,0-.02-.12-.03-.18-.01-.05-.04-.16-.04-.16h0Z"/><path class="cls-63" d="M40.1,61.39s-.11,.15-.03,.26,.24,.17,.24,.17c0,0-.06-.08-.03-.18,.02-.08,.15-.18,.15-.18l-.33-.07h0Z"/><path class="cls-63" d="M42.94,61.67s-.19-.04-.29,.02c-.1,.06-.19,.32-.19,.32,0,0,.17-.14,.29-.12,.12,.02,.21,.07,.21,.07,0,0,.02-.11,0-.18,0-.04-.03-.1-.03-.1h0Z"/><path class="cls-63" d="M43.03,62.35s-.14,.15-.09,.27c.05,.12,.14,.25,.14,.25,0,0,0-.18,.05-.23,.08-.07,.24-.08,.24-.08,0,0-.12-.11-.16-.12-.04-.01-.18-.08-.18-.08Z"/><path class="cls-63" d="M43.74,62.57s-.07,.18,.06,.29c.13,.12,.25,.13,.25,.13,0,0-.11-.19-.07-.28,.03-.1,.12-.16,.12-.16,0,0-.17-.06-.19-.05-.03,0-.17,.07-.17,.07h0Z"/></g><g><path class="cls-43" d="M43.31,53.12h-.07s-.03,.06-.06,.08c-.06,.06-.15,.06-.2,.02-.03-.03-.04-.06-.03-.09-.04,.02-.08,.02-.12,0-.06-.03-.07-.11-.03-.18,0-.01,.01-.03,.03-.04v-.07s-.08,.02-.08,.02l-.02,.04c-.05,.06-.12,.07-.16,.04-.02-.02-.03-.06-.03-.06,0,0-.02,.02-.04,.03-.12,.03-.17-.24-.18-.31l-.04,.06s.04,.16,.02,.3c-.02,.13-.07,.27-.07,.27,.17,.04,.43,.18,.68,.38s.45,.41,.54,.55c0,0,.13-.07,.27-.12s.31-.05,.31-.05l.05-.05c-.07,.01-.36,.02-.36-.1,0-.02,.02-.04,.02-.04,0,0-.05,0-.07-.01-.04-.03-.04-.1,0-.16l.04-.03v-.08s-.08,.01-.08,.01c0,0-.03,.02-.03,.03-.06,.05-.15,.06-.2,0-.03-.03-.04-.07-.03-.11-.04,0-.07,0-.1-.01-.06-.03-.07-.12-.03-.18,.02-.03,.06-.07,.07-.07l-.02-.07h0Z"/><g><path class="cls-9" d="M42.8,53.28s.03-.01,.05,0,.02,.04,.01,.05c-.01,.01-.03,.01-.05,0-.02-.01-.02-.03-.01-.05h0Z"/><path class="cls-9" d="M43.02,53.46l-.08-.06s-.02-.03,0-.04c0,0,.03,0,.04,0l.08,.06,.08,.06s.02,.03,0,.04c0,0-.03,0-.04,0l-.08-.06"/><path class="cls-9" d="M42.62,53.18l-.06-.03s-.02-.03-.02-.04,.03-.01,.04,0l.06,.04,.06,.03s.02,.03,.02,.04c0,.01-.03,.01-.04,0l-.06-.03"/><path class="cls-9" d="M42.38,53.02s.04-.01,.05,0c.02,.02,.02,.04,.01,.05-.01,.01-.03,.01-.05,0-.02-.01-.02-.03-.01-.05h0Z"/><path class="cls-9" d="M43.26,53.62s0-.03-.01-.05c-.02-.01-.04-.01-.05,0,0,.01,0,.03,.01,.05s.04,.01,.05,0h0Z"/><path class="cls-9" d="M43.39,53.77l.05,.05s.03,.02,.04,0c0,0,0-.03,0-.04l-.05-.05-.05-.05s-.03-.02-.04,0c-.01,0,0,.03,0,.04l.05,.05"/><path class="cls-9" d="M43.6,53.96s0-.03-.01-.05c-.02-.02-.04-.02-.05,0s0,.03,.01,.05c.02,.01,.04,.01,.05,0Z"/></g><path class="cls-43" d="M42.97,52.58h-.13s-.03,.2-.03,.2v.03s.05,0,.05,0l.17-.12-.06-.11"/><path class="cls-43" d="M42.97,52.58h-.13s-.03,.2-.03,.2v.03s.05,0,.05,0l.17-.12-.06-.11"/><path class="cls-43" d="M42.61,52.69v.12s.21,.03,.21,.03l.03-.02v-.03s-.13-.16-.13-.16l-.11,.06"/><path class="cls-43" d="M43.04,52.94l-.11,.06-.12-.16v-.03s.03-.01,.03-.01l.21,.03v.12"/><path class="cls-43" d="M42.77,52.78s.06-.04,.09-.02c.03,.02,.04,.05,.02,.08s-.06,.04-.09,.02c-.03-.02-.04-.05-.02-.08Z"/><path class="cls-43" d="M42.28,52.58s-.03-.11-.06-.16c-.02-.04-.09-.1-.09-.1,0-.01,.1-.04,.2,.02,.09,.07,0,.2,0,.2,0,0-.02,.03-.04,.04h0Z"/><path class="cls-43" d="M42.52,52.65l-.1,.08-.16-.14v-.02s.02-.03,.02-.03l.21-.02,.02,.12"/><path class="cls-43" d="M42.25,52.56s.04-.05,.06-.05c.03,0,.03,.04,.02,.08s-.04,.05-.07,.05c-.03,0-.03-.04-.02-.08Z"/><path class="cls-43" d="M43.49,52.9h-.13s-.06,.18-.06,.18v.03s.05,0,.05,0l.19-.09-.04-.12"/><path class="cls-43" d="M43.11,52.96l-.02,.12,.21,.05h.03s0-.04,0-.04l-.1-.18-.12,.05"/><path class="cls-43" d="M43.51,53.27l-.12,.05-.1-.18v-.03s.04,0,.04,0l.2,.05-.02,.12"/><path class="cls-43" d="M43.26,53.08s.06-.03,.09,0c.03,.02,.03,.06,.01,.09s-.06,.03-.09,0c-.03-.02-.03-.06,0-.09h0Z"/><path class="cls-43" d="M43.94,53.32l.03,.13-.2,.07h-.04s0-.04,0-.04l.08-.19,.13,.03"/><path class="cls-43" d="M43.91,53.69l-.13,.03-.07-.19v-.03s.04,0,.04,0l.19,.08-.04,.12"/><path class="cls-43" d="M43.56,53.33l-.04,.12,.19,.08h.04s0-.04,0-.04l-.07-.19-.13,.03"/><path class="cls-43" d="M43.78,53.56s.03-.06,0-.09c-.03-.03-.07-.03-.09,0-.03,.03-.03,.06,0,.09,.02,.03,.07,.03,.09,0h0Z"/><path class="cls-43" d="M44.09,53.97s.11,0,.18,.02c.05,0,.12,.06,.12,.06,.01,0,.03-.1-.06-.18-.09-.06-.2,.05-.2,.05,0,0-.03,.03-.03,.05h0Z"/><path class="cls-43" d="M43.97,53.76l-.07,.11,.17,.12,.02-.02h.03s-.03-.21-.03-.21h-.13"/><path class="cls-43" d="M44.11,53.99s.05-.05,.03-.07-.05-.02-.08,0-.05,.05-.03,.07c.01,.02,.05,.02,.08,0Z"/></g></g><g id="inescutcheon"><ellipse class="cls-20" cx="35.89" cy="64.16" rx="3.72" ry="4.18"/><ellipse class="cls-21" cx="35.9" cy="64.15" rx="2.62" ry="3.07"/><g id="fdl"><path class="cls-26" d="M34.66,62.04s-.31,.34-.31,.65,.13,.58,.13,.58c-.05-.13-.17-.21-.32-.21-.19,0-.34,.14-.34,.32,0,.05,.03,.13,.05,.18l.11,.23c.04-.08,.12-.13,.22-.13,.13,0,.25,.1,.25,.23,0,.02,0,.04,0,.06h-.28v.24h.25l-.19,.37,.24-.1,.19,.21,.19-.21,.24,.1-.18-.37h.25v-.24h-.28s0-.04,0-.06c0-.13,.11-.23,.24-.23,.1,0,.19,.05,.22,.13l.11-.23s.05-.13,.05-.18c0-.18-.15-.32-.34-.32-.15,0-.28,.09-.32,.21,0,0,.13-.26,.13-.58s-.32-.65-.32-.65h0Z"/><path class="cls-22" d="M34.16,64.19h1v-.24h-1v.24Z"/></g><g id="fdl-2"><path class="cls-26" d="M37.09,62.04s-.31,.34-.31,.65,.13,.58,.13,.58c-.05-.13-.17-.21-.32-.21-.19,0-.34,.14-.34,.32,0,.05,.03,.13,.05,.18l.11,.23c.04-.08,.12-.13,.22-.13,.13,0,.25,.1,.25,.23,0,.02,0,.04,0,.06h-.28v.24h.25l-.19,.37,.24-.1,.19,.21,.19-.21,.24,.1-.18-.37h.25v-.24h-.28s0-.04,0-.06c0-.13,.11-.23,.24-.23,.1,0,.19,.05,.22,.13l.11-.23s.05-.13,.05-.18c0-.18-.15-.32-.34-.32-.15,0-.28,.09-.32,.21,0,0,.13-.26,.13-.58s-.32-.65-.32-.65h0Z"/><path class="cls-22" d="M36.59,64.19h1v-.24h-1v.24Z"/></g><g id="fdl-3"><path class="cls-26" d="M35.87,64.13s-.31,.34-.31,.65,.13,.58,.13,.58c-.05-.13-.17-.21-.32-.21-.19,0-.34,.14-.34,.32,0,.05,.03,.13,.05,.18l.11,.23c.04-.08,.12-.13,.22-.13,.13,0,.25,.1,.25,.23,0,.02,0,.04,0,.06h-.28v.24h.25l-.19,.37,.24-.1,.19,.21,.19-.21,.24,.1-.18-.37h.25v-.24h-.28s0-.04,0-.06c0-.13,.11-.23,.24-.23,.1,0,.19,.05,.22,.13l.11-.23s.05-.13,.05-.18c0-.18-.15-.32-.34-.32-.15,0-.28,.09-.32,.21,0,0,.13-.26,.13-.58s-.32-.65-.32-.65h0Z"/><path class="cls-22" d="M35.38,66.28h1v-.24h-1v.24Z"/></g></g></g></g></g></g><circle class="cls-69" cx="57.11" cy="57.11" r="56.11" transform="translate(-12.5 98.06) rotate(-75.47)"/></g></g></svg>