<?xml version="1.0" encoding="UTF-8"?><svg id="Capa_2" xmlns="http://www.w3.org/2000/svg" xmlns:xlink="http://www.w3.org/1999/xlink" viewBox="0 0 114.21 114.21"><defs><style>.cls-1{clip-path:url(#clippath);}.cls-2{fill:#fff;}.cls-3{fill:#b22334;}.cls-4{fill:#3d3c6f;}.cls-5{stroke-width:10.98px;}.cls-5,.cls-6{stroke:#fff;stroke-miterlimit:10;}.cls-6{fill:none;stroke-width:2px;}</style><clipPath id="clippath"><circle class="cls-6" cx="57.11" cy="57.11" r="56.11"/></clipPath></defs><g id="Capa_1-2"><g><g class="cls-1"><g><path class="cls-3" d="M-47.38-13.33H223.74V129.36H-47.38V-13.33Z"/><path class="cls-5" d="M-47.38,3.14H223.74m0,21.95H-47.38m0,21.95H223.74m0,21.95H-47.38m0,21.95H223.74m0,21.95H-47.38"/><path class="cls-4" d="M-47.38-13.33H61.07V63.51H-47.38V-13.33Z"/><g><g id="d"><g id="c"><g id="e"><g id="b"><path id="a" class="cls-2" d="M-2.19,5.33L.39,13.27l-6.76-4.91H1.98l-6.76,4.91L-2.19,5.33Z"/><path id="a-2" class="cls-2" d="M-2.19,20.7L.39,28.64l-6.76-4.91H1.98l-6.76,4.91,2.58-7.94Z"/><path id="a-3" class="cls-2" d="M-2.19,36.06L.39,44.01l-6.76-4.91H1.98l-6.76,4.91,2.58-7.94Z"/></g><path id="a-4" class="cls-2" d="M-2.19,51.43L.39,59.37l-6.76-4.91H1.98l-6.76,4.91,2.58-7.94Z"/></g><g id="b-2"><path id="a-5" class="cls-2" d="M6.84-2.35l2.58,7.94L2.67,.68H11.02L4.26,5.59,6.84-2.35Z"/><path id="a-6" class="cls-2" d="M6.84,13.01l2.58,7.94-6.76-4.91H11.02l-6.76,4.91,2.58-7.94Z"/><path id="a-7" class="cls-2" d="M6.84,28.38l2.58,7.94-6.76-4.91H11.02l-6.76,4.91,2.58-7.94Z"/><path id="a-8" class="cls-2" d="M6.84,43.75l2.58,7.94-6.76-4.91H11.02l-6.76,4.91,2.58-7.94Z"/></g></g><g id="c-2"><g id="e-2"><g id="b-3"><path id="a-9" class="cls-2" d="M15.88,5.33l2.58,7.94-6.76-4.91h8.35l-6.76,4.91,2.58-7.94Z"/><path id="a-10" class="cls-2" d="M15.88,20.7l2.58,7.94-6.76-4.91h8.35l-6.76,4.91,2.58-7.94Z"/><path id="a-11" class="cls-2" d="M15.88,36.06l2.58,7.94-6.76-4.91h8.35l-6.76,4.91,2.58-7.94Z"/></g><path id="a-12" class="cls-2" d="M15.88,51.43l2.58,7.94-6.76-4.91h8.35l-6.76,4.91,2.58-7.94Z"/></g><g id="b-4"><path id="a-13" class="cls-2" d="M24.92-2.35l2.58,7.94L20.74,.68h8.35l-6.76,4.91,2.58-7.94Z"/><path id="a-14" class="cls-2" d="M24.92,13.01l2.58,7.94-6.76-4.91h8.35l-6.76,4.91,2.58-7.94Z"/><path id="a-15" class="cls-2" d="M24.92,28.38l2.58,7.94-6.76-4.91h8.35l-6.76,4.91,2.58-7.94Z"/><path id="a-16" class="cls-2" d="M24.92,43.75l2.58,7.94-6.76-4.91h8.35l-6.76,4.91,2.58-7.94Z"/></g></g></g><g id="c-3"><g id="e-3"><g id="b-5"><path id="a-17" class="cls-2" d="M33.96,5.33l2.58,7.94-6.76-4.91h8.35l-6.76,4.91,2.58-7.94Z"/><path id="a-18" class="cls-2" d="M33.96,20.7l2.58,7.94-6.76-4.91h8.35l-6.76,4.91,2.58-7.94Z"/><path id="a-19" class="cls-2" d="M33.96,36.06l2.58,7.94-6.76-4.91h8.35l-6.76,4.91,2.58-7.94Z"/></g><path id="a-20" class="cls-2" d="M33.96,51.43l2.58,7.94-6.76-4.91h8.35l-6.76,4.91,2.58-7.94Z"/></g><g id="b-6"><path id="a-21" class="cls-2" d="M42.99-2.35l2.58,7.94L38.82,.68h8.35l-6.76,4.91,2.58-7.94Z"/><path id="a-22" class="cls-2" d="M42.99,13.01l2.58,7.94-6.76-4.91h8.35l-6.76,4.91,2.58-7.94Z"/><path id="a-23" class="cls-2" d="M42.99,28.38l2.58,7.94-6.76-4.91h8.35l-6.76,4.91,2.58-7.94Z"/><path id="a-24" class="cls-2" d="M42.99,43.75l2.58,7.94-6.76-4.91h8.35l-6.76,4.91,2.58-7.94Z"/></g></g><g id="e-4"><g id="b-7"><path id="a-25" class="cls-2" d="M52.03,5.33l2.58,7.94-6.76-4.91h8.35l-6.76,4.91,2.58-7.94Z"/><path id="a-26" class="cls-2" d="M52.03,20.7l2.58,7.94-6.76-4.91h8.35l-6.76,4.91,2.58-7.94Z"/><path id="a-27" class="cls-2" d="M52.03,36.06l2.58,7.94-6.76-4.91h8.35l-6.76,4.91,2.58-7.94Z"/></g><path id="a-28" class="cls-2" d="M52.03,51.43l2.58,7.94-6.76-4.91h8.35l-6.76,4.91,2.58-7.94Z"/></g></g></g></g><circle class="cls-6" cx="57.11" cy="57.11" r="56.11"/></g></g></svg>