<?xml version="1.0" encoding="UTF-8"?><svg id="Capa_2" xmlns="http://www.w3.org/2000/svg" viewBox="0 0 114.21 114.21"><defs><style>.cls-1{fill:#cd2e3a;}.cls-2{fill:#184996;}.cls-3{fill:#fff;stroke-miterlimit:10;stroke-width:2px;}.cls-3,.cls-4{stroke:#fff;}.cls-5{stroke:#000;stroke-width:3.88px;}.cls-5,.cls-4{stroke-miterlimit:50;}.cls-4{stroke-width:1.94px;}</style></defs><g id="Capa_1-2"><g><circle class="cls-3" cx="57.11" cy="57.11" r="56.11" transform="translate(-11.59 99.56) rotate(-76.72)"/><g><g><g id="b2"><path id="b" class="cls-5" d="M10.35,41.55l12.9-19.35m-8.06,22.57l12.9-19.35m-8.06,22.57l12.9-19.35"/><path id="b-2" class="cls-5" d="M81.29,88.85l12.9-19.35m-8.06,22.57l12.9-19.35m-8.06,22.57l12.9-19.35"/></g><path class="cls-4" d="M84.52,77.03l16.12,10.75"/><circle class="cls-1" cx="57.11" cy="58.75" r="23.25"/><path class="cls-2" d="M37.76,45.85c-3.56,5.34-2.12,12.56,3.22,16.12,5.34,3.56,12.56,2.12,16.12-3.22,3.56-5.34,10.78-6.79,16.12-3.22,5.34,3.56,6.79,10.78,3.22,16.12-7.12,10.69-21.56,13.57-32.25,6.45-10.69-7.12-13.57-21.56-6.45-32.25Z"/></g><g><g id="b2-2"><path id="b-3" class="cls-5" d="M23.24,95.3l-12.9-19.35m17.74,16.12l-12.9-19.35m17.74,16.12l-12.9-19.35"/><path id="b-4" class="cls-5" d="M94.19,48l-12.9-19.35m17.74,16.12l-12.9-19.35m17.74,16.12l-12.9-19.35"/></g><path class="cls-4" d="M19.21,84.01l4.84-3.22m60.47-40.31l5.64-3.76m4.84-3.22l4.84-3.22"/></g></g></g></g></svg>