<?xml version="1.0" encoding="UTF-8"?><svg id="Capa_2" xmlns="http://www.w3.org/2000/svg" xmlns:xlink="http://www.w3.org/1999/xlink" viewBox="0 0 114.21 114.21"><defs><style>.cls-1,.cls-2{fill:none;}.cls-3{clip-path:url(#clippath);}.cls-4{fill:#ffe00a;}.cls-5{fill:#fff;}.cls-6{fill:#132c70;}.cls-7,.cls-8{fill:#069c3a;}.cls-9{clip-path:url(#clippath-1);}.cls-10{clip-path:url(#clippath-2);}.cls-2{stroke:#fff;stroke-miterlimit:10;stroke-width:2px;}.cls-8{fill-rule:evenodd;}</style><clipPath id="clippath"><circle class="cls-2" cx="57.11" cy="57.11" r="56.11" transform="translate(-12.5 98.06) rotate(-75.47)"/></clipPath><clipPath id="clippath-1"><circle class="cls-6" cx="57" cy="57.98" r="21.08"/></clipPath><clipPath id="clippath-2"><path class="cls-1" d="M63.54,55.13l.8-1.84,1.66,.72-.8,1.84-1.66-.72Zm1.37-.88l-.14,.32,.83,.36,.14-.32-.83-.36Z"/></clipPath></defs><g id="Capa_1-2"><g><g class="cls-3"><rect class="cls-7" x="-9.8" y="-1.52" width="133.6" height="119.45"/><path class="cls-4" d="M7,57.98l50,31.93,50-31.93L57,26.05,7,57.98Z"/><g><circle class="cls-6" cx="57" cy="57.98" r="21.08"/><g class="cls-9"><path class="cls-5" d="M-6.25,100.14c0-28.28,22.92-51.2,51.2-51.2s51.2,22.92,51.2,51.2h-3.01c0-26.62-21.58-48.19-48.19-48.19S-3.24,73.53-3.24,100.14h-3.01Z"/></g></g><g><path id="O" class="cls-8" d="M39.02,51.81c.5-.06,.84-.56,.77-1.11-.07-.55-.52-.95-1.02-.89-.5,.06-.84,.56-.77,1.11,.07,.55,.52,.95,1.02,.89m-.05-.37c.29-.04,.49-.35,.45-.69s-.31-.6-.6-.56c-.29,.04-.49,.35-.45,.69,.04,.35,.31,.6,.6,.56"/><g id="R"><path id="P" class="cls-8" d="M40.65,51.63l.37-.03-.05-.74,.8-.06c.35-.02,.61-.33,.59-.67-.02-.35-.33-.61-.67-.59l-1.14,.08,.11,2.01Zm.29-1.14l.77-.05c.14,0,.25-.13,.24-.28,0-.14-.13-.25-.28-.24l-.77,.05,.04,.52Z"/><path class="cls-7" d="M42.35,51.51c-.02-.29-.06-.92-.49-.89l-.54,.04c.63-.04,.67,.59,.69,.87"/></g><path id="D" class="cls-8" d="M43.2,51.47l.95-.02c.48,0,.85-.4,.85-.88v-.29c-.01-.48-.41-.85-.88-.85l-.95,.02,.04,2.01Zm.37-.38h.54c.3-.01,.54-.26,.54-.56v-.17c0-.3-.26-.54-.56-.54h-.54s.02,1.27,.02,1.27Z"/><path id="E" class="cls-7" d="M45.75,51.45l1.81,.06v-.37s-1.45-.05-1.45-.05l.02-.52,1.15,.04v-.34s-1.13-.04-1.13-.04v-.4s1.39,.05,1.39,.05v-.37s-1.71-.06-1.71-.06l-.07,2.01Z"/><path id="M" class="cls-7" d="M48.29,51.56l.34,.03,.12-1.37,.28,1.41,.31,.03,.52-1.34-.12,1.37,.34,.03,.17-2-.5-.04-.52,1.34-.28-1.41-.5-.04-.17,2Z"/><path id="e" class="cls-7" d="M52.45,52.03l1.48,.26,.06-.34-1.14-.2,.08-.45,.93,.16,.06-.34-.93-.16,.05-.31,1.11,.19,.06-.34-1.45-.25-.31,1.78Z"/><path id="P-2" class="cls-8" d="M56.27,52.77l.36,.09,.19-.72,.78,.2c.34,.09,.68-.12,.77-.45,.09-.34-.12-.68-.45-.77l-1.11-.29-.53,1.94Zm.64-.99l.75,.19c.14,.04,.28-.05,.31-.19,.04-.14-.05-.28-.19-.31l-.75-.19-.13,.5Z"/><g id="R-2"><path id="P-3" class="cls-8" d="M58.73,53.43l.36,.11,.22-.71,.77,.24c.33,.1,.69-.08,.79-.41,.1-.33-.08-.69-.41-.79l-1.09-.35-.63,1.91Zm.69-.95l.74,.23c.14,.04,.28-.03,.32-.17,.04-.14-.03-.28-.17-.32l-.74-.23-.16,.49Z"/><path class="cls-7" d="M60.36,53.94c.09-.27,.28-.88-.13-1l-.52-.16c.6,.19,.41,.79,.33,1.07"/></g><path id="O-2" class="cls-8" d="M62,54.53c.47,.17,1-.1,1.2-.62,.19-.52-.03-1.08-.49-1.26-.47-.17-1,.1-1.2,.62-.19,.52,.03,1.08,.49,1.26m.13-.35c.27,.1,.6-.08,.72-.41,.12-.33,0-.67-.28-.78-.27-.1-.6,.08-.72,.41-.12,.33,0,.67,.28,.78"/><g id="G"><g class="cls-10"><path id="O-3" class="cls-8" d="M64.37,55.49c.46,.2,1.01-.05,1.23-.56s.03-1.08-.43-1.28c-.46-.2-1.01,.05-1.23,.56-.22,.51-.03,1.08,.43,1.28m.15-.34c.27,.12,.6-.05,.74-.37,.14-.32,.03-.67-.24-.79-.27-.12-.6,.05-.74,.37-.14,.32-.03,.67,.24,.79"/></g><rect class="cls-7" x="65.05" y="54.53" width=".29" height=".76" transform="translate(-11.16 92.8) rotate(-66.5)"/><rect class="cls-7" x="64.76" y="55.19" width="1" height=".29" transform="translate(-11.5 93.12) rotate(-66.5)"/></g><g id="R-3"><path id="P-4" class="cls-8" d="M65.87,56.16l.33,.17,.33-.67,.72,.36c.31,.16,.69,.03,.85-.28,.16-.31,.03-.69-.28-.85l-1.03-.51-.92,1.78Zm.83-.83l.69,.35c.13,.06,.28,.01,.35-.12,.06-.13,.01-.28-.12-.35l-.69-.35-.23,.46Z"/><path class="cls-7" d="M67.4,56.92c.13-.26,.41-.82,.02-1.01l-.49-.24c.56,.28,.28,.85,.16,1.1"/></g><path id="E-2" class="cls-7" d="M68.14,57.32l1.57,.89,.18-.32-1.27-.72,.25-.45,1,.57,.17-.3-1-.57,.2-.35,1.2,.68,.18-.32-1.5-.85-.99,1.75Z"/><path id="S" class="cls-7" d="M71.07,58.3c-.11,.17,0,.36,.24,.51,.24,.15,.41,.15,.48,.04,.22-.34-1.05-.85-.66-1.45,.34-.52,.91-.11,1.13,.02,.22,.14,.57,.5,.3,.91l-.37-.24c.12-.18-.01-.36-.2-.48-.19-.12-.34-.17-.45,0-.19,.28,1.06,.81,.68,1.41-.28,.44-.77,.25-1.1,.04-.28-.18-.69-.6-.42-1.02l.38,.24Z"/><path id="S-2" class="cls-7" d="M73.23,59.72c-.12,.16-.02,.36,.22,.52,.23,.17,.4,.17,.47,.06,.24-.33-1-.9-.58-1.48,.36-.5,.92-.07,1.13,.08,.21,.15,.54,.53,.25,.93l-.36-.25c.12-.18,0-.36-.18-.49-.18-.13-.33-.19-.45-.02-.2,.27,1.01,.86,.6,1.44-.3,.43-.78,.21-1.1-.02-.27-.19-.66-.63-.37-1.04l.37,.26Z"/><path id="O-4" class="cls-8" d="M75.26,62.04c.39,.31,.99,.21,1.33-.22,.35-.43,.31-1.04-.08-1.35-.39-.31-.99-.21-1.33,.22-.35,.43-.31,1.04,.08,1.35m.23-.29c.23,.18,.59,.11,.81-.16,.22-.27,.21-.64-.02-.82-.23-.18-.59-.11-.81,.16-.22,.27-.21,.64,.02,.82"/></g><g id="CMi"><g id="star1"><g id="star"><g id="c"><path id="t" class="cls-5" d="M39.79,53.29l-.28,.86,.43,.14"/><path id="t-2" class="cls-5" d="M39.79,53.29l.28,.86-.43,.14"/></g><g id="c-2"><path id="t-3" class="cls-5" d="M40.65,53.91h-.9v.45"/><path id="t-4" class="cls-5" d="M40.65,53.91l-.73,.53-.27-.37"/></g><g id="c-3"><path id="t-5" class="cls-5" d="M38.93,53.91l.73,.53,.27-.37"/><path id="t-6" class="cls-5" d="M38.93,53.91h.9v.45"/></g><g id="c-4"><path id="t-7" class="cls-5" d="M40.32,54.92l-.28-.86-.43,.14"/><path id="t-8" class="cls-5" d="M40.32,54.92l-.73-.53,.27-.37"/></g><g id="c-5"><path id="t-9" class="cls-5" d="M39.26,54.92l.73-.53-.27-.37"/><path id="t-10" class="cls-5" d="M39.26,54.92l.28-.86,.43,.14"/></g></g></g></g><g id="CMa"><g id="star1-2"><g id="star-2"><g id="c-6"><path id="t-11" class="cls-5" d="M41.65,62.15l-.28,.86,.43,.14"/><path id="t-12" class="cls-5" d="M41.65,62.15l.28,.86-.43,.14"/></g><g id="c-7"><path id="t-13" class="cls-5" d="M42.51,62.77h-.9v.45"/><path id="t-14" class="cls-5" d="M42.51,62.77l-.73,.53-.27-.37"/></g><g id="c-8"><path id="t-15" class="cls-5" d="M40.79,62.77l.73,.53,.27-.37"/><path id="t-16" class="cls-5" d="M40.79,62.77h.9v.45"/></g><g id="c-9"><path id="t-17" class="cls-5" d="M42.18,63.78l-.28-.86-.43,.14"/><path id="t-18" class="cls-5" d="M42.18,63.78l-.73-.53,.27-.37"/></g><g id="c-10"><path id="t-19" class="cls-5" d="M41.12,63.78l.73-.53-.27-.37"/><path id="t-20" class="cls-5" d="M41.12,63.78l.28-.86,.43,.14"/></g></g></g></g><g id="CMa-2"><g id="star2"><g id="star-3"><g id="c-11"><path id="t-21" class="cls-5" d="M39.07,64.19l-.23,.72,.36,.12"/><path id="t-22" class="cls-5" d="M39.07,64.19l.23,.72-.36,.12"/></g><g id="c-12"><path id="t-23" class="cls-5" d="M39.79,64.71h-.75v.38"/><path id="t-24" class="cls-5" d="M39.79,64.71l-.61,.44-.22-.3"/></g><g id="c-13"><path id="t-25" class="cls-5" d="M38.35,64.71l.61,.44,.22-.3"/><path id="t-26" class="cls-5" d="M38.35,64.71h.75v.38"/></g><g id="c-14"><path id="t-27" class="cls-5" d="M39.51,65.56l-.23-.72-.36,.12"/><path id="t-28" class="cls-5" d="M39.51,65.56l-.61-.44,.22-.3"/></g><g id="c-15"><path id="t-29" class="cls-5" d="M38.63,65.56l.61-.44-.22-.3"/><path id="t-30" class="cls-5" d="M38.63,65.56l.23-.72,.36,.12"/></g></g></g></g><g id="CMa-3"><g id="star4"><g id="star-4"><g id="c-16"><path id="t-31" class="cls-5" d="M43.72,61.33l-.13,.41,.2,.07"/><path id="t-32" class="cls-5" d="M43.72,61.33l.13,.41-.2,.07"/></g><g id="c-17"><path id="t-33" class="cls-5" d="M44.13,61.63h-.43v.22"/><path id="t-34" class="cls-5" d="M44.13,61.63l-.35,.25-.13-.17"/></g><g id="c-18"><path id="t-35" class="cls-5" d="M43.31,61.63l.35,.25,.13-.17"/><path id="t-36" class="cls-5" d="M43.31,61.63h.43v.22"/></g><g id="c-19"><path id="t-37" class="cls-5" d="M43.97,62.11l-.13-.41-.2,.07"/><path id="t-38" class="cls-5" d="M43.97,62.11l-.35-.25,.13-.17"/></g><g id="c-20"><path id="t-39" class="cls-5" d="M43.46,62.11l.35-.25-.13-.17"/><path id="t-40" class="cls-5" d="M43.46,62.11l.13-.41,.2,.07"/></g></g></g></g><g id="CMa-4"><g id="star2-2"><g id="star-5"><g id="c-21"><path id="t-41" class="cls-5" d="M46.04,64.39l-.23,.72,.36,.12"/><path id="t-42" class="cls-5" d="M46.04,64.39l.23,.72-.36,.12"/></g><g id="c-22"><path id="t-43" class="cls-5" d="M46.76,64.91h-.75v.38"/><path id="t-44" class="cls-5" d="M46.76,64.91l-.61,.44-.22-.3"/></g><g id="c-23"><path id="t-45" class="cls-5" d="M45.32,64.91l.61,.44,.22-.3"/><path id="t-46" class="cls-5" d="M45.32,64.91h.75v.38"/></g><g id="c-24"><path id="t-47" class="cls-5" d="M46.48,65.76l-.23-.72-.36,.12"/><path id="t-48" class="cls-5" d="M46.48,65.76l-.61-.44,.22-.3"/></g><g id="c-25"><path id="t-49" class="cls-5" d="M45.6,65.76l.61-.44-.22-.3"/><path id="t-50" class="cls-5" d="M45.6,65.76l.23-.72,.36,.12"/></g></g></g></g><g id="CMa-5"><g id="star3"><g id="star-6"><g id="c-26"><path id="t-51" class="cls-5" d="M45.41,66.64l-.19,.57,.29,.09"/><path id="t-52" class="cls-5" d="M45.41,66.64l.19,.57-.29,.09"/></g><g id="c-27"><path id="t-53" class="cls-5" d="M45.98,67.05h-.6v.3"/><path id="t-54" class="cls-5" d="M45.98,67.05l-.49,.35-.18-.24"/></g><g id="c-28"><path id="t-55" class="cls-5" d="M44.84,67.05l.49,.35,.18-.24"/><path id="t-56" class="cls-5" d="M44.84,67.05h.6v.3"/></g><g id="c-29"><path id="t-57" class="cls-5" d="M45.76,67.73l-.19-.57-.29,.09"/><path id="t-58" class="cls-5" d="M45.76,67.73l-.49-.35,.18-.24"/></g><g id="c-30"><path id="t-59" class="cls-5" d="M45.06,67.73l.49-.35-.18-.24"/><path id="t-60" class="cls-5" d="M45.06,67.73l.19-.57,.29,.09"/></g></g></g></g><g id="Vir"><g id="star1-3"><g id="star-7"><g id="c-31"><path id="t-61" class="cls-5" d="M63.54,50.53l-.28,.86,.43,.14"/><path id="t-62" class="cls-5" d="M63.54,50.53l.28,.86-.43,.14"/></g><g id="c-32"><path id="t-63" class="cls-5" d="M64.4,51.16h-.9v.45"/><path id="t-64" class="cls-5" d="M64.4,51.16l-.73,.53-.27-.37"/></g><g id="c-33"><path id="t-65" class="cls-5" d="M62.68,51.16l.73,.53,.27-.37"/><path id="t-66" class="cls-5" d="M62.68,51.16h.9v.45"/></g><g id="c-34"><path id="t-67" class="cls-5" d="M64.07,52.17l-.28-.86-.43,.14"/><path id="t-68" class="cls-5" d="M64.07,52.17l-.73-.53,.27-.37"/></g><g id="c-35"><path id="t-69" class="cls-5" d="M63.01,52.17l.73-.53-.27-.37"/><path id="t-70" class="cls-5" d="M63.01,52.17l.28-.86,.43,.14"/></g></g></g></g><g id="Sco"><g id="star1-4"><g id="star-8"><g id="c-36"><path id="t-71" class="cls-5" d="M71.77,64.47l-.28,.86,.43,.14"/><path id="t-72" class="cls-5" d="M71.77,64.47l.28,.86-.43,.14"/></g><g id="c-37"><path id="t-73" class="cls-5" d="M72.63,65.1h-.9v.45"/><path id="t-74" class="cls-5" d="M72.63,65.1l-.73,.53-.27-.37"/></g><g id="c-38"><path id="t-75" class="cls-5" d="M70.91,65.1l.73,.53,.27-.37"/><path id="t-76" class="cls-5" d="M70.91,65.1h.9v.45"/></g><g id="c-39"><path id="t-77" class="cls-5" d="M72.3,66.11l-.28-.86-.43,.14"/><path id="t-78" class="cls-5" d="M72.3,66.11l-.73-.53,.27-.37"/></g><g id="c-40"><path id="t-79" class="cls-5" d="M71.24,66.11l.73-.53-.27-.37"/><path id="t-80" class="cls-5" d="M71.24,66.11l.28-.86,.43,.14"/></g></g></g></g><g id="Sco-2"><g id="star3-2"><g id="star-9"><g id="c-41"><path id="t-81" class="cls-5" d="M74.7,64.97l-.19,.57,.29,.09"/><path id="t-82" class="cls-5" d="M74.7,64.97l.19,.57-.29,.09"/></g><g id="c-42"><path id="t-83" class="cls-5" d="M75.27,65.39h-.6v.3"/><path id="t-84" class="cls-5" d="M75.27,65.39l-.49,.35-.18-.24"/></g><g id="c-43"><path id="t-85" class="cls-5" d="M74.12,65.39l.49,.35,.18-.24"/><path id="t-86" class="cls-5" d="M74.12,65.39h.6v.3"/></g><g id="c-44"><path id="t-87" class="cls-5" d="M75.05,66.06l-.19-.57-.29,.09"/><path id="t-88" class="cls-5" d="M75.05,66.06l-.49-.35,.18-.24"/></g><g id="c-45"><path id="t-89" class="cls-5" d="M74.34,66.06l.49-.35-.18-.24"/><path id="t-90" class="cls-5" d="M74.34,66.06l.19-.57,.29,.09"/></g></g></g></g><g id="Sco-3"><g id="star2-3"><g id="star-10"><g id="c-46"><path id="t-91" class="cls-5" d="M72.63,66.49l-.23,.72,.36,.12"/><path id="t-92" class="cls-5" d="M72.63,66.49l.23,.72-.36,.12"/></g><g id="c-47"><path id="t-93" class="cls-5" d="M73.35,67.01h-.75v.38"/><path id="t-94" class="cls-5" d="M73.35,67.01l-.61,.44-.22-.3"/></g><g id="c-48"><path id="t-95" class="cls-5" d="M71.92,67.01l.61,.44,.22-.3"/><path id="t-96" class="cls-5" d="M71.92,67.01h.75v.38"/></g><g id="c-49"><path id="t-97" class="cls-5" d="M73.07,67.85l-.23-.72-.36,.12"/><path id="t-98" class="cls-5" d="M73.07,67.85l-.61-.44,.22-.3"/></g><g id="c-50"><path id="t-99" class="cls-5" d="M72.19,67.85l.61-.44-.22-.3"/><path id="t-100" class="cls-5" d="M72.19,67.85l.23-.72,.36,.12"/></g></g></g></g><g id="Sco-4"><g id="star2-4"><g id="star-11"><g id="c-51"><path id="t-101" class="cls-5" d="M67.55,70.91l-.23,.72,.36,.12"/><path id="t-102" class="cls-5" d="M67.55,70.91l.23,.72-.36,.12"/></g><g id="c-52"><path id="t-103" class="cls-5" d="M68.27,71.43h-.75v.38"/><path id="t-104" class="cls-5" d="M68.27,71.43l-.61,.44-.22-.3"/></g><g id="c-53"><path id="t-105" class="cls-5" d="M66.84,71.43l.61,.44,.22-.3"/><path id="t-106" class="cls-5" d="M66.84,71.43h.75v.38"/></g><g id="c-54"><path id="t-107" class="cls-5" d="M68,72.27l-.23-.72-.36,.12"/><path id="t-108" class="cls-5" d="M68,72.27l-.61-.44,.22-.3"/></g><g id="c-55"><path id="t-109" class="cls-5" d="M67.11,72.27l.61-.44-.22-.3"/><path id="t-110" class="cls-5" d="M67.11,72.27l.23-.72,.36,.12"/></g></g></g></g><g id="Sco-5"><g id="star3-3"><g id="star-12"><g id="c-56"><path id="t-111" class="cls-5" d="M67.53,73.18l-.19,.57,.29,.09"/><path id="t-112" class="cls-5" d="M67.53,73.18l.19,.57-.29,.09"/></g><g id="c-57"><path id="t-113" class="cls-5" d="M68.1,73.6h-.6v.3"/><path id="t-114" class="cls-5" d="M68.1,73.6l-.49,.35-.18-.24"/></g><g id="c-58"><path id="t-115" class="cls-5" d="M66.95,73.6l.49,.35,.18-.24"/><path id="t-116" class="cls-5" d="M66.95,73.6h.6v.3"/></g><g id="c-59"><path id="t-117" class="cls-5" d="M67.88,74.27l-.19-.57-.29,.09"/><path id="t-118" class="cls-5" d="M67.88,74.27l-.49-.35,.18-.24"/></g><g id="c-60"><path id="t-119" class="cls-5" d="M67.17,74.27l.49-.35-.18-.24"/><path id="t-120" class="cls-5" d="M67.17,74.27l.19-.57,.29,.09"/></g></g></g></g><g id="Sco-6"><g id="star3-4"><g id="star-13"><g id="c-61"><path id="t-121" class="cls-5" d="M69.65,69.39l-.19,.57,.29,.09"/><path id="t-122" class="cls-5" d="M69.65,69.39l.19,.57-.29,.09"/></g><g id="c-62"><path id="t-123" class="cls-5" d="M70.22,69.81h-.6v.3"/><path id="t-124" class="cls-5" d="M70.22,69.81l-.49,.35-.18-.24"/></g><g id="c-63"><path id="t-125" class="cls-5" d="M69.08,69.81l.49,.35,.18-.24"/><path id="t-126" class="cls-5" d="M69.08,69.81h.6v.3"/></g><g id="c-64"><path id="t-127" class="cls-5" d="M70,70.48l-.19-.57-.29,.09"/><path id="t-128" class="cls-5" d="M70,70.48l-.49-.35,.18-.24"/></g><g id="c-65"><path id="t-129" class="cls-5" d="M69.29,70.48l.49-.35-.18-.24"/><path id="t-130" class="cls-5" d="M69.29,70.48l.19-.57,.29,.09"/></g></g></g></g><g id="Sco-7"><g id="star2-5"><g id="star-14"><g id="c-66"><path id="t-131" class="cls-5" d="M71.34,68.18l-.23,.72,.36,.12"/><path id="t-132" class="cls-5" d="M71.34,68.18l.23,.72-.36,.12"/></g><g id="c-67"><path id="t-133" class="cls-5" d="M72.06,68.7h-.75v.38"/><path id="t-134" class="cls-5" d="M72.06,68.7l-.61,.44-.22-.3"/></g><g id="c-68"><path id="t-135" class="cls-5" d="M70.62,68.7l.61,.44,.22-.3"/><path id="t-136" class="cls-5" d="M70.62,68.7h.75v.38"/></g><g id="c-69"><path id="t-137" class="cls-5" d="M71.78,69.54l-.23-.72-.36,.12"/><path id="t-138" class="cls-5" d="M71.78,69.54l-.61-.44,.22-.3"/></g><g id="c-70"><path id="t-139" class="cls-5" d="M70.9,69.54l.61-.44-.22-.3"/><path id="t-140" class="cls-5" d="M70.9,69.54l.23-.72,.36,.12"/></g></g></g></g><g id="Sco-8"><g id="star3-5"><g id="star-15"><g id="c-71"><path id="t-141" class="cls-5" d="M67.47,68.99l-.19,.57,.29,.09"/><path id="t-142" class="cls-5" d="M67.47,68.99l.19,.57-.29,.09"/></g><g id="c-72"><path id="t-143" class="cls-5" d="M68.04,69.41h-.6v.3"/><path id="t-144" class="cls-5" d="M68.04,69.41l-.49,.35-.18-.24"/></g><g id="c-73"><path id="t-145" class="cls-5" d="M66.9,69.41l.49,.35,.18-.24"/><path id="t-146" class="cls-5" d="M66.9,69.41h.6v.3"/></g><g id="c-74"><path id="t-147" class="cls-5" d="M67.82,70.08l-.19-.57-.29,.09"/><path id="t-148" class="cls-5" d="M67.82,70.08l-.49-.35,.18-.24"/></g><g id="c-75"><path id="t-149" class="cls-5" d="M67.11,70.08l.49-.35-.18-.24"/><path id="t-150" class="cls-5" d="M67.11,70.08l.19-.57,.29,.09"/></g></g></g></g><g id="Hya"><g id="star2-6"><g id="star-16"><g id="c-76"><path id="t-151" class="cls-5" d="M48.97,58.08l-.23,.72,.36,.12"/><path id="t-152" class="cls-5" d="M48.97,58.08l.23,.72-.36,.12"/></g><g id="c-77"><path id="t-153" class="cls-5" d="M49.68,58.6h-.75v.38"/><path id="t-154" class="cls-5" d="M49.68,58.6l-.61,.44-.22-.3"/></g><g id="c-78"><path id="t-155" class="cls-5" d="M48.25,58.6l.61,.44,.22-.3"/><path id="t-156" class="cls-5" d="M48.25,58.6h.75v.38"/></g><g id="c-79"><path id="t-157" class="cls-5" d="M49.41,59.45l-.23-.72-.36,.12"/><path id="t-158" class="cls-5" d="M49.41,59.45l-.61-.44,.22-.3"/></g><g id="c-80"><path id="t-159" class="cls-5" d="M48.52,59.45l.61-.44-.22-.3"/><path id="t-160" class="cls-5" d="M48.52,59.45l.23-.72,.36,.12"/></g></g></g></g><g id="Hya-2"><g id="star3-6"><g id="star-17"><g id="c-81"><path id="t-161" class="cls-5" d="M62.74,56.31l-.19,.57,.29,.09"/><path id="t-162" class="cls-5" d="M62.74,56.31l.19,.57-.29,.09"/></g><g id="c-82"><path id="t-163" class="cls-5" d="M63.31,56.73h-.6v.3"/><path id="t-164" class="cls-5" d="M63.31,56.73l-.49,.35-.18-.24"/></g><g id="c-83"><path id="t-165" class="cls-5" d="M62.16,56.73l.49,.35,.18-.24"/><path id="t-166" class="cls-5" d="M62.16,56.73h.6v.3"/></g><g id="c-84"><path id="t-167" class="cls-5" d="M63.09,57.4l-.19-.57-.29,.09"/><path id="t-168" class="cls-5" d="M63.09,57.4l-.49-.35,.18-.24"/></g><g id="c-85"><path id="t-169" class="cls-5" d="M62.38,57.4l.49-.35-.18-.24"/><path id="t-170" class="cls-5" d="M62.38,57.4l.19-.57,.29,.09"/></g></g></g></g><g id="Cru"><g id="star1-5"><g id="star-18"><g id="c-86"><path id="t-171" class="cls-5" d="M57,66.54l-.28,.86,.43,.14"/><path id="t-172" class="cls-5" d="M57,66.54l.28,.86-.43,.14"/></g><g id="c-87"><path id="t-173" class="cls-5" d="M57.86,67.16h-.9v.45"/><path id="t-174" class="cls-5" d="M57.86,67.16l-.73,.53-.27-.37"/></g><g id="c-88"><path id="t-175" class="cls-5" d="M56.14,67.16l.73,.53,.27-.37"/><path id="t-176" class="cls-5" d="M56.14,67.16h.9v.45"/></g><g id="c-89"><path id="t-177" class="cls-5" d="M57.53,68.17l-.28-.86-.43,.14"/><path id="t-178" class="cls-5" d="M57.53,68.17l-.73-.53,.27-.37"/></g><g id="c-90"><path id="t-179" class="cls-5" d="M56.47,68.17l.73-.53-.27-.37"/><path id="t-180" class="cls-5" d="M56.47,68.17l.28-.86,.43,.14"/></g></g></g></g><g id="Cru-2"><g id="star2-7"><g id="star-19"><g id="c-91"><path id="t-181" class="cls-5" d="M59.44,62.5l-.23,.72,.36,.12"/><path id="t-182" class="cls-5" d="M59.44,62.5l.23,.72-.36,.12"/></g><g id="c-92"><path id="t-183" class="cls-5" d="M60.15,63.02h-.75v.38"/><path id="t-184" class="cls-5" d="M60.15,63.02l-.61,.44-.22-.3"/></g><g id="c-93"><path id="t-185" class="cls-5" d="M58.72,63.02l.61,.44,.22-.3"/><path id="t-186" class="cls-5" d="M58.72,63.02h.75v.38"/></g><g id="c-94"><path id="t-187" class="cls-5" d="M59.88,63.86l-.23-.72-.36,.12"/><path id="t-188" class="cls-5" d="M59.88,63.86l-.61-.44,.22-.3"/></g><g id="c-95"><path id="t-189" class="cls-5" d="M58.99,63.86l.61-.44-.22-.3"/><path id="t-190" class="cls-5" d="M58.99,63.86l.23-.72,.36,.12"/></g></g></g></g><g id="Cru-3"><g id="star2-8"><g id="star-20"><g id="c-96"><path id="t-191" class="cls-5" d="M57,60.61l-.23,.72,.36,.12"/><path id="t-192" class="cls-5" d="M57,60.61l.23,.72-.36,.12"/></g><g id="c-97"><path id="t-193" class="cls-5" d="M57.71,61.13h-.75v.38"/><path id="t-194" class="cls-5" d="M57.71,61.13l-.61,.44-.22-.3"/></g><g id="c-98"><path id="t-195" class="cls-5" d="M56.28,61.13l.61,.44,.22-.3"/><path id="t-196" class="cls-5" d="M56.28,61.13h.75v.38"/></g><g id="c-99"><path id="t-197" class="cls-5" d="M57.44,61.97l-.23-.72-.36,.12"/><path id="t-198" class="cls-5" d="M57.44,61.97l-.61-.44,.22-.3"/></g><g id="c-100"><path id="t-199" class="cls-5" d="M56.56,61.97l.61-.44-.22-.3"/><path id="t-200" class="cls-5" d="M56.56,61.97l.23-.72,.36,.12"/></g></g></g></g><g id="Cru-4"><g id="star3-7"><g id="star-21"><g id="c-101"><path id="t-201" class="cls-5" d="M54.88,62.65l-.19,.57,.29,.09"/><path id="t-202" class="cls-5" d="M54.88,62.65l.19,.57-.29,.09"/></g><g id="c-102"><path id="t-203" class="cls-5" d="M55.45,63.07h-.6v.3"/><path id="t-204" class="cls-5" d="M55.45,63.07l-.49,.35-.18-.24"/></g><g id="c-103"><path id="t-205" class="cls-5" d="M54.3,63.07l.49,.35,.18-.24"/><path id="t-206" class="cls-5" d="M54.3,63.07h.6v.3"/></g><g id="c-104"><path id="t-207" class="cls-5" d="M55.23,63.74l-.19-.57-.29,.09"/><path id="t-208" class="cls-5" d="M55.23,63.74l-.49-.35,.18-.24"/></g><g id="c-105"><path id="t-209" class="cls-5" d="M54.52,63.74l.49-.35-.18-.24"/><path id="t-210" class="cls-5" d="M54.52,63.74l.19-.57,.29,.09"/></g></g></g></g><g id="Cru-5"><g id="star4-2"><g id="star-22"><g id="c-106"><path id="t-211" class="cls-5" d="M55.94,64.29l-.13,.41,.2,.07"/><path id="t-212" class="cls-5" d="M55.94,64.29l.13,.41-.2,.07"/></g><g id="c-107"><path id="t-213" class="cls-5" d="M56.35,64.58h-.43v.22"/><path id="t-214" class="cls-5" d="M56.35,64.58l-.35,.25-.13-.17"/></g><g id="c-108"><path id="t-215" class="cls-5" d="M55.53,64.58l.35,.25,.13-.17"/><path id="t-216" class="cls-5" d="M55.53,64.58h.43v.22"/></g><g id="c-109"><path id="t-217" class="cls-5" d="M56.19,65.06l-.13-.41-.2,.07"/><path id="t-218" class="cls-5" d="M56.19,65.06l-.35-.25,.13-.17"/></g><g id="c-110"><path id="t-219" class="cls-5" d="M55.68,65.06l.35-.25-.13-.17"/><path id="t-220" class="cls-5" d="M55.68,65.06l.13-.41,.2,.07"/></g></g></g></g><g id="TrA"><g id="star2-9"><g id="star-23"><g id="c-111"><path id="t-221" class="cls-5" d="M63.31,71.42l-.23,.72,.36,.12"/><path id="t-222" class="cls-5" d="M63.31,71.42l.23,.72-.36,.12"/></g><g id="c-112"><path id="t-223" class="cls-5" d="M64.03,71.94h-.75v.38"/><path id="t-224" class="cls-5" d="M64.03,71.94l-.61,.44-.22-.3"/></g><g id="c-113"><path id="t-225" class="cls-5" d="M62.59,71.94l.61,.44,.22-.3"/><path id="t-226" class="cls-5" d="M62.59,71.94h.75v.38"/></g><g id="c-114"><path id="t-227" class="cls-5" d="M63.75,72.78l-.23-.72-.36,.12"/><path id="t-228" class="cls-5" d="M63.75,72.78l-.61-.44,.22-.3"/></g><g id="c-115"><path id="t-229" class="cls-5" d="M62.87,72.78l.61-.44-.22-.3"/><path id="t-230" class="cls-5" d="M62.87,72.78l.23-.72,.36,.12"/></g></g></g></g><g id="TrA-2"><g id="star3-8"><g id="star-24"><g id="c-116"><path id="t-231" class="cls-5" d="M65.12,69.71l-.19,.57,.29,.09"/><path id="t-232" class="cls-5" d="M65.12,69.71l.19,.57-.29,.09"/></g><g id="c-117"><path id="t-233" class="cls-5" d="M65.69,70.12h-.6v.3"/><path id="t-234" class="cls-5" d="M65.69,70.12l-.49,.35-.18-.24"/></g><g id="c-118"><path id="t-235" class="cls-5" d="M64.54,70.12l.49,.35,.18-.24"/><path id="t-236" class="cls-5" d="M64.54,70.12h.6v.3"/></g><g id="c-119"><path id="t-237" class="cls-5" d="M65.47,70.8l-.19-.57-.29,.09"/><path id="t-238" class="cls-5" d="M65.47,70.8l-.49-.35,.18-.24"/></g><g id="c-120"><path id="t-239" class="cls-5" d="M64.76,70.8l.49-.35-.18-.24"/><path id="t-240" class="cls-5" d="M64.76,70.8l.19-.57,.29,.09"/></g></g></g></g><g id="TrA-3"><g id="star3-9"><g id="star-25"><g id="c-121"><path id="t-241" class="cls-5" d="M61.65,69.19l-.19,.57,.29,.09"/><path id="t-242" class="cls-5" d="M61.65,69.19l.19,.57-.29,.09"/></g><g id="c-122"><path id="t-243" class="cls-5" d="M62.22,69.61h-.6v.3"/><path id="t-244" class="cls-5" d="M62.22,69.61l-.49,.35-.18-.24"/></g><g id="c-123"><path id="t-245" class="cls-5" d="M61.07,69.61l.49,.35,.18-.24"/><path id="t-246" class="cls-5" d="M61.07,69.61h.6v.3"/></g><g id="c-124"><path id="t-247" class="cls-5" d="M62,70.28l-.19-.57-.29,.09"/><path id="t-248" class="cls-5" d="M62,70.28l-.49-.35,.18-.24"/></g><g id="c-125"><path id="t-249" class="cls-5" d="M61.29,70.28l.49-.35-.18-.24"/><path id="t-250" class="cls-5" d="M61.29,70.28l.19-.57,.29,.09"/></g></g></g></g><g id="Car"><g id="star1-6"><g id="star-26"><g id="c-126"><path id="t-251" class="cls-5" d="M48.54,68.26l-.28,.86,.43,.14"/><path id="t-252" class="cls-5" d="M48.54,68.26l.28,.86-.43,.14"/></g><g id="c-127"><path id="t-253" class="cls-5" d="M49.4,68.88h-.9v.45"/><path id="t-254" class="cls-5" d="M49.4,68.88l-.73,.53-.27-.37"/></g><g id="c-128"><path id="t-255" class="cls-5" d="M47.68,68.88l.73,.53,.27-.37"/><path id="t-256" class="cls-5" d="M47.68,68.88h.9v.45"/></g><g id="c-129"><path id="t-257" class="cls-5" d="M49.07,69.89l-.28-.86-.43,.14"/><path id="t-258" class="cls-5" d="M49.07,69.89l-.73-.53,.27-.37"/></g><g id="c-130"><path id="t-259" class="cls-5" d="M48,69.89l.73-.53-.27-.37"/><path id="t-260" class="cls-5" d="M48,69.89l.28-.86,.43,.14"/></g></g></g></g><g id="Oct"><g id="star5"><g id="star-27"><g id="c-131"><path id="t-261" class="cls-5" d="M57,74.17l-.09,.29,.14,.05"/><path id="t-262" class="cls-5" d="M57,74.17l.09,.29-.14,.05"/></g><g id="c-132"><path id="t-263" class="cls-5" d="M57.28,74.38h-.3v.15"/><path id="t-264" class="cls-5" d="M57.28,74.38l-.24,.18-.09-.12"/></g><g id="c-133"><path id="t-265" class="cls-5" d="M56.71,74.38l.24,.18,.09-.12"/><path id="t-266" class="cls-5" d="M56.71,74.38h.3v.15"/></g><g id="c-134"><path id="t-267" class="cls-5" d="M57.18,74.71l-.09-.29-.14,.05"/><path id="t-268" class="cls-5" d="M57.18,74.71l-.24-.18,.09-.12"/></g><g id="c-135"><path id="t-269" class="cls-5" d="M56.82,74.71l.24-.18-.09-.12"/><path id="t-270" class="cls-5" d="M56.82,74.71l.09-.29,.14,.05"/></g></g></g></g></g><circle class="cls-2" cx="57.11" cy="57.11" r="56.11" transform="translate(-12.5 98.06) rotate(-75.47)"/></g></g></svg>