<?xml version="1.0" encoding="UTF-8"?><svg id="Capa_2" xmlns="http://www.w3.org/2000/svg" xmlns:xlink="http://www.w3.org/1999/xlink" viewBox="0 0 114.21 114.21"><defs><style>.cls-1,.cls-2{fill:none;}.cls-3{clip-path:url(#clippath);}.cls-4{fill:#fff;}.cls-5{fill:#152762;}.cls-6,.cls-7{stroke-width:11.47px;}.cls-6,.cls-7,.cls-2,.cls-8{stroke-miterlimit:10;}.cls-6,.cls-9{stroke:#e3092c;}.cls-7,.cls-2,.cls-8{stroke:#fff;}.cls-10{clip-path:url(#clippath-1);}.cls-2{stroke-width:2px;}.cls-8{stroke-width:19.11px;}.cls-9{stroke-miterlimit:426.67;stroke-width:7.64px;}</style><clipPath id="clippath"><circle class="cls-2" cx="57.11" cy="57.11" r="56.11"/></clipPath><clipPath id="clippath-1"><path class="cls-1" d="M-49.39,.87V29.54H84.39v28.67h-19.11L-49.39,.87ZM65.28,.87H7.94V67.76H-49.39v-9.56L65.28,.87Z"/></clipPath></defs><g id="Capa_1-2"><g><g class="cls-3"><g><path class="cls-5" d="M-49.39,.87H179.94V115.54H-49.39V.87Z"/><path class="cls-7" d="M-49.39,.87L65.28,58.2m0-57.33L-49.39,58.2"/><g class="cls-10"><path class="cls-9" d="M-49.39,.87L65.28,58.2m0-57.33L-49.39,58.2"/></g><path class="cls-8" d="M7.94,.87V67.76M-49.39,29.54H84.39"/><path class="cls-6" d="M7.94,.87V67.76M-49.39,29.54H84.39"/><path class="cls-5" d="M-49.39,58.2H65.28V.87h38.22V77.32H-49.39v-19.11Z"/><g><g id="c"><path id="a" class="cls-4" d="M7.94,69.67l3.32,10.31,10.13-3.84-5.99,9.02,9.32,5.53-10.79,.94,1.49,10.73-7.46-7.85L.48,102.37l1.49-10.73-10.79-.94L.49,85.17l-5.99-9.02,10.13,3.84,3.32-10.31Z"/></g><path id="a-2" class="cls-4" d="M93.94,42.85l1.58,4.91,4.82-1.83-2.85,4.3,4.44,2.63-5.14,.45,.71,5.11-3.55-3.74-3.55,3.74,.71-5.11-5.14-.45,4.44-2.63-2.85-4.3,4.82,1.83,1.58-4.91Z"/></g></g></g><circle class="cls-2" cx="57.11" cy="57.11" r="56.11"/></g></g></svg>