<?xml version="1.0" encoding="UTF-8"?><svg id="Capa_2" xmlns="http://www.w3.org/2000/svg" viewBox="0 0 472.25 237.21"><defs><style>.cls-1{fill:#fff;}.cls-2,.cls-3{fill:#8aa512;}.cls-4{fill:#c6c6c6;}.cls-5{fill:#09612d;}.cls-3{fill-rule:evenodd;}</style></defs><g id="TRAZADO"><g id="Mapa"><circle class="cls-4" cx="3.41" cy="35.01" r="3.41"/><circle class="cls-4" cx="11.23" cy="35.01" r="3.41"/><circle class="cls-4" cx="19.04" cy="35.01" r="3.41"/><circle class="cls-4" cx="26.85" cy="35.01" r="3.41"/><circle class="cls-4" cx="34.67" cy="35.01" r="3.41"/><circle class="cls-4" cx="42.48" cy="35.01" r="3.41"/><circle class="cls-4" cx="50.3" cy="35.01" r="3.41"/><circle class="cls-4" cx="58.11" cy="35.01" r="3.41"/><circle class="cls-4" cx="65.93" cy="35.01" r="3.41"/><circle class="cls-4" cx="73.57" cy="35.01" r="3.41"/><circle class="cls-4" cx="81.38" cy="35.01" r="3.41"/><circle class="cls-4" cx="97.01" cy="35.01" r="3.41"/><circle class="cls-4" cx="104.83" cy="35.01" r="3.41"/><circle class="cls-4" cx="112.64" cy="35.01" r="3.41"/><circle class="cls-4" cx="120.46" cy="35.01" r="3.41"/><circle class="cls-4" cx="128.27" cy="35.01" r="3.41"/><circle class="cls-4" cx="73.57" cy="26.88" r="3.41"/><circle class="cls-4" cx="81.38" cy="26.88" r="3.41"/><circle class="cls-4" cx="58.11" cy="10.85" r="3.41"/><circle class="cls-4" cx="65.93" cy="10.85" r="3.41"/><circle class="cls-4" cx="97.01" cy="10.85" r="3.41"/><circle class="cls-4" cx="97.01" cy="26.88" r="3.41"/><circle class="cls-4" cx="104.83" cy="26.88" r="3.41"/><circle class="cls-4" cx="112.64" cy="26.88" r="3.41"/><circle class="cls-4" cx="120.46" cy="26.88" r="3.41"/><circle class="cls-4" cx="128.27" cy="26.88" r="3.41"/><circle class="cls-4" cx="11.23" cy="26.88" r="3.41"/><circle class="cls-4" cx="19.04" cy="26.88" r="3.41"/><circle class="cls-4" cx="128.27" cy="42.94" r="3.41"/><circle class="cls-4" cx="136.09" cy="42.94" r="3.41"/><circle class="cls-4" cx="128.27" cy="50.87" r="3.41"/><circle class="cls-4" cx="136.09" cy="50.87" r="3.41"/><circle class="cls-4" cx="120.95" cy="58.8" r="3.41"/><circle class="cls-4" cx="128.77" cy="58.8" r="3.41"/><circle class="cls-4" cx="3.41" cy="42.94" r="3.41"/><circle class="cls-4" cx="11.21" cy="42.94" r="3.41"/><circle class="cls-4" cx="19.01" cy="42.94" r="3.41"/><circle class="cls-4" cx="26.81" cy="42.94" r="3.41"/><circle class="cls-4" cx="34.62" cy="42.94" r="3.41"/><circle class="cls-4" cx="42.42" cy="42.94" r="3.41"/><circle class="cls-4" cx="50.22" cy="42.94" r="3.41"/><circle class="cls-4" cx="58.02" cy="42.94" r="3.41"/><circle class="cls-4" cx="65.82" cy="42.94" r="3.41"/><circle class="cls-4" cx="73.62" cy="42.94" r="3.41"/><circle class="cls-4" cx="81.42" cy="42.94" r="3.41"/><circle class="cls-4" cx="89.22" cy="42.94" r="3.41"/><circle class="cls-4" cx="97.02" cy="42.94" r="3.41"/><circle class="cls-4" cx="104.82" cy="42.94" r="3.41"/><circle class="cls-4" cx="3.41" cy="58.8" r="3.41"/><circle class="cls-4" cx="11.2" cy="58.8" r="3.41"/><circle class="cls-4" cx="18.99" cy="58.8" r="3.41"/><circle class="cls-4" cx="120.48" cy="66.73" r="3.41"/><circle class="cls-4" cx="128.27" cy="66.73" r="3.41"/><circle class="cls-4" cx="136.06" cy="66.73" r="3.41"/><circle class="cls-4" cx="18.99" cy="66.73" r="3.41"/><circle class="cls-4" cx="11.23" cy="50.87" r="3.41"/><circle class="cls-4" cx="19.03" cy="50.87" r="3.41"/><circle class="cls-4" cx="26.83" cy="50.87" r="3.41"/><circle class="cls-4" cx="34.63" cy="50.87" r="3.41"/><circle class="cls-4" cx="42.43" cy="50.87" r="3.41"/><circle class="cls-4" cx="50.23" cy="50.87" r="3.41"/><circle class="cls-4" cx="58.03" cy="50.87" r="3.41"/><circle class="cls-4" cx="65.83" cy="50.87" r="3.41"/><circle class="cls-4" cx="73.63" cy="50.87" r="3.41"/><circle class="cls-4" cx="81.43" cy="50.87" r="3.41"/><circle class="cls-4" cx="89.23" cy="50.87" r="3.41"/><circle class="cls-4" cx="97.03" cy="50.87" r="3.41"/><circle class="cls-4" cx="104.82" cy="50.87" r="3.41"/><circle class="cls-4" cx="50.24" cy="74.66" r="3.41"/><circle class="cls-4" cx="58.04" cy="74.66" r="3.41"/><circle class="cls-4" cx="65.84" cy="74.66" r="3.41"/><circle class="cls-4" cx="73.64" cy="74.66" r="3.41"/><circle class="cls-4" cx="81.44" cy="74.66" r="3.41"/><circle class="cls-4" cx="89.24" cy="74.66" r="3.41"/><circle class="cls-4" cx="97.04" cy="74.66" r="3.41"/><circle class="cls-4" cx="104.84" cy="74.66" r="3.41"/><circle class="cls-4" cx="112.64" cy="74.66" r="3.41"/><circle class="cls-4" cx="120.44" cy="74.66" r="3.41"/><circle class="cls-4" cx="128.24" cy="74.66" r="3.41"/><circle class="cls-4" cx="136.04" cy="74.66" r="3.41"/><circle class="cls-4" cx="143.83" cy="74.66" r="3.41"/><circle class="cls-4" cx="237.61" cy="74.66" r="3.41"/><circle class="cls-4" cx="245.06" cy="74.66" r="3.41"/><circle class="cls-4" cx="252.52" cy="74.66" r="3.41"/><circle class="cls-4" cx="259.98" cy="74.66" r="3.41"/><circle class="cls-4" cx="267.44" cy="74.66" r="3.41"/><circle class="cls-4" cx="274.9" cy="74.66" r="3.41"/><circle class="cls-4" cx="282.35" cy="74.66" r="3.41"/><circle class="cls-4" cx="289.81" cy="74.66" r="3.41"/><circle class="cls-4" cx="297.27" cy="74.66" r="3.41"/><circle class="cls-4" cx="304.73" cy="74.66" r="3.41"/><circle class="cls-4" cx="312.19" cy="74.66" r="3.41"/><circle class="cls-4" cx="319.64" cy="74.66" r="3.41"/><circle class="cls-4" cx="327.1" cy="74.66" r="3.41"/><circle class="cls-4" cx="334.56" cy="74.66" r="3.41"/><circle class="cls-4" cx="342.02" cy="74.66" r="3.41"/><circle class="cls-4" cx="349.48" cy="74.66" r="3.41"/><circle class="cls-4" cx="356.93" cy="74.66" r="3.41"/><circle class="cls-4" cx="364.39" cy="74.66" r="3.41"/><circle class="cls-4" cx="371.85" cy="74.66" r="3.41"/><circle class="cls-4" cx="379.31" cy="74.66" r="3.41"/><circle class="cls-4" cx="386.77" cy="74.66" r="3.41"/><circle class="cls-4" cx="394.22" cy="74.66" r="3.41"/><circle class="cls-4" cx="401.68" cy="74.66" r="3.41"/><circle class="cls-4" cx="409.14" cy="74.66" r="3.41"/><circle class="cls-4" cx="222.73" cy="82.59" r="3.41"/><circle class="cls-4" cx="230.19" cy="82.59" r="3.41"/><circle class="cls-4" cx="237.64" cy="82.59" r="3.41"/><circle class="cls-4" cx="245.1" cy="82.59" r="3.41"/><circle class="cls-4" cx="252.56" cy="82.59" r="3.41"/><circle class="cls-4" cx="260.01" cy="82.59" r="3.41"/><circle class="cls-4" cx="267.47" cy="82.59" r="3.41"/><circle class="cls-4" cx="274.93" cy="82.59" r="3.41"/><circle class="cls-4" cx="282.38" cy="82.59" r="3.41"/><circle class="cls-4" cx="289.84" cy="82.59" r="3.41"/><circle class="cls-4" cx="297.29" cy="82.59" r="3.41"/><circle class="cls-4" cx="304.75" cy="82.59" r="3.41"/><circle class="cls-4" cx="312.21" cy="82.59" r="3.41"/><circle class="cls-4" cx="319.66" cy="82.59" r="3.41"/><circle class="cls-4" cx="327.12" cy="82.59" r="3.41"/><circle class="cls-4" cx="334.58" cy="82.59" r="3.41"/><circle class="cls-4" cx="342.03" cy="82.59" r="3.41"/><circle class="cls-4" cx="349.49" cy="82.59" r="3.41"/><circle class="cls-4" cx="356.95" cy="82.59" r="3.41"/><circle class="cls-4" cx="364.4" cy="82.59" r="3.41"/><circle class="cls-4" cx="371.86" cy="82.59" r="3.41"/><circle class="cls-4" cx="379.31" cy="82.59" r="3.41"/><circle class="cls-4" cx="386.77" cy="82.59" r="3.41"/><circle class="cls-4" cx="394.23" cy="82.59" r="3.41"/><circle class="cls-4" cx="401.68" cy="82.59" r="3.41"/><circle class="cls-4" cx="409.14" cy="82.59" r="3.41"/><circle class="cls-4" cx="222.66" cy="90.52" r="3.41"/><circle class="cls-4" cx="230.12" cy="90.52" r="3.41"/><circle class="cls-4" cx="237.57" cy="90.52" r="3.41"/><circle class="cls-4" cx="245.03" cy="90.52" r="3.41"/><circle class="cls-4" cx="252.49" cy="90.52" r="3.41"/><circle class="cls-4" cx="259.95" cy="90.52" r="3.41"/><circle class="cls-4" cx="267.41" cy="90.52" r="3.41"/><circle class="cls-4" cx="274.87" cy="90.52" r="3.41"/><circle class="cls-4" cx="282.33" cy="90.52" r="3.41"/><circle class="cls-4" cx="289.79" cy="90.52" r="3.41"/><circle class="cls-4" cx="297.25" cy="90.52" r="3.41"/><circle class="cls-4" cx="304.71" cy="90.52" r="3.41"/><circle class="cls-4" cx="312.17" cy="90.52" r="3.41"/><circle class="cls-4" cx="319.63" cy="90.52" r="3.41"/><circle class="cls-4" cx="327.09" cy="90.52" r="3.41"/><circle class="cls-4" cx="334.55" cy="90.52" r="3.41"/><circle class="cls-4" cx="342.01" cy="90.52" r="3.41"/><circle class="cls-4" cx="349.47" cy="90.52" r="3.41"/><circle class="cls-4" cx="356.92" cy="90.52" r="3.41"/><circle class="cls-4" cx="364.38" cy="90.52" r="3.41"/><circle class="cls-4" cx="371.84" cy="90.52" r="3.41"/><circle class="cls-4" cx="379.3" cy="90.52" r="3.41"/><circle class="cls-4" cx="386.76" cy="90.52" r="3.41"/><circle class="cls-4" cx="394.22" cy="90.52" r="3.41"/><circle class="cls-4" cx="401.68" cy="90.52" r="3.41"/><circle class="cls-4" cx="409.14" cy="90.52" r="3.41"/><circle class="cls-4" cx="215.11" cy="98.34" r="3.41"/><circle class="cls-4" cx="222.58" cy="98.35" r="3.41"/><circle class="cls-4" cx="237.5" cy="98.36" r="3.41"/><circle class="cls-4" cx="244.96" cy="98.36" r="3.41"/><circle class="cls-4" cx="252.43" cy="98.36" r="3.41"/><circle class="cls-4" cx="274.81" cy="98.38" r="3.41"/><circle class="cls-4" cx="282.28" cy="98.38" r="3.41"/><circle class="cls-4" cx="289.74" cy="98.38" r="3.41"/><circle class="cls-4" cx="297.2" cy="98.39" r="3.41"/><circle class="cls-4" cx="304.66" cy="98.39" r="3.41"/><circle class="cls-4" cx="312.13" cy="98.4" r="3.41"/><circle class="cls-4" cx="319.59" cy="98.4" r="3.41"/><circle class="cls-4" cx="327.05" cy="98.4" r="3.41"/><circle class="cls-4" cx="334.51" cy="98.41" r="3.41"/><circle class="cls-4" cx="341.98" cy="98.41" r="3.41"/><circle class="cls-4" cx="349.44" cy="98.41" r="3.41"/><circle class="cls-4" cx="356.9" cy="98.42" r="3.41"/><circle class="cls-4" cx="364.36" cy="98.42" r="3.41"/><circle class="cls-4" cx="371.83" cy="98.43" r="3.41"/><circle class="cls-4" cx="379.29" cy="98.43" r="3.41"/><circle class="cls-4" cx="386.75" cy="98.43" r="3.41"/><circle class="cls-4" cx="394.22" cy="98.44" r="3.41"/><circle class="cls-4" cx="409.14" cy="98.45" r="3.41"/><circle class="cls-4" cx="215.11" cy="106.38" r="3.41"/><circle class="cls-4" cx="252.43" cy="106.38" r="3.41"/><circle class="cls-4" cx="259.89" cy="106.38" r="3.41"/><circle class="cls-4" cx="267.35" cy="106.38" r="3.41"/><circle class="cls-4" cx="274.81" cy="106.38" r="3.41"/><circle class="cls-4" cx="282.28" cy="106.38" r="3.41"/><circle class="cls-4" cx="289.74" cy="106.38" r="3.41"/><circle class="cls-4" cx="297.2" cy="106.38" r="3.41"/><circle class="cls-4" cx="304.66" cy="106.38" r="3.41"/><circle class="cls-4" cx="312.13" cy="106.38" r="3.41"/><circle class="cls-4" cx="319.59" cy="106.38" r="3.41"/><circle class="cls-4" cx="327.05" cy="106.38" r="3.41"/><circle class="cls-4" cx="334.51" cy="106.38" r="3.41"/><circle class="cls-4" cx="341.98" cy="106.38" r="3.41"/><circle class="cls-4" cx="349.44" cy="106.38" r="3.41"/><circle class="cls-4" cx="356.9" cy="106.38" r="3.41"/><circle class="cls-4" cx="364.36" cy="106.38" r="3.41"/><circle class="cls-4" cx="371.83" cy="106.38" r="3.41"/><circle class="cls-4" cx="379.29" cy="106.38" r="3.41"/><circle class="cls-4" cx="386.75" cy="106.38" r="3.41"/><circle class="cls-4" cx="215.11" cy="114.31" r="3.41"/><circle class="cls-4" cx="222.58" cy="114.31" r="3.41"/><circle class="cls-4" cx="230.04" cy="114.31" r="3.41"/><circle class="cls-4" cx="267.35" cy="114.31" r="3.41"/><circle class="cls-4" cx="274.81" cy="114.31" r="3.41"/><circle class="cls-4" cx="282.28" cy="114.31" r="3.41"/><circle class="cls-4" cx="289.74" cy="114.31" r="3.41"/><circle class="cls-4" cx="297.2" cy="114.31" r="3.41"/><circle class="cls-4" cx="304.66" cy="114.31" r="3.41"/><circle class="cls-4" cx="312.13" cy="114.31" r="3.41"/><circle class="cls-4" cx="319.59" cy="114.31" r="3.41"/><circle class="cls-4" cx="327.05" cy="114.31" r="3.41"/><circle class="cls-4" cx="334.51" cy="114.31" r="3.41"/><circle class="cls-4" cx="341.98" cy="114.31" r="3.41"/><circle class="cls-4" cx="349.44" cy="114.31" r="3.41"/><circle class="cls-4" cx="356.9" cy="114.31" r="3.41"/><circle class="cls-4" cx="364.36" cy="114.31" r="3.41"/><circle class="cls-4" cx="371.83" cy="114.31" r="3.41"/><circle class="cls-4" cx="379.29" cy="114.31" r="3.41"/><circle class="cls-4" cx="394.22" cy="114.31" r="3.41"/><circle class="cls-4" cx="207.5" cy="122.23" r="3.41"/><circle class="cls-4" cx="214.97" cy="122.23" r="3.41"/><circle class="cls-4" cx="222.44" cy="122.23" r="3.41"/><circle class="cls-4" cx="229.9" cy="122.23" r="3.41"/><circle class="cls-4" cx="237.37" cy="122.23" r="3.41"/><circle class="cls-4" cx="244.84" cy="122.23" r="3.41"/><circle class="cls-4" cx="252.31" cy="122.23" r="3.41"/><circle class="cls-4" cx="259.78" cy="122.23" r="3.41"/><circle class="cls-4" cx="267.25" cy="122.23" r="3.41"/><circle class="cls-4" cx="274.71" cy="122.23" r="3.41"/><circle class="cls-4" cx="282.18" cy="122.23" r="3.41"/><circle class="cls-4" cx="289.65" cy="122.23" r="3.41"/><circle class="cls-4" cx="297.12" cy="122.23" r="3.41"/><circle class="cls-4" cx="304.59" cy="122.23" r="3.41"/><circle class="cls-4" cx="312.05" cy="122.23" r="3.41"/><circle class="cls-4" cx="319.52" cy="122.23" r="3.41"/><circle class="cls-4" cx="326.99" cy="122.23" r="3.41"/><circle class="cls-4" cx="334.46" cy="122.23" r="3.41"/><circle class="cls-4" cx="341.93" cy="122.23" r="3.41"/><circle class="cls-4" cx="349.39" cy="122.23" r="3.41"/><circle class="cls-4" cx="356.86" cy="122.23" r="3.41"/><circle class="cls-4" cx="364.33" cy="122.23" r="3.41"/><circle class="cls-4" cx="371.8" cy="122.23" r="3.41"/><circle class="cls-4" cx="379.27" cy="122.23" r="3.41"/><circle class="cls-4" cx="207.5" cy="130.16" r="3.41"/><circle class="cls-4" cx="214.97" cy="130.16" r="3.41"/><circle class="cls-4" cx="222.44" cy="130.16" r="3.41"/><circle class="cls-4" cx="229.9" cy="130.16" r="3.41"/><circle class="cls-4" cx="237.37" cy="130.16" r="3.41"/><circle class="cls-4" cx="244.84" cy="130.16" r="3.41"/><circle class="cls-4" cx="252.31" cy="130.16" r="3.41"/><circle class="cls-4" cx="259.78" cy="130.16" r="3.41"/><circle class="cls-4" cx="267.25" cy="130.16" r="3.41"/><circle class="cls-4" cx="274.71" cy="130.16" r="3.41"/><circle class="cls-4" cx="282.18" cy="130.16" r="3.41"/><circle class="cls-4" cx="289.65" cy="130.16" r="3.41"/><circle class="cls-4" cx="297.12" cy="130.16" r="3.41"/><circle class="cls-4" cx="312.05" cy="130.16" r="3.41"/><circle class="cls-4" cx="319.52" cy="130.16" r="3.41"/><circle class="cls-4" cx="326.99" cy="130.16" r="3.41"/><circle class="cls-4" cx="334.46" cy="130.16" r="3.41"/><circle class="cls-4" cx="341.93" cy="130.16" r="3.41"/><circle class="cls-4" cx="349.39" cy="130.16" r="3.41"/><circle class="cls-4" cx="356.86" cy="130.16" r="3.41"/><circle class="cls-4" cx="364.33" cy="130.16" r="3.41"/><circle class="cls-4" cx="371.8" cy="130.16" r="3.41"/><circle class="cls-4" cx="207.5" cy="138.09" r="3.41"/><circle class="cls-4" cx="214.97" cy="138.09" r="3.41"/><circle class="cls-4" cx="222.44" cy="138.09" r="3.41"/><circle class="cls-4" cx="229.9" cy="138.09" r="3.41"/><circle class="cls-4" cx="237.37" cy="138.09" r="3.41"/><circle class="cls-4" cx="244.84" cy="138.09" r="3.41"/><circle class="cls-4" cx="252.31" cy="138.09" r="3.41"/><circle class="cls-4" cx="259.78" cy="138.09" r="3.41"/><circle class="cls-4" cx="267.25" cy="138.09" r="3.41"/><circle class="cls-4" cx="282.18" cy="138.09" r="3.41"/><circle class="cls-4" cx="289.65" cy="138.09" r="3.41"/><circle class="cls-4" cx="326.99" cy="138.09" r="3.41"/><circle class="cls-4" cx="334.46" cy="138.09" r="3.41"/><circle class="cls-4" cx="341.93" cy="138.09" r="3.41"/><circle class="cls-4" cx="349.39" cy="138.09" r="3.41"/><circle class="cls-4" cx="356.86" cy="138.09" r="3.41"/><circle class="cls-4" cx="364.33" cy="138.09" r="3.41"/><circle class="cls-4" cx="207.5" cy="146.02" r="3.41"/><circle class="cls-4" cx="214.97" cy="146.02" r="3.41"/><circle class="cls-4" cx="222.44" cy="146.02" r="3.41"/><circle class="cls-4" cx="229.9" cy="146.02" r="3.41"/><circle class="cls-4" cx="237.37" cy="146.02" r="3.41"/><circle class="cls-4" cx="244.84" cy="146.02" r="3.41"/><circle class="cls-4" cx="252.31" cy="146.02" r="3.41"/><circle class="cls-4" cx="259.78" cy="146.02" r="3.41"/><circle class="cls-4" cx="267.25" cy="146.02" r="3.41"/><circle class="cls-4" cx="274.71" cy="146.02" r="3.41"/><circle class="cls-4" cx="326.99" cy="146.02" r="3.41"/><circle class="cls-4" cx="364.33" cy="146.02" r="3.41"/><circle class="cls-4" cx="386.74" cy="146.02" r="3.41"/><circle class="cls-4" cx="214.97" cy="153.95" r="3.41"/><circle class="cls-4" cx="222.44" cy="153.95" r="3.41"/><circle class="cls-4" cx="229.9" cy="153.95" r="3.41"/><circle class="cls-4" cx="237.37" cy="153.95" r="3.41"/><circle class="cls-4" cx="244.84" cy="153.95" r="3.41"/><circle class="cls-4" cx="252.31" cy="153.95" r="3.41"/><circle class="cls-4" cx="259.78" cy="153.95" r="3.41"/><circle class="cls-4" cx="267.25" cy="153.95" r="3.41"/><circle class="cls-4" cx="274.71" cy="153.95" r="3.41"/><circle class="cls-4" cx="282.18" cy="153.95" r="3.41"/><circle class="cls-4" cx="356.86" cy="153.95" r="3.41"/><circle class="cls-4" cx="379.27" cy="153.95" r="3.41"/><circle class="cls-4" cx="237.37" cy="161.88" r="3.41"/><circle class="cls-4" cx="244.84" cy="161.88" r="3.41"/><circle class="cls-4" cx="252.31" cy="161.88" r="3.41"/><circle class="cls-4" cx="259.78" cy="161.88" r="3.41"/><circle class="cls-4" cx="267.25" cy="161.88" r="3.41"/><circle class="cls-4" cx="274.71" cy="161.88" r="3.41"/><circle class="cls-4" cx="356.86" cy="161.88" r="3.41"/><circle class="cls-4" cx="371.8" cy="161.88" r="3.41"/><circle class="cls-4" cx="237.37" cy="169.81" r="3.41"/><circle class="cls-4" cx="244.84" cy="169.81" r="3.41"/><circle class="cls-4" cx="252.31" cy="169.81" r="3.41"/><circle class="cls-4" cx="259.78" cy="169.81" r="3.41"/><circle class="cls-4" cx="267.25" cy="169.81" r="3.41"/><circle class="cls-4" cx="364.33" cy="169.81" r="3.41"/><circle class="cls-4" cx="409.14" cy="169.81" r="3.41"/><circle class="cls-4" cx="244.84" cy="177.74" r="3.41"/><circle class="cls-4" cx="252.31" cy="177.74" r="3.41"/><circle class="cls-4" cx="259.78" cy="177.74" r="3.41"/><circle class="cls-4" cx="267.25" cy="177.74" r="3.41"/><circle class="cls-4" cx="401.67" cy="177.74" r="3.41"/><circle class="cls-4" cx="409.14" cy="177.74" r="3.41"/><circle class="cls-4" cx="237.37" cy="185.67" r="3.41"/><circle class="cls-4" cx="244.84" cy="185.67" r="3.41"/><circle class="cls-4" cx="252.31" cy="185.67" r="3.41"/><circle class="cls-4" cx="259.78" cy="185.67" r="3.41"/><circle class="cls-4" cx="267.25" cy="185.67" r="3.41"/><circle class="cls-4" cx="282.18" cy="185.67" r="3.41"/><circle class="cls-4" cx="386.74" cy="185.67" r="3.41"/><circle class="cls-4" cx="394.2" cy="185.67" r="3.41"/><circle class="cls-4" cx="401.67" cy="185.67" r="3.41"/><circle class="cls-4" cx="409.14" cy="185.67" r="3.41"/><circle class="cls-4" cx="244.84" cy="193.6" r="3.41"/><circle class="cls-4" cx="252.31" cy="193.6" r="3.41"/><circle class="cls-4" cx="259.78" cy="193.6" r="3.41"/><circle class="cls-4" cx="282.18" cy="193.6" r="3.41"/><circle class="cls-4" cx="379.27" cy="193.6" r="3.41"/><circle class="cls-4" cx="386.74" cy="193.6" r="3.41"/><circle class="cls-4" cx="394.2" cy="193.6" r="3.41"/><circle class="cls-4" cx="401.67" cy="193.6" r="3.41"/><circle class="cls-4" cx="409.14" cy="193.6" r="3.41"/><circle class="cls-4" cx="244.84" cy="201.53" r="3.41"/><circle class="cls-4" cx="252.31" cy="201.53" r="3.41"/><circle class="cls-4" cx="259.78" cy="201.53" r="3.41"/><circle class="cls-4" cx="379.27" cy="201.53" r="3.41"/><circle class="cls-4" cx="386.74" cy="201.53" r="3.41"/><circle class="cls-4" cx="394.2" cy="201.53" r="3.41"/><circle class="cls-4" cx="401.67" cy="201.53" r="3.41"/><circle class="cls-4" cx="409.14" cy="201.53" r="3.41"/><circle class="cls-4" cx="244.84" cy="209.46" r="3.41"/><circle class="cls-4" cx="252.31" cy="209.46" r="3.41"/><circle class="cls-4" cx="121.62" cy="162.44" r="3.41"/><circle class="cls-4" cx="129.09" cy="162.44" r="3.41"/><circle class="cls-4" cx="136.56" cy="162.44" r="3.41"/><circle class="cls-4" cx="144.03" cy="162.44" r="3.41"/><circle class="cls-4" cx="121.62" cy="155.06" r="3.41"/><circle class="cls-4" cx="129.09" cy="155.06" r="3.41"/><circle class="cls-4" cx="136.56" cy="155.06" r="3.41"/><circle class="cls-4" cx="144.03" cy="155.06" r="3.41"/><circle class="cls-4" cx="151.49" cy="162.44" r="3.41"/><circle class="cls-4" cx="121.62" cy="170.36" r="3.41"/><circle class="cls-4" cx="129.09" cy="170.36" r="3.41"/><circle class="cls-4" cx="136.56" cy="170.36" r="3.41"/><circle class="cls-4" cx="144.03" cy="170.36" r="3.41"/><circle class="cls-4" cx="151.49" cy="170.36" r="3.41"/><circle class="cls-4" cx="158.96" cy="170.36" r="3.41"/><circle class="cls-4" cx="121.62" cy="178.29" r="3.41"/><circle class="cls-4" cx="129.09" cy="178.29" r="3.41"/><circle class="cls-4" cx="136.56" cy="178.29" r="3.41"/><circle class="cls-4" cx="144.03" cy="178.29" r="3.41"/><circle class="cls-4" cx="151.49" cy="178.29" r="3.41"/><circle class="cls-4" cx="158.96" cy="178.29" r="3.41"/><circle class="cls-4" cx="129.09" cy="186.22" r="3.41"/><circle class="cls-4" cx="136.56" cy="186.22" r="3.41"/><circle class="cls-4" cx="144.03" cy="186.22" r="3.41"/><circle class="cls-4" cx="151.49" cy="186.22" r="3.41"/><circle class="cls-4" cx="158.96" cy="186.22" r="3.41"/><circle class="cls-4" cx="166.77" cy="170.36" r="3.41"/><circle class="cls-4" cx="174.58" cy="170.36" r="3.41"/><circle class="cls-4" cx="166.77" cy="178.29" r="3.41"/><circle class="cls-4" cx="166.77" cy="186.22" r="3.41"/><circle class="cls-4" cx="129.09" cy="194.15" r="3.41"/><circle class="cls-4" cx="136.56" cy="194.15" r="3.41"/><circle class="cls-4" cx="144.03" cy="194.15" r="3.41"/><circle class="cls-4" cx="151.49" cy="194.15" r="3.41"/><circle class="cls-4" cx="158.96" cy="194.15" r="3.41"/><circle class="cls-4" cx="129.09" cy="202.08" r="3.41"/><circle class="cls-4" cx="136.56" cy="202.08" r="3.41"/><circle class="cls-4" cx="144.03" cy="202.08" r="3.41"/><circle class="cls-4" cx="151.49" cy="202.08" r="3.41"/><circle class="cls-4" cx="151.49" cy="11.22" r="3.41"/><circle class="cls-4" cx="158.96" cy="11.22" r="3.41"/><circle class="cls-4" cx="166.43" cy="11.22" r="3.41"/><circle class="cls-4" cx="151.49" cy="3.41" r="3.41"/><circle class="cls-4" cx="143.97" cy="3.41" r="3.41"/><circle class="cls-4" cx="158.96" cy="3.41" r="3.41"/><circle class="cls-4" cx="166.43" cy="3.41" r="3.41"/><circle class="cls-4" cx="173.9" cy="3.41" r="3.41"/><circle class="cls-4" cx="181.37" cy="3.41" r="3.41"/><circle class="cls-4" cx="188.84" cy="3.41" r="3.41"/><circle class="cls-4" cx="349.47" cy="3.41" r="3.41"/><circle class="cls-4" cx="297.27" cy="3.41" r="3.41"/><circle class="cls-4" cx="356.93" cy="3.41" r="3.41"/><circle class="cls-4" cx="364.4" cy="3.41" r="3.41"/><circle class="cls-4" cx="371.87" cy="3.41" r="3.41"/><circle class="cls-4" cx="409.14" cy="3.41" r="3.41"/><circle class="cls-4" cx="173.9" cy="11.22" r="3.41"/><circle class="cls-4" cx="181.37" cy="11.22" r="3.41"/><circle class="cls-4" cx="188.84" cy="11.22" r="3.41"/><circle class="cls-4" cx="151.49" cy="19.15" r="3.41"/><circle class="cls-4" cx="158.96" cy="19.15" r="3.41"/><circle class="cls-4" cx="166.43" cy="19.15" r="3.41"/><circle class="cls-4" cx="173.9" cy="19.15" r="3.41"/><circle class="cls-4" cx="181.37" cy="19.15" r="3.41"/><circle class="cls-4" cx="151.49" cy="27.08" r="3.41"/><circle class="cls-4" cx="158.96" cy="27.08" r="3.41"/><circle class="cls-4" cx="166.43" cy="27.08" r="3.41"/><circle class="cls-4" cx="173.9" cy="27.08" r="3.41"/><circle class="cls-4" cx="181.37" cy="27.08" r="3.41"/><circle class="cls-4" cx="151.49" cy="35.01" r="3.41"/><circle class="cls-4" cx="158.96" cy="35.01" r="3.41"/><circle class="cls-4" cx="166.43" cy="35.01" r="3.41"/><circle class="cls-4" cx="173.9" cy="35.01" r="3.41"/><circle class="cls-4" cx="181.37" cy="35.01" r="3.41"/><circle class="cls-4" cx="151.49" cy="42.94" r="3.41"/><circle class="cls-4" cx="158.96" cy="42.94" r="3.41"/><circle class="cls-4" cx="166.43" cy="42.94" r="3.41"/><circle class="cls-4" cx="188.84" cy="42.94" r="3.41"/><circle class="cls-4" cx="196.3" cy="42.94" r="3.41"/><circle class="cls-4" cx="158.96" cy="50.87" r="3.41"/><circle class="cls-4" cx="129.09" cy="210.01" r="3.41"/><circle class="cls-4" cx="136.56" cy="210.01" r="3.41"/><circle class="cls-4" cx="144.03" cy="210.01" r="3.41"/><circle class="cls-4" cx="129.09" cy="217.94" r="3.41"/><circle class="cls-4" cx="136.56" cy="217.94" r="3.41"/><circle class="cls-4" cx="144.03" cy="217.94" r="3.41"/><circle class="cls-4" cx="129.09" cy="225.87" r="3.41"/><circle class="cls-4" cx="136.56" cy="225.87" r="3.41"/><circle class="cls-4" cx="129.09" cy="233.8" r="3.41"/><circle class="cls-4" cx="379.27" cy="209.46" r="3.41"/><circle class="cls-4" cx="401.67" cy="209.46" r="3.41"/><circle class="cls-4" cx="409.14" cy="209.46" r="3.41"/><circle class="cls-4" cx="416.68" cy="193.6" r="3.41"/><circle class="cls-4" cx="416.68" cy="201.53" r="3.41"/><circle class="cls-4" cx="416.68" cy="209.46" r="3.41"/><circle class="cls-4" cx="237.61" cy="66.73" r="3.41"/><circle class="cls-4" cx="214.14" cy="66.73" r="3.41"/><circle class="cls-4" cx="252.52" cy="66.73" r="3.41"/><circle class="cls-4" cx="259.98" cy="66.73" r="3.41"/><circle class="cls-4" cx="267.44" cy="66.73" r="3.41"/><circle class="cls-4" cx="274.9" cy="66.73" r="3.41"/><circle class="cls-4" cx="282.35" cy="66.73" r="3.41"/><circle class="cls-4" cx="289.81" cy="66.73" r="3.41"/><circle class="cls-4" cx="297.27" cy="66.73" r="3.41"/><circle class="cls-4" cx="304.73" cy="66.73" r="3.41"/><circle class="cls-4" cx="312.19" cy="66.73" r="3.41"/><circle class="cls-4" cx="319.64" cy="66.73" r="3.41"/><circle class="cls-4" cx="327.1" cy="66.73" r="3.41"/><circle class="cls-4" cx="334.56" cy="66.73" r="3.41"/><circle class="cls-4" cx="342.02" cy="66.73" r="3.41"/><circle class="cls-4" cx="349.48" cy="66.73" r="3.41"/><circle class="cls-4" cx="356.93" cy="66.73" r="3.41"/><circle class="cls-4" cx="364.39" cy="66.73" r="3.41"/><circle class="cls-4" cx="371.85" cy="66.73" r="3.41"/><circle class="cls-4" cx="379.31" cy="66.73" r="3.41"/><circle class="cls-4" cx="386.77" cy="66.73" r="3.41"/><circle class="cls-4" cx="394.22" cy="66.73" r="3.41"/><circle class="cls-4" cx="401.68" cy="66.73" r="3.41"/><circle class="cls-4" cx="237.61" cy="58.8" r="3.41"/><circle class="cls-4" cx="229.86" cy="58.8" r="3.41"/><circle class="cls-4" cx="252.52" cy="58.8" r="3.41"/><circle class="cls-4" cx="259.98" cy="58.8" r="3.41"/><circle class="cls-4" cx="267.44" cy="58.8" r="3.41"/><circle class="cls-4" cx="274.9" cy="58.8" r="3.41"/><circle class="cls-4" cx="282.35" cy="58.8" r="3.41"/><circle class="cls-4" cx="289.81" cy="58.8" r="3.41"/><circle class="cls-4" cx="297.27" cy="58.8" r="3.41"/><circle class="cls-4" cx="304.73" cy="58.8" r="3.41"/><circle class="cls-4" cx="312.19" cy="58.8" r="3.41"/><circle class="cls-4" cx="319.64" cy="58.8" r="3.41"/><circle class="cls-4" cx="327.1" cy="58.8" r="3.41"/><circle class="cls-4" cx="334.56" cy="58.8" r="3.41"/><circle class="cls-4" cx="342.02" cy="58.8" r="3.41"/><circle class="cls-4" cx="349.48" cy="58.8" r="3.41"/><circle class="cls-4" cx="356.93" cy="58.8" r="3.41"/><circle class="cls-4" cx="364.39" cy="58.8" r="3.41"/><circle class="cls-4" cx="371.85" cy="58.8" r="3.41"/><circle class="cls-4" cx="379.31" cy="58.8" r="3.41"/><circle class="cls-4" cx="386.77" cy="58.8" r="3.41"/><circle class="cls-4" cx="394.22" cy="58.8" r="3.41"/><circle class="cls-4" cx="401.68" cy="58.8" r="3.41"/><circle class="cls-4" cx="409.14" cy="58.8" r="3.41"/><circle class="cls-4" cx="237.61" cy="50.87" r="3.41"/><circle class="cls-4" cx="245.06" cy="50.87" r="3.41"/><circle class="cls-4" cx="252.52" cy="50.87" r="3.41"/><circle class="cls-4" cx="259.98" cy="50.87" r="3.41"/><circle class="cls-4" cx="267.44" cy="50.87" r="3.41"/><circle class="cls-4" cx="274.9" cy="50.87" r="3.41"/><circle class="cls-4" cx="282.35" cy="50.87" r="3.41"/><circle class="cls-4" cx="289.81" cy="50.87" r="3.41"/><circle class="cls-4" cx="297.27" cy="50.87" r="3.41"/><circle class="cls-4" cx="304.73" cy="50.87" r="3.41"/><circle class="cls-4" cx="312.19" cy="50.87" r="3.41"/><circle class="cls-4" cx="319.64" cy="50.87" r="3.41"/><circle class="cls-4" cx="327.1" cy="50.87" r="3.41"/><circle class="cls-4" cx="334.56" cy="50.87" r="3.41"/><circle class="cls-4" cx="342.02" cy="50.87" r="3.41"/><circle class="cls-4" cx="349.48" cy="50.87" r="3.41"/><circle class="cls-4" cx="356.93" cy="50.87" r="3.41"/><circle class="cls-4" cx="364.39" cy="50.87" r="3.41"/><circle class="cls-4" cx="371.85" cy="50.87" r="3.41"/><circle class="cls-4" cx="379.31" cy="50.87" r="3.41"/><circle class="cls-4" cx="386.77" cy="50.87" r="3.41"/><circle class="cls-4" cx="394.22" cy="50.87" r="3.41"/><circle class="cls-4" cx="401.68" cy="50.87" r="3.41"/><circle class="cls-4" cx="409.14" cy="50.87" r="3.41"/><circle class="cls-4" cx="237.61" cy="42.94" r="3.41"/><circle class="cls-4" cx="245.06" cy="42.94" r="3.41"/><circle class="cls-4" cx="252.52" cy="42.94" r="3.41"/><circle class="cls-4" cx="259.98" cy="42.94" r="3.41"/><circle class="cls-4" cx="274.9" cy="42.94" r="3.41"/><circle class="cls-4" cx="282.35" cy="42.94" r="3.41"/><circle class="cls-4" cx="289.81" cy="42.94" r="3.41"/><circle class="cls-4" cx="297.27" cy="42.94" r="3.41"/><circle class="cls-4" cx="304.73" cy="42.94" r="3.41"/><circle class="cls-4" cx="312.19" cy="42.94" r="3.41"/><circle class="cls-4" cx="319.64" cy="42.94" r="3.41"/><circle class="cls-4" cx="327.1" cy="42.94" r="3.41"/><circle class="cls-4" cx="334.56" cy="42.94" r="3.41"/><circle class="cls-4" cx="342.02" cy="42.94" r="3.41"/><circle class="cls-4" cx="349.48" cy="42.94" r="3.41"/><circle class="cls-4" cx="356.93" cy="42.94" r="3.41"/><circle class="cls-4" cx="364.39" cy="42.94" r="3.41"/><circle class="cls-4" cx="371.85" cy="42.94" r="3.41"/><circle class="cls-4" cx="379.31" cy="42.94" r="3.41"/><circle class="cls-4" cx="386.77" cy="42.94" r="3.41"/><circle class="cls-4" cx="394.22" cy="42.94" r="3.41"/><circle class="cls-4" cx="401.68" cy="42.94" r="3.41"/><circle class="cls-4" cx="409.14" cy="42.94" r="3.41"/><circle class="cls-4" cx="245.06" cy="35.01" r="3.41"/><circle class="cls-4" cx="252.52" cy="35.01" r="3.41"/><circle class="cls-4" cx="259.98" cy="35.01" r="3.41"/><circle class="cls-4" cx="267.44" cy="35.01" r="3.41"/><circle class="cls-4" cx="289.81" cy="35.01" r="3.41"/><circle class="cls-4" cx="297.27" cy="35.01" r="3.41"/><circle class="cls-4" cx="304.73" cy="35.01" r="3.41"/><circle class="cls-4" cx="312.19" cy="35.01" r="3.41"/><circle class="cls-4" cx="319.64" cy="35.01" r="3.41"/><circle class="cls-4" cx="327.1" cy="35.01" r="3.41"/><circle class="cls-4" cx="334.56" cy="35.01" r="3.41"/><circle class="cls-4" cx="342.02" cy="35.01" r="3.41"/><circle class="cls-4" cx="349.48" cy="35.01" r="3.41"/><circle class="cls-4" cx="356.93" cy="35.01" r="3.41"/><circle class="cls-4" cx="364.39" cy="35.01" r="3.41"/><circle class="cls-4" cx="371.85" cy="35.01" r="3.41"/><circle class="cls-4" cx="379.31" cy="35.01" r="3.41"/><circle class="cls-4" cx="386.77" cy="35.01" r="3.41"/><circle class="cls-4" cx="394.22" cy="35.01" r="3.41"/><circle class="cls-4" cx="401.68" cy="35.01" r="3.41"/><circle class="cls-4" cx="409.14" cy="35.01" r="3.41"/><circle class="cls-4" cx="416.64" cy="35.01" r="3.41"/><circle class="cls-4" cx="424.09" cy="35.01" r="3.41"/><circle class="cls-4" cx="431.55" cy="35.01" r="3.41"/><circle class="cls-4" cx="439.01" cy="35.01" r="3.41"/><circle class="cls-4" cx="446.47" cy="35.01" r="3.41"/><circle class="cls-4" cx="453.93" cy="35.01" r="3.41"/><circle class="cls-4" cx="416.64" cy="42.94" r="3.41"/><circle class="cls-4" cx="424.09" cy="42.94" r="3.41"/><circle class="cls-4" cx="416.64" cy="19.15" r="3.41"/><circle class="cls-4" cx="416.64" cy="27.08" r="3.41"/><circle class="cls-4" cx="424.09" cy="27.08" r="3.41"/><circle class="cls-4" cx="431.55" cy="42.94" r="3.41"/><circle class="cls-4" cx="439.01" cy="42.94" r="3.41"/><circle class="cls-4" cx="446.47" cy="42.94" r="3.41"/><circle class="cls-4" cx="453.93" cy="42.94" r="3.41"/><circle class="cls-4" cx="461.38" cy="42.94" r="3.41"/><circle class="cls-4" cx="468.84" cy="42.94" r="3.41"/><circle class="cls-4" cx="416.64" cy="50.87" r="3.41"/><circle class="cls-4" cx="424.09" cy="50.87" r="3.41"/><circle class="cls-4" cx="431.55" cy="50.87" r="3.41"/><circle class="cls-4" cx="439.01" cy="50.87" r="3.41"/><circle class="cls-4" cx="446.47" cy="50.87" r="3.41"/><circle class="cls-4" cx="453.93" cy="50.87" r="3.41"/><circle class="cls-4" cx="416.64" cy="58.8" r="3.41"/><circle class="cls-4" cx="424.09" cy="58.8" r="3.41"/><circle class="cls-4" cx="431.55" cy="58.8" r="3.41"/><circle class="cls-4" cx="431.55" cy="66.73" r="3.41"/><circle class="cls-4" cx="431.55" cy="74.66" r="3.41"/><circle class="cls-4" cx="424.09" cy="98.65" r="3.41"/><circle class="cls-4" cx="431.55" cy="90.52" r="3.41"/><circle class="cls-4" cx="439.01" cy="58.8" r="3.41"/><circle class="cls-4" cx="252.52" cy="27.08" r="3.41"/><circle class="cls-4" cx="259.98" cy="27.08" r="3.41"/><circle class="cls-4" cx="312.19" cy="27.08" r="3.41"/><circle class="cls-4" cx="319.64" cy="27.08" r="3.41"/><circle class="cls-4" cx="327.1" cy="27.08" r="3.41"/><circle class="cls-4" cx="334.56" cy="27.08" r="3.41"/><circle class="cls-4" cx="342.02" cy="27.08" r="3.41"/><circle class="cls-4" cx="349.48" cy="27.08" r="3.41"/><circle class="cls-4" cx="356.93" cy="27.08" r="3.41"/><circle class="cls-4" cx="364.39" cy="27.08" r="3.41"/><circle class="cls-4" cx="371.85" cy="27.08" r="3.41"/><circle class="cls-4" cx="379.31" cy="27.08" r="3.41"/><circle class="cls-4" cx="386.77" cy="27.08" r="3.41"/><circle class="cls-4" cx="394.22" cy="27.08" r="3.41"/><circle class="cls-4" cx="401.68" cy="27.08" r="3.41"/><circle class="cls-4" cx="409.14" cy="27.08" r="3.41"/><circle class="cls-4" cx="289.81" cy="19.15" r="3.41"/><circle class="cls-4" cx="312.19" cy="19.15" r="3.41"/><circle class="cls-4" cx="319.64" cy="19.15" r="3.41"/><circle class="cls-4" cx="327.1" cy="19.15" r="3.41"/><circle class="cls-4" cx="334.56" cy="19.15" r="3.41"/><circle class="cls-4" cx="342.02" cy="19.15" r="3.41"/><circle class="cls-4" cx="349.48" cy="19.15" r="3.41"/><circle class="cls-4" cx="356.93" cy="19.15" r="3.41"/><circle class="cls-4" cx="364.39" cy="19.15" r="3.41"/><circle class="cls-4" cx="371.85" cy="19.15" r="3.41"/><circle class="cls-4" cx="379.31" cy="19.15" r="3.41"/><circle class="cls-4" cx="386.77" cy="19.15" r="3.41"/><circle class="cls-4" cx="409.14" cy="19.15" r="3.41"/><circle class="cls-4" cx="334.56" cy="11.22" r="3.41"/><circle class="cls-4" cx="342.02" cy="11.22" r="3.41"/><circle class="cls-4" cx="349.48" cy="11.22" r="3.41"/><circle class="cls-4" cx="356.93" cy="11.22" r="3.41"/><circle class="cls-4" cx="364.39" cy="11.22" r="3.41"/><circle class="cls-4" cx="371.85" cy="11.22" r="3.41"/><circle class="cls-4" cx="34.67" cy="58.8" r="3.41"/><circle class="cls-4" cx="42.46" cy="58.8" r="3.41"/><circle class="cls-4" cx="50.26" cy="58.8" r="3.41"/><circle class="cls-4" cx="58.05" cy="58.8" r="3.41"/><circle class="cls-4" cx="65.85" cy="58.8" r="3.41"/><circle class="cls-4" cx="73.64" cy="58.8" r="3.41"/><circle class="cls-4" cx="81.44" cy="58.8" r="3.41"/><circle class="cls-4" cx="89.23" cy="58.8" r="3.41"/><circle class="cls-4" cx="97.03" cy="58.8" r="3.41"/><circle class="cls-4" cx="104.82" cy="58.8" r="3.41"/><circle class="cls-4" cx="58.12" cy="82.78" r="3.41"/><circle class="cls-4" cx="65.92" cy="82.78" r="3.41"/><circle class="cls-4" cx="73.71" cy="82.78" r="3.41"/><circle class="cls-4" cx="81.51" cy="82.78" r="3.41"/><circle class="cls-4" cx="89.31" cy="82.78" r="3.41"/><circle class="cls-4" cx="97.1" cy="82.78" r="3.41"/><circle class="cls-4" cx="104.9" cy="82.78" r="3.41"/><circle class="cls-4" cx="112.7" cy="82.78" r="3.41"/><circle class="cls-4" cx="120.49" cy="82.78" r="3.41"/><circle class="cls-4" cx="128.29" cy="82.78" r="3.41"/><circle class="cls-4" cx="136.09" cy="82.78" r="3.41"/><circle class="cls-4" cx="58.12" cy="90.89" r="3.41"/><circle class="cls-4" cx="65.92" cy="90.89" r="3.41"/><circle class="cls-4" cx="73.71" cy="90.89" r="3.41"/><circle class="cls-4" cx="81.51" cy="90.89" r="3.41"/><circle class="cls-4" cx="89.31" cy="90.89" r="3.41"/><circle class="cls-4" cx="97.1" cy="90.89" r="3.41"/><circle class="cls-4" cx="104.9" cy="90.89" r="3.41"/><circle class="cls-4" cx="112.7" cy="90.89" r="3.41"/><circle class="cls-4" cx="120.49" cy="90.89" r="3.41"/><circle class="cls-4" cx="128.29" cy="90.89" r="3.41"/><circle class="cls-4" cx="136.09" cy="90.89" r="3.41"/><circle class="cls-4" cx="58.12" cy="99.01" r="3.41"/><circle class="cls-4" cx="65.92" cy="99.01" r="3.41"/><circle class="cls-4" cx="73.71" cy="99.01" r="3.41"/><circle class="cls-4" cx="81.51" cy="99.01" r="3.41"/><circle class="cls-4" cx="89.31" cy="99.01" r="3.41"/><circle class="cls-4" cx="97.1" cy="99.01" r="3.41"/><circle class="cls-4" cx="104.9" cy="99.01" r="3.41"/><circle class="cls-4" cx="112.7" cy="99.01" r="3.41"/><circle class="cls-4" cx="120.49" cy="99.01" r="3.41"/><circle class="cls-4" cx="65.92" cy="107.13" r="3.41"/><circle class="cls-4" cx="73.71" cy="107.13" r="3.41"/><circle class="cls-4" cx="81.51" cy="107.13" r="3.41"/><circle class="cls-4" cx="89.31" cy="107.13" r="3.41"/><circle class="cls-4" cx="97.1" cy="107.13" r="3.41"/><circle class="cls-4" cx="104.9" cy="107.13" r="3.41"/><circle class="cls-4" cx="112.7" cy="107.13" r="3.41"/><circle class="cls-4" cx="120.49" cy="107.13" r="3.41"/><circle class="cls-4" cx="65.92" cy="115.24" r="3.41"/><circle class="cls-4" cx="73.71" cy="115.24" r="3.41"/><circle class="cls-4" cx="81.51" cy="115.24" r="3.41"/><circle class="cls-4" cx="89.31" cy="115.24" r="3.41"/><circle class="cls-4" cx="97.1" cy="115.24" r="3.41"/><circle class="cls-4" cx="104.9" cy="115.24" r="3.41"/><circle class="cls-4" cx="112.7" cy="115.24" r="3.41"/><circle class="cls-4" cx="81.51" cy="123.36" r="3.41"/><circle class="cls-4" cx="89.31" cy="123.36" r="3.41"/><circle class="cls-4" cx="112.7" cy="123.36" r="3.41"/><circle class="cls-4" cx="81.51" cy="131.48" r="3.41"/><circle class="cls-4" cx="89.31" cy="131.48" r="3.41"/><circle class="cls-4" cx="112.7" cy="131.48" r="3.41"/><circle class="cls-4" cx="112.7" cy="148.69" r="3.41"/><circle class="cls-4" cx="89.31" cy="139.6" r="3.41"/><circle class="cls-4" cx="97.1" cy="139.6" r="3.41"/><circle class="cls-4" cx="104.9" cy="139.6" r="3.41"/><circle class="cls-4" cx="50.29" cy="66.73" r="3.41"/><circle class="cls-4" cx="58.08" cy="66.73" r="3.41"/><circle class="cls-4" cx="65.87" cy="66.73" r="3.41"/><circle class="cls-4" cx="73.66" cy="66.73" r="3.41"/><circle class="cls-4" cx="81.45" cy="66.73" r="3.41"/><circle class="cls-4" cx="89.24" cy="66.73" r="3.41"/><circle class="cls-4" cx="97.03" cy="66.73" r="3.41"/><circle class="cls-4" cx="104.82" cy="66.73" r="3.41"/><circle class="cls-4" cx="58.11" cy="18.95" r="3.41"/><circle class="cls-4" cx="65.9" cy="18.95" r="3.41"/><circle class="cls-4" cx="73.7" cy="18.95" r="3.41"/><circle class="cls-4" cx="81.5" cy="18.95" r="3.41"/><circle class="cls-4" cx="89.3" cy="18.95" r="3.41"/><circle class="cls-4" cx="97.09" cy="18.95" r="3.41"/><circle class="cls-4" cx="104.89" cy="18.95" r="3.41"/><circle class="cls-4" cx="112.69" cy="18.95" r="3.41"/><circle class="cls-4" cx="120.49" cy="18.95" r="3.41"/><circle class="cls-4" cx="58.11" cy="3.41" r="3.41"/><circle class="cls-4" cx="65.9" cy="3.41" r="3.41"/><circle class="cls-4" cx="73.7" cy="3.41" r="3.41"/><circle class="cls-4" cx="81.5" cy="3.41" r="3.41"/><circle class="cls-4" cx="89.3" cy="3.41" r="3.41"/><circle class="cls-4" cx="104.89" cy="3.41" r="3.41"/><circle class="cls-4" cx="112.69" cy="3.41" r="3.41"/></g><g><circle class="cls-1" cx="432.06" cy="81.4" r="4.7"/><path class="cls-2" d="M429.11,86.12l2.64,4.56c.04,.08,.13,.12,.21,.13,.09,0,.17-.05,.21-.13l2.64-4.56c2.65-1.57,3.51-5,1.94-7.64-1.57-2.65-5-3.51-7.64-1.94-2.65,1.57-3.51,5-1.94,7.64,.47,.8,1.14,1.46,1.94,1.94h0Zm2.85-8.62c2.12,0,3.84,1.72,3.84,3.84,0,2.12-1.72,3.84-3.84,3.84-2.12,0-3.84-1.72-3.84-3.84,0,0,0,0,0,0,0-2.12,1.72-3.84,3.84-3.84Z"/></g><g><circle class="cls-1" cx="409.88" cy="74.31" r="4.7"/><path class="cls-2" d="M406.93,79.03l2.64,4.56c.04,.08,.13,.12,.21,.13,.09,0,.17-.05,.21-.13l2.64-4.56c2.65-1.57,3.51-5,1.94-7.64-1.57-2.65-5-3.51-7.64-1.94-2.65,1.57-3.51,5-1.94,7.64,.47,.8,1.14,1.46,1.94,1.94h0Zm2.85-8.62c2.12,0,3.84,1.72,3.84,3.84,0,2.12-1.72,3.84-3.84,3.84-2.12,0-3.84-1.72-3.84-3.84,0,0,0,0,0,0,0-2.12,1.72-3.84,3.84-3.84Z"/></g><g><circle class="cls-1" cx="394.7" cy="104.89" r="4.7"/><path class="cls-2" d="M391.75,109.61l2.64,4.56c.04,.08,.13,.12,.21,.13,.09,0,.17-.05,.21-.13l2.64-4.56c2.65-1.57,3.51-5,1.94-7.64-1.57-2.65-5-3.51-7.64-1.94-2.65,1.57-3.51,5-1.94,7.64,.47,.8,1.14,1.46,1.94,1.94h0Zm2.85-8.62c2.12,0,3.84,1.72,3.84,3.84,0,2.12-1.72,3.84-3.84,3.84-2.12,0-3.84-1.72-3.84-3.84,0,0,0,0,0,0,0-2.12,1.72-3.84,3.84-3.84Z"/></g><g><circle class="cls-1" cx="327.98" cy="129.6" r="4.7"/><path class="cls-2" d="M325.03,134.31l2.64,4.56c.04,.08,.13,.12,.21,.13,.09,0,.17-.05,.21-.13l2.64-4.56c2.65-1.57,3.51-5,1.94-7.64-1.57-2.65-5-3.51-7.64-1.94-2.65,1.57-3.51,5-1.94,7.64,.47,.8,1.14,1.46,1.94,1.94h0Zm2.85-8.62c2.12,0,3.84,1.72,3.84,3.84,0,2.12-1.72,3.84-3.84,3.84-2.12,0-3.84-1.72-3.84-3.84,0,0,0,0,0,0,0-2.12,1.72-3.84,3.84-3.84Z"/></g><g><circle class="cls-1" cx="245.22" cy="200.2" r="4.7"/><path class="cls-2" d="M242.27,204.92l2.64,4.56c.04,.08,.13,.12,.21,.13,.09,0,.17-.05,.21-.13l2.64-4.56c2.65-1.57,3.51-5,1.94-7.64-1.57-2.65-5-3.51-7.64-1.94-2.65,1.57-3.51,5-1.94,7.64,.47,.8,1.14,1.46,1.94,1.94h0Zm2.85-8.62c2.12,0,3.84,1.72,3.84,3.84,0,2.12-1.72,3.84-3.84,3.84-2.12,0-3.84-1.72-3.84-3.84,0,0,0,0,0,0,0-2.12,1.72-3.84,3.84-3.84Z"/></g><g><circle class="cls-1" cx="252.4" cy="113.25" r="4.7"/><path class="cls-2" d="M249.45,117.97l2.64,4.56c.04,.08,.13,.12,.21,.13,.09,0,.17-.05,.21-.13l2.64-4.56c2.65-1.57,3.51-5,1.94-7.64-1.57-2.65-5-3.51-7.64-1.94-2.65,1.57-3.51,5-1.94,7.64,.47,.8,1.14,1.46,1.94,1.94h0Zm2.85-8.62c2.12,0,3.84,1.72,3.84,3.84,0,2.12-1.72,3.84-3.84,3.84-2.12,0-3.84-1.72-3.84-3.84,0,0,0,0,0,0,0-2.12,1.72-3.84,3.84-3.84Z"/></g><g id="mexico"><circle class="cls-1" cx="81.91" cy="123.01" r="4.7"/><path class="cls-2" d="M78.96,127.73l2.64,4.56c.04,.08,.13,.12,.21,.13,.09,0,.17-.05,.21-.13l2.64-4.56c2.65-1.57,3.51-5,1.94-7.64-1.57-2.65-5-3.51-7.64-1.94-2.65,1.57-3.51,5-1.94,7.64,.47,.8,1.14,1.46,1.94,1.94h0Zm2.85-8.62c2.12,0,3.84,1.72,3.84,3.84,0,2.12-1.72,3.84-3.84,3.84-2.12,0-3.84-1.72-3.84-3.84,0,0,0,0,0,0,0-2.12,1.72-3.84,3.84-3.84Z"/></g><g><circle class="cls-1" cx="129.18" cy="202.11" r="4.7"/><path class="cls-2" d="M126.23,206.83l2.64,4.56c.04,.08,.13,.12,.21,.13,.09,0,.17-.05,.21-.13l2.64-4.56c2.65-1.57,3.51-5,1.94-7.64-1.57-2.65-5-3.51-7.64-1.94-2.65,1.57-3.51,5-1.94,7.64,.47,.8,1.14,1.46,1.94,1.94h0Zm2.85-8.62c2.12,0,3.84,1.72,3.84,3.84,0,2.12-1.72,3.84-3.84,3.84-2.12,0-3.84-1.72-3.84-3.84,0,0,0,0,0,0,0-2.12,1.72-3.84,3.84-3.84Z"/></g><g><circle class="cls-1" cx="144.57" cy="209.63" r="4.7"/><path class="cls-2" d="M141.62,214.35l2.64,4.56c.04,.08,.13,.12,.21,.13,.09,0,.17-.05,.21-.13l2.64-4.56c2.65-1.57,3.51-5,1.94-7.64-1.57-2.65-5-3.51-7.64-1.94-2.65,1.57-3.51,5-1.94,7.64,.47,.8,1.14,1.46,1.94,1.94h0Zm2.85-8.62c2.12,0,3.84,1.72,3.84,3.84,0,2.12-1.72,3.84-3.84,3.84-2.12,0-3.84-1.72-3.84-3.84,0,0,0,0,0,0,0-2.12,1.72-3.84,3.84-3.84Z"/></g><g><circle class="cls-1" cx="159.94" cy="177.75" r="4.7"/><path class="cls-2" d="M156.99,182.47l2.64,4.56c.04,.08,.13,.12,.21,.13,.09,0,.17-.05,.21-.13l2.64-4.56c2.65-1.57,3.51-5,1.94-7.64-1.57-2.65-5-3.51-7.64-1.94-2.65,1.57-3.51,5-1.94,7.64,.47,.8,1.14,1.46,1.94,1.94h0Zm2.85-8.62c2.12,0,3.84,1.72,3.84,3.84,0,2.12-1.72,3.84-3.84,3.84-2.12,0-3.84-1.72-3.84-3.84,0,0,0,0,0,0,0-2.12,1.72-3.84,3.84-3.84Z"/></g><g><circle class="cls-1" cx="364.49" cy="128.83" r="4.7"/><path class="cls-2" d="M361.54,133.55l2.64,4.56c.04,.08,.13,.12,.21,.13,.09,0,.17-.05,.21-.13l2.64-4.56c2.65-1.57,3.51-5,1.94-7.64-1.57-2.65-5-3.51-7.64-1.94-2.65,1.57-3.51,5-1.94,7.64,.47,.8,1.14,1.46,1.94,1.94h0Zm2.85-8.62c2.12,0,3.84,1.72,3.84,3.84,0,2.12-1.72,3.84-3.84,3.84-2.12,0-3.84-1.72-3.84-3.84,0,0,0,0,0,0,0-2.12,1.72-3.84,3.84-3.84Z"/></g><g><circle class="cls-1" cx="357.04" cy="145.65" r="4.7"/><path class="cls-2" d="M354.09,150.37l2.64,4.56c.04,.08,.13,.12,.21,.13,.09,0,.17-.05,.21-.13l2.64-4.56c2.65-1.57,3.51-5,1.94-7.64-1.57-2.65-5-3.51-7.64-1.94-2.65,1.57-3.51,5-1.94,7.64,.47,.8,1.14,1.46,1.94,1.94h0Zm2.85-8.62c2.12,0,3.84,1.72,3.84,3.84,0,2.12-1.72,3.84-3.84,3.84s-3.84-1.72-3.84-3.84c0,0,0,0,0,0,0-2.12,1.72-3.84,3.84-3.84Z"/></g><g id="japan"><circle class="cls-1" cx="379.84" cy="144.64" r="4.7"/><path class="cls-2" d="M376.89,149.36l2.64,4.56c.04,.08,.13,.12,.21,.13,.09,0,.17-.05,.21-.13l2.64-4.56c2.65-1.57,3.51-5,1.94-7.64-1.57-2.65-5-3.51-7.64-1.94-2.65,1.57-3.51,5-1.94,7.64,.47,.8,1.14,1.46,1.94,1.94h0Zm2.85-8.62c2.12,0,3.84,1.72,3.84,3.84,0,2.12-1.72,3.84-3.84,3.84-2.12,0-3.84-1.72-3.84-3.84,0,0,0,0,0,0,0-2.12,1.72-3.84,3.84-3.84Z"/></g><g id="australia"><g><circle class="cls-1" cx="398.42" cy="174.03" r="7.79"/><path class="cls-5" d="M393.54,181.85l4.38,7.56c.07,.13,.21,.21,.36,.21,.15,0,.28-.08,.36-.21l4.38-7.56c4.38-2.61,5.82-8.28,3.21-12.66-2.61-4.38-8.28-5.82-12.66-3.21-4.38,2.61-5.82,8.28-3.21,12.66,.79,1.32,1.89,2.43,3.21,3.21h-.01Zm4.73-14.29c3.52,0,6.37,2.85,6.37,6.37,0,3.52-2.85,6.37-6.37,6.37-3.52,0-6.37-2.85-6.37-6.37,0,0,0,0,0-.01,0-3.51,2.86-6.36,6.37-6.36Z"/></g><g><rect class="cls-2" x="381.4" y="190.85" width="33.71" height="8.99" rx="4.49" ry="4.49"/><g><path class="cls-1" d="M386.29,193.05h.55l1.38,4.59h-.5l-1.14-4.09-1.15,4.09h-.5l1.38-4.59Zm-.69,3.05h1.99v.42h-1.99v-.42Z"/><path class="cls-1" d="M389.09,197.53c-.2-.1-.34-.25-.44-.46-.1-.2-.15-.46-.15-.76v-3.26h.45v3.28c0,.3,.07,.53,.22,.68,.14,.15,.36,.23,.65,.23s.51-.08,.66-.23,.22-.38,.22-.68v-3.28h.45v3.26c0,.31-.05,.56-.15,.76-.1,.2-.25,.36-.45,.46-.2,.1-.44,.15-.74,.15s-.54-.05-.74-.15Z"/><path class="cls-1" d="M392.45,197.59c-.19-.06-.34-.17-.47-.31-.13-.14-.22-.32-.27-.54l.43-.16c.06,.24,.18,.41,.34,.52s.37,.16,.62,.16c.31,0,.54-.07,.7-.2,.16-.13,.24-.33,.24-.58v-.13c0-.16-.04-.29-.12-.4-.08-.11-.18-.19-.31-.25s-.29-.12-.49-.19c0,0,0,0-.01,0,0,0-.01,0-.02,0l-.08-.02c-.26-.08-.47-.16-.63-.24-.16-.08-.29-.19-.4-.34s-.16-.34-.16-.59v-.11c0-.26,.05-.48,.16-.66,.1-.18,.26-.31,.46-.41s.45-.14,.75-.14c.23,0,.43,.03,.59,.09,.16,.06,.3,.16,.4,.29,.11,.13,.19,.3,.25,.51l-.43,.15c-.07-.22-.17-.38-.3-.48-.13-.1-.31-.15-.52-.15-.3,0-.53,.07-.68,.2-.16,.13-.24,.32-.24,.56v.11c0,.16,.04,.29,.13,.39,.09,.1,.2,.18,.33,.24,.13,.06,.31,.12,.54,.19,0,0,.02,0,.03,0,0,0,.01,0,.02,0,.01,0,.02,0,.03,0,0,0,.02,0,.03,0,.23,.07,.42,.15,.58,.23s.28,.2,.39,.36c.1,.15,.15,.35,.15,.59v.15c0,.26-.05,.48-.16,.66-.11,.18-.26,.32-.47,.41-.21,.09-.46,.13-.76,.13-.24,0-.46-.03-.65-.1Z"/><path class="cls-1" d="M394.64,193.05h2.73v.42h-2.73v-.42Zm1.14,.28h.46v4.31h-.46v-4.31Z"/><path class="cls-1" d="M397.65,193.05h.45v4.59h-.45v-4.59Zm.28,2.23h1.21c.15,0,.28-.03,.4-.09,.11-.06,.2-.15,.26-.27,.06-.12,.09-.25,.09-.41v-.24c0-.16-.03-.3-.09-.42-.06-.12-.15-.21-.26-.28-.11-.06-.25-.1-.4-.1h-1.21v-.42h1.18c.25,0,.47,.05,.66,.14,.19,.09,.33,.23,.43,.41,.1,.18,.15,.39,.15,.63v.27c0,.24-.05,.46-.15,.64-.1,.18-.24,.32-.43,.42-.19,.1-.41,.14-.66,.14h-1.18v-.42Zm1.21,.28l.41-.15,.95,2.23h-.54l-.83-2.08Z"/><path class="cls-1" d="M402.01,193.05h.55l1.38,4.59h-.5l-1.14-4.09-1.15,4.09h-.5l1.38-4.59Zm-.69,3.05h1.99v.42h-1.99v-.42Z"/><path class="cls-1" d="M404.35,193.05h.45v4.59h-.45v-4.59Zm.32,4.16h2.1v.42h-2.1v-.42Z"/><path class="cls-1" d="M407.8,197.64h-.46v-4.59h.46v4.59Z"/><path class="cls-1" d="M409.68,193.05h.55l1.38,4.59h-.5l-1.14-4.09-1.15,4.09h-.5l1.38-4.59Zm-.69,3.05h1.99v.42h-1.99v-.42Z"/></g></g><path class="cls-3" d="M399.35,175.52s.12,1.04-1.14,1.04c-.93,0-1.06-.86-1.06-.91v-1.3h3.94v-2.21s.1-2.34-2.98-2.34-2.67,3.32-2.67,3.32v2.67s.13,2.18,2.88,2.18,2.83-2.46,2.83-2.46h-1.79Zm-1.12-4.23c1.35,0,1.09,1.63,1.09,1.63h-2.13s-.31-1.63,1.04-1.63Z"/></g><g id="france"><g><rect class="cls-2" x="198.26" y="81.82" width="33.71" height="8.99" rx="4.49" ry="4.49"/><g><path class="cls-1" d="M205.71,84.02h.45v4.59h-.45v-4.59Zm.32,0h2.11v.42h-2.11v-.42Zm0,2.14h1.86v.42h-1.86v-.42Z"/><path class="cls-1" d="M208.57,84.02h.45v4.59h-.45v-4.59Zm.28,2.23h1.21c.15,0,.28-.03,.4-.09,.11-.06,.2-.15,.26-.27,.06-.12,.09-.25,.09-.41v-.24c0-.16-.03-.3-.09-.42-.06-.12-.15-.21-.26-.28-.11-.06-.25-.1-.4-.1h-1.21v-.42h1.18c.25,0,.47,.05,.66,.14,.19,.09,.33,.23,.43,.41s.15,.39,.15,.63v.27c0,.24-.05,.46-.15,.64-.1,.18-.24,.32-.43,.42-.19,.1-.41,.14-.66,.14h-1.18v-.42Zm1.21,.28l.41-.15,.95,2.23h-.54l-.83-2.08Z"/><path class="cls-1" d="M212.93,84.02h.55l1.38,4.59h-.5l-1.15-4.09-1.15,4.09h-.5l1.38-4.59Zm-.69,3.05h1.99v.42h-1.99v-.42Z"/><path class="cls-1" d="M215.27,84.02h.44l2.06,3.95-.13-.02v-3.92h.45v4.58h-.45l-2.08-3.96,.16,.05v3.92h-.45v-4.58Z"/><path class="cls-1" d="M219.42,88.48c-.2-.12-.35-.28-.46-.5-.11-.22-.16-.47-.16-.77v-1.79c0-.3,.05-.55,.16-.77s.26-.38,.46-.5c.2-.12,.44-.17,.71-.17,.25,0,.48,.05,.67,.16s.34,.26,.46,.46c.11,.2,.18,.43,.2,.71h-.45c-.02-.18-.07-.34-.15-.47-.08-.13-.18-.24-.3-.31s-.26-.11-.42-.11c-.18,0-.34,.04-.47,.12s-.23,.2-.3,.35c-.07,.15-.11,.33-.11,.54v1.79c0,.21,.04,.39,.11,.54,.07,.15,.17,.27,.3,.35s.29,.12,.47,.12c.16,0,.3-.04,.42-.11,.12-.07,.22-.17,.3-.31,.08-.13,.13-.29,.15-.48h.45c-.02,.27-.08,.51-.2,.71-.11,.2-.27,.35-.46,.46s-.41,.16-.67,.16c-.27,0-.51-.06-.71-.17Z"/><path class="cls-1" d="M222.07,84.02h.45v4.59h-.45v-4.59Zm.31,0h2.15v.42h-2.15v-.42Zm0,2.1h1.89v.42h-1.89v-.42Zm0,2.07h2.15v.42h-2.15v-.42Z"/></g><g><circle class="cls-1" cx="215.11" cy="64.99" r="7.79"/><path class="cls-5" d="M210.23,72.81l4.38,7.56c.07,.13,.21,.21,.36,.21,.15,0,.28-.08,.36-.21l4.38-7.56c4.38-2.61,5.82-8.28,3.21-12.66-2.61-4.38-8.28-5.82-12.66-3.21-4.38,2.61-5.82,8.28-3.21,12.66,.79,1.32,1.89,2.43,3.21,3.21h-.01Zm4.73-14.29c3.52,0,6.37,2.85,6.37,6.37,0,3.52-2.85,6.37-6.37,6.37-3.52,0-6.37-2.85-6.37-6.37,0,0,0,0,0-.01,0-3.51,2.86-6.36,6.37-6.36Z"/></g></g><path class="cls-3" d="M215.81,66.53s.12,1.04-1.14,1.04c-.93,0-1.06-.86-1.06-.91v-1.3h3.94v-2.21s.1-2.34-2.98-2.34-2.67,3.32-2.67,3.32v2.67s.13,2.18,2.88,2.18,2.83-2.46,2.83-2.46h-1.79Zm-1.12-4.23c1.35,0,1.09,1.63,1.09,1.63h-2.13s-.31-1.63,1.04-1.63Z"/></g><g id="spain"><rect class="cls-2" x="186.84" y="97.79" width="33.71" height="8.99" rx="4.49" ry="4.49"/><g><path class="cls-1" d="M197.44,104.53c-.19-.06-.34-.17-.47-.31-.13-.14-.22-.32-.27-.54l.43-.16c.06,.24,.18,.41,.34,.52,.17,.11,.37,.16,.62,.16,.3,0,.54-.07,.7-.2s.24-.33,.24-.58v-.13c0-.16-.04-.29-.12-.4-.08-.11-.18-.19-.31-.25s-.29-.12-.49-.19c0,0,0,0-.01,0,0,0-.01,0-.02,0l-.09-.02c-.26-.08-.47-.16-.63-.24-.16-.08-.29-.19-.4-.34s-.16-.34-.16-.59v-.11c0-.26,.05-.48,.16-.66s.26-.31,.46-.41c.2-.09,.45-.14,.75-.14,.23,0,.43,.03,.59,.09,.16,.06,.3,.16,.4,.29,.11,.13,.19,.3,.25,.51l-.43,.15c-.07-.22-.17-.38-.3-.48s-.3-.15-.52-.15c-.3,0-.53,.07-.68,.2-.16,.13-.24,.32-.24,.56v.11c0,.16,.04,.29,.13,.39,.09,.1,.2,.18,.33,.24,.13,.06,.31,.12,.54,.19,.01,0,.02,0,.03,0,0,0,.01,0,.02,0,.01,0,.02,0,.03,0s.02,0,.03,0c.23,.07,.42,.15,.58,.23,.15,.08,.28,.2,.39,.36s.15,.35,.15,.59v.15c0,.26-.05,.48-.16,.66-.11,.18-.26,.32-.47,.41-.21,.09-.46,.13-.76,.13-.24,0-.46-.03-.65-.1Z"/><path class="cls-1" d="M200.11,99.99h.45v4.59h-.45v-4.59Zm.33,2.38h1.22c.13,0,.25-.03,.35-.09,.1-.06,.18-.15,.23-.26,.05-.11,.08-.25,.08-.4v-.45c0-.16-.03-.29-.08-.41-.05-.12-.13-.2-.23-.27-.1-.06-.22-.09-.35-.09h-1.22v-.42h1.2c.24,0,.44,.05,.61,.14s.31,.23,.4,.41c.09,.18,.14,.39,.14,.63v.46c0,.24-.05,.44-.14,.62-.09,.18-.23,.31-.4,.41s-.38,.14-.61,.14h-1.2v-.42Z"/><path class="cls-1" d="M204.16,99.99h.55l1.38,4.59h-.5l-1.15-4.09-1.15,4.09h-.5l1.38-4.59Zm-.69,3.05h1.99v.42h-1.99v-.42Z"/><path class="cls-1" d="M207.04,104.58h-.46v-4.59h.46v4.59Z"/><path class="cls-1" d="M207.88,99.99h.44l2.06,3.95-.13-.02v-3.92h.45v4.58h-.45l-2.08-3.96,.16,.05v3.92h-.45v-4.58Z"/></g><g><circle class="cls-1" cx="203.39" cy="122.93" r="7.79"/><path class="cls-5" d="M208.28,115.1l-4.38-7.56c-.07-.13-.21-.21-.36-.21-.15,0-.28,.08-.36,.21l-4.38,7.56c-4.38,2.61-5.82,8.28-3.21,12.66,2.61,4.38,8.28,5.82,12.66,3.21,4.38-2.61,5.82-8.28,3.21-12.66-.79-1.32-1.89-2.43-3.21-3.21h.01Zm-4.73,14.29c-3.52,0-6.37-2.85-6.37-6.37,0-3.52,2.85-6.37,6.37-6.37,3.52,0,6.37,2.85,6.37,6.37,0,0,0,0,0,.01,0,3.51-2.86,6.36-6.37,6.36Z"/></g><path class="cls-3" d="M204.39,124.76s.12,1.04-1.14,1.04c-.93,0-1.06-.86-1.06-.91v-1.3h3.94v-2.21s.1-2.34-2.98-2.34-2.67,3.32-2.67,3.32v2.67s.13,2.18,2.88,2.18,2.83-2.46,2.83-2.46h-1.79Zm-1.12-4.23c1.35,0,1.09,1.63,1.09,1.63h-2.13s-.31-1.63,1.04-1.63Z"/></g><g id="germany"><g><g><circle class="cls-1" cx="245.13" cy="54.25" r="7.79"/><path class="cls-5" d="M240.24,62.08l4.38,7.56c.07,.13,.21,.21,.36,.21,.15,0,.28-.08,.36-.21l4.38-7.56c4.38-2.61,5.82-8.28,3.21-12.66-2.61-4.38-8.28-5.82-12.66-3.21-4.38,2.61-5.82,8.28-3.21,12.66,.79,1.32,1.89,2.43,3.21,3.21h-.01Zm4.73-14.29c3.52,0,6.37,2.85,6.37,6.37,0,3.52-2.85,6.37-6.37,6.37-3.52,0-6.37-2.85-6.37-6.37,0,0,0,0,0-.01,0-3.51,2.86-6.36,6.37-6.36Z"/></g><rect class="cls-2" x="228.11" y="71.07" width="33.71" height="8.99" rx="4.49" ry="4.49"/><g><path class="cls-1" d="M235.97,75.45v1.01c0,.32-.05,.58-.15,.8-.1,.22-.25,.38-.46,.49-.2,.11-.45,.16-.74,.16s-.55-.05-.76-.15c-.21-.1-.36-.26-.46-.46s-.15-.45-.15-.75v-1.87c0-.32,.05-.58,.15-.79s.25-.38,.46-.49c.2-.11,.45-.16,.74-.16,.28,0,.51,.05,.7,.15,.19,.1,.34,.25,.44,.45,.11,.2,.17,.45,.19,.76h-.49c-.02-.21-.06-.38-.13-.52-.07-.14-.16-.24-.28-.31-.12-.07-.26-.1-.43-.1-.2,0-.36,.04-.5,.12-.13,.08-.24,.19-.3,.34-.07,.15-.1,.34-.1,.56v1.87c0,.2,.03,.38,.1,.51s.17,.24,.31,.31c.14,.07,.3,.11,.51,.11s.36-.04,.49-.11c.13-.07,.23-.19,.29-.33,.07-.15,.1-.33,.1-.56v-.6h-.88v-.42h1.35Z"/><path class="cls-1" d="M236.68,73.27h.46v4.59h-.46v-4.59Zm.31,0h2.15v.42h-2.15v-.42Zm0,2.1h1.89v.42h-1.89v-.42Zm0,2.07h2.15v.42h-2.15v-.42Z"/><path class="cls-1" d="M239.7,73.27h.45v4.59h-.45v-4.59Zm.28,2.23h1.21c.15,0,.28-.03,.4-.09,.11-.06,.2-.15,.26-.27,.06-.12,.09-.25,.09-.41v-.24c0-.16-.03-.3-.09-.42s-.15-.21-.26-.28c-.11-.06-.25-.1-.4-.1h-1.21v-.42h1.18c.25,0,.47,.05,.66,.14,.19,.09,.33,.23,.43,.41s.15,.39,.15,.63v.27c0,.24-.05,.46-.15,.64-.1,.18-.24,.32-.43,.42-.19,.1-.41,.14-.66,.14h-1.18v-.42Zm1.21,.28l.41-.15,.95,2.23h-.54l-.83-2.08Z"/><path class="cls-1" d="M246.1,73.27h.46v4.59h-.45v-3.81l.04,.2-1.13,2.97h-.35l-1.13-2.91,.04-.26v3.81h-.45v-4.59h.46l1.25,3.33,1.25-3.33Z"/><path class="cls-1" d="M248.36,73.27h.55l1.38,4.59h-.5l-1.14-4.09-1.15,4.09h-.5l1.38-4.59Zm-.69,3.05h1.99v.42h-1.99v-.42Z"/><path class="cls-1" d="M250.71,73.27h.44l2.06,3.95-.13-.02v-3.92h.45v4.58h-.45l-2.08-3.96,.16,.05v3.92h-.45v-4.58Z"/><path class="cls-1" d="M255.46,75.96v1.9h-.46v-1.9l-1.24-2.69h.48l.99,2.21,.97-2.21h.48l-1.22,2.69Z"/></g></g><path class="cls-3" d="M246.04,55.88s.12,1.04-1.14,1.04c-.93,0-1.06-.86-1.06-.91v-1.3h3.94v-2.21s.1-2.34-2.98-2.34-2.67,3.32-2.67,3.32v2.67s.13,2.18,2.88,2.18,2.83-2.46,2.83-2.46h-1.79Zm-1.12-4.23c1.35,0,1.09,1.63,1.09,1.63h-2.13s-.31-1.63,1.04-1.63Z"/></g><g id="china"><g><circle class="cls-1" cx="348.75" cy="72.2" r="7.79"/><path class="cls-5" d="M343.86,80.02l4.38,7.56c.07,.13,.21,.21,.36,.21,.15,0,.28-.08,.36-.21l4.38-7.56c4.38-2.61,5.82-8.28,3.21-12.66-2.61-4.38-8.28-5.82-12.66-3.21-4.38,2.61-5.82,8.28-3.21,12.66,.79,1.32,1.89,2.43,3.21,3.21h-.01Zm4.73-14.29c3.52,0,6.37,2.85,6.37,6.37,0,3.52-2.85,6.37-6.37,6.37-3.52,0-6.37-2.85-6.37-6.37,0,0,0,0,0-.01,0-3.51,2.86-6.36,6.37-6.36Z"/></g><g><rect class="cls-2" x="331.73" y="89.02" width="33.71" height="8.99" rx="4.49" ry="4.49"/><g><path class="cls-1" d="M342.04,95.68c-.2-.12-.35-.28-.46-.5-.11-.22-.16-.47-.16-.77v-1.79c0-.3,.05-.55,.16-.77,.11-.22,.26-.38,.46-.5,.2-.12,.44-.17,.71-.17,.25,0,.48,.05,.67,.16s.34,.26,.46,.46c.11,.2,.18,.43,.2,.71h-.46c-.02-.18-.07-.34-.14-.47-.08-.13-.18-.24-.3-.31s-.26-.11-.42-.11c-.18,0-.34,.04-.47,.12-.13,.08-.23,.2-.3,.35-.07,.15-.11,.33-.11,.54v1.79c0,.21,.04,.39,.11,.54,.07,.15,.17,.27,.3,.35,.13,.08,.29,.12,.47,.12,.16,0,.3-.04,.42-.11s.22-.17,.3-.31c.08-.13,.13-.29,.14-.48h.46c-.02,.27-.09,.51-.2,.71-.11,.2-.27,.35-.46,.46s-.41,.16-.67,.16c-.27,0-.51-.06-.71-.17Z"/><path class="cls-1" d="M344.69,91.22h.45v4.59h-.45v-4.59Zm.35,2.11h2.07v.43h-2.07v-.43Zm1.87-2.11h.45v4.59h-.45v-4.59Z"/><path class="cls-1" d="M348.66,95.8h-.46v-4.59h.46v4.59Z"/><path class="cls-1" d="M349.49,91.22h.44l2.06,3.95-.13-.02v-3.92h.45v4.58h-.45l-2.08-3.96,.16,.05v3.92h-.45v-4.58Z"/><path class="cls-1" d="M354.11,91.22h.55l1.38,4.59h-.5l-1.14-4.09-1.15,4.09h-.5l1.38-4.59Zm-.69,3.05h1.99v.42h-1.99v-.42Z"/></g></g><path class="cls-3" d="M349.66,73.73s.12,1.04-1.14,1.04c-.93,0-1.06-.86-1.06-.91v-1.3h3.94v-2.21s.1-2.34-2.98-2.34-2.67,3.32-2.67,3.32v2.67s.13,2.18,2.88,2.18,2.83-2.46,2.83-2.46h-1.79Zm-1.12-4.23c1.35,0,1.09,1.63,1.09,1.63h-2.13s-.31-1.63,1.04-1.63Z"/></g><g id="usa"><g><g><circle class="cls-1" cx="89.61" cy="73.31" r="7.79"/><path class="cls-5" d="M84.72,81.13l4.38,7.56c.07,.13,.21,.21,.36,.21,.15,0,.28-.08,.36-.21l4.38-7.56c4.38-2.61,5.82-8.28,3.21-12.66-2.61-4.38-8.28-5.82-12.66-3.21-4.38,2.61-5.82,8.28-3.21,12.66,.79,1.32,1.89,2.43,3.21,3.21h-.01Zm4.73-14.29c3.52,0,6.37,2.85,6.37,6.37,0,3.52-2.85,6.37-6.37,6.37-3.52,0-6.37-2.85-6.37-6.37,0,0,0,0,0-.01,0-3.51,2.86-6.36,6.37-6.36Z"/></g><g><rect class="cls-2" x="72.59" y="90.13" width="33.71" height="8.99" rx="4.49" ry="4.49"/><g><path class="cls-1" d="M85.45,96.81c-.2-.1-.34-.25-.44-.46-.1-.2-.15-.46-.15-.76v-3.26h.45v3.28c0,.3,.07,.53,.22,.68s.36,.23,.65,.23,.51-.08,.66-.23,.22-.38,.22-.68v-3.28h.45v3.26c0,.31-.05,.56-.15,.76-.1,.2-.25,.36-.44,.46-.2,.1-.44,.15-.74,.15s-.54-.05-.74-.15Z"/><path class="cls-1" d="M88.81,96.87c-.19-.06-.34-.17-.47-.31-.13-.14-.22-.32-.27-.54l.43-.16c.06,.24,.18,.41,.34,.52,.17,.11,.37,.16,.62,.16,.3,0,.54-.07,.7-.2s.24-.33,.24-.58v-.13c0-.16-.04-.29-.12-.4-.08-.11-.18-.19-.31-.25s-.29-.12-.49-.19c0,0,0,0-.01,0,0,0-.01,0-.02,0l-.09-.02c-.26-.08-.47-.16-.63-.24-.16-.08-.29-.19-.4-.34s-.16-.34-.16-.59v-.11c0-.26,.05-.48,.16-.66s.26-.31,.46-.41c.2-.09,.45-.14,.75-.14,.23,0,.43,.03,.59,.09,.16,.06,.3,.16,.4,.29,.11,.13,.19,.3,.25,.51l-.43,.15c-.07-.22-.17-.38-.3-.48s-.3-.15-.52-.15c-.3,0-.53,.07-.68,.2-.16,.13-.24,.32-.24,.56v.11c0,.16,.04,.29,.13,.39,.09,.1,.2,.18,.33,.24,.13,.06,.31,.12,.54,.19,.01,0,.02,0,.03,0,0,0,.01,0,.02,0,.01,0,.02,0,.03,0s.02,0,.03,0c.23,.07,.42,.15,.58,.23,.15,.08,.28,.2,.39,.36s.15,.35,.15,.59v.15c0,.26-.05,.48-.16,.66-.11,.18-.26,.32-.47,.41-.21,.09-.46,.13-.76,.13-.24,0-.46-.03-.65-.1Z"/><path class="cls-1" d="M92.39,92.33h.55l1.38,4.59h-.5l-1.15-4.09-1.15,4.09h-.5l1.38-4.59Zm-.69,3.05h1.99v.42h-1.99v-.42Z"/></g></g></g><path class="cls-3" d="M90.53,74.93s.12,1.04-1.14,1.04c-.93,0-1.06-.86-1.06-.91v-1.3h3.94v-2.21s.1-2.34-2.98-2.34-2.67,3.32-2.67,3.32v2.67s.13,2.18,2.88,2.18,2.83-2.46,2.83-2.46h-1.79Zm-1.12-4.23c1.35,0,1.09,1.63,1.09,1.63h-2.13s-.31-1.63,1.04-1.63Z"/></g></g></svg>