<?xml version="1.0" encoding="UTF-8"?><svg id="Capa_2" xmlns="http://www.w3.org/2000/svg" viewBox="0 0 472.25 237.21"><defs><style>.cls-1{fill:#fff;}</style></defs><g id="TRAZADO"><g id="Mapa"><circle class="cls-1" cx="3.41" cy="35.01" r="3.41"/><circle class="cls-1" cx="11.23" cy="35.01" r="3.41"/><circle class="cls-1" cx="19.04" cy="35.01" r="3.41"/><circle class="cls-1" cx="26.85" cy="35.01" r="3.41"/><circle class="cls-1" cx="34.67" cy="35.01" r="3.41"/><circle class="cls-1" cx="42.48" cy="35.01" r="3.41"/><circle class="cls-1" cx="50.3" cy="35.01" r="3.41"/><circle class="cls-1" cx="58.11" cy="35.01" r="3.41"/><circle class="cls-1" cx="65.93" cy="35.01" r="3.41"/><circle class="cls-1" cx="73.57" cy="35.01" r="3.41"/><circle class="cls-1" cx="81.38" cy="35.01" r="3.41"/><circle class="cls-1" cx="97.01" cy="35.01" r="3.41"/><circle class="cls-1" cx="104.83" cy="35.01" r="3.41"/><circle class="cls-1" cx="112.64" cy="35.01" r="3.41"/><circle class="cls-1" cx="120.46" cy="35.01" r="3.41"/><circle class="cls-1" cx="128.27" cy="35.01" r="3.41"/><circle class="cls-1" cx="73.57" cy="26.88" r="3.41"/><circle class="cls-1" cx="81.38" cy="26.88" r="3.41"/><circle class="cls-1" cx="58.11" cy="10.85" r="3.41"/><circle class="cls-1" cx="65.93" cy="10.85" r="3.41"/><circle class="cls-1" cx="97.01" cy="10.85" r="3.41"/><circle class="cls-1" cx="97.01" cy="26.88" r="3.41"/><circle class="cls-1" cx="104.83" cy="26.88" r="3.41"/><circle class="cls-1" cx="112.64" cy="26.88" r="3.41"/><circle class="cls-1" cx="120.46" cy="26.88" r="3.41"/><circle class="cls-1" cx="128.27" cy="26.88" r="3.41"/><circle class="cls-1" cx="11.23" cy="26.88" r="3.41"/><circle class="cls-1" cx="19.04" cy="26.88" r="3.41"/><circle class="cls-1" cx="128.27" cy="42.94" r="3.41"/><circle class="cls-1" cx="136.09" cy="42.94" r="3.41"/><circle class="cls-1" cx="128.27" cy="50.87" r="3.41"/><circle class="cls-1" cx="136.09" cy="50.87" r="3.41"/><circle class="cls-1" cx="120.95" cy="58.8" r="3.41"/><circle class="cls-1" cx="128.77" cy="58.8" r="3.41"/><circle class="cls-1" cx="3.41" cy="42.94" r="3.41"/><circle class="cls-1" cx="11.21" cy="42.94" r="3.41"/><circle class="cls-1" cx="19.01" cy="42.94" r="3.41"/><circle class="cls-1" cx="26.81" cy="42.94" r="3.41"/><circle class="cls-1" cx="34.62" cy="42.94" r="3.41"/><circle class="cls-1" cx="42.42" cy="42.94" r="3.41"/><circle class="cls-1" cx="50.22" cy="42.94" r="3.41"/><circle class="cls-1" cx="58.02" cy="42.94" r="3.41"/><circle class="cls-1" cx="65.82" cy="42.94" r="3.41"/><circle class="cls-1" cx="73.62" cy="42.94" r="3.41"/><circle class="cls-1" cx="81.42" cy="42.94" r="3.41"/><circle class="cls-1" cx="89.22" cy="42.94" r="3.41"/><circle class="cls-1" cx="97.02" cy="42.94" r="3.41"/><circle class="cls-1" cx="104.82" cy="42.94" r="3.41"/><circle class="cls-1" cx="3.41" cy="58.8" r="3.41"/><circle class="cls-1" cx="11.2" cy="58.8" r="3.41"/><circle class="cls-1" cx="18.99" cy="58.8" r="3.41"/><circle class="cls-1" cx="120.48" cy="66.73" r="3.41"/><circle class="cls-1" cx="128.27" cy="66.73" r="3.41"/><circle class="cls-1" cx="136.06" cy="66.73" r="3.41"/><circle class="cls-1" cx="18.99" cy="66.73" r="3.41"/><circle class="cls-1" cx="11.23" cy="50.87" r="3.41"/><circle class="cls-1" cx="19.03" cy="50.87" r="3.41"/><circle class="cls-1" cx="26.83" cy="50.87" r="3.41"/><circle class="cls-1" cx="34.63" cy="50.87" r="3.41"/><circle class="cls-1" cx="42.43" cy="50.87" r="3.41"/><circle class="cls-1" cx="50.23" cy="50.87" r="3.41"/><circle class="cls-1" cx="58.03" cy="50.87" r="3.41"/><circle class="cls-1" cx="65.83" cy="50.87" r="3.41"/><circle class="cls-1" cx="73.63" cy="50.87" r="3.41"/><circle class="cls-1" cx="81.43" cy="50.87" r="3.41"/><circle class="cls-1" cx="89.23" cy="50.87" r="3.41"/><circle class="cls-1" cx="97.03" cy="50.87" r="3.41"/><circle class="cls-1" cx="104.82" cy="50.87" r="3.41"/><circle class="cls-1" cx="50.24" cy="74.66" r="3.41"/><circle class="cls-1" cx="58.04" cy="74.66" r="3.41"/><circle class="cls-1" cx="65.84" cy="74.66" r="3.41"/><circle class="cls-1" cx="73.64" cy="74.66" r="3.41"/><circle class="cls-1" cx="81.44" cy="74.66" r="3.41"/><circle class="cls-1" cx="89.24" cy="74.66" r="3.41"/><circle class="cls-1" cx="97.04" cy="74.66" r="3.41"/><circle class="cls-1" cx="104.84" cy="74.66" r="3.41"/><circle class="cls-1" cx="112.64" cy="74.66" r="3.41"/><circle class="cls-1" cx="120.44" cy="74.66" r="3.41"/><circle class="cls-1" cx="128.24" cy="74.66" r="3.41"/><circle class="cls-1" cx="136.04" cy="74.66" r="3.41"/><circle class="cls-1" cx="143.83" cy="74.66" r="3.41"/><circle class="cls-1" cx="237.61" cy="74.66" r="3.41"/><circle class="cls-1" cx="245.06" cy="74.66" r="3.41"/><circle class="cls-1" cx="252.52" cy="74.66" r="3.41"/><circle class="cls-1" cx="259.98" cy="74.66" r="3.41"/><circle class="cls-1" cx="267.44" cy="74.66" r="3.41"/><circle class="cls-1" cx="274.9" cy="74.66" r="3.41"/><circle class="cls-1" cx="282.35" cy="74.66" r="3.41"/><circle class="cls-1" cx="289.81" cy="74.66" r="3.41"/><circle class="cls-1" cx="297.27" cy="74.66" r="3.41"/><circle class="cls-1" cx="304.73" cy="74.66" r="3.41"/><circle class="cls-1" cx="312.19" cy="74.66" r="3.41"/><circle class="cls-1" cx="319.64" cy="74.66" r="3.41"/><circle class="cls-1" cx="327.1" cy="74.66" r="3.41"/><circle class="cls-1" cx="334.56" cy="74.66" r="3.41"/><circle class="cls-1" cx="342.02" cy="74.66" r="3.41"/><circle class="cls-1" cx="349.48" cy="74.66" r="3.41"/><circle class="cls-1" cx="356.93" cy="74.66" r="3.41"/><circle class="cls-1" cx="364.39" cy="74.66" r="3.41"/><circle class="cls-1" cx="371.85" cy="74.66" r="3.41"/><circle class="cls-1" cx="379.31" cy="74.66" r="3.41"/><circle class="cls-1" cx="386.77" cy="74.66" r="3.41"/><circle class="cls-1" cx="394.22" cy="74.66" r="3.41"/><circle class="cls-1" cx="401.68" cy="74.66" r="3.41"/><circle class="cls-1" cx="409.14" cy="74.66" r="3.41"/><circle class="cls-1" cx="222.73" cy="82.59" r="3.41"/><circle class="cls-1" cx="230.19" cy="82.59" r="3.41"/><circle class="cls-1" cx="237.64" cy="82.59" r="3.41"/><circle class="cls-1" cx="245.1" cy="82.59" r="3.41"/><circle class="cls-1" cx="252.56" cy="82.59" r="3.41"/><circle class="cls-1" cx="260.01" cy="82.59" r="3.41"/><circle class="cls-1" cx="267.47" cy="82.59" r="3.41"/><circle class="cls-1" cx="274.93" cy="82.59" r="3.41"/><circle class="cls-1" cx="282.38" cy="82.59" r="3.41"/><circle class="cls-1" cx="289.84" cy="82.59" r="3.41"/><circle class="cls-1" cx="297.29" cy="82.59" r="3.41"/><circle class="cls-1" cx="304.75" cy="82.59" r="3.41"/><circle class="cls-1" cx="312.21" cy="82.59" r="3.41"/><circle class="cls-1" cx="319.66" cy="82.59" r="3.41"/><circle class="cls-1" cx="327.12" cy="82.59" r="3.41"/><circle class="cls-1" cx="334.58" cy="82.59" r="3.41"/><circle class="cls-1" cx="342.03" cy="82.59" r="3.41"/><circle class="cls-1" cx="349.49" cy="82.59" r="3.41"/><circle class="cls-1" cx="356.95" cy="82.59" r="3.41"/><circle class="cls-1" cx="364.4" cy="82.59" r="3.41"/><circle class="cls-1" cx="371.86" cy="82.59" r="3.41"/><circle class="cls-1" cx="379.31" cy="82.59" r="3.41"/><circle class="cls-1" cx="386.77" cy="82.59" r="3.41"/><circle class="cls-1" cx="394.23" cy="82.59" r="3.41"/><circle class="cls-1" cx="401.68" cy="82.59" r="3.41"/><circle class="cls-1" cx="409.14" cy="82.59" r="3.41"/><circle class="cls-1" cx="222.66" cy="90.52" r="3.41"/><circle class="cls-1" cx="230.12" cy="90.52" r="3.41"/><circle class="cls-1" cx="237.57" cy="90.52" r="3.41"/><circle class="cls-1" cx="245.03" cy="90.52" r="3.41"/><circle class="cls-1" cx="252.49" cy="90.52" r="3.41"/><circle class="cls-1" cx="259.95" cy="90.52" r="3.41"/><circle class="cls-1" cx="267.41" cy="90.52" r="3.41"/><circle class="cls-1" cx="274.87" cy="90.52" r="3.41"/><circle class="cls-1" cx="282.33" cy="90.52" r="3.41"/><circle class="cls-1" cx="289.79" cy="90.52" r="3.41"/><circle class="cls-1" cx="297.25" cy="90.52" r="3.41"/><circle class="cls-1" cx="304.71" cy="90.52" r="3.41"/><circle class="cls-1" cx="312.17" cy="90.52" r="3.41"/><circle class="cls-1" cx="319.63" cy="90.52" r="3.41"/><circle class="cls-1" cx="327.09" cy="90.52" r="3.41"/><circle class="cls-1" cx="334.55" cy="90.52" r="3.41"/><circle class="cls-1" cx="342.01" cy="90.52" r="3.41"/><circle class="cls-1" cx="349.47" cy="90.52" r="3.41"/><circle class="cls-1" cx="356.92" cy="90.52" r="3.41"/><circle class="cls-1" cx="364.38" cy="90.52" r="3.41"/><circle class="cls-1" cx="371.84" cy="90.52" r="3.41"/><circle class="cls-1" cx="379.3" cy="90.52" r="3.41"/><circle class="cls-1" cx="386.76" cy="90.52" r="3.41"/><circle class="cls-1" cx="394.22" cy="90.52" r="3.41"/><circle class="cls-1" cx="401.68" cy="90.52" r="3.41"/><circle class="cls-1" cx="409.14" cy="90.52" r="3.41"/><circle class="cls-1" cx="215.11" cy="98.34" r="3.41"/><circle class="cls-1" cx="222.58" cy="98.35" r="3.41"/><circle class="cls-1" cx="237.5" cy="98.36" r="3.41"/><circle class="cls-1" cx="244.96" cy="98.36" r="3.41"/><circle class="cls-1" cx="252.43" cy="98.36" r="3.41"/><circle class="cls-1" cx="274.81" cy="98.38" r="3.41"/><circle class="cls-1" cx="282.28" cy="98.38" r="3.41"/><circle class="cls-1" cx="289.74" cy="98.38" r="3.41"/><circle class="cls-1" cx="297.2" cy="98.39" r="3.41"/><circle class="cls-1" cx="304.66" cy="98.39" r="3.41"/><circle class="cls-1" cx="312.13" cy="98.4" r="3.41"/><circle class="cls-1" cx="319.59" cy="98.4" r="3.41"/><circle class="cls-1" cx="327.05" cy="98.4" r="3.41"/><circle class="cls-1" cx="334.51" cy="98.41" r="3.41"/><circle class="cls-1" cx="341.98" cy="98.41" r="3.41"/><circle class="cls-1" cx="349.44" cy="98.41" r="3.41"/><circle class="cls-1" cx="356.9" cy="98.42" r="3.41"/><circle class="cls-1" cx="364.36" cy="98.42" r="3.41"/><circle class="cls-1" cx="371.83" cy="98.43" r="3.41"/><circle class="cls-1" cx="379.29" cy="98.43" r="3.41"/><circle class="cls-1" cx="386.75" cy="98.43" r="3.41"/><circle class="cls-1" cx="394.22" cy="98.44" r="3.41"/><circle class="cls-1" cx="409.14" cy="98.45" r="3.41"/><circle class="cls-1" cx="215.11" cy="106.38" r="3.41"/><circle class="cls-1" cx="252.43" cy="106.38" r="3.41"/><circle class="cls-1" cx="259.89" cy="106.38" r="3.41"/><circle class="cls-1" cx="267.35" cy="106.38" r="3.41"/><circle class="cls-1" cx="274.81" cy="106.38" r="3.41"/><circle class="cls-1" cx="282.28" cy="106.38" r="3.41"/><circle class="cls-1" cx="289.74" cy="106.38" r="3.41"/><circle class="cls-1" cx="297.2" cy="106.38" r="3.41"/><circle class="cls-1" cx="304.66" cy="106.38" r="3.41"/><circle class="cls-1" cx="312.13" cy="106.38" r="3.41"/><circle class="cls-1" cx="319.59" cy="106.38" r="3.41"/><circle class="cls-1" cx="327.05" cy="106.38" r="3.41"/><circle class="cls-1" cx="334.51" cy="106.38" r="3.41"/><circle class="cls-1" cx="341.98" cy="106.38" r="3.41"/><circle class="cls-1" cx="349.44" cy="106.38" r="3.41"/><circle class="cls-1" cx="356.9" cy="106.38" r="3.41"/><circle class="cls-1" cx="364.36" cy="106.38" r="3.41"/><circle class="cls-1" cx="371.83" cy="106.38" r="3.41"/><circle class="cls-1" cx="379.29" cy="106.38" r="3.41"/><circle class="cls-1" cx="386.75" cy="106.38" r="3.41"/><circle class="cls-1" cx="215.11" cy="114.31" r="3.41"/><circle class="cls-1" cx="222.58" cy="114.31" r="3.41"/><circle class="cls-1" cx="230.04" cy="114.31" r="3.41"/><circle class="cls-1" cx="267.35" cy="114.31" r="3.41"/><circle class="cls-1" cx="274.81" cy="114.31" r="3.41"/><circle class="cls-1" cx="282.28" cy="114.31" r="3.41"/><circle class="cls-1" cx="289.74" cy="114.31" r="3.41"/><circle class="cls-1" cx="297.2" cy="114.31" r="3.41"/><circle class="cls-1" cx="304.66" cy="114.31" r="3.41"/><circle class="cls-1" cx="312.13" cy="114.31" r="3.41"/><circle class="cls-1" cx="319.59" cy="114.31" r="3.41"/><circle class="cls-1" cx="327.05" cy="114.31" r="3.41"/><circle class="cls-1" cx="334.51" cy="114.31" r="3.41"/><circle class="cls-1" cx="341.98" cy="114.31" r="3.41"/><circle class="cls-1" cx="349.44" cy="114.31" r="3.41"/><circle class="cls-1" cx="356.9" cy="114.31" r="3.41"/><circle class="cls-1" cx="364.36" cy="114.31" r="3.41"/><circle class="cls-1" cx="371.83" cy="114.31" r="3.41"/><circle class="cls-1" cx="379.29" cy="114.31" r="3.41"/><circle class="cls-1" cx="394.22" cy="114.31" r="3.41"/><circle class="cls-1" cx="207.5" cy="122.23" r="3.41"/><circle class="cls-1" cx="214.97" cy="122.23" r="3.41"/><circle class="cls-1" cx="222.44" cy="122.23" r="3.41"/><circle class="cls-1" cx="229.9" cy="122.23" r="3.41"/><circle class="cls-1" cx="237.37" cy="122.23" r="3.41"/><circle class="cls-1" cx="244.84" cy="122.23" r="3.41"/><circle class="cls-1" cx="252.31" cy="122.23" r="3.41"/><circle class="cls-1" cx="259.78" cy="122.23" r="3.41"/><circle class="cls-1" cx="267.25" cy="122.23" r="3.41"/><circle class="cls-1" cx="274.71" cy="122.23" r="3.41"/><circle class="cls-1" cx="282.18" cy="122.23" r="3.41"/><circle class="cls-1" cx="289.65" cy="122.23" r="3.41"/><circle class="cls-1" cx="297.12" cy="122.23" r="3.41"/><circle class="cls-1" cx="304.59" cy="122.23" r="3.41"/><circle class="cls-1" cx="312.05" cy="122.23" r="3.41"/><circle class="cls-1" cx="319.52" cy="122.23" r="3.41"/><circle class="cls-1" cx="326.99" cy="122.23" r="3.41"/><circle class="cls-1" cx="334.46" cy="122.23" r="3.41"/><circle class="cls-1" cx="341.93" cy="122.23" r="3.41"/><circle class="cls-1" cx="349.39" cy="122.23" r="3.41"/><circle class="cls-1" cx="356.86" cy="122.23" r="3.41"/><circle class="cls-1" cx="364.33" cy="122.23" r="3.41"/><circle class="cls-1" cx="371.8" cy="122.23" r="3.41"/><circle class="cls-1" cx="379.27" cy="122.23" r="3.41"/><circle class="cls-1" cx="207.5" cy="130.16" r="3.41"/><circle class="cls-1" cx="214.97" cy="130.16" r="3.41"/><circle class="cls-1" cx="222.44" cy="130.16" r="3.41"/><circle class="cls-1" cx="229.9" cy="130.16" r="3.41"/><circle class="cls-1" cx="237.37" cy="130.16" r="3.41"/><circle class="cls-1" cx="244.84" cy="130.16" r="3.41"/><circle class="cls-1" cx="252.31" cy="130.16" r="3.41"/><circle class="cls-1" cx="259.78" cy="130.16" r="3.41"/><circle class="cls-1" cx="267.25" cy="130.16" r="3.41"/><circle class="cls-1" cx="274.71" cy="130.16" r="3.41"/><circle class="cls-1" cx="282.18" cy="130.16" r="3.41"/><circle class="cls-1" cx="289.65" cy="130.16" r="3.41"/><circle class="cls-1" cx="297.12" cy="130.16" r="3.41"/><circle class="cls-1" cx="312.05" cy="130.16" r="3.41"/><circle class="cls-1" cx="319.52" cy="130.16" r="3.41"/><circle class="cls-1" cx="326.99" cy="130.16" r="3.41"/><circle class="cls-1" cx="334.46" cy="130.16" r="3.41"/><circle class="cls-1" cx="341.93" cy="130.16" r="3.41"/><circle class="cls-1" cx="349.39" cy="130.16" r="3.41"/><circle class="cls-1" cx="356.86" cy="130.16" r="3.41"/><circle class="cls-1" cx="364.33" cy="130.16" r="3.41"/><circle class="cls-1" cx="371.8" cy="130.16" r="3.41"/><circle class="cls-1" cx="207.5" cy="138.09" r="3.41"/><circle class="cls-1" cx="214.97" cy="138.09" r="3.41"/><circle class="cls-1" cx="222.44" cy="138.09" r="3.41"/><circle class="cls-1" cx="229.9" cy="138.09" r="3.41"/><circle class="cls-1" cx="237.37" cy="138.09" r="3.41"/><circle class="cls-1" cx="244.84" cy="138.09" r="3.41"/><circle class="cls-1" cx="252.31" cy="138.09" r="3.41"/><circle class="cls-1" cx="259.78" cy="138.09" r="3.41"/><circle class="cls-1" cx="267.25" cy="138.09" r="3.41"/><circle class="cls-1" cx="282.18" cy="138.09" r="3.41"/><circle class="cls-1" cx="289.65" cy="138.09" r="3.41"/><circle class="cls-1" cx="326.99" cy="138.09" r="3.41"/><circle class="cls-1" cx="334.46" cy="138.09" r="3.41"/><circle class="cls-1" cx="341.93" cy="138.09" r="3.41"/><circle class="cls-1" cx="349.39" cy="138.09" r="3.41"/><circle class="cls-1" cx="356.86" cy="138.09" r="3.41"/><circle class="cls-1" cx="364.33" cy="138.09" r="3.41"/><circle class="cls-1" cx="207.5" cy="146.02" r="3.41"/><circle class="cls-1" cx="214.97" cy="146.02" r="3.41"/><circle class="cls-1" cx="222.44" cy="146.02" r="3.41"/><circle class="cls-1" cx="229.9" cy="146.02" r="3.41"/><circle class="cls-1" cx="237.37" cy="146.02" r="3.41"/><circle class="cls-1" cx="244.84" cy="146.02" r="3.41"/><circle class="cls-1" cx="252.31" cy="146.02" r="3.41"/><circle class="cls-1" cx="259.78" cy="146.02" r="3.41"/><circle class="cls-1" cx="267.25" cy="146.02" r="3.41"/><circle class="cls-1" cx="274.71" cy="146.02" r="3.41"/><circle class="cls-1" cx="326.99" cy="146.02" r="3.41"/><circle class="cls-1" cx="364.33" cy="146.02" r="3.41"/><circle class="cls-1" cx="386.74" cy="146.02" r="3.41"/><circle class="cls-1" cx="214.97" cy="153.95" r="3.41"/><circle class="cls-1" cx="222.44" cy="153.95" r="3.41"/><circle class="cls-1" cx="229.9" cy="153.95" r="3.41"/><circle class="cls-1" cx="237.37" cy="153.95" r="3.41"/><circle class="cls-1" cx="244.84" cy="153.95" r="3.41"/><circle class="cls-1" cx="252.31" cy="153.95" r="3.41"/><circle class="cls-1" cx="259.78" cy="153.95" r="3.41"/><circle class="cls-1" cx="267.25" cy="153.95" r="3.41"/><circle class="cls-1" cx="274.71" cy="153.95" r="3.41"/><circle class="cls-1" cx="282.18" cy="153.95" r="3.41"/><circle class="cls-1" cx="356.86" cy="153.95" r="3.41"/><circle class="cls-1" cx="379.27" cy="153.95" r="3.41"/><circle class="cls-1" cx="237.37" cy="161.88" r="3.41"/><circle class="cls-1" cx="244.84" cy="161.88" r="3.41"/><circle class="cls-1" cx="252.31" cy="161.88" r="3.41"/><circle class="cls-1" cx="259.78" cy="161.88" r="3.41"/><circle class="cls-1" cx="267.25" cy="161.88" r="3.41"/><circle class="cls-1" cx="274.71" cy="161.88" r="3.41"/><circle class="cls-1" cx="356.86" cy="161.88" r="3.41"/><circle class="cls-1" cx="371.8" cy="161.88" r="3.41"/><circle class="cls-1" cx="237.37" cy="169.81" r="3.41"/><circle class="cls-1" cx="244.84" cy="169.81" r="3.41"/><circle class="cls-1" cx="252.31" cy="169.81" r="3.41"/><circle class="cls-1" cx="259.78" cy="169.81" r="3.41"/><circle class="cls-1" cx="267.25" cy="169.81" r="3.41"/><circle class="cls-1" cx="364.33" cy="169.81" r="3.41"/><circle class="cls-1" cx="409.14" cy="169.81" r="3.41"/><circle class="cls-1" cx="244.84" cy="177.74" r="3.41"/><circle class="cls-1" cx="252.31" cy="177.74" r="3.41"/><circle class="cls-1" cx="259.78" cy="177.74" r="3.41"/><circle class="cls-1" cx="267.25" cy="177.74" r="3.41"/><circle class="cls-1" cx="401.67" cy="177.74" r="3.41"/><circle class="cls-1" cx="409.14" cy="177.74" r="3.41"/><circle class="cls-1" cx="237.37" cy="185.67" r="3.41"/><circle class="cls-1" cx="244.84" cy="185.67" r="3.41"/><circle class="cls-1" cx="252.31" cy="185.67" r="3.41"/><circle class="cls-1" cx="259.78" cy="185.67" r="3.41"/><circle class="cls-1" cx="267.25" cy="185.67" r="3.41"/><circle class="cls-1" cx="282.18" cy="185.67" r="3.41"/><circle class="cls-1" cx="386.74" cy="185.67" r="3.41"/><circle class="cls-1" cx="394.2" cy="185.67" r="3.41"/><circle class="cls-1" cx="401.67" cy="185.67" r="3.41"/><circle class="cls-1" cx="409.14" cy="185.67" r="3.41"/><circle class="cls-1" cx="244.84" cy="193.6" r="3.41"/><circle class="cls-1" cx="252.31" cy="193.6" r="3.41"/><circle class="cls-1" cx="259.78" cy="193.6" r="3.41"/><circle class="cls-1" cx="282.18" cy="193.6" r="3.41"/><circle class="cls-1" cx="379.27" cy="193.6" r="3.41"/><circle class="cls-1" cx="386.74" cy="193.6" r="3.41"/><circle class="cls-1" cx="394.2" cy="193.6" r="3.41"/><circle class="cls-1" cx="401.67" cy="193.6" r="3.41"/><circle class="cls-1" cx="409.14" cy="193.6" r="3.41"/><circle class="cls-1" cx="244.84" cy="201.53" r="3.41"/><circle class="cls-1" cx="252.31" cy="201.53" r="3.41"/><circle class="cls-1" cx="259.78" cy="201.53" r="3.41"/><circle class="cls-1" cx="379.27" cy="201.53" r="3.41"/><circle class="cls-1" cx="386.74" cy="201.53" r="3.41"/><circle class="cls-1" cx="394.2" cy="201.53" r="3.41"/><circle class="cls-1" cx="401.67" cy="201.53" r="3.41"/><circle class="cls-1" cx="409.14" cy="201.53" r="3.41"/><circle class="cls-1" cx="244.84" cy="209.46" r="3.41"/><circle class="cls-1" cx="252.31" cy="209.46" r="3.41"/><circle class="cls-1" cx="121.62" cy="162.44" r="3.41"/><circle class="cls-1" cx="129.09" cy="162.44" r="3.41"/><circle class="cls-1" cx="136.56" cy="162.44" r="3.41"/><circle class="cls-1" cx="144.03" cy="162.44" r="3.41"/><circle class="cls-1" cx="121.62" cy="155.06" r="3.41"/><circle class="cls-1" cx="129.09" cy="155.06" r="3.41"/><circle class="cls-1" cx="136.56" cy="155.06" r="3.41"/><circle class="cls-1" cx="144.03" cy="155.06" r="3.41"/><circle class="cls-1" cx="151.49" cy="162.44" r="3.41"/><circle class="cls-1" cx="121.62" cy="170.36" r="3.41"/><circle class="cls-1" cx="129.09" cy="170.36" r="3.41"/><circle class="cls-1" cx="136.56" cy="170.36" r="3.41"/><circle class="cls-1" cx="144.03" cy="170.36" r="3.41"/><circle class="cls-1" cx="151.49" cy="170.36" r="3.41"/><circle class="cls-1" cx="158.96" cy="170.36" r="3.41"/><circle class="cls-1" cx="121.62" cy="178.29" r="3.41"/><circle class="cls-1" cx="129.09" cy="178.29" r="3.41"/><circle class="cls-1" cx="136.56" cy="178.29" r="3.41"/><circle class="cls-1" cx="144.03" cy="178.29" r="3.41"/><circle class="cls-1" cx="151.49" cy="178.29" r="3.41"/><circle class="cls-1" cx="158.96" cy="178.29" r="3.41"/><circle class="cls-1" cx="129.09" cy="186.22" r="3.41"/><circle class="cls-1" cx="136.56" cy="186.22" r="3.41"/><circle class="cls-1" cx="144.03" cy="186.22" r="3.41"/><circle class="cls-1" cx="151.49" cy="186.22" r="3.41"/><circle class="cls-1" cx="158.96" cy="186.22" r="3.41"/><circle class="cls-1" cx="166.77" cy="170.36" r="3.41"/><circle class="cls-1" cx="174.58" cy="170.36" r="3.41"/><circle class="cls-1" cx="166.77" cy="178.29" r="3.41"/><circle class="cls-1" cx="166.77" cy="186.22" r="3.41"/><circle class="cls-1" cx="129.09" cy="194.15" r="3.41"/><circle class="cls-1" cx="136.56" cy="194.15" r="3.41"/><circle class="cls-1" cx="144.03" cy="194.15" r="3.41"/><circle class="cls-1" cx="151.49" cy="194.15" r="3.41"/><circle class="cls-1" cx="158.96" cy="194.15" r="3.41"/><circle class="cls-1" cx="129.09" cy="202.08" r="3.41"/><circle class="cls-1" cx="136.56" cy="202.08" r="3.41"/><circle class="cls-1" cx="144.03" cy="202.08" r="3.41"/><circle class="cls-1" cx="151.49" cy="202.08" r="3.41"/><circle class="cls-1" cx="151.49" cy="11.22" r="3.41"/><circle class="cls-1" cx="158.96" cy="11.22" r="3.41"/><circle class="cls-1" cx="166.43" cy="11.22" r="3.41"/><circle class="cls-1" cx="151.49" cy="3.41" r="3.41"/><circle class="cls-1" cx="143.97" cy="3.41" r="3.41"/><circle class="cls-1" cx="158.96" cy="3.41" r="3.41"/><circle class="cls-1" cx="166.43" cy="3.41" r="3.41"/><circle class="cls-1" cx="173.9" cy="3.41" r="3.41"/><circle class="cls-1" cx="181.37" cy="3.41" r="3.41"/><circle class="cls-1" cx="188.84" cy="3.41" r="3.41"/><circle class="cls-1" cx="349.47" cy="3.41" r="3.41"/><circle class="cls-1" cx="297.27" cy="3.41" r="3.41"/><circle class="cls-1" cx="356.93" cy="3.41" r="3.41"/><circle class="cls-1" cx="364.4" cy="3.41" r="3.41"/><circle class="cls-1" cx="371.87" cy="3.41" r="3.41"/><circle class="cls-1" cx="409.14" cy="3.41" r="3.41"/><circle class="cls-1" cx="173.9" cy="11.22" r="3.41"/><circle class="cls-1" cx="181.37" cy="11.22" r="3.41"/><circle class="cls-1" cx="188.84" cy="11.22" r="3.41"/><circle class="cls-1" cx="151.49" cy="19.15" r="3.41"/><circle class="cls-1" cx="158.96" cy="19.15" r="3.41"/><circle class="cls-1" cx="166.43" cy="19.15" r="3.41"/><circle class="cls-1" cx="173.9" cy="19.15" r="3.41"/><circle class="cls-1" cx="181.37" cy="19.15" r="3.41"/><circle class="cls-1" cx="151.49" cy="27.08" r="3.41"/><circle class="cls-1" cx="158.96" cy="27.08" r="3.41"/><circle class="cls-1" cx="166.43" cy="27.08" r="3.41"/><circle class="cls-1" cx="173.9" cy="27.08" r="3.41"/><circle class="cls-1" cx="181.37" cy="27.08" r="3.41"/><circle class="cls-1" cx="151.49" cy="35.01" r="3.41"/><circle class="cls-1" cx="158.96" cy="35.01" r="3.41"/><circle class="cls-1" cx="166.43" cy="35.01" r="3.41"/><circle class="cls-1" cx="173.9" cy="35.01" r="3.41"/><circle class="cls-1" cx="181.37" cy="35.01" r="3.41"/><circle class="cls-1" cx="151.49" cy="42.94" r="3.41"/><circle class="cls-1" cx="158.96" cy="42.94" r="3.41"/><circle class="cls-1" cx="166.43" cy="42.94" r="3.41"/><circle class="cls-1" cx="188.84" cy="42.94" r="3.41"/><circle class="cls-1" cx="196.3" cy="42.94" r="3.41"/><circle class="cls-1" cx="158.96" cy="50.87" r="3.41"/><circle class="cls-1" cx="129.09" cy="210.01" r="3.41"/><circle class="cls-1" cx="136.56" cy="210.01" r="3.41"/><circle class="cls-1" cx="144.03" cy="210.01" r="3.41"/><circle class="cls-1" cx="129.09" cy="217.94" r="3.41"/><circle class="cls-1" cx="136.56" cy="217.94" r="3.41"/><circle class="cls-1" cx="144.03" cy="217.94" r="3.41"/><circle class="cls-1" cx="129.09" cy="225.87" r="3.41"/><circle class="cls-1" cx="136.56" cy="225.87" r="3.41"/><circle class="cls-1" cx="129.09" cy="233.8" r="3.41"/><circle class="cls-1" cx="379.27" cy="209.46" r="3.41"/><circle class="cls-1" cx="401.67" cy="209.46" r="3.41"/><circle class="cls-1" cx="409.14" cy="209.46" r="3.41"/><circle class="cls-1" cx="416.68" cy="193.6" r="3.41"/><circle class="cls-1" cx="416.68" cy="201.53" r="3.41"/><circle class="cls-1" cx="416.68" cy="209.46" r="3.41"/><circle class="cls-1" cx="237.61" cy="66.73" r="3.41"/><circle class="cls-1" cx="214.14" cy="66.73" r="3.41"/><circle class="cls-1" cx="252.52" cy="66.73" r="3.41"/><circle class="cls-1" cx="259.98" cy="66.73" r="3.41"/><circle class="cls-1" cx="267.44" cy="66.73" r="3.41"/><circle class="cls-1" cx="274.9" cy="66.73" r="3.41"/><circle class="cls-1" cx="282.35" cy="66.73" r="3.41"/><circle class="cls-1" cx="289.81" cy="66.73" r="3.41"/><circle class="cls-1" cx="297.27" cy="66.73" r="3.41"/><circle class="cls-1" cx="304.73" cy="66.73" r="3.41"/><circle class="cls-1" cx="312.19" cy="66.73" r="3.41"/><circle class="cls-1" cx="319.64" cy="66.73" r="3.41"/><circle class="cls-1" cx="327.1" cy="66.73" r="3.41"/><circle class="cls-1" cx="334.56" cy="66.73" r="3.41"/><circle class="cls-1" cx="342.02" cy="66.73" r="3.41"/><circle class="cls-1" cx="349.48" cy="66.73" r="3.41"/><circle class="cls-1" cx="356.93" cy="66.73" r="3.41"/><circle class="cls-1" cx="364.39" cy="66.73" r="3.41"/><circle class="cls-1" cx="371.85" cy="66.73" r="3.41"/><circle class="cls-1" cx="379.31" cy="66.73" r="3.41"/><circle class="cls-1" cx="386.77" cy="66.73" r="3.41"/><circle class="cls-1" cx="394.22" cy="66.73" r="3.41"/><circle class="cls-1" cx="401.68" cy="66.73" r="3.41"/><circle class="cls-1" cx="237.61" cy="58.8" r="3.41"/><circle class="cls-1" cx="229.86" cy="58.8" r="3.41"/><circle class="cls-1" cx="252.52" cy="58.8" r="3.41"/><circle class="cls-1" cx="259.98" cy="58.8" r="3.41"/><circle class="cls-1" cx="267.44" cy="58.8" r="3.41"/><circle class="cls-1" cx="274.9" cy="58.8" r="3.41"/><circle class="cls-1" cx="282.35" cy="58.8" r="3.41"/><circle class="cls-1" cx="289.81" cy="58.8" r="3.41"/><circle class="cls-1" cx="297.27" cy="58.8" r="3.41"/><circle class="cls-1" cx="304.73" cy="58.8" r="3.41"/><circle class="cls-1" cx="312.19" cy="58.8" r="3.41"/><circle class="cls-1" cx="319.64" cy="58.8" r="3.41"/><circle class="cls-1" cx="327.1" cy="58.8" r="3.41"/><circle class="cls-1" cx="334.56" cy="58.8" r="3.41"/><circle class="cls-1" cx="342.02" cy="58.8" r="3.41"/><circle class="cls-1" cx="349.48" cy="58.8" r="3.41"/><circle class="cls-1" cx="356.93" cy="58.8" r="3.41"/><circle class="cls-1" cx="364.39" cy="58.8" r="3.41"/><circle class="cls-1" cx="371.85" cy="58.8" r="3.41"/><circle class="cls-1" cx="379.31" cy="58.8" r="3.41"/><circle class="cls-1" cx="386.77" cy="58.8" r="3.41"/><circle class="cls-1" cx="394.22" cy="58.8" r="3.41"/><circle class="cls-1" cx="401.68" cy="58.8" r="3.41"/><circle class="cls-1" cx="409.14" cy="58.8" r="3.41"/><circle class="cls-1" cx="237.61" cy="50.87" r="3.41"/><circle class="cls-1" cx="245.06" cy="50.87" r="3.41"/><circle class="cls-1" cx="252.52" cy="50.87" r="3.41"/><circle class="cls-1" cx="259.98" cy="50.87" r="3.41"/><circle class="cls-1" cx="267.44" cy="50.87" r="3.41"/><circle class="cls-1" cx="274.9" cy="50.87" r="3.41"/><circle class="cls-1" cx="282.35" cy="50.87" r="3.41"/><circle class="cls-1" cx="289.81" cy="50.87" r="3.41"/><circle class="cls-1" cx="297.27" cy="50.87" r="3.41"/><circle class="cls-1" cx="304.73" cy="50.87" r="3.41"/><circle class="cls-1" cx="312.19" cy="50.87" r="3.41"/><circle class="cls-1" cx="319.64" cy="50.87" r="3.41"/><circle class="cls-1" cx="327.1" cy="50.87" r="3.41"/><circle class="cls-1" cx="334.56" cy="50.87" r="3.41"/><circle class="cls-1" cx="342.02" cy="50.87" r="3.41"/><circle class="cls-1" cx="349.48" cy="50.87" r="3.41"/><circle class="cls-1" cx="356.93" cy="50.87" r="3.41"/><circle class="cls-1" cx="364.39" cy="50.87" r="3.41"/><circle class="cls-1" cx="371.85" cy="50.87" r="3.41"/><circle class="cls-1" cx="379.31" cy="50.87" r="3.41"/><circle class="cls-1" cx="386.77" cy="50.87" r="3.41"/><circle class="cls-1" cx="394.22" cy="50.87" r="3.41"/><circle class="cls-1" cx="401.68" cy="50.87" r="3.41"/><circle class="cls-1" cx="409.14" cy="50.87" r="3.41"/><circle class="cls-1" cx="237.61" cy="42.94" r="3.41"/><circle class="cls-1" cx="245.06" cy="42.94" r="3.41"/><circle class="cls-1" cx="252.52" cy="42.94" r="3.41"/><circle class="cls-1" cx="259.98" cy="42.94" r="3.41"/><circle class="cls-1" cx="274.9" cy="42.94" r="3.41"/><circle class="cls-1" cx="282.35" cy="42.94" r="3.41"/><circle class="cls-1" cx="289.81" cy="42.94" r="3.41"/><circle class="cls-1" cx="297.27" cy="42.94" r="3.41"/><circle class="cls-1" cx="304.73" cy="42.94" r="3.41"/><circle class="cls-1" cx="312.19" cy="42.94" r="3.41"/><circle class="cls-1" cx="319.64" cy="42.94" r="3.41"/><circle class="cls-1" cx="327.1" cy="42.94" r="3.41"/><circle class="cls-1" cx="334.56" cy="42.94" r="3.41"/><circle class="cls-1" cx="342.02" cy="42.94" r="3.41"/><circle class="cls-1" cx="349.48" cy="42.94" r="3.41"/><circle class="cls-1" cx="356.93" cy="42.94" r="3.41"/><circle class="cls-1" cx="364.39" cy="42.94" r="3.41"/><circle class="cls-1" cx="371.85" cy="42.94" r="3.41"/><circle class="cls-1" cx="379.31" cy="42.94" r="3.41"/><circle class="cls-1" cx="386.77" cy="42.94" r="3.41"/><circle class="cls-1" cx="394.22" cy="42.94" r="3.41"/><circle class="cls-1" cx="401.68" cy="42.94" r="3.41"/><circle class="cls-1" cx="409.14" cy="42.94" r="3.41"/><circle class="cls-1" cx="245.06" cy="35.01" r="3.41"/><circle class="cls-1" cx="252.52" cy="35.01" r="3.41"/><circle class="cls-1" cx="259.98" cy="35.01" r="3.41"/><circle class="cls-1" cx="267.44" cy="35.01" r="3.41"/><circle class="cls-1" cx="289.81" cy="35.01" r="3.41"/><circle class="cls-1" cx="297.27" cy="35.01" r="3.41"/><circle class="cls-1" cx="304.73" cy="35.01" r="3.41"/><circle class="cls-1" cx="312.19" cy="35.01" r="3.41"/><circle class="cls-1" cx="319.64" cy="35.01" r="3.41"/><circle class="cls-1" cx="327.1" cy="35.01" r="3.41"/><circle class="cls-1" cx="334.56" cy="35.01" r="3.41"/><circle class="cls-1" cx="342.02" cy="35.01" r="3.41"/><circle class="cls-1" cx="349.48" cy="35.01" r="3.41"/><circle class="cls-1" cx="356.93" cy="35.01" r="3.41"/><circle class="cls-1" cx="364.39" cy="35.01" r="3.41"/><circle class="cls-1" cx="371.85" cy="35.01" r="3.41"/><circle class="cls-1" cx="379.31" cy="35.01" r="3.41"/><circle class="cls-1" cx="386.77" cy="35.01" r="3.41"/><circle class="cls-1" cx="394.22" cy="35.01" r="3.41"/><circle class="cls-1" cx="401.68" cy="35.01" r="3.41"/><circle class="cls-1" cx="409.14" cy="35.01" r="3.41"/><circle class="cls-1" cx="416.64" cy="35.01" r="3.41"/><circle class="cls-1" cx="424.09" cy="35.01" r="3.41"/><circle class="cls-1" cx="431.55" cy="35.01" r="3.41"/><circle class="cls-1" cx="439.01" cy="35.01" r="3.41"/><circle class="cls-1" cx="446.47" cy="35.01" r="3.41"/><circle class="cls-1" cx="453.93" cy="35.01" r="3.41"/><circle class="cls-1" cx="416.64" cy="42.94" r="3.41"/><circle class="cls-1" cx="424.09" cy="42.94" r="3.41"/><circle class="cls-1" cx="416.64" cy="19.15" r="3.41"/><circle class="cls-1" cx="416.64" cy="27.08" r="3.41"/><circle class="cls-1" cx="424.09" cy="27.08" r="3.41"/><circle class="cls-1" cx="431.55" cy="42.94" r="3.41"/><circle class="cls-1" cx="439.01" cy="42.94" r="3.41"/><circle class="cls-1" cx="446.47" cy="42.94" r="3.41"/><circle class="cls-1" cx="453.93" cy="42.94" r="3.41"/><circle class="cls-1" cx="461.38" cy="42.94" r="3.41"/><circle class="cls-1" cx="468.84" cy="42.94" r="3.41"/><circle class="cls-1" cx="416.64" cy="50.87" r="3.41"/><circle class="cls-1" cx="424.09" cy="50.87" r="3.41"/><circle class="cls-1" cx="431.55" cy="50.87" r="3.41"/><circle class="cls-1" cx="439.01" cy="50.87" r="3.41"/><circle class="cls-1" cx="446.47" cy="50.87" r="3.41"/><circle class="cls-1" cx="453.93" cy="50.87" r="3.41"/><circle class="cls-1" cx="416.64" cy="58.8" r="3.41"/><circle class="cls-1" cx="424.09" cy="58.8" r="3.41"/><circle class="cls-1" cx="431.55" cy="58.8" r="3.41"/><circle class="cls-1" cx="431.55" cy="66.73" r="3.41"/><circle class="cls-1" cx="431.55" cy="74.66" r="3.41"/><circle class="cls-1" cx="424.09" cy="98.65" r="3.41"/><circle class="cls-1" cx="431.55" cy="90.52" r="3.41"/><circle class="cls-1" cx="439.01" cy="58.8" r="3.41"/><circle class="cls-1" cx="252.52" cy="27.08" r="3.41"/><circle class="cls-1" cx="259.98" cy="27.08" r="3.41"/><circle class="cls-1" cx="312.19" cy="27.08" r="3.41"/><circle class="cls-1" cx="319.64" cy="27.08" r="3.41"/><circle class="cls-1" cx="327.1" cy="27.08" r="3.41"/><circle class="cls-1" cx="334.56" cy="27.08" r="3.41"/><circle class="cls-1" cx="342.02" cy="27.08" r="3.41"/><circle class="cls-1" cx="349.48" cy="27.08" r="3.41"/><circle class="cls-1" cx="356.93" cy="27.08" r="3.41"/><circle class="cls-1" cx="364.39" cy="27.08" r="3.41"/><circle class="cls-1" cx="371.85" cy="27.08" r="3.41"/><circle class="cls-1" cx="379.31" cy="27.08" r="3.41"/><circle class="cls-1" cx="386.77" cy="27.08" r="3.41"/><circle class="cls-1" cx="394.22" cy="27.08" r="3.41"/><circle class="cls-1" cx="401.68" cy="27.08" r="3.41"/><circle class="cls-1" cx="409.14" cy="27.08" r="3.41"/><circle class="cls-1" cx="289.81" cy="19.15" r="3.41"/><circle class="cls-1" cx="312.19" cy="19.15" r="3.41"/><circle class="cls-1" cx="319.64" cy="19.15" r="3.41"/><circle class="cls-1" cx="327.1" cy="19.15" r="3.41"/><circle class="cls-1" cx="334.56" cy="19.15" r="3.41"/><circle class="cls-1" cx="342.02" cy="19.15" r="3.41"/><circle class="cls-1" cx="349.48" cy="19.15" r="3.41"/><circle class="cls-1" cx="356.93" cy="19.15" r="3.41"/><circle class="cls-1" cx="364.39" cy="19.15" r="3.41"/><circle class="cls-1" cx="371.85" cy="19.15" r="3.41"/><circle class="cls-1" cx="379.31" cy="19.15" r="3.41"/><circle class="cls-1" cx="386.77" cy="19.15" r="3.41"/><circle class="cls-1" cx="409.14" cy="19.15" r="3.41"/><circle class="cls-1" cx="334.56" cy="11.22" r="3.41"/><circle class="cls-1" cx="342.02" cy="11.22" r="3.41"/><circle class="cls-1" cx="349.48" cy="11.22" r="3.41"/><circle class="cls-1" cx="356.93" cy="11.22" r="3.41"/><circle class="cls-1" cx="364.39" cy="11.22" r="3.41"/><circle class="cls-1" cx="371.85" cy="11.22" r="3.41"/><circle class="cls-1" cx="34.67" cy="58.8" r="3.41"/><circle class="cls-1" cx="42.46" cy="58.8" r="3.41"/><circle class="cls-1" cx="50.26" cy="58.8" r="3.41"/><circle class="cls-1" cx="58.05" cy="58.8" r="3.41"/><circle class="cls-1" cx="65.85" cy="58.8" r="3.41"/><circle class="cls-1" cx="73.64" cy="58.8" r="3.41"/><circle class="cls-1" cx="81.44" cy="58.8" r="3.41"/><circle class="cls-1" cx="89.23" cy="58.8" r="3.41"/><circle class="cls-1" cx="97.03" cy="58.8" r="3.41"/><circle class="cls-1" cx="104.82" cy="58.8" r="3.41"/><circle class="cls-1" cx="58.12" cy="82.78" r="3.41"/><circle class="cls-1" cx="65.92" cy="82.78" r="3.41"/><circle class="cls-1" cx="73.71" cy="82.78" r="3.41"/><circle class="cls-1" cx="81.51" cy="82.78" r="3.41"/><circle class="cls-1" cx="89.31" cy="82.78" r="3.41"/><circle class="cls-1" cx="97.1" cy="82.78" r="3.41"/><circle class="cls-1" cx="104.9" cy="82.78" r="3.41"/><circle class="cls-1" cx="112.7" cy="82.78" r="3.41"/><circle class="cls-1" cx="120.49" cy="82.78" r="3.41"/><circle class="cls-1" cx="128.29" cy="82.78" r="3.41"/><circle class="cls-1" cx="136.09" cy="82.78" r="3.41"/><circle class="cls-1" cx="58.12" cy="90.89" r="3.41"/><circle class="cls-1" cx="65.92" cy="90.89" r="3.41"/><circle class="cls-1" cx="73.71" cy="90.89" r="3.41"/><circle class="cls-1" cx="81.51" cy="90.89" r="3.41"/><circle class="cls-1" cx="89.31" cy="90.89" r="3.41"/><circle class="cls-1" cx="97.1" cy="90.89" r="3.41"/><circle class="cls-1" cx="104.9" cy="90.89" r="3.41"/><circle class="cls-1" cx="112.7" cy="90.89" r="3.41"/><circle class="cls-1" cx="120.49" cy="90.89" r="3.41"/><circle class="cls-1" cx="128.29" cy="90.89" r="3.41"/><circle class="cls-1" cx="136.09" cy="90.89" r="3.41"/><circle class="cls-1" cx="58.12" cy="99.01" r="3.41"/><circle class="cls-1" cx="65.92" cy="99.01" r="3.41"/><circle class="cls-1" cx="73.71" cy="99.01" r="3.41"/><circle class="cls-1" cx="81.51" cy="99.01" r="3.41"/><circle class="cls-1" cx="89.31" cy="99.01" r="3.41"/><circle class="cls-1" cx="97.1" cy="99.01" r="3.41"/><circle class="cls-1" cx="104.9" cy="99.01" r="3.41"/><circle class="cls-1" cx="112.7" cy="99.01" r="3.41"/><circle class="cls-1" cx="120.49" cy="99.01" r="3.41"/><circle class="cls-1" cx="65.92" cy="107.13" r="3.41"/><circle class="cls-1" cx="73.71" cy="107.13" r="3.41"/><circle class="cls-1" cx="81.51" cy="107.13" r="3.41"/><circle class="cls-1" cx="89.31" cy="107.13" r="3.41"/><circle class="cls-1" cx="97.1" cy="107.13" r="3.41"/><circle class="cls-1" cx="104.9" cy="107.13" r="3.41"/><circle class="cls-1" cx="112.7" cy="107.13" r="3.41"/><circle class="cls-1" cx="120.49" cy="107.13" r="3.41"/><circle class="cls-1" cx="65.92" cy="115.24" r="3.41"/><circle class="cls-1" cx="73.71" cy="115.24" r="3.41"/><circle class="cls-1" cx="81.51" cy="115.24" r="3.41"/><circle class="cls-1" cx="89.31" cy="115.24" r="3.41"/><circle class="cls-1" cx="97.1" cy="115.24" r="3.41"/><circle class="cls-1" cx="104.9" cy="115.24" r="3.41"/><circle class="cls-1" cx="112.7" cy="115.24" r="3.41"/><circle class="cls-1" cx="81.51" cy="123.36" r="3.41"/><circle class="cls-1" cx="89.31" cy="123.36" r="3.41"/><circle class="cls-1" cx="112.7" cy="123.36" r="3.41"/><circle class="cls-1" cx="81.51" cy="131.48" r="3.41"/><circle class="cls-1" cx="89.31" cy="131.48" r="3.41"/><circle class="cls-1" cx="112.7" cy="131.48" r="3.41"/><circle class="cls-1" cx="112.7" cy="148.69" r="3.41"/><circle class="cls-1" cx="89.31" cy="139.6" r="3.41"/><circle class="cls-1" cx="97.1" cy="139.6" r="3.41"/><circle class="cls-1" cx="104.9" cy="139.6" r="3.41"/><circle class="cls-1" cx="50.29" cy="66.73" r="3.41"/><circle class="cls-1" cx="58.08" cy="66.73" r="3.41"/><circle class="cls-1" cx="65.87" cy="66.73" r="3.41"/><circle class="cls-1" cx="73.66" cy="66.73" r="3.41"/><circle class="cls-1" cx="81.45" cy="66.73" r="3.41"/><circle class="cls-1" cx="89.24" cy="66.73" r="3.41"/><circle class="cls-1" cx="97.03" cy="66.73" r="3.41"/><circle class="cls-1" cx="104.82" cy="66.73" r="3.41"/><circle class="cls-1" cx="58.11" cy="18.95" r="3.41"/><circle class="cls-1" cx="65.9" cy="18.95" r="3.41"/><circle class="cls-1" cx="73.7" cy="18.95" r="3.41"/><circle class="cls-1" cx="81.5" cy="18.95" r="3.41"/><circle class="cls-1" cx="89.3" cy="18.95" r="3.41"/><circle class="cls-1" cx="97.09" cy="18.95" r="3.41"/><circle class="cls-1" cx="104.89" cy="18.95" r="3.41"/><circle class="cls-1" cx="112.69" cy="18.95" r="3.41"/><circle class="cls-1" cx="120.49" cy="18.95" r="3.41"/><circle class="cls-1" cx="58.11" cy="3.41" r="3.41"/><circle class="cls-1" cx="65.9" cy="3.41" r="3.41"/><circle class="cls-1" cx="73.7" cy="3.41" r="3.41"/><circle class="cls-1" cx="81.5" cy="3.41" r="3.41"/><circle class="cls-1" cx="89.3" cy="3.41" r="3.41"/><circle class="cls-1" cx="104.89" cy="3.41" r="3.41"/><circle class="cls-1" cx="112.69" cy="3.41" r="3.41"/></g></g></svg>