<?xml version="1.0" encoding="UTF-8"?><svg id="Capa_2" xmlns="http://www.w3.org/2000/svg" viewBox="0 0 11.15 15.05"><defs><style>.cls-1{fill:#fff;}.cls-2{fill:#8aa512;}</style></defs><g id="TRAZADO"><g><circle class="cls-1" cx="5.67" cy="5.64" r="4.7"/><path class="cls-2" d="M2.72,10.36l2.64,4.56c.04,.08,.13,.12,.21,.13,.09,0,.17-.05,.21-.13l2.64-4.56c2.65-1.57,3.51-5,1.94-7.64C8.79,.08,5.37-.79,2.72,.79,.08,2.36-.79,5.78,.79,8.43c.47,.8,1.14,1.46,1.94,1.94h0ZM5.57,1.74c2.12,0,3.84,1.72,3.84,3.84,0,2.12-1.72,3.84-3.84,3.84-2.12,0-3.84-1.72-3.84-3.84,0,0,0,0,0,0,0-2.12,1.72-3.84,3.84-3.84Z"/></g></g></svg>