<?xml version="1.0" encoding="UTF-8"?><svg id="Capa_2" xmlns="http://www.w3.org/2000/svg" viewBox="0 0 18.48 24.94"><defs><style>.cls-1{fill:#fff;}.cls-2{fill:#09612d;}.cls-3{fill:#8aa512;fill-rule:evenodd;}</style></defs><g id="TRAZADO"><g><circle class="cls-1" cx="9.39" cy="9.35" r="7.79"/><path class="cls-2" d="M4.5,17.17l4.38,7.56c.07,.13,.21,.21,.36,.21,.15,0,.28-.08,.36-.21l4.38-7.56c4.38-2.61,5.82-8.28,3.21-12.66C14.57,.13,8.9-1.31,4.51,1.3,.13,3.91-1.31,9.58,1.3,13.96c.79,1.32,1.89,2.43,3.21,3.21h-.01ZM9.23,2.89c3.52,0,6.37,2.85,6.37,6.37,0,3.52-2.85,6.37-6.37,6.37-3.52,0-6.37-2.85-6.37-6.37,0,0,0,0,0-.01,0-3.51,2.86-6.36,6.37-6.36Z"/><path class="cls-3" d="M10.31,10.84s.12,1.04-1.14,1.04c-.93,0-1.06-.86-1.06-.91v-1.3h3.94v-2.21s.1-2.34-2.98-2.34-2.67,3.32-2.67,3.32v2.67s.13,2.18,2.88,2.18,2.83-2.46,2.83-2.46h-1.79Zm-1.12-4.23c1.35,0,1.09,1.63,1.09,1.63h-2.13s-.31-1.63,1.04-1.63Z"/></g></g></svg>